<?xml version="1.0" encoding="utf-8"?>
<!-- Generator: Adobe Illustrator 19.0.0, SVG Export Plug-In . SVG Version: 6.00 Build 0)  -->
<svg version="1.1" id="Layer_1" xmlns="http://www.w3.org/2000/svg" xmlns:xlink="http://www.w3.org/1999/xlink" x="0px" y="0px"
	 viewBox="0 0 53 53" style="enable-background:new 0 0 53 53;" xml:space="preserve">
<style type="text/css">
	.st0{fill:#FFFFFF;}
</style>
<path id="XMLID_70_" class="st0" d="M-67.6,9.9v33.1c0,2.7-1,5.1-2.9,7c-1.9,1.9-4.3,2.9-7,2.9h-33.1c-2.7,0-5.1-1-7-2.9
	c-1.9-1.9-2.9-4.3-2.9-7V9.9c0-2.7,1-5.1,2.9-7s4.3-2.9,7-2.9h33.1c2.7,0,5.1,1,7,2.9S-67.6,7.2-67.6,9.9z M-76.4,16.6
	c-1.3,0.6-2.7,1-4.2,1.2c1.6-0.9,2.6-2.3,3.2-4c-1.5,0.9-3,1.5-4.6,1.8c-1.4-1.5-3.2-2.3-5.3-2.3c-2,0-3.7,0.7-5.1,2.1
	c-1.4,1.4-2.1,3.1-2.1,5.1c0,0.7,0.1,1.2,0.2,1.7c-3-0.2-5.8-0.9-8.3-2.2c-2.6-1.3-4.8-3.1-6.6-5.3c-0.7,1.2-1,2.4-1,3.7
	c0,2.6,1,4.6,3.1,6c-1.1,0-2.2-0.3-3.5-0.9v0.1c0,1.7,0.6,3.3,1.7,4.6c1.2,1.3,2.6,2.2,4.2,2.5c-0.7,0.2-1.3,0.3-1.8,0.3
	c-0.3,0-0.7,0-1.3-0.1c0.5,1.4,1.3,2.6,2.6,3.6c1.2,0.9,2.6,1.4,4.2,1.4c-2.7,2.1-5.7,3.1-9,3.1c-0.6,0-1.2,0-1.7-0.1
	c3.4,2.2,7.1,3.2,11.1,3.2c2.6,0,5-0.4,7.2-1.2c2.3-0.8,4.2-1.9,5.8-3.3c1.6-1.4,3-2.9,4.2-4.7c1.2-1.8,2-3.6,2.6-5.6
	c0.6-1.9,0.8-3.9,0.8-5.8c0-0.4,0-0.7,0-0.9C-78.6,19.4-77.4,18.1-76.4,16.6z"/>
<path id="XMLID_86_" class="st0" d="M43.1,0c2.7,0,5.1,1,7,2.9C52,4.9,53,7.2,53,9.9v33.1c0,2.7-1,5.1-2.9,7c-1.9,1.9-4.3,2.9-7,2.9
	h-6.5V32.5h6.9l1-8h-7.9v-5.1c0-1.3,0.3-2.3,0.8-2.9c0.5-0.6,1.6-1,3.2-1l4.2,0V8.3C43.3,8.1,41.3,8,38.6,8c-3.1,0-5.6,0.9-7.5,2.8
	c-1.9,1.8-2.8,4.4-2.8,7.8v5.9h-6.9v8h6.9V53H9.9c-2.7,0-5.1-1-7-2.9C1,48.1,0,45.8,0,43.1V9.9c0-2.7,1-5.1,2.9-7C4.9,1,7.2,0,9.9,0
	H43.1z"/>
<path id="XMLID_203_" class="st0" d="M179.8,6.8v39.4c0,1.9-0.7,3.5-2,4.8c-1.3,1.3-2.9,2-4.8,2h-39.4c-1.9,0-3.5-0.7-4.8-2
	c-1.3-1.3-2-2.9-2-4.8V6.8c0-1.9,0.7-3.5,2-4.8c1.3-1.3,2.9-2,4.8-2H173c1.9,0,3.5,0.7,4.8,2C179.1,3.3,179.8,4.9,179.8,6.8z
	 M173.8,44.8V22.4h-4.7c0.5,1.4,0.7,3,0.7,4.5c0,2.9-0.7,5.6-2.2,8c-1.5,2.4-3.5,4.4-6,5.8c-2.5,1.4-5.3,2.1-8.3,2.1
	c-4.5,0-8.4-1.6-11.6-4.7c-3.2-3.1-4.8-6.9-4.8-11.3c0-1.6,0.2-3.1,0.7-4.5h-4.9v22.4c0,0.6,0.2,1.1,0.6,1.5
	c0.4,0.4,0.9,0.6,1.5,0.6h36.9c0.6,0,1.1-0.2,1.5-0.6C173.6,45.9,173.8,45.4,173.8,44.8z M160.8,33.7c2.1-2,3.1-4.4,3.1-7.3
	s-1-5.3-3.1-7.3c-2.1-2-4.6-3-7.5-3c-2.9,0-5.4,1-7.5,3s-3.1,4.4-3.1,7.3s1,5.3,3.1,7.3s4.6,3,7.5,3
	C156.2,36.7,158.8,35.7,160.8,33.7z M173.8,14V8.3c0-0.6-0.2-1.2-0.7-1.7c-0.5-0.5-1-0.7-1.7-0.7h-6c-0.7,0-1.2,0.2-1.7,0.7
	c-0.5,0.5-0.7,1-0.7,1.7V14c0,0.7,0.2,1.2,0.7,1.7c0.5,0.5,1,0.7,1.7,0.7h6c0.7,0,1.2-0.2,1.7-0.7C173.5,15.2,173.8,14.6,173.8,14z"
	/>
</svg>
