<?xml version="1.0" encoding="utf-8"?>
<!-- Generator: Adobe Illustrator 19.0.0, SVG Export Plug-In . SVG Version: 6.00 Build 0)  -->
<svg version="1.1" id="Layer_1" xmlns="http://www.w3.org/2000/svg" xmlns:xlink="http://www.w3.org/1999/xlink" x="0px" y="0px"
	 viewBox="0 0 800 800" style="enable-background:new 0 0 800 800;" xml:space="preserve">
<g id="XMLID_1_">
	<g id="XMLID_137_">
		<path id="XMLID_236_" d="M674,472.7l-46.2-224.7l-118,24.3l-22-37.5l-180.2,79.1l-130.3,26.8l5.7,27.9l-57,25l94.2,156.1l3.2,15.7
			L674,472.7z M479.9,258.7l10.2,17.5L396,295.6L479.9,258.7z M613,270.3L651.6,458l-413.4,85l-38.6-187.7L613,270.3z M153.3,402.1
			l33.6-14.7l21.9,106.7L153.3,402.1z"/>
		
			<rect id="XMLID_235_" x="402.8" y="152.8" transform="matrix(0.2015 0.9795 -0.9795 0.2015 664.0246 -130.8793)" width="18.9" height="378"/>
		
			<rect id="XMLID_234_" x="413.2" y="317.5" transform="matrix(0.2015 0.9795 -0.9795 0.2015 700.0013 -110.3027)" width="8.8" height="113.4"/>
		
			<rect id="XMLID_233_" x="418.3" y="342.2" transform="matrix(0.2015 0.9795 -0.9795 0.2015 728.2326 -95.5671)" width="8.8" height="113.4"/>
		
			<rect id="XMLID_232_" x="423.4" y="366.8" transform="matrix(0.2015 0.9795 -0.9795 0.2015 756.4639 -80.8315)" width="8.8" height="113.4"/>
		
			<rect id="XMLID_154_" x="428.5" y="391.5" transform="matrix(0.2015 0.9795 -0.9795 0.2015 784.6942 -66.0946)" width="8.8" height="113.4"/>
		
			<rect id="XMLID_153_" x="433.6" y="416.2" transform="matrix(0.2015 0.9795 -0.9795 0.2015 812.9254 -51.359)" width="8.8" height="113.4"/>
		
			<rect id="XMLID_152_" x="544.1" y="290.6" transform="matrix(0.2015 0.9795 -0.9795 0.2015 778.1027 -259.9263)" width="8.8" height="113.4"/>
		
			<rect id="XMLID_151_" x="549.1" y="315.2" transform="matrix(0.2015 0.9795 -0.9795 0.2015 806.334 -245.1906)" width="8.8" height="113.4"/>
		
			<rect id="XMLID_148_" x="554.2" y="339.9" transform="matrix(0.2015 0.9795 -0.9795 0.2015 834.5643 -230.4538)" width="8.8" height="113.4"/>
		
			<rect id="XMLID_143_" x="559.3" y="364.6" transform="matrix(0.2015 0.9795 -0.9795 0.2015 862.7955 -215.7181)" width="8.8" height="113.4"/>
		
			<rect id="XMLID_142_" x="564.4" y="389.3" transform="matrix(0.2015 0.9795 -0.9795 0.2015 891.0268 -200.9825)" width="8.8" height="113.4"/>
	</g>
	<g id="XMLID_138_">
		<g id="XMLID_516_">
			<path id="XMLID_523_" d="M290.3,435.5l-3.3-15.1l15.1-3.3l3.3,15.1L290.3,435.5z"/>
		</g>
		<g id="XMLID_513_">
			<path id="XMLID_514_" d="M271.9,423.6l-3.3-15.1l15.1-3.3l3.3,15.1L271.9,423.6z"/>
		</g>
		<g id="XMLID_510_">
			<path id="XMLID_511_" d="M256.8,426.9l-3.3-15.1l15.1-3.3l3.3,15.1L256.8,426.9z"/>
		</g>
		<g id="XMLID_507_">
			<path id="XMLID_508_" d="M244.9,445.3l-3.3-15.1l15.1-3.3L260,442L244.9,445.3z"/>
		</g>
		<g id="XMLID_383_">
			<path id="XMLID_502_" d="M248.2,460.4l-3.3-15.1L260,442l3.3,15.1L248.2,460.4z"/>
		</g>
		<g id="XMLID_380_">
			<path id="XMLID_381_" d="M266.5,472.3l-3.3-15.1l15.1-3.3l3.3,15.1L266.5,472.3z"/>
		</g>
		<g id="XMLID_377_">
			<path id="XMLID_378_" d="M285,484.2l-3.3-15.1l15.1-3.3l3.3,15.1L285,484.2z"/>
		</g>
		<g id="XMLID_374_">
			<path id="XMLID_375_" d="M303.3,496l-3.3-15.1l15.1-3.3l3.3,15.1L303.3,496z"/>
		</g>
		<g id="XMLID_371_">
			<path id="XMLID_372_" d="M302.1,417.1l-3.3-15.1l15.1-3.3l3.3,15.1L302.1,417.1z"/>
		</g>
		<g id="XMLID_368_">
			<path id="XMLID_369_" d="M317.3,413.9l-3.3-15.1l15.1-3.3l3.3,15.1L317.3,413.9z"/>
		</g>
		<g id="XMLID_363_">
			<path id="XMLID_366_" d="M335.6,425.7l-3.3-15.1l15.1-3.3l3.3,15.1L335.6,425.7z"/>
		</g>
		<g id="XMLID_360_">
			<path id="XMLID_361_" d="M338.9,440.9l-3.3-15.1l15.1-3.3l3.3,15.1L338.9,440.9z"/>
		</g>
		<g id="XMLID_357_">
			<path id="XMLID_358_" d="M327,459.2l-3.3-15.1l15.1-3.3l3.3,15.1L327,459.2z"/>
		</g>
		<g id="XMLID_273_">
			<path id="XMLID_355_" d="M315.1,477.7l-3.3-15.1l15.1-3.3l3.3,15.1L315.1,477.7z"/>
		</g>
	</g>
</g>
</svg>
