<?xml version="1.0" encoding="utf-8"?>
<!-- Generator: Adobe Illustrator 19.0.0, SVG Export Plug-In . SVG Version: 6.00 Build 0)  -->
<svg version="1.1" id="Layer_1" xmlns="http://www.w3.org/2000/svg" xmlns:xlink="http://www.w3.org/1999/xlink" x="0px" y="0px"
	 viewBox="0 0 800 800" style="enable-background:new 0 0 800 800;" xml:space="preserve">
<style type="text/css">
	.st0{fill:none;stroke:#000000;stroke-width:12;stroke-miterlimit:10;}
	.st1{fill:none;stroke:#000000;stroke-width:16;stroke-miterlimit:10;}
	.st2{fill:#FFFFFF;stroke:#000000;stroke-width:16;stroke-miterlimit:10;}
	.st3{stroke:#FFFFFF;stroke-width:4;stroke-miterlimit:10;}
	.st4{fill:none;stroke:#000000;stroke-width:4;stroke-miterlimit:10;}
</style>
<rect id="XMLID_898_" x="-3469.7" y="185.9" width="12.3" height="12.3"/>
<rect id="XMLID_897_" x="-3469.7" y="259.6" width="12.3" height="12.3"/>
<polygon id="XMLID_896_" points="-3482,185.9 -3469.7,185.9 -3469.7,173.6 -3482,173.6 -3494.3,173.6 -3506.6,173.6 -3506.6,185.9 
	-3494.3,185.9 "/>
<rect id="XMLID_895_" x="-3482" y="247.3" width="12.3" height="12.3"/>
<rect id="XMLID_894_" x="-3457.5" y="247.3" width="12.3" height="12.3"/>
<rect id="XMLID_893_" x="-3494.3" y="235" width="12.3" height="12.3"/>
<rect id="XMLID_892_" x="-3445.2" y="235" width="12.3" height="12.3"/>
<rect id="XMLID_891_" x="-3506.6" y="222.8" width="12.3" height="12.3"/>
<rect id="XMLID_890_" x="-3432.9" y="222.8" width="12.3" height="12.3"/>
<polygon id="XMLID_889_" points="-3432.9,185.9 -3420.6,185.9 -3420.6,173.6 -3432.9,173.6 -3445.2,173.6 -3457.5,173.6 
	-3457.5,185.9 -3445.2,185.9 "/>
<polygon id="XMLID_888_" points="-3506.6,198.2 -3506.6,185.9 -3518.9,185.9 -3518.9,198.2 -3518.9,210.5 -3518.9,222.8 
	-3506.6,222.8 -3506.6,210.5 "/>
<polygon id="XMLID_887_" points="-3420.6,185.9 -3420.6,198.2 -3420.6,210.5 -3420.6,222.8 -3408.3,222.8 -3408.3,210.5 
	-3408.3,198.2 -3408.3,185.9 "/>
<rect id="XMLID_1_" x="-3469.7" y="215.9" width="12.3" height="12.3"/>
<rect id="XMLID_4_" x="-3334.5" y="290.8" width="12.3" height="12.3"/>
<g id="XMLID_2_">
	<polygon id="XMLID_5_" class="st0" points="-2741.7,447.4 -2741.7,307 -2948.3,307 -2948.3,447.4 -2922.3,447.4 -2922.3,493 
		-2885,447.4 	"/>
	<line id="XMLID_6_" class="st0" x1="-2920.8" y1="341.3" x2="-2770.4" y2="341.3"/>
	<line id="XMLID_7_" class="st0" x1="-2920.8" y1="375.4" x2="-2770.4" y2="375.4"/>
	<line id="XMLID_8_" class="st0" x1="-2920.8" y1="408.4" x2="-2770.4" y2="408.4"/>
</g>
<g id="XMLID_454_">
	<rect id="XMLID_345_" x="-778.8" y="275.5" class="st0" width="230" height="274.6"/>
	<rect id="XMLID_344_" x="-754" y="385.5" class="st0" width="52" height="52"/>
	<rect id="XMLID_343_" x="-754" y="303.5" class="st0" width="52" height="52"/>
	<rect id="XMLID_342_" x="-754" y="467.5" class="st0" width="52" height="52"/>
	<line id="XMLID_341_" class="st0" x1="-678" y1="305.5" x2="-572" y2="305.5"/>
	<line id="XMLID_340_" class="st0" x1="-678" y1="387.5" x2="-572" y2="387.5"/>
	<line id="XMLID_339_" class="st0" x1="-678" y1="469.5" x2="-572" y2="469.5"/>
	<line id="XMLID_338_" class="st0" x1="-678" y1="329.5" x2="-572" y2="329.5"/>
	<line id="XMLID_337_" class="st0" x1="-678" y1="411.5" x2="-572" y2="411.5"/>
	<line id="XMLID_336_" class="st0" x1="-678" y1="493.5" x2="-572" y2="493.5"/>
	<line id="XMLID_335_" class="st0" x1="-678" y1="353.5" x2="-602" y2="353.5"/>
	<line id="XMLID_334_" class="st0" x1="-678" y1="435.5" x2="-602" y2="435.5"/>
	<line id="XMLID_333_" class="st0" x1="-678" y1="517.5" x2="-602" y2="517.5"/>
	<polyline id="XMLID_472_" class="st0" points="-741.9,316.9 -728,335.4 -670.4,249.8 	"/>
</g>
<g id="XMLID_18_">
	<line id="XMLID_17_" class="st0" x1="313.4" y1="357.6" x2="479.5" y2="418.6"/>
	<polyline id="XMLID_20_" class="st0" points="512.5,448 527.6,406.8 552,396.3 329.2,314.5 305,380.5 492.1,449.2 510,400.4 	"/>
	<line id="XMLID_14_" class="st0" x1="330.7" y1="400.6" x2="384.6" y2="420.4"/>
	<polyline id="XMLID_19_" class="st0" points="357.6,410.5 340.2,458 274.4,458 	"/>
	<path id="XMLID_9_" class="st0" d="M554.2,459.9"/>
	<line id="XMLID_24_" class="st0" x1="274.4" y1="430.5" x2="274.4" y2="485.5"/>
</g>
<g id="XMLID_952_">
	<path id="XMLID_129_" class="st1" d="M1412.2,343.6"/>
	<path id="XMLID_128_" class="st1" d="M1510.3,343.6L1510.3,343.6c0-18.2-14.8-33-33-33h-32.2c-18.2,0-33,14.8-33,33v47.5h98.1"/>
	<rect id="XMLID_64_" x="1392.8" y="383.8" class="st2" width="136.9" height="105.6"/>
	<rect id="XMLID_63_" x="1449.3" y="408.2" class="st3" width="23.8" height="55.7"/>
</g>
<g id="XMLID_561_">
	<g id="XMLID_559_">
		<polygon id="XMLID_560_" class="st0" points="-1797,438.7 -1653.7,438.7 -1653.7,298.3 -1860.3,298.3 -1860.3,438.7 
			-1834.3,438.7 		"/>
	</g>
	<g id="XMLID_557_">
		<polygon id="XMLID_558_" class="st0" points="-1797,501.7 -1653.7,501.7 -1673.7,461.3 -1840.3,461.3 -1860.3,501.7 
			-1834.3,501.7 		"/>
	</g>
	<path id="XMLID_556_" class="st4" d="M-1742.4,390.2c7-4.7,11.6-12.7,11.6-21.7c0-9.2-4.8-17.4-12-22"/>
	<path id="XMLID_555_" class="st4" d="M-1771.2,346.5c-7.2,4.7-12,12.8-12,22c0,9,4.6,17,11.6,21.7"/>
	<path id="XMLID_554_" class="st4" d="M-1733.7,403.6c11.4-7.5,18.8-20.4,18.8-35.1c0-14.8-7.6-27.8-19.2-35.3"/>
	<path id="XMLID_553_" class="st4" d="M-1779.9,333.2c-11.5,7.5-19.2,20.5-19.2,35.3c0,14.6,7.5,27.5,18.8,35.1"/>
	<path id="XMLID_552_" class="st4" d="M-1725.2,416.6c15.6-10.3,25.9-28,25.9-48.2c0-20.3-10.4-38.1-26.2-48.4"/>
	<path id="XMLID_551_" class="st4" d="M-1788.5,320.1c-15.8,10.3-26.2,28.1-26.2,48.4c0,20.1,10.3,37.8,25.9,48.2"/>
	<g id="XMLID_538_">
		<rect id="XMLID_550_" x="-1758.6" y="361.6" width="3.2" height="3.2"/>
		<rect id="XMLID_549_" x="-1758.6" y="380.8" width="3.2" height="3.2"/>
		<polygon id="XMLID_548_" points="-1761.8,361.6 -1758.6,361.6 -1758.6,358.4 -1761.8,358.4 -1765,358.4 -1768.2,358.4 
			-1768.2,361.6 -1765,361.6 		"/>
		<rect id="XMLID_547_" x="-1761.8" y="377.6" width="3.2" height="3.2"/>
		<rect id="XMLID_546_" x="-1755.4" y="377.6" width="3.2" height="3.2"/>
		<rect id="XMLID_545_" x="-1765" y="374.4" width="3.2" height="3.2"/>
		<rect id="XMLID_544_" x="-1752.2" y="374.4" width="3.2" height="3.2"/>
		<rect id="XMLID_543_" x="-1768.2" y="371.2" width="3.2" height="3.2"/>
		<rect id="XMLID_542_" x="-1749" y="371.2" width="3.2" height="3.2"/>
		<polygon id="XMLID_541_" points="-1749,361.6 -1745.8,361.6 -1745.8,358.4 -1749,358.4 -1752.2,358.4 -1755.4,358.4 
			-1755.4,361.6 -1752.2,361.6 		"/>
		<polygon id="XMLID_540_" points="-1768.2,364.8 -1768.2,361.6 -1771.4,361.6 -1771.4,364.8 -1771.4,368 -1771.4,371.2 
			-1768.2,371.2 -1768.2,368 		"/>
		<polygon id="XMLID_539_" points="-1745.8,361.6 -1745.8,364.8 -1745.8,368 -1745.8,371.2 -1742.6,371.2 -1742.6,368 
			-1742.6,364.8 -1742.6,361.6 		"/>
	</g>
</g>
</svg>
