<?xml version="1.0" encoding="utf-8"?>
<!-- Generator: Adobe Illustrator 19.0.0, SVG Export Plug-In . SVG Version: 6.00 Build 0)  -->
<svg version="1.1" id="Layer_1" xmlns="http://www.w3.org/2000/svg" xmlns:xlink="http://www.w3.org/1999/xlink" x="0px" y="0px"
	 viewBox="0 0 800 800" style="enable-background:new 0 0 800 800;" xml:space="preserve">
<style type="text/css">
	.st0{fill:none;stroke:#000000;stroke-width:12;stroke-miterlimit:10;}
	.st1{fill:none;stroke:#000000;stroke-width:16;stroke-miterlimit:10;}
	.st2{fill:#FFFFFF;stroke:#000000;stroke-width:16;stroke-miterlimit:10;}
	.st3{stroke:#FFFFFF;stroke-width:4;stroke-miterlimit:10;}
	.st4{fill:none;stroke:#000000;stroke-width:4;stroke-miterlimit:10;}
</style>
<rect id="XMLID_898_" x="-4531" y="185.9" width="12.3" height="12.3"/>
<rect id="XMLID_897_" x="-4531" y="259.6" width="12.3" height="12.3"/>
<polygon id="XMLID_896_" points="-4543.3,185.9 -4531,185.9 -4531,173.6 -4543.3,173.6 -4555.6,173.6 -4567.9,173.6 -4567.9,185.9 
	-4555.6,185.9 "/>
<rect id="XMLID_895_" x="-4543.3" y="247.3" width="12.3" height="12.3"/>
<rect id="XMLID_894_" x="-4518.7" y="247.3" width="12.3" height="12.3"/>
<rect id="XMLID_893_" x="-4555.6" y="235" width="12.3" height="12.3"/>
<rect id="XMLID_892_" x="-4506.4" y="235" width="12.3" height="12.3"/>
<rect id="XMLID_891_" x="-4567.9" y="222.8" width="12.3" height="12.3"/>
<rect id="XMLID_890_" x="-4494.1" y="222.8" width="12.3" height="12.3"/>
<polygon id="XMLID_889_" points="-4494.1,185.9 -4481.8,185.9 -4481.8,173.6 -4494.1,173.6 -4506.4,173.6 -4518.7,173.6 
	-4518.7,185.9 -4506.4,185.9 "/>
<polygon id="XMLID_888_" points="-4567.9,198.2 -4567.9,185.9 -4580.1,185.9 -4580.1,198.2 -4580.1,210.5 -4580.1,222.8 
	-4567.9,222.8 -4567.9,210.5 "/>
<polygon id="XMLID_887_" points="-4481.8,185.9 -4481.8,198.2 -4481.8,210.5 -4481.8,222.8 -4469.6,222.8 -4469.6,210.5 
	-4469.6,198.2 -4469.6,185.9 "/>
<rect id="XMLID_1_" x="-4531" y="215.9" width="12.3" height="12.3"/>
<rect id="XMLID_4_" x="-4395.8" y="290.8" width="12.3" height="12.3"/>
<g id="XMLID_2_">
	<polygon id="XMLID_5_" class="st0" points="-3802.9,447.4 -3802.9,307 -4009.6,307 -4009.6,447.4 -3983.6,447.4 -3983.6,493 
		-3946.3,447.4 	"/>
	<line id="XMLID_6_" class="st0" x1="-3982" y1="341.3" x2="-3831.7" y2="341.3"/>
	<line id="XMLID_7_" class="st0" x1="-3982" y1="375.4" x2="-3831.7" y2="375.4"/>
	<line id="XMLID_8_" class="st0" x1="-3982" y1="408.4" x2="-3831.7" y2="408.4"/>
</g>
<g id="XMLID_454_">
	<rect id="XMLID_345_" x="-1840.1" y="275.5" class="st0" width="230" height="274.6"/>
	<rect id="XMLID_344_" x="-1815.3" y="385.5" class="st0" width="52" height="52"/>
	<rect id="XMLID_343_" x="-1815.3" y="303.5" class="st0" width="52" height="52"/>
	<rect id="XMLID_342_" x="-1815.3" y="467.5" class="st0" width="52" height="52"/>
	<line id="XMLID_341_" class="st0" x1="-1739.3" y1="305.5" x2="-1633.3" y2="305.5"/>
	<line id="XMLID_340_" class="st0" x1="-1739.3" y1="387.5" x2="-1633.3" y2="387.5"/>
	<line id="XMLID_339_" class="st0" x1="-1739.3" y1="469.5" x2="-1633.3" y2="469.5"/>
	<line id="XMLID_338_" class="st0" x1="-1739.3" y1="329.5" x2="-1633.3" y2="329.5"/>
	<line id="XMLID_337_" class="st0" x1="-1739.3" y1="411.5" x2="-1633.3" y2="411.5"/>
	<line id="XMLID_336_" class="st0" x1="-1739.3" y1="493.5" x2="-1633.3" y2="493.5"/>
	<line id="XMLID_335_" class="st0" x1="-1739.3" y1="353.5" x2="-1663.3" y2="353.5"/>
	<line id="XMLID_334_" class="st0" x1="-1739.3" y1="435.5" x2="-1663.3" y2="435.5"/>
	<line id="XMLID_333_" class="st0" x1="-1739.3" y1="517.5" x2="-1663.3" y2="517.5"/>
	<polyline id="XMLID_472_" class="st0" points="-1803.2,316.9 -1789.3,335.4 -1731.7,249.8 	"/>
</g>
<g id="XMLID_18_">
	<line id="XMLID_17_" class="st0" x1="-747.9" y1="357.6" x2="-581.7" y2="418.6"/>
	<polyline id="XMLID_20_" class="st0" points="-548.8,448 -533.7,406.8 -509.2,396.3 -732,314.5 -756.3,380.5 -569.1,449.2 
		-551.2,400.4 	"/>
	<line id="XMLID_14_" class="st0" x1="-730.6" y1="400.6" x2="-676.6" y2="420.4"/>
	<polyline id="XMLID_19_" class="st0" points="-703.6,410.5 -721.1,458 -786.8,458 	"/>
	<path id="XMLID_9_" class="st0" d="M-507,459.9"/>
	<line id="XMLID_24_" class="st0" x1="-786.8" y1="430.5" x2="-786.8" y2="485.5"/>
</g>
<g id="XMLID_952_">
	<path id="XMLID_129_" class="st1" d="M350.9,343.6"/>
	<path id="XMLID_128_" class="st1" d="M449.1,343.6L449.1,343.6c0-18.2-14.8-33-33-33h-32.2c-18.2,0-33,14.8-33,33v47.5h98.1"/>
	<rect id="XMLID_64_" x="331.5" y="383.8" class="st2" width="136.9" height="105.6"/>
	<rect id="XMLID_63_" x="388.1" y="408.2" class="st3" width="23.8" height="55.7"/>
</g>
<g id="XMLID_561_">
	<g id="XMLID_559_">
		<polygon id="XMLID_560_" class="st0" points="-2858.3,438.7 -2714.9,438.7 -2714.9,298.3 -2921.6,298.3 -2921.6,438.7 
			-2895.6,438.7 		"/>
	</g>
	<g id="XMLID_557_">
		<polygon id="XMLID_558_" class="st0" points="-2858.3,501.7 -2714.9,501.7 -2734.9,461.3 -2901.6,461.3 -2921.6,501.7 
			-2895.6,501.7 		"/>
	</g>
	<path id="XMLID_556_" class="st4" d="M-2803.6,390.2c7-4.7,11.6-12.7,11.6-21.7c0-9.2-4.8-17.4-12-22"/>
	<path id="XMLID_555_" class="st4" d="M-2832.5,346.5c-7.2,4.7-12,12.8-12,22c0,9,4.6,17,11.6,21.7"/>
	<path id="XMLID_554_" class="st4" d="M-2795,403.6c11.4-7.5,18.8-20.4,18.8-35.1c0-14.8-7.6-27.8-19.2-35.3"/>
	<path id="XMLID_553_" class="st4" d="M-2841.2,333.2c-11.5,7.5-19.2,20.5-19.2,35.3c0,14.6,7.5,27.5,18.8,35.1"/>
	<path id="XMLID_552_" class="st4" d="M-2786.4,416.6c15.6-10.3,25.9-28,25.9-48.2c0-20.3-10.4-38.1-26.2-48.4"/>
	<path id="XMLID_551_" class="st4" d="M-2849.7,320.1c-15.8,10.3-26.2,28.1-26.2,48.4c0,20.1,10.3,37.8,25.9,48.2"/>
	<g id="XMLID_538_">
		<rect id="XMLID_550_" x="-2819.9" y="361.6" width="3.2" height="3.2"/>
		<rect id="XMLID_549_" x="-2819.9" y="380.8" width="3.2" height="3.2"/>
		<polygon id="XMLID_548_" points="-2823,361.6 -2819.9,361.6 -2819.9,358.4 -2823,358.4 -2826.2,358.4 -2829.4,358.4 
			-2829.4,361.6 -2826.2,361.6 		"/>
		<rect id="XMLID_547_" x="-2823" y="377.6" width="3.2" height="3.2"/>
		<rect id="XMLID_546_" x="-2816.7" y="377.6" width="3.2" height="3.2"/>
		<rect id="XMLID_545_" x="-2826.2" y="374.4" width="3.2" height="3.2"/>
		<rect id="XMLID_544_" x="-2813.5" y="374.4" width="3.2" height="3.2"/>
		<rect id="XMLID_543_" x="-2829.4" y="371.2" width="3.2" height="3.2"/>
		<rect id="XMLID_542_" x="-2810.3" y="371.2" width="3.2" height="3.2"/>
		<polygon id="XMLID_541_" points="-2810.3,361.6 -2807.1,361.6 -2807.1,358.4 -2810.3,358.4 -2813.5,358.4 -2816.7,358.4 
			-2816.7,361.6 -2813.5,361.6 		"/>
		<polygon id="XMLID_540_" points="-2829.4,364.8 -2829.4,361.6 -2832.6,361.6 -2832.6,364.8 -2832.6,368 -2832.6,371.2 
			-2829.4,371.2 -2829.4,368 		"/>
		<polygon id="XMLID_539_" points="-2807.1,361.6 -2807.1,364.8 -2807.1,368 -2807.1,371.2 -2803.9,371.2 -2803.9,368 
			-2803.9,364.8 -2803.9,361.6 		"/>
	</g>
</g>
</svg>
