<?xml version="1.0" encoding="utf-8"?>
<!-- Generator: Adobe Illustrator 19.0.0, SVG Export Plug-In . SVG Version: 6.00 Build 0)  -->
<svg version="1.1" id="Layer_1" xmlns="http://www.w3.org/2000/svg" xmlns:xlink="http://www.w3.org/1999/xlink" x="0px" y="0px"
	 viewBox="0 0 800 800" style="enable-background:new 0 0 800 800;" xml:space="preserve">
<style type="text/css">
	.st0{fill:none;stroke:#000000;stroke-width:12;stroke-miterlimit:10;}
	.st1{fill:none;stroke:#000000;stroke-width:16;stroke-miterlimit:10;}
	.st2{fill:#FFFFFF;stroke:#000000;stroke-width:16;stroke-miterlimit:10;}
	.st3{stroke:#FFFFFF;stroke-width:4;stroke-miterlimit:10;}
	.st4{fill:none;stroke:#000000;stroke-width:4;stroke-miterlimit:10;}
</style>
<rect id="XMLID_898_" x="-2405.9" y="185.9" width="12.3" height="12.3"/>
<rect id="XMLID_897_" x="-2405.9" y="259.6" width="12.3" height="12.3"/>
<polygon id="XMLID_896_" points="-2418.2,185.9 -2405.9,185.9 -2405.9,173.6 -2418.2,173.6 -2430.5,173.6 -2442.8,173.6 
	-2442.8,185.9 -2430.5,185.9 "/>
<rect id="XMLID_895_" x="-2418.2" y="247.3" width="12.3" height="12.3"/>
<rect id="XMLID_894_" x="-2393.7" y="247.3" width="12.3" height="12.3"/>
<rect id="XMLID_893_" x="-2430.5" y="235" width="12.3" height="12.3"/>
<rect id="XMLID_892_" x="-2381.4" y="235" width="12.3" height="12.3"/>
<rect id="XMLID_891_" x="-2442.8" y="222.8" width="12.3" height="12.3"/>
<rect id="XMLID_890_" x="-2369.1" y="222.8" width="12.3" height="12.3"/>
<polygon id="XMLID_889_" points="-2369.1,185.9 -2356.8,185.9 -2356.8,173.6 -2369.1,173.6 -2381.4,173.6 -2393.7,173.6 
	-2393.7,185.9 -2381.4,185.9 "/>
<polygon id="XMLID_888_" points="-2442.8,198.2 -2442.8,185.9 -2455.1,185.9 -2455.1,198.2 -2455.1,210.5 -2455.1,222.8 
	-2442.8,222.8 -2442.8,210.5 "/>
<polygon id="XMLID_887_" points="-2356.8,185.9 -2356.8,198.2 -2356.8,210.5 -2356.8,222.8 -2344.5,222.8 -2344.5,210.5 
	-2344.5,198.2 -2344.5,185.9 "/>
<rect id="XMLID_1_" x="-2405.9" y="215.9" width="12.3" height="12.3"/>
<rect id="XMLID_4_" x="-2270.7" y="290.8" width="12.3" height="12.3"/>
<g id="XMLID_2_">
	<polygon id="XMLID_5_" class="st0" points="-1677.9,447.4 -1677.9,307 -1884.5,307 -1884.5,447.4 -1858.5,447.4 -1858.5,493 
		-1821.2,447.4 	"/>
	<line id="XMLID_6_" class="st0" x1="-1857" y1="341.3" x2="-1706.6" y2="341.3"/>
	<line id="XMLID_7_" class="st0" x1="-1857" y1="375.4" x2="-1706.6" y2="375.4"/>
	<line id="XMLID_8_" class="st0" x1="-1857" y1="408.4" x2="-1706.6" y2="408.4"/>
</g>
<g id="XMLID_454_">
	<rect id="XMLID_345_" x="285" y="275.5" class="st0" width="230" height="274.6"/>
	<rect id="XMLID_344_" x="309.7" y="385.5" class="st0" width="52" height="52"/>
	<rect id="XMLID_343_" x="309.7" y="303.5" class="st0" width="52" height="52"/>
	<rect id="XMLID_342_" x="309.7" y="467.5" class="st0" width="52" height="52"/>
	<line id="XMLID_341_" class="st0" x1="385.7" y1="305.5" x2="491.7" y2="305.5"/>
	<line id="XMLID_340_" class="st0" x1="385.7" y1="387.5" x2="491.7" y2="387.5"/>
	<line id="XMLID_339_" class="st0" x1="385.7" y1="469.5" x2="491.7" y2="469.5"/>
	<line id="XMLID_338_" class="st0" x1="385.7" y1="329.5" x2="491.7" y2="329.5"/>
	<line id="XMLID_337_" class="st0" x1="385.7" y1="411.5" x2="491.7" y2="411.5"/>
	<line id="XMLID_336_" class="st0" x1="385.7" y1="493.5" x2="491.7" y2="493.5"/>
	<line id="XMLID_335_" class="st0" x1="385.7" y1="353.5" x2="461.7" y2="353.5"/>
	<line id="XMLID_334_" class="st0" x1="385.7" y1="435.5" x2="461.7" y2="435.5"/>
	<line id="XMLID_333_" class="st0" x1="385.7" y1="517.5" x2="461.7" y2="517.5"/>
	<polyline id="XMLID_472_" class="st0" points="321.9,316.9 335.7,335.4 393.4,249.8 	"/>
</g>
<g id="XMLID_18_">
	<line id="XMLID_17_" class="st0" x1="1377.2" y1="357.6" x2="1543.3" y2="418.6"/>
	<polyline id="XMLID_20_" class="st0" points="1576.3,448 1591.4,406.8 1615.8,396.3 1393,314.5 1368.8,380.5 1555.9,449.2 
		1573.8,400.4 	"/>
	<line id="XMLID_14_" class="st0" x1="1394.4" y1="400.6" x2="1448.4" y2="420.4"/>
	<polyline id="XMLID_19_" class="st0" points="1421.4,410.5 1404,458 1338.2,458 	"/>
	<path id="XMLID_9_" class="st0" d="M1618,459.9"/>
	<line id="XMLID_24_" class="st0" x1="1338.2" y1="430.5" x2="1338.2" y2="485.5"/>
</g>
<g id="XMLID_952_">
	<path id="XMLID_129_" class="st1" d="M2476,343.6"/>
	<path id="XMLID_128_" class="st1" d="M2574.1,343.6L2574.1,343.6c0-18.2-14.8-33-33-33H2509c-18.2,0-33,14.8-33,33v47.5h98.1"/>
	<rect id="XMLID_64_" x="2456.6" y="383.8" class="st2" width="136.9" height="105.6"/>
	<rect id="XMLID_63_" x="2513.1" y="408.2" class="st3" width="23.8" height="55.7"/>
</g>
<g id="XMLID_561_">
	<g id="XMLID_559_">
		<polygon id="XMLID_560_" class="st0" points="-733.2,438.7 -589.9,438.7 -589.9,298.3 -796.5,298.3 -796.5,438.7 -770.5,438.7 		
			"/>
	</g>
	<g id="XMLID_557_">
		<polygon id="XMLID_558_" class="st0" points="-733.2,501.7 -589.9,501.7 -609.9,461.3 -776.5,461.3 -796.5,501.7 -770.5,501.7 		
			"/>
	</g>
	<path id="XMLID_556_" class="st4" d="M-678.6,390.2c7-4.7,11.6-12.7,11.6-21.7c0-9.2-4.8-17.4-12-22"/>
	<path id="XMLID_555_" class="st4" d="M-707.4,346.5c-7.2,4.7-12,12.8-12,22c0,9,4.6,17,11.6,21.7"/>
	<path id="XMLID_554_" class="st4" d="M-669.9,403.6c11.4-7.5,18.8-20.4,18.8-35.1c0-14.8-7.6-27.8-19.2-35.3"/>
	<path id="XMLID_553_" class="st4" d="M-716.1,333.2c-11.5,7.5-19.2,20.5-19.2,35.3c0,14.6,7.5,27.5,18.8,35.1"/>
	<path id="XMLID_552_" class="st4" d="M-661.4,416.6c15.6-10.3,25.9-28,25.9-48.2c0-20.3-10.4-38.1-26.2-48.4"/>
	<path id="XMLID_551_" class="st4" d="M-724.7,320.1c-15.8,10.3-26.2,28.1-26.2,48.4c0,20.1,10.3,37.8,25.9,48.2"/>
	<g id="XMLID_538_">
		<rect id="XMLID_550_" x="-694.8" y="361.6" width="3.2" height="3.2"/>
		<rect id="XMLID_549_" x="-694.8" y="380.8" width="3.2" height="3.2"/>
		<polygon id="XMLID_548_" points="-698,361.6 -694.8,361.6 -694.8,358.4 -698,358.4 -701.2,358.4 -704.4,358.4 -704.4,361.6 
			-701.2,361.6 		"/>
		<rect id="XMLID_547_" x="-698" y="377.6" width="3.2" height="3.2"/>
		<rect id="XMLID_546_" x="-691.6" y="377.6" width="3.2" height="3.2"/>
		<rect id="XMLID_545_" x="-701.2" y="374.4" width="3.2" height="3.2"/>
		<rect id="XMLID_544_" x="-688.4" y="374.4" width="3.2" height="3.2"/>
		<rect id="XMLID_543_" x="-704.4" y="371.2" width="3.2" height="3.2"/>
		<rect id="XMLID_542_" x="-685.2" y="371.2" width="3.2" height="3.2"/>
		<polygon id="XMLID_541_" points="-685.2,361.6 -682,361.6 -682,358.4 -685.2,358.4 -688.4,358.4 -691.6,358.4 -691.6,361.6 
			-688.4,361.6 		"/>
		<polygon id="XMLID_540_" points="-704.4,364.8 -704.4,361.6 -707.6,361.6 -707.6,364.8 -707.6,368 -707.6,371.2 -704.4,371.2 
			-704.4,368 		"/>
		<polygon id="XMLID_539_" points="-682,361.6 -682,364.8 -682,368 -682,371.2 -678.8,371.2 -678.8,368 -678.8,364.8 -678.8,361.6 
					"/>
	</g>
</g>
</svg>
