<?xml version="1.0" encoding="utf-8"?>
<!-- Generator: Adobe Illustrator 19.0.0, SVG Export Plug-In . SVG Version: 6.00 Build 0)  -->
<svg version="1.1" id="Layer_1" xmlns="http://www.w3.org/2000/svg" xmlns:xlink="http://www.w3.org/1999/xlink" x="0px" y="0px"
	 viewBox="0 0 800 800" style="enable-background:new 0 0 800 800;" xml:space="preserve">
<style type="text/css">
	.st0{fill:none;stroke:#000000;stroke-width:12;stroke-miterlimit:10;}
	.st1{fill:none;stroke:#000000;stroke-width:16;stroke-miterlimit:10;}
	.st2{fill:#FFFFFF;stroke:#000000;stroke-width:16;stroke-miterlimit:10;}
	.st3{stroke:#FFFFFF;stroke-width:4;stroke-miterlimit:10;}
	.st4{fill:none;stroke:#000000;stroke-width:4;stroke-miterlimit:10;}
</style>
<rect id="XMLID_898_" x="-1312.7" y="185.9" width="12.3" height="12.3"/>
<rect id="XMLID_897_" x="-1312.7" y="259.6" width="12.3" height="12.3"/>
<polygon id="XMLID_896_" points="-1325,185.9 -1312.7,185.9 -1312.7,173.6 -1325,173.6 -1337.3,173.6 -1349.6,173.6 -1349.6,185.9 
	-1337.3,185.9 "/>
<rect id="XMLID_895_" x="-1325" y="247.3" width="12.3" height="12.3"/>
<rect id="XMLID_894_" x="-1300.5" y="247.3" width="12.3" height="12.3"/>
<rect id="XMLID_893_" x="-1337.3" y="235" width="12.3" height="12.3"/>
<rect id="XMLID_892_" x="-1288.2" y="235" width="12.3" height="12.3"/>
<rect id="XMLID_891_" x="-1349.6" y="222.8" width="12.3" height="12.3"/>
<rect id="XMLID_890_" x="-1275.9" y="222.8" width="12.3" height="12.3"/>
<polygon id="XMLID_889_" points="-1275.9,185.9 -1263.6,185.9 -1263.6,173.6 -1275.9,173.6 -1288.2,173.6 -1300.5,173.6 
	-1300.5,185.9 -1288.2,185.9 "/>
<polygon id="XMLID_888_" points="-1349.6,198.2 -1349.6,185.9 -1361.9,185.9 -1361.9,198.2 -1361.9,210.5 -1361.9,222.8 
	-1349.6,222.8 -1349.6,210.5 "/>
<polygon id="XMLID_887_" points="-1263.6,185.9 -1263.6,198.2 -1263.6,210.5 -1263.6,222.8 -1251.3,222.8 -1251.3,210.5 
	-1251.3,198.2 -1251.3,185.9 "/>
<rect id="XMLID_1_" x="-1312.7" y="215.9" width="12.3" height="12.3"/>
<rect id="XMLID_4_" x="-1177.5" y="290.8" width="12.3" height="12.3"/>
<g id="XMLID_2_">
	<polygon id="XMLID_5_" class="st0" points="-584.7,447.4 -584.7,307 -791.3,307 -791.3,447.4 -765.3,447.4 -765.3,493 -728,447.4 	
		"/>
	<line id="XMLID_6_" class="st0" x1="-763.8" y1="341.3" x2="-613.4" y2="341.3"/>
	<line id="XMLID_7_" class="st0" x1="-763.8" y1="375.4" x2="-613.4" y2="375.4"/>
	<line id="XMLID_8_" class="st0" x1="-763.8" y1="408.4" x2="-613.4" y2="408.4"/>
</g>
<g id="XMLID_454_">
	<rect id="XMLID_345_" x="1378.2" y="275.5" class="st0" width="230" height="274.6"/>
	<rect id="XMLID_344_" x="1403" y="385.5" class="st0" width="52" height="52"/>
	<rect id="XMLID_343_" x="1403" y="303.5" class="st0" width="52" height="52"/>
	<rect id="XMLID_342_" x="1403" y="467.5" class="st0" width="52" height="52"/>
	<line id="XMLID_341_" class="st0" x1="1479" y1="305.5" x2="1585" y2="305.5"/>
	<line id="XMLID_340_" class="st0" x1="1479" y1="387.5" x2="1585" y2="387.5"/>
	<line id="XMLID_339_" class="st0" x1="1479" y1="469.5" x2="1585" y2="469.5"/>
	<line id="XMLID_338_" class="st0" x1="1479" y1="329.5" x2="1585" y2="329.5"/>
	<line id="XMLID_337_" class="st0" x1="1479" y1="411.5" x2="1585" y2="411.5"/>
	<line id="XMLID_336_" class="st0" x1="1479" y1="493.5" x2="1585" y2="493.5"/>
	<line id="XMLID_335_" class="st0" x1="1479" y1="353.5" x2="1555" y2="353.5"/>
	<line id="XMLID_334_" class="st0" x1="1479" y1="435.5" x2="1555" y2="435.5"/>
	<line id="XMLID_333_" class="st0" x1="1479" y1="517.5" x2="1555" y2="517.5"/>
	<polyline id="XMLID_472_" class="st0" points="1415.1,316.9 1429,335.4 1486.6,249.8 	"/>
</g>
<g id="XMLID_18_">
	<line id="XMLID_17_" class="st0" x1="2470.4" y1="357.6" x2="2636.5" y2="418.6"/>
	<polyline id="XMLID_20_" class="st0" points="2669.5,448 2684.6,406.8 2709,396.3 2486.2,314.5 2462,380.5 2649.1,449.2 
		2667,400.4 	"/>
	<line id="XMLID_14_" class="st0" x1="2487.7" y1="400.6" x2="2541.6" y2="420.4"/>
	<polyline id="XMLID_19_" class="st0" points="2514.6,410.5 2497.2,458 2431.4,458 	"/>
	<path id="XMLID_9_" class="st0" d="M2711.2,459.9"/>
	<line id="XMLID_24_" class="st0" x1="2431.4" y1="430.5" x2="2431.4" y2="485.5"/>
</g>
<g id="XMLID_952_">
	<path id="XMLID_129_" class="st1" d="M3569.2,343.6"/>
	<path id="XMLID_128_" class="st1" d="M3667.3,343.6L3667.3,343.6c0-18.2-14.8-33-33-33h-32.2c-18.2,0-33,14.8-33,33v47.5h98.1"/>
	<rect id="XMLID_64_" x="3549.8" y="383.8" class="st2" width="136.9" height="105.6"/>
	<rect id="XMLID_63_" x="3606.3" y="408.2" class="st3" width="23.8" height="55.7"/>
</g>
<g id="XMLID_561_">
	<g id="XMLID_559_">
		<polygon id="XMLID_560_" class="st0" points="360,438.7 503.3,438.7 503.3,298.3 296.7,298.3 296.7,438.7 322.7,438.7 		"/>
	</g>
	<g id="XMLID_557_">
		<polygon id="XMLID_558_" class="st0" points="360,501.7 503.3,501.7 483.3,461.3 316.7,461.3 296.7,501.7 322.7,501.7 		"/>
	</g>
	<path id="XMLID_556_" class="st4" d="M414.6,390.2c7-4.7,11.6-12.7,11.6-21.7c0-9.2-4.8-17.4-12-22"/>
	<path id="XMLID_555_" class="st4" d="M385.8,346.5c-7.2,4.7-12,12.8-12,22c0,9,4.6,17,11.6,21.7"/>
	<path id="XMLID_554_" class="st4" d="M423.3,403.6c11.4-7.5,18.8-20.4,18.8-35.1c0-14.8-7.6-27.8-19.2-35.3"/>
	<path id="XMLID_553_" class="st4" d="M377.1,333.2c-11.5,7.5-19.2,20.5-19.2,35.3c0,14.6,7.5,27.5,18.8,35.1"/>
	<path id="XMLID_552_" class="st4" d="M431.8,416.6c15.6-10.3,25.9-28,25.9-48.2c0-20.3-10.4-38.1-26.2-48.4"/>
	<path id="XMLID_551_" class="st4" d="M368.5,320.1c-15.8,10.3-26.2,28.1-26.2,48.4c0,20.1,10.3,37.8,25.9,48.2"/>
	<g id="XMLID_538_">
		<rect id="XMLID_550_" x="398.4" y="361.6" width="3.2" height="3.2"/>
		<rect id="XMLID_549_" x="398.4" y="380.8" width="3.2" height="3.2"/>
		<polygon id="XMLID_548_" points="395.2,361.6 398.4,361.6 398.4,358.4 395.2,358.4 392,358.4 388.8,358.4 388.8,361.6 392,361.6 
					"/>
		<rect id="XMLID_547_" x="395.2" y="377.6" width="3.2" height="3.2"/>
		<rect id="XMLID_546_" x="401.6" y="377.6" width="3.2" height="3.2"/>
		<rect id="XMLID_545_" x="392" y="374.4" width="3.2" height="3.2"/>
		<rect id="XMLID_544_" x="404.8" y="374.4" width="3.2" height="3.2"/>
		<rect id="XMLID_543_" x="388.8" y="371.2" width="3.2" height="3.2"/>
		<rect id="XMLID_542_" x="408" y="371.2" width="3.2" height="3.2"/>
		<polygon id="XMLID_541_" points="408,361.6 411.2,361.6 411.2,358.4 408,358.4 404.8,358.4 401.6,358.4 401.6,361.6 404.8,361.6 
					"/>
		<polygon id="XMLID_540_" points="388.8,364.8 388.8,361.6 385.6,361.6 385.6,364.8 385.6,368 385.6,371.2 388.8,371.2 388.8,368 
					"/>
		<polygon id="XMLID_539_" points="411.2,361.6 411.2,364.8 411.2,368 411.2,371.2 414.4,371.2 414.4,368 414.4,364.8 414.4,361.6 
					"/>
	</g>
</g>
</svg>
