<?xml version="1.0" encoding="utf-8"?>
<!-- Generator: Adobe Illustrator 19.0.0, SVG Export Plug-In . SVG Version: 6.00 Build 0)  -->
<svg version="1.1" id="Layer_1" xmlns="http://www.w3.org/2000/svg" xmlns:xlink="http://www.w3.org/1999/xlink" x="0px" y="0px"
	 viewBox="0 0 800 800" style="enable-background:new 0 0 800 800;" xml:space="preserve">
<style type="text/css">
	.st0{fill:none;stroke:#000000;stroke-width:12;stroke-miterlimit:10;}
	.st1{fill:none;stroke:#000000;stroke-width:16;stroke-miterlimit:10;}
	.st2{fill:#FFFFFF;stroke:#000000;stroke-width:16;stroke-miterlimit:10;}
	.st3{stroke:#FFFFFF;stroke-width:4;stroke-miterlimit:10;}
	.st4{fill:none;stroke:#000000;stroke-width:4;stroke-miterlimit:10;}
</style>
<g id="XMLID_2_">
	<polygon id="XMLID_5_" class="st0" points="503.3,447.4 503.3,307 296.7,307 296.7,447.4 322.7,447.4 322.7,493 360,447.4 	"/>
	<line id="XMLID_6_" class="st0" x1="324.2" y1="341.3" x2="474.6" y2="341.3"/>
	<line id="XMLID_7_" class="st0" x1="324.2" y1="375.4" x2="474.6" y2="375.4"/>
	<line id="XMLID_8_" class="st0" x1="324.2" y1="408.4" x2="474.6" y2="408.4"/>
</g>
<g id="XMLID_454_">
	<rect id="XMLID_345_" x="2466.2" y="275.5" class="st0" width="230" height="274.6"/>
	<rect id="XMLID_344_" x="2490.9" y="385.5" class="st0" width="52" height="52"/>
	<rect id="XMLID_343_" x="2490.9" y="303.5" class="st0" width="52" height="52"/>
	<rect id="XMLID_342_" x="2490.9" y="467.5" class="st0" width="52" height="52"/>
	<line id="XMLID_341_" class="st0" x1="2566.9" y1="305.5" x2="2672.9" y2="305.5"/>
	<line id="XMLID_340_" class="st0" x1="2566.9" y1="387.5" x2="2672.9" y2="387.5"/>
	<line id="XMLID_339_" class="st0" x1="2566.9" y1="469.5" x2="2672.9" y2="469.5"/>
	<line id="XMLID_338_" class="st0" x1="2566.9" y1="329.5" x2="2672.9" y2="329.5"/>
	<line id="XMLID_337_" class="st0" x1="2566.9" y1="411.5" x2="2672.9" y2="411.5"/>
	<line id="XMLID_336_" class="st0" x1="2566.9" y1="493.5" x2="2672.9" y2="493.5"/>
	<line id="XMLID_335_" class="st0" x1="2566.9" y1="353.5" x2="2642.9" y2="353.5"/>
	<line id="XMLID_334_" class="st0" x1="2566.9" y1="435.5" x2="2642.9" y2="435.5"/>
	<line id="XMLID_333_" class="st0" x1="2566.9" y1="517.5" x2="2642.9" y2="517.5"/>
	<polyline id="XMLID_472_" class="st0" points="2503.1,316.9 2516.9,335.4 2574.6,249.8 	"/>
</g>
<g id="XMLID_18_">
	<line id="XMLID_17_" class="st0" x1="3558.4" y1="357.6" x2="3724.5" y2="418.6"/>
	<polyline id="XMLID_20_" class="st0" points="3757.5,448 3772.6,406.8 3797,396.3 3574.2,314.5 3550,380.5 3737.1,449.2 
		3755,400.4 	"/>
	<line id="XMLID_14_" class="st0" x1="3575.7" y1="400.6" x2="3629.6" y2="420.4"/>
	<polyline id="XMLID_19_" class="st0" points="3602.6,410.5 3585.2,458 3519.4,458 	"/>
	<path id="XMLID_9_" class="st0" d="M3799.2,459.9"/>
	<line id="XMLID_24_" class="st0" x1="3519.4" y1="430.5" x2="3519.4" y2="485.5"/>
</g>
<g id="XMLID_952_">
	<path id="XMLID_129_" class="st1" d="M4657.2,343.6"/>
	<path id="XMLID_128_" class="st1" d="M4755.3,343.6L4755.3,343.6c0-18.2-14.8-33-33-33h-32.2c-18.2,0-33,14.8-33,33v47.5h98.1"/>
	<rect id="XMLID_64_" x="4637.8" y="383.8" class="st2" width="136.9" height="105.6"/>
	<rect id="XMLID_63_" x="4694.3" y="408.2" class="st3" width="23.8" height="55.7"/>
</g>
<g id="XMLID_561_">
	<g id="XMLID_559_">
		<polygon id="XMLID_560_" class="st0" points="1448,438.7 1591.3,438.7 1591.3,298.3 1384.7,298.3 1384.7,438.7 1410.7,438.7 		"/>
	</g>
	<g id="XMLID_557_">
		<polygon id="XMLID_558_" class="st0" points="1448,501.7 1591.3,501.7 1571.3,461.3 1404.7,461.3 1384.7,501.7 1410.7,501.7 		"/>
	</g>
	<path id="XMLID_556_" class="st4" d="M1502.6,390.2c7-4.7,11.6-12.7,11.6-21.7c0-9.2-4.8-17.4-12-22"/>
	<path id="XMLID_555_" class="st4" d="M1473.8,346.5c-7.2,4.7-12,12.8-12,22c0,9,4.6,17,11.6,21.7"/>
	<path id="XMLID_554_" class="st4" d="M1511.3,403.6c11.4-7.5,18.8-20.4,18.8-35.1c0-14.8-7.6-27.8-19.2-35.3"/>
	<path id="XMLID_553_" class="st4" d="M1465.1,333.2c-11.5,7.5-19.2,20.5-19.2,35.3c0,14.6,7.5,27.5,18.8,35.1"/>
	<path id="XMLID_552_" class="st4" d="M1519.8,416.6c15.6-10.3,25.9-28,25.9-48.2c0-20.3-10.4-38.1-26.2-48.4"/>
	<path id="XMLID_551_" class="st4" d="M1456.5,320.1c-15.8,10.3-26.2,28.1-26.2,48.4c0,20.1,10.3,37.8,25.9,48.2"/>
	<g id="XMLID_538_">
		<rect id="XMLID_550_" x="1486.4" y="361.6" width="3.2" height="3.2"/>
		<rect id="XMLID_549_" x="1486.4" y="380.8" width="3.2" height="3.2"/>
		<polygon id="XMLID_548_" points="1483.2,361.6 1486.4,361.6 1486.4,358.4 1483.2,358.4 1480,358.4 1476.8,358.4 1476.8,361.6 
			1480,361.6 		"/>
		<rect id="XMLID_547_" x="1483.2" y="377.6" width="3.2" height="3.2"/>
		<rect id="XMLID_546_" x="1489.6" y="377.6" width="3.2" height="3.2"/>
		<rect id="XMLID_545_" x="1480" y="374.4" width="3.2" height="3.2"/>
		<rect id="XMLID_544_" x="1492.8" y="374.4" width="3.2" height="3.2"/>
		<rect id="XMLID_543_" x="1476.8" y="371.2" width="3.2" height="3.2"/>
		<rect id="XMLID_542_" x="1496" y="371.2" width="3.2" height="3.2"/>
		<polygon id="XMLID_541_" points="1496,361.6 1499.2,361.6 1499.2,358.4 1496,358.4 1492.8,358.4 1489.6,358.4 1489.6,361.6 
			1492.8,361.6 		"/>
		<polygon id="XMLID_540_" points="1476.8,364.8 1476.8,361.6 1473.6,361.6 1473.6,364.8 1473.6,368 1473.6,371.2 1476.8,371.2 
			1476.8,368 		"/>
		<polygon id="XMLID_539_" points="1499.2,361.6 1499.2,364.8 1499.2,368 1499.2,371.2 1502.4,371.2 1502.4,368 1502.4,364.8 
			1502.4,361.6 		"/>
	</g>
</g>
</svg>
