<svg xmlns="http://www.w3.org/2000/svg" xmlns:xlink="http://www.w3.org/1999/xlink" version="1.1" x="0px" y="0px" viewBox="0 0 100 100" enable-background="new 0 0 100 100" xml:space="preserve"><path fill="#231F20" d="M15.688,53.146c-1.946,0-3.522,1.574-3.522,3.52c0,1.941,1.577,3.516,3.522,3.516  c1.938,0,3.512-1.574,3.512-3.516C19.201,54.721,17.626,53.146,15.688,53.146z"></path><path fill="#231F20" d="M21.501,63.835C20.639,62.073,19.303,61,16.021,61h-0.337h-0.336c-3.283,0-4.619,1.073-5.482,2.835  c-0.432,0.882-1.339,11.906-1.339,11.906c-0.07,0.652,0.402,1.233,1.051,1.3c0.043,0.005,0.083,0.005,0.126,0.005  c0.598,0,1.113-0.449,1.172-1.056l0.927-9.581l0.229,7.438l-0.676,19.22c-0.049,0.758,0.523,1.422,1.279,1.47  c0.041,0.005,0.07,0.005,0.098,0.005c0.722,0,1.331-0.555,1.385-1.283l1.566-15.829l1.566,15.829  c0.053,0.729,0.663,1.283,1.385,1.283c0.027,0,0.058,0,0.097-0.005c0.757-0.048,1.328-0.712,1.28-1.47l-0.676-19.22l0.229-7.438  l0.928,9.581c0.059,0.606,0.574,1.057,1.172,1.057c0.043,0,0.083,0,0.126-0.006c0.65-0.065,1.121-0.646,1.051-1.3  C22.841,75.741,21.933,64.717,21.501,63.835z"></path><path fill="#231F20" d="M33.493,53.146c-1.946,0-3.522,1.574-3.522,3.52c0,1.941,1.577,3.516,3.522,3.516  c1.938,0,3.512-1.574,3.512-3.516C37.004,54.721,35.431,53.146,33.493,53.146z"></path><path fill="#231F20" d="M39.306,63.835C38.443,62.073,37.107,61,33.825,61h-0.337h-0.336c-3.283,0-4.619,1.073-5.481,2.835  c-0.432,0.882-1.34,11.906-1.34,11.906c-0.07,0.652,0.402,1.233,1.051,1.3c0.043,0.005,0.083,0.005,0.126,0.005  c0.598,0,1.112-0.449,1.172-1.056l0.927-9.581l0.229,7.438l-0.676,19.22c-0.049,0.758,0.522,1.422,1.279,1.47  c0.041,0.005,0.07,0.005,0.098,0.005c0.722,0,1.331-0.555,1.385-1.283l1.565-15.829l1.566,15.829  c0.053,0.729,0.663,1.283,1.385,1.283c0.027,0,0.058,0,0.097-0.005c0.757-0.048,1.328-0.712,1.28-1.47l-0.676-19.22l0.229-7.438  l0.928,9.581c0.059,0.606,0.574,1.057,1.172,1.057c0.043,0,0.083,0,0.126-0.006c0.65-0.065,1.121-0.646,1.051-1.3  C40.645,75.741,39.737,64.717,39.306,63.835z"></path><path fill="#231F20" d="M51.297,53.146c-1.946,0-3.522,1.574-3.522,3.52c0,1.941,1.577,3.516,3.522,3.516  c1.938,0,3.512-1.574,3.512-3.516C54.809,54.721,53.234,53.146,51.297,53.146z"></path><path fill="#231F20" d="M51.245,9.381c-9.814,0-17.771,7.957-17.771,17.772c0,9.814,7.957,17.771,17.771,17.771  c9.815,0,17.771-7.956,17.771-17.771C69.017,17.338,61.061,9.381,51.245,9.381z M51.19,33.03c-3.25,0-5.885-2.63-5.885-5.873  c0-3.251,2.634-5.881,5.885-5.881c3.238,0,5.868,2.63,5.868,5.881C57.059,30.399,54.429,33.03,51.19,33.03z"></path><path fill="#231F20" d="M57.109,63.835C56.248,62.073,54.911,61,51.629,61h-0.338h-0.336c-3.283,0-4.619,1.073-5.481,2.835  c-0.432,0.882-1.339,11.906-1.339,11.906c-0.07,0.652,0.401,1.233,1.051,1.3c0.043,0.005,0.083,0.005,0.126,0.005  c0.599,0,1.113-0.449,1.172-1.056l0.927-9.581l0.229,7.438l-0.676,19.22c-0.049,0.758,0.523,1.422,1.28,1.47  c0.04,0.005,0.07,0.005,0.097,0.005c0.722,0,1.331-0.555,1.385-1.283l1.565-15.829l1.566,15.829  c0.054,0.729,0.664,1.283,1.386,1.283c0.026,0,0.058,0,0.097-0.005c0.758-0.048,1.328-0.712,1.28-1.47l-0.677-19.22l0.229-7.438  l0.927,9.581c0.06,0.606,0.574,1.057,1.173,1.057c0.042,0,0.083,0,0.126-0.006c0.65-0.065,1.121-0.646,1.051-1.3  C58.449,75.741,57.542,64.717,57.109,63.835z"></path><path fill="#231F20" d="M69.101,53.146c-1.945,0-3.521,1.574-3.521,3.52c0,1.941,1.577,3.516,3.521,3.516  c1.938,0,3.513-1.574,3.513-3.516C72.613,54.721,71.039,53.146,69.101,53.146z"></path><path fill="#231F20" d="M74.913,63.835C74.052,62.073,72.716,61,69.433,61h-0.337h-0.337c-3.282,0-4.618,1.073-5.481,2.835  c-0.432,0.882-1.339,11.906-1.339,11.906c-0.07,0.652,0.401,1.233,1.051,1.3c0.043,0.005,0.083,0.005,0.127,0.005  c0.598,0,1.112-0.449,1.172-1.056l0.927-9.581l0.229,7.438l-0.677,19.22c-0.048,0.758,0.523,1.422,1.28,1.47  c0.04,0.005,0.069,0.005,0.098,0.005c0.722,0,1.33-0.555,1.385-1.283l1.565-15.829l1.566,15.829  c0.054,0.729,0.663,1.283,1.385,1.283c0.026,0,0.058,0,0.097-0.005c0.758-0.048,1.329-0.712,1.28-1.47l-0.676-19.22l0.229-7.438  l0.927,9.581c0.06,0.606,0.574,1.057,1.172,1.057c0.043,0,0.083,0,0.126-0.006c0.65-0.065,1.122-0.646,1.052-1.3  C76.254,75.741,75.346,64.717,74.913,63.835z"></path><path fill="#231F20" d="M86.905,53.146c-1.945,0-3.522,1.574-3.522,3.52c0,1.941,1.577,3.516,3.522,3.516  c1.938,0,3.512-1.574,3.512-3.516C90.417,54.721,88.843,53.146,86.905,53.146z"></path><path fill="#231F20" d="M92.718,63.835C91.856,62.073,90.52,61,87.237,61H86.9h-0.337c-3.282,0-4.619,1.073-5.481,2.835  c-0.432,0.882-1.34,11.906-1.34,11.906c-0.069,0.652,0.401,1.233,1.052,1.3c0.043,0.005,0.083,0.005,0.126,0.005  c0.599,0,1.113-0.449,1.172-1.056l0.928-9.581l0.229,7.438l-0.676,19.22c-0.048,0.758,0.523,1.422,1.279,1.47  c0.041,0.005,0.07,0.005,0.098,0.005c0.723,0,1.331-0.555,1.386-1.283L86.9,77.429l1.566,15.829  c0.053,0.729,0.662,1.283,1.385,1.283c0.026,0,0.057,0,0.097-0.005c0.758-0.048,1.328-0.712,1.279-1.47l-0.676-19.22l0.229-7.438  l0.927,9.581c0.06,0.606,0.574,1.057,1.173,1.057c0.043,0,0.083,0,0.126-0.006c0.65-0.065,1.121-0.646,1.051-1.3  C94.058,75.741,93.15,64.717,92.718,63.835z"></path><path fill="#231F20" d="M94.73,26.136c-0.218-0.22-5.422-5.457-13.374-10.769c-7.393-4.939-18.619-10.826-30.11-10.826  c-11.493,0-22.718,5.887-30.111,10.826C13.183,20.679,7.978,25.916,7.76,26.136l-1.005,1.017L7.76,28.17  c0.218,0.22,5.423,5.457,13.375,10.769c7.393,4.939,18.619,10.826,30.111,10.826c11.491,0,22.718-5.887,30.11-10.826  C89.309,33.626,94.513,28.39,94.73,28.17l1.005-1.017L94.73,26.136z M79.7,36.564C72.651,41.266,61.994,46.87,51.246,46.87  c-10.749,0-21.407-5.604-28.455-10.306c-5.692-3.797-10.015-7.636-11.914-9.412c1.899-1.776,6.221-5.615,11.914-9.412  C29.839,13.04,40.497,7.436,51.246,7.436c10.748,0,21.405,5.604,28.454,10.306c5.691,3.797,10.014,7.636,11.913,9.412  C89.714,28.929,85.392,32.768,79.7,36.564z"></path></svg>