<svg xmlns="http://www.w3.org/2000/svg" xmlns:xlink="http://www.w3.org/1999/xlink" version="1.1" x="0px" y="0px" viewBox="0 0 100 100" enable-background="new 0 0 100 100" xml:space="preserve"><path fill="#000000" d="M88.802,59.983c0-1.245-0.925-2.22-2.107-2.22h-0.452v-29.68H71.564V0H50.653v24.193h-4.359V9.551H28.148  v48.212h-4.641c-1.181,0-2.107,0.975-2.107,2.22v21.871h-7.2c-1.164,0-2.112,0.947-2.112,2.112v13.922  c0,1.164,0.947,2.112,2.112,2.112h72.49c1.164,0,2.112-0.947,2.112-2.112V83.966c0-0.068-0.004-0.135-0.01-0.201  c0.006-0.072,0.01-0.145,0.01-0.22V59.983z M82.333,31.994v25.769H71.656V31.994H82.333z M67.654,3.911v53.852h-13.09V3.911H67.654z   M50.556,28.104v29.659h-4.262V28.104H50.556z M32.059,13.462h10.324v10.731v33.57H32.059V13.462z M25.312,61.674h2.837v0.114  h14.235h3.911h4.359h3.814h13.278h3.819h13.327v20.067h-59.58V61.674z M84.892,96.089H16V85.765h7.508h61.384V96.089z"></path><rect x="29.379" y="67.123" fill="#000000" width="12.593" height="3.911"></rect><rect x="29.379" y="72.495" fill="#000000" width="17.443" height="3.911"></rect><rect x="70.435" y="88.007" fill="#000000" width="3.911" height="5.84"></rect><rect x="65.064" y="88.007" fill="#000000" width="3.911" height="5.84"></rect><circle fill="#000000" cx="21.24" cy="90.927" r="2.294"></circle><rect x="33.773" y="17.536" fill="#000000" width="5.84" height="3.911"></rect><rect x="33.773" y="23.892" fill="#000000" width="5.84" height="3.911"></rect><circle fill="#000000" cx="36.693" cy="38.988" r="2.294"></circle><circle fill="#000000" cx="76.949" cy="52.291" r="1.253"></circle><circle fill="#000000" cx="73.763" cy="52.291" r="1.253"></circle><circle fill="#000000" cx="80.134" cy="52.291" r="1.253"></circle><rect x="73.764" y="37.032" fill="#000000" width="6.371" height="3.911"></rect><rect x="56.285" y="6.137" fill="#000000" width="3.911" height="11.735"></rect><rect x="61.604" y="6.137" fill="#000000" width="3.911" height="5.867"></rect></svg>