<?xml version="1.0" encoding="utf-8"?>
<!-- Generator: Adobe Illustrator 16.0.0, SVG Export Plug-In . SVG Version: 6.00 Build 0)  -->
<!DOCTYPE svg PUBLIC "-//W3C//DTD SVG 1.1//EN" "http://www.w3.org/Graphics/SVG/1.1/DTD/svg11.dtd">
<svg version="1.1" id="Layer_1" xmlns="http://www.w3.org/2000/svg" xmlns:xlink="http://www.w3.org/1999/xlink" x="0px" y="0px"
	 width="800px" height="800px" viewBox="0 0 800 800" enable-background="new 0 0 800 800" xml:space="preserve">
<g>
	<path fill="#FFFFFF" d="M323.504,360.88h-36.488c-4.32,0-7.816,3.504-7.816,7.824v35.184c0,4.312,3.496,7.824,7.816,7.824
		c4.32,0,7.824-3.504,7.824-7.824V376.52h28.664c4.312,0,7.816-3.504,7.816-7.824C331.328,364.392,327.824,360.88,323.504,360.88z"
		/>
	<path d="M409.344,402.584c-4.319,0-7.815,3.496-7.815,7.824v277.536c0,4.312,3.496,7.823,7.815,7.823
		c4.312,0,7.816-3.504,7.816-7.823V410.408C417.16,406.08,413.656,402.584,409.344,402.584z"/>
	<path d="M206.672,642.344c-4.32,0-7.824,3.496-7.824,7.816v44.304c0,4.32,3.504,7.824,7.824,7.824c4.32,0,7.816-3.504,7.816-7.824
		V650.16C214.488,645.832,210.992,642.344,206.672,642.344z"/>
	<circle fill="#FFFFFF" cx="664.016" cy="672.168" r="14.176"/>
	<path d="M784.336,715.2H733.08V450.352c0-7.184-5.832-13.016-13.016-13.016h-27.809v-12.168h8.688c4.319,0,7.823-3.504,7.823-7.816
		c0-4.319-3.504-7.823-7.823-7.823h-16.513c-4.312,0-7.808,3.504-7.808,7.823v19.977h-68.632c-7.192,0-13.032,5.832-13.032,13.016
		v42.8h-50.392v-42.8c0-7.184-5.824-13.016-13.024-13.016h-63.408V364.8c0-7.208-5.832-13.024-13.048-13.024h-80.76v-21.288
		c0-7.2-5.832-13.032-13.032-13.032H249.224c-7.192,0-13.032,5.832-13.032,13.032v66.88h-50.376v-66.88
		c0-7.2-5.832-13.032-13.024-13.032h-76.44c-7.2,0-13.032,5.832-13.032,13.032V715.2H30.336c-7.2,0-13.032,5.832-13.032,13.04
		c0,7.191,5.832,13.031,13.032,13.031h66.016h76.44h76.44h112.064h93.808h76.456h76.448H720.08h64.271
		c7.185,0,13.024-5.831,13.024-13.031C797.36,721.04,791.52,715.2,784.336,715.2z M109.376,343.52h50.376v66.888v304.8h-50.376
		V343.52z M185.816,423.424h50.376V715.2h-50.376V423.424z M262.264,410.408V343.52h86v21.28v350.4h-86V410.408z M374.328,377.824
		h67.744v72.527V715.2h-67.744V377.824z M468.145,463.392h50.375v42.801V715.2h-50.375V463.392z M544.568,519.216h50.392V715.2
		h-50.392V519.216z M621.016,715.2V506.184v-42.8h86.017V715.2H621.016z"/>
</g>
<rect x="109.376" y="343.52" fill="#FFFFFF" width="50.376" height="371.688"/>
<rect x="468.145" y="463.392" fill="#FFFFFF" width="50.375" height="251.809"/>
</svg>
