<?xml version="1.0" encoding="utf-8"?>
<!-- Generator: Adobe Illustrator 19.0.0, SVG Export Plug-In . SVG Version: 6.00 Build 0)  -->
<svg version="1.1" id="Layer_1" xmlns="http://www.w3.org/2000/svg" xmlns:xlink="http://www.w3.org/1999/xlink" x="0px" y="0px"
	 viewBox="0 0 800 800" style="enable-background:new 0 0 800 800;" xml:space="preserve">
<style type="text/css">
	.st0{fill:none;stroke:#000000;stroke-width:9;stroke-miterlimit:10;}
	.st1{fill:#FFFFFF;stroke:#000000;stroke-width:9;stroke-miterlimit:10;}
	.st2{fill:none;stroke:#000000;stroke-width:12;stroke-linecap:round;stroke-miterlimit:10;}
	.st3{fill:none;stroke:#000000;stroke-width:12;stroke-linecap:round;stroke-linejoin:round;stroke-miterlimit:10;}
	.st4{fill:#FFFFFF;stroke:#000000;stroke-width:12;stroke-miterlimit:10;}
	.st5{fill:none;stroke:#000000;stroke-width:12;stroke-miterlimit:10;}
	.st6{fill:none;stroke:#000000;stroke-width:20;stroke-linecap:round;stroke-miterlimit:10;}
	.st7{fill:none;stroke:#FF00FF;stroke-width:12;stroke-miterlimit:10;}
</style>
<line id="XMLID_84_" class="st0" x1="295" y1="265.5" x2="330.8" y2="453.9"/>
<polygon id="XMLID_30_" class="st1" points="335.9,311.7 225.6,333.2 205.3,228.8 364.3,197.8 384.6,302.2 364.6,306.1 "/>
<circle id="XMLID_151_" class="st2" cx="2306" cy="520" r="53.4"/>
<circle id="XMLID_154_" class="st2" cx="2731.8" cy="520" r="53.4"/>
<path id="XMLID_155_" class="st2" d="M2306,520l31.2-98.4c0,0,4.2-24,22.1-24s17.9,0,17.9,0"/>
<path id="XMLID_162_" class="st2" d="M2423.1,520l31.2-98.4c0,0,4.2-24,22.1-24c17.9,0,17.9,0,17.9,0"/>
<path id="XMLID_163_" class="st2" d="M2541.1,520l31.2-98.4c0,0,4.2-24,22.1-24s17.9,0,17.9,0"/>
<path id="XMLID_12_" class="st2" d="M2678.4,429.6c0,0,2.5-19.6,20.4-19.6c17.9,0,17.9,0,17.9,0"/>
<path id="XMLID_156_" class="st3" d="M2335.6,427h355L2736,520c0,0-275.9,0-303.5,0c-21.8,0-30.1-6.9-46.1-22.9l-54.2-59.5"/>
<line id="XMLID_160_" class="st2" x1="2455.2" y1="427" x2="2498.6" y2="520"/>
<line id="XMLID_161_" class="st2" x1="2572" y1="427" x2="2615.4" y2="520"/>
<g id="XMLID_9_">
	
		<rect id="XMLID_898_" x="284.9" y="236.3" transform="matrix(0.178 0.984 -0.984 0.178 475.8932 -86.9789)" width="10.2" height="10.2"/>
	
		<rect id="XMLID_897_" x="295.8" y="296.6" transform="matrix(-0.984 0.178 -0.178 -0.984 650.7576 545.0253)" width="10.2" height="10.2"/>
	<polygon id="XMLID_896_" points="274,239.1 284.1,237.2 282.3,227.2 272.2,229 262.1,230.8 252.1,232.7 253.9,242.7 264,240.9 	"/>
	
		<rect id="XMLID_895_" x="283.9" y="288.4" transform="matrix(-0.178 -0.984 0.984 -0.178 51.7251 630.1494)" width="10.2" height="10.2"/>
	
		<rect id="XMLID_894_" x="304.1" y="284.7" transform="matrix(-0.984 0.178 -0.178 -0.984 664.9866 519.996)" width="10.2" height="10.2"/>
	
		<rect id="XMLID_893_" x="272.1" y="280.1" transform="matrix(-0.178 -0.984 0.984 -0.178 45.8405 608.7592)" width="10.2" height="10.2"/>
	
		<rect id="XMLID_892_" x="312.3" y="272.8" transform="matrix(-0.984 0.178 -0.178 -0.984 679.2154 494.967)" width="10.2" height="10.2"/>
	
		<rect id="XMLID_891_" x="260.2" y="271.9" transform="matrix(-0.178 -0.984 0.984 -0.178 39.9556 587.3689)" width="10.2" height="10.2"/>
	
		<rect id="XMLID_890_" x="320.5" y="261" transform="matrix(-0.984 0.178 -0.178 -0.984 693.4445 469.9379)" width="10.2" height="10.2"/>
	<polygon id="XMLID_889_" points="314.2,231.8 324.3,230 322.5,219.9 312.4,221.7 302.4,223.6 292.3,225.4 294.1,235.4 304.2,233.6 
			"/>
	<polygon id="XMLID_888_" points="255.7,252.8 253.9,242.7 243.8,244.5 245.7,254.6 247.5,264.6 249.3,274.7 259.4,272.9 
		257.5,262.8 	"/>
	<polygon id="XMLID_887_" points="324.3,230 326.1,240 327.9,250.1 329.8,260.1 339.8,258.3 338,248.3 336.2,238.2 334.4,228.2 	"/>
</g>
<polygon id="XMLID_36_" class="st4" points="-1821.2,520 -1677.9,520 -1677.9,280 -1884.5,280 -1884.5,520 -1858.5,520 "/>
<line id="XMLID_6_" class="st5" x1="-1857" y1="314.3" x2="-1706.6" y2="314.3"/>
<line id="XMLID_7_" class="st5" x1="-1857" y1="348.4" x2="-1706.6" y2="348.4"/>
<line id="XMLID_8_" class="st5" x1="-1857" y1="381.5" x2="-1706.6" y2="381.5"/>
<line id="XMLID_37_" class="st5" x1="-1857" y1="415.5" x2="-1744.7" y2="415.5"/>
<line id="XMLID_39_" class="st5" x1="-1857" y1="448.6" x2="-1744.7" y2="448.6"/>
<line id="XMLID_38_" class="st5" x1="-1857" y1="481.7" x2="-1744.7" y2="481.7"/>
<g id="XMLID_73_">
	<rect id="XMLID_72_" x="-1713.5" y="415.6" class="st4" width="71.4" height="71.4"/>
	<polyline id="XMLID_71_" class="st5" points="-1691.4,442.9 -1677.6,461.4 -1619.9,375.8 	"/>
</g>
<path id="XMLID_306_" class="st4" d="M-811.1,500.5l41.5-12.3l-28.3-95.7l-77.3,22.9c-13.8,4.1-21.6,18.5-17.5,32.3l13.6,45.8
	c4.1,13.8,18.5,21.6,32.3,17.5l0,0L-811.1,500.5z"/>
<polygon id="XMLID_319_" class="st4" points="-678.6,482.1 -769.6,488.2 -797.9,392.5 -718.3,348 "/>
<line id="XMLID_320_" class="st5" x1="-879.3" y1="493.5" x2="-820.9" y2="476.3"/>
<line id="XMLID_322_" class="st5" x1="-886" y1="470.6" x2="-827.7" y2="453.3"/>
<polygon id="XMLID_321_" class="st5" points="-760.3,536.6 -800,548.4 -842.7,509.8 -803,498.1 "/>
<path id="XMLID_330_" d="M-556.6,263.7l-1.7,33.1c-0.1,2.7-1.2,5-3.3,6.9c-2,1.8-4.4,2.7-7.2,2.6l-33.1-1.7c-2.7-0.1-5-1.2-6.9-3.3
	c-1.8-2-2.7-4.4-2.6-7.2l1.7-33.1c0.1-2.7,1.2-5,3.3-6.9c2-1.8,4.4-2.7,7.2-2.6l33.1,1.7c2.7,0.1,5,1.2,6.9,3.3
	C-557.3,258.6-556.4,261-556.6,263.7z M-565.7,270c-1.3,0.5-2.7,0.8-4.2,1c1.6-0.8,2.7-2.1,3.4-3.9c-1.5,0.8-3.1,1.3-4.7,1.5
	c-1.3-1.6-3-2.4-5.2-2.5c-2-0.1-3.7,0.5-5.2,1.9c-1.5,1.3-2.3,3-2.4,5c0,0.7,0,1.2,0.1,1.7c-3-0.3-5.7-1.2-8.2-2.7
	c-2.5-1.5-4.6-3.4-6.3-5.7c-0.7,1.1-1.1,2.3-1.2,3.6c-0.1,2.6,0.8,4.7,2.8,6.2c-1.1-0.1-2.2-0.4-3.4-1.1l0,0.1
	c-0.1,1.7,0.4,3.3,1.5,4.7c1.1,1.4,2.5,2.3,4.1,2.7c-0.7,0.1-1.3,0.2-1.8,0.2c-0.3,0-0.7-0.1-1.3-0.2c0.4,1.5,1.2,2.7,2.4,3.7
	c1.2,1,2.6,1.6,4.1,1.7c-2.8,1.9-5.8,2.8-9.2,2.6c-0.6,0-1.2-0.1-1.7-0.2c3.3,2.3,6.9,3.6,10.9,3.8c2.6,0.1,5-0.2,7.3-0.9
	c2.3-0.7,4.3-1.7,6-3c1.7-1.3,3.1-2.8,4.4-4.5c1.2-1.7,2.2-3.5,2.9-5.5c0.7-1.9,1-3.8,1.1-5.8c0-0.4,0-0.7,0-0.9
	C-568,272.6-566.8,271.4-565.7,270z"/>
<path id="XMLID_328_" d="M-506.1,335.3c2.7-0.2,5.1,0.5,7.2,2.3c2.1,1.8,3.3,4,3.5,6.7l2.8,33c0.2,2.7-0.5,5.1-2.3,7.2
	c-1.8,2.1-4,3.3-6.7,3.5l-6.5,0.6l-1.8-20.5l6.8-0.6l0.3-8.1l-7.9,0.7l-0.4-5.1c-0.1-1.3,0.1-2.3,0.6-3c0.5-0.7,1.5-1.1,3.1-1.2
	l4.2-0.4l-0.6-7.1c-1.5-0.1-3.5,0-6.1,0.2c-3.1,0.3-5.5,1.4-7.2,3.4c-1.7,2-2.4,4.7-2.1,8l0.5,5.9l-6.9,0.6l0.7,8l6.9-0.6l1.8,20.5
	l-18.3,1.6c-2.7,0.2-5.1-0.5-7.2-2.3c-2.1-1.8-3.3-4-3.5-6.7l-2.8-33c-0.2-2.7,0.5-5.1,2.3-7.2c1.8-2.1,4-3.3,6.7-3.5L-506.1,335.3z
	"/>
<path id="XMLID_323_" d="M-500,450.3l-9,38.4c-0.4,1.8-1.4,3.2-3,4.2c-1.6,1-3.3,1.3-5.1,0.9l-38.4-9c-1.8-0.4-3.2-1.4-4.2-3
	c-1-1.6-1.3-3.3-0.9-5.1l9-38.4c0.4-1.8,1.4-3.2,3-4.2c1.6-1,3.3-1.3,5.1-0.9l38.4,9c1.8,0.4,3.2,1.4,4.2,3
	C-499.8,446.7-499.6,448.4-500,450.3z M-514.5,485.9l5.1-21.8l-4.5-1.1c0.1,1.5,0,3-0.4,4.6c-0.7,2.8-2,5.3-4,7.3
	c-2,2.1-4.4,3.5-7.2,4.3c-2.8,0.8-5.6,0.9-8.6,0.2c-4.4-1-7.8-3.4-10.3-7.2c-2.4-3.8-3.1-7.8-2.1-12.1c0.4-1.5,0.9-2.9,1.7-4.2
	l-4.7-1.1l-5.1,21.8c-0.1,0.6-0.1,1.1,0.2,1.6c0.3,0.5,0.7,0.8,1.3,0.9l35.9,8.4c0.6,0.1,1.1,0,1.6-0.3
	C-514.9,486.9-514.6,486.5-514.5,485.9z M-524.5,472.2c2.5-1.5,4.1-3.6,4.7-6.4s0.2-5.4-1.4-7.8c-1.6-2.4-3.8-4-6.7-4.7
	c-2.8-0.7-5.5-0.3-8,1.2c-2.5,1.5-4.1,3.6-4.7,6.4c-0.6,2.8-0.2,5.4,1.4,7.8s3.8,4,6.6,4.6C-529.7,474-527,473.6-524.5,472.2z
	 M-507.5,455.9l1.3-5.5c0.1-0.6,0-1.2-0.3-1.8c-0.3-0.6-0.8-0.9-1.5-1.1l-5.8-1.4c-0.7-0.2-1.3-0.1-1.8,0.3
	c-0.6,0.4-0.9,0.8-1.1,1.5l-1.3,5.5c-0.2,0.7-0.1,1.3,0.3,1.8c0.3,0.6,0.8,0.9,1.5,1.1l5.8,1.4c0.7,0.2,1.3,0.1,1.8-0.3
	C-508,457-507.6,456.5-507.5,455.9z"/>
<path id="XMLID_358_" class="st5" d="M-651.8,450c11.5-13.9,16.1-33.2,10.5-51.8c-5.6-19-20.4-32.8-38.2-38"/>
<path id="XMLID_357_" class="st5" d="M-625.4,472.1c18.8-22.4,26.3-53.6,17.4-83.7c-9-30.5-32.7-52.6-61-61"/>
<path id="XMLID_10_" class="st6" d="M1313.9,511.2c10-1.5,20.1-2.2,30.3-2.1c5,0.1,9.1,0.7,12.6,4.5c5.4,5.8,6.4,13.7,6,21.3
	c-0.7,13.4-2.4,26.7-3.9,40.1"/>
<g id="XMLID_2_">
	<path id="XMLID_13_" d="M1308.8,532.6c-9.4,0-24.5-5.2-28.9-14.3c-18.6-37.9-6.9-72.3,3.1-109.3c3.7-13.6,13.2-23.7,27.1-20.9
		c13.8,2.8,19.7,16.3,16.9,30.1c-6.1,30.3-7.2,53.7,4.6,77.7c6.2,12.6,1,27.9-11.6,34.1C1316.4,531.7,1312.6,532.6,1308.8,532.6z"/>
</g>
<g id="XMLID_3_">
	<polygon id="XMLID_49_" class="st0" points="1483.9,340.3 1483.9,262.7 1369.7,262.7 1369.7,340.3 1384.1,340.3 1384.1,365.6 
		1404.7,340.3 	"/>
	<line id="XMLID_48_" class="st0" x1="1384.9" y1="281.7" x2="1468" y2="281.7"/>
	<line id="XMLID_47_" class="st0" x1="1384.9" y1="300.5" x2="1468" y2="300.5"/>
	<line id="XMLID_46_" class="st0" x1="1384.9" y1="318.8" x2="1468" y2="318.8"/>
</g>
<rect id="XMLID_273_" x="1344.7" y="459.1" class="st5" width="238.2" height="15.3"/>
<rect id="XMLID_274_" x="1456.2" y="474.3" class="st5" width="15.3" height="97.6"/>
<g id="XMLID_45_">
	<rect id="XMLID_275_" x="1246.5" y="431.9" class="st4" width="15.3" height="147"/>
	<polygon id="XMLID_272_" class="st4" points="1330.3,522.4 1263.8,522.4 1263.8,537.7 1315,537.7 1315,578.9 1330.3,578.9 	"/>
</g>
<polygon id="XMLID_277_" class="st4" points="1507.8,566.7 1471.4,556.7 1456.2,556.7 1419.8,566.7 1419.8,571.9 1507.8,571.9 "/>
<path id="XMLID_280_" class="st7" d="M1309.1,293.2"/>
<path id="XMLID_283_" class="st7" d="M1309.1,293.2"/>
<path id="XMLID_11_" class="st6" d="M1309.9,408.9c2.8,7.8,9.4,13.9,16.9,17.3c7.6,3.4,16,4.3,24.3,4.1c15.7-0.5,29.6-6.6,42.9-14.9
	"/>
<path id="XMLID_27_" class="st6" d="M1610.6,511.2c-18.4-2.8-36.1-3.5-49.9,11.4c-13.3,14.3-12.4,34.3-10.4,52.4"/>
<g id="XMLID_25_">
	<path id="XMLID_26_" d="M1615.6,532.6c9.4,0,24.5-5.2,28.9-14.3c18.6-37.9,6.9-72.3-3.1-109.3c-3.7-13.6-13.2-23.7-27.1-20.9
		c-13.8,2.8-19.7,16.3-16.9,30.1c6.1,30.3,7.2,53.7-4.6,77.7c-6.2,12.6-1,27.9,11.6,34.1C1608,531.7,1611.9,532.6,1615.6,532.6z"/>
</g>
<g id="XMLID_137_">
	<path id="XMLID_138_" d="M2423.9,447.9c8.4,0,21.8-4.7,25.7-12.7c16.6-33.7,6.1-64.3-2.8-97.3c-3.3-12.1-11.8-21.1-24.1-18.6
		c-12.3,2.5-17.6,14.5-15.1,26.7c5.5,27,6.4,47.8-4.1,69.2c-5.5,11.2-0.9,24.8,10.4,30.4C2417.1,447.1,2420.5,447.9,2423.9,447.9z"
		/>
</g>
<g id="XMLID_21_">
	<rect id="XMLID_23_" x="1662.7" y="431.9" class="st4" width="15.3" height="147"/>
	<polygon id="XMLID_22_" class="st4" points="1594.2,522.4 1660.7,522.4 1660.7,537.7 1609.4,537.7 1609.4,578.9 1594.2,578.9 	"/>
</g>
<circle id="XMLID_16_" class="st5" cx="1604.7" cy="353.1" r="26"/>
<circle id="XMLID_76_" class="st5" cx="2417.5" cy="286.1" r="23.1"/>
<circle id="XMLID_125_" class="st5" cx="1322.3" cy="353.1" r="26"/>
<path id="XMLID_15_" class="st6" d="M2426.3,344.6c4.8,30.1-28.9,51.1-55,49.6"/>
<path id="XMLID_150_" class="st6" d="M1615.4,400.8c4.8,30.1-28.9,51.1-55,49.6"/>
<g id="XMLID_267_">
	<polygon id="XMLID_271_" class="st1" points="1453.2,305.6 1453.2,224.1 1573.1,224.1 1573.1,305.6 1558.1,305.6 1558.1,332.1 
		1536.4,305.6 	"/>
	<line id="XMLID_270_" class="st1" x1="1557.1" y1="244" x2="1469.9" y2="244"/>
	<line id="XMLID_269_" class="st1" x1="1557.1" y1="263.8" x2="1469.9" y2="263.8"/>
	<line id="XMLID_268_" class="st1" x1="1557.1" y1="283" x2="1469.9" y2="283"/>
</g>
<path id="XMLID_90_" class="st6" d="M391.4,443c-23.2,0.5-44-7.4-64.3-18.5"/>
<path id="XMLID_86_" class="st6" d="M412.1,443c23.2,0.5,44-7.4,64.3-18.5"/>
<circle id="XMLID_87_" class="st5" cx="397.5" cy="375.6" r="26"/>
<path id="XMLID_83_" class="st6" d="M263.4,521.6c5-0.4,9.1-0.1,12.9,3.4c0,0,26.7,19.2,15.5,60.9"/>
<path id="XMLID_82_" class="st6" d="M260.4,443c23.2,0.5,44-7.4,64.3-18.5"/>
<g id="XMLID_70_">
	<path id="XMLID_81_" d="M262.8,556.1c-9.4,0-24.5-5.2-28.9-14.3c-18.6-37.9-6.9-72.3,3.1-109.3c3.7-13.6,13.2-23.7,27.1-20.9
		c13.8,2.8,19.7,16.3,16.9,30.1c-6.1,30.3-7.2,53.7,4.6,77.7c6.2,12.6,1,27.9-11.6,34.1C270.4,555.3,266.6,556.1,262.8,556.1z"/>
</g>
<circle id="XMLID_31_" class="st5" cx="274.3" cy="375.6" r="26"/>
<path id="XMLID_29_" class="st6" d="M245.8,437.2c-8.1,0-16.2,0-24.4,0c-2.5,0-5.1,0-7.3,1.1c-3.1,1.5-4.8,4.8-6.2,7.9
	c-4.7,10-8.1,20.6-10.2,31.5"/>
<path id="XMLID_28_" class="st6" d="M240.5,525.7c8.4,25.5,7.1,51-3.8,76.5"/>
<path id="XMLID_374_" class="st6" d="M538.5,521.6c-5-0.4-9.1-0.1-12.9,3.4c0,0-26.7,19.2-15.5,60.9"/>
<path id="XMLID_373_" class="st6" d="M541.5,443c-23.2,0.5-44-7.4-64.3-18.5"/>
<g id="XMLID_127_">
	<path id="XMLID_130_" d="M539.1,556.1c9.4,0,24.5-5.2,28.9-14.3c18.6-37.9,6.9-72.3-3.1-109.3c-3.7-13.6-13.2-23.7-27.1-20.9
		c-13.8,2.8-19.7,16.3-16.9,30.1c6.1,30.3,7.2,53.7-4.6,77.7c-6.2,12.6-1,27.9,11.6,34.1C531.5,555.3,535.3,556.1,539.1,556.1z"/>
</g>
<circle id="XMLID_126_" class="st5" cx="527.6" cy="375.6" r="26"/>
<path id="XMLID_123_" class="st6" d="M556.1,437.2c8.1,0,16.2,0,24.4,0c2.5,0,5.1,0,7.3,1.1c3.1,1.5,4.8,4.8,6.2,7.9
	c4.7,10,8.1,20.6,10.2,31.5"/>
<path id="XMLID_121_" class="st6" d="M561.4,525.7c-8.4,25.5-7.1,51,3.8,76.5"/>
<line id="XMLID_132_" class="st0" x1="505" y1="265.5" x2="469.2" y2="453.9"/>
<polygon id="XMLID_122_" class="st1" points="464.1,311.7 574.4,333.2 594.7,228.8 435.7,197.8 415.4,302.2 435.4,306.1 "/>
<path id="XMLID_120_" class="st6" d="M2433.4,429.6c-34.3,30.2-34.3,81.8-15.9,103.2"/>
<g id="XMLID_291_">
	<path id="XMLID_292_" d="M2544,448.8c8.4,0,21.8-4.7,25.7-12.7c16.6-33.7,6.1-64.3-2.8-97.3c-3.3-12.1-11.8-21.1-24.1-18.6
		c-12.3,2.5-17.6,14.5-15.1,26.7c5.5,27,6.4,47.8-4.1,69.2c-5.5,11.2-0.9,24.8,10.4,30.4C2537.2,448,2540.6,448.8,2544,448.8z"/>
</g>
<circle id="XMLID_290_" class="st5" cx="2537.6" cy="287" r="23.1"/>
<path id="XMLID_289_" class="st6" d="M2546.4,345.5c4.8,30.1-28.9,51.1-55,49.6"/>
<path id="XMLID_288_" class="st6" d="M2553.5,430.5c-34.3,30.2-34.3,81.8-15.9,103.2"/>
<g id="XMLID_296_">
	<path id="XMLID_297_" d="M2661.3,447.9c8.4,0,21.8-4.7,25.7-12.7c16.6-33.7,6.1-64.3-2.8-97.3c-3.3-12.1-11.8-21.1-24.1-18.6
		c-12.3,2.5-17.6,14.5-15.1,26.7c5.5,27,6.4,47.8-4.1,69.2c-5.5,11.2-0.9,24.8,10.4,30.4C2654.6,447.1,2658,447.9,2661.3,447.9z"/>
</g>
<circle id="XMLID_295_" class="st5" cx="2654.9" cy="286.1" r="23.1"/>
<path id="XMLID_294_" class="st6" d="M2663.8,344.6c4.8,30.1-28.9,51.1-55,49.6"/>
<path id="XMLID_293_" class="st6" d="M2670.9,429.6c-34.3,30.2-34.3,81.8-15.9,103.2"/>
<path id="XMLID_124_" d="M396.5,551.5c-20.5,0-37.2-13.4-37.2-30l7.2-75.2c0-16.6,13.4-30,30-30s30,13.4,30,30l7.2,75.2
	C433.6,538,417,551.5,396.5,551.5z"/>
<line id="XMLID_32_" class="st6" x1="375.5" y1="532.1" x2="375.5" y2="593.9"/>
<line id="XMLID_34_" class="st6" x1="417.5" y1="532.1" x2="417.5" y2="593.9"/>
</svg>
