<?xml version="1.0" encoding="utf-8"?>
<!-- Generator: Adobe Illustrator 19.0.0, SVG Export Plug-In . SVG Version: 6.00 Build 0)  -->
<svg version="1.1" id="Layer_1" xmlns="http://www.w3.org/2000/svg" xmlns:xlink="http://www.w3.org/1999/xlink" x="0px" y="0px"
	 viewBox="0 0 800 800" style="enable-background:new 0 0 800 800;" xml:space="preserve">
<style type="text/css">
	.st0{fill:none;stroke:#000000;stroke-width:9;stroke-miterlimit:10;}
	.st1{fill:#FFFFFF;stroke:#000000;stroke-width:9;stroke-miterlimit:10;}
	.st2{fill:none;stroke:#000000;stroke-width:12;stroke-linecap:round;stroke-miterlimit:10;}
	.st3{fill:none;stroke:#000000;stroke-width:12;stroke-linecap:round;stroke-linejoin:round;stroke-miterlimit:10;}
	.st4{fill:#FFFFFF;stroke:#000000;stroke-width:12;stroke-miterlimit:10;}
	.st5{fill:none;stroke:#000000;stroke-width:12;stroke-miterlimit:10;}
	.st6{fill:none;stroke:#000000;stroke-width:20;stroke-linecap:round;stroke-miterlimit:10;}
	.st7{fill:none;stroke:#FF00FF;stroke-width:12;stroke-miterlimit:10;}
</style>
<line id="XMLID_84_" class="st0" x1="1388.2" y1="265.5" x2="1424" y2="453.9"/>
<polygon id="XMLID_30_" class="st1" points="1429.1,311.7 1318.8,333.2 1298.5,228.8 1457.5,197.8 1477.8,302.2 1457.8,306.1 "/>
<circle id="XMLID_151_" class="st2" cx="3399.2" cy="520" r="53.4"/>
<circle id="XMLID_154_" class="st2" cx="3825" cy="520" r="53.4"/>
<path id="XMLID_155_" class="st2" d="M3399.2,520l31.2-98.4c0,0,4.2-24,22.1-24s17.9,0,17.9,0"/>
<path id="XMLID_162_" class="st2" d="M3516.3,520l31.2-98.4c0,0,4.2-24,22.1-24s17.9,0,17.9,0"/>
<path id="XMLID_163_" class="st2" d="M3634.3,520l31.2-98.4c0,0,4.2-24,22.1-24s17.9,0,17.9,0"/>
<path id="XMLID_12_" class="st2" d="M3771.6,429.6c0,0,2.5-19.6,20.4-19.6s17.9,0,17.9,0"/>
<path id="XMLID_156_" class="st3" d="M3428.8,427h355l45.4,93.1c0,0-275.9,0-303.5,0c-21.8,0-30.1-6.9-46.1-22.9l-54.2-59.5"/>
<line id="XMLID_160_" class="st2" x1="3548.4" y1="427" x2="3591.8" y2="520"/>
<line id="XMLID_161_" class="st2" x1="3665.2" y1="427" x2="3708.6" y2="520"/>
<g id="XMLID_9_">
	
		<rect id="XMLID_898_" x="1378.1" y="236.3" transform="matrix(0.178 0.984 -0.984 0.178 1374.4791 -1162.72)" width="10.2" height="10.2"/>
	
		<rect id="XMLID_897_" x="1389" y="296.6" transform="matrix(-0.984 0.178 -0.178 -0.984 2819.7026 350.4077)" width="10.2" height="10.2"/>
	<polygon id="XMLID_896_" points="1367.2,239.1 1377.3,237.2 1375.5,227.2 1365.4,229 1355.3,230.8 1345.3,232.7 1347.1,242.7 
		1357.2,240.9 	"/>
	
		<rect id="XMLID_895_" x="1377.1" y="288.4" transform="matrix(-0.178 -0.984 0.984 -0.178 1339.5471 1705.8905)" width="10.2" height="10.2"/>
	
		<rect id="XMLID_894_" x="1397.3" y="284.7" transform="matrix(-0.984 0.178 -0.178 -0.984 2833.9316 325.3784)" width="10.2" height="10.2"/>
	
		<rect id="XMLID_893_" x="1365.3" y="280.1" transform="matrix(-0.178 -0.984 0.984 -0.178 1333.6625 1684.5002)" width="10.2" height="10.2"/>
	
		<rect id="XMLID_892_" x="1405.5" y="272.8" transform="matrix(-0.984 0.178 -0.178 -0.984 2848.1604 300.3494)" width="10.2" height="10.2"/>
	
		<rect id="XMLID_891_" x="1353.4" y="271.9" transform="matrix(-0.178 -0.984 0.984 -0.178 1327.7776 1663.1099)" width="10.2" height="10.2"/>
	
		<rect id="XMLID_890_" x="1413.7" y="261" transform="matrix(-0.984 0.178 -0.178 -0.984 2862.3894 275.3203)" width="10.2" height="10.2"/>
	<polygon id="XMLID_889_" points="1407.4,231.8 1417.5,230 1415.7,219.9 1405.6,221.7 1395.6,223.6 1385.5,225.4 1387.3,235.4 
		1397.4,233.6 	"/>
	<polygon id="XMLID_888_" points="1348.9,252.8 1347.1,242.7 1337,244.5 1338.9,254.6 1340.7,264.6 1342.5,274.7 1352.6,272.9 
		1350.7,262.8 	"/>
	<polygon id="XMLID_887_" points="1417.5,230 1419.3,240 1421.1,250.1 1423,260.1 1433,258.3 1431.2,248.3 1429.4,238.2 
		1427.6,228.2 	"/>
</g>
<polygon id="XMLID_36_" class="st4" points="-728,520 -584.7,520 -584.7,280 -791.3,280 -791.3,520 -765.3,520 "/>
<line id="XMLID_6_" class="st5" x1="-763.8" y1="314.3" x2="-613.4" y2="314.3"/>
<line id="XMLID_7_" class="st5" x1="-763.8" y1="348.4" x2="-613.4" y2="348.4"/>
<line id="XMLID_8_" class="st5" x1="-763.8" y1="381.5" x2="-613.4" y2="381.5"/>
<line id="XMLID_37_" class="st5" x1="-763.8" y1="415.5" x2="-651.5" y2="415.5"/>
<line id="XMLID_39_" class="st5" x1="-763.8" y1="448.6" x2="-651.5" y2="448.6"/>
<line id="XMLID_38_" class="st5" x1="-763.8" y1="481.7" x2="-651.5" y2="481.7"/>
<g id="XMLID_73_">
	<rect id="XMLID_72_" x="-620.3" y="415.6" class="st4" width="71.4" height="71.4"/>
	<polyline id="XMLID_71_" class="st5" points="-598.2,442.9 -584.4,461.4 -526.7,375.8 	"/>
</g>
<path id="XMLID_306_" class="st4" d="M282.1,500.5l41.5-12.3l-28.3-95.7l-77.3,22.9c-13.8,4.1-21.6,18.5-17.5,32.3l13.6,45.8
	c4.1,13.8,18.5,21.6,32.3,17.5l0,0L282.1,500.5z"/>
<polygon id="XMLID_319_" class="st4" points="414.6,482.1 323.6,488.2 295.3,392.5 374.9,348 "/>
<line id="XMLID_320_" class="st5" x1="213.9" y1="493.5" x2="272.3" y2="476.3"/>
<line id="XMLID_322_" class="st5" x1="207.2" y1="470.6" x2="265.5" y2="453.3"/>
<polygon id="XMLID_321_" class="st5" points="332.9,536.6 293.2,548.4 250.5,509.8 290.2,498.1 "/>
<path id="XMLID_330_" d="M536.6,263.7l-1.7,33.1c-0.1,2.7-1.2,5-3.3,6.9c-2,1.8-4.4,2.7-7.2,2.6l-33.1-1.7c-2.7-0.1-5-1.2-6.9-3.3
	s-2.7-4.4-2.6-7.2l1.7-33.1c0.1-2.7,1.2-5,3.3-6.9s4.4-2.7,7.2-2.6l33.1,1.7c2.7,0.1,5,1.2,6.9,3.3
	C535.9,258.6,536.8,261,536.6,263.7z M527.5,270c-1.3,0.5-2.7,0.8-4.2,1c1.6-0.8,2.7-2.1,3.4-3.9c-1.5,0.8-3.1,1.3-4.7,1.5
	c-1.3-1.6-3-2.4-5.2-2.5c-2-0.1-3.7,0.5-5.2,1.9c-1.5,1.3-2.3,3-2.4,5c0,0.7,0,1.2,0.1,1.7c-3-0.3-5.7-1.2-8.2-2.7
	c-2.5-1.5-4.6-3.4-6.3-5.7c-0.7,1.1-1.1,2.3-1.2,3.6c-0.1,2.6,0.8,4.7,2.8,6.2c-1.1-0.1-2.2-0.4-3.4-1.1l0,0.1
	c-0.1,1.7,0.4,3.3,1.5,4.7c1.1,1.4,2.5,2.3,4.1,2.7c-0.7,0.1-1.3,0.2-1.8,0.2c-0.3,0-0.7-0.1-1.3-0.2c0.4,1.5,1.2,2.7,2.4,3.7
	c1.2,1,2.6,1.6,4.1,1.7c-2.8,1.9-5.8,2.8-9.2,2.6c-0.6,0-1.2-0.1-1.7-0.2c3.3,2.3,6.9,3.6,10.9,3.8c2.6,0.1,5-0.2,7.3-0.9
	c2.3-0.7,4.3-1.7,6-3c1.7-1.3,3.1-2.8,4.4-4.5c1.2-1.7,2.2-3.5,2.9-5.5c0.7-1.9,1-3.8,1.1-5.8c0-0.4,0-0.7,0-0.9
	C525.2,272.6,526.4,271.4,527.5,270z"/>
<path id="XMLID_328_" d="M587.1,335.3c2.7-0.2,5.1,0.5,7.2,2.3c2.1,1.8,3.3,4,3.5,6.7l2.8,33c0.2,2.7-0.5,5.1-2.3,7.2
	c-1.8,2.1-4,3.3-6.7,3.5l-6.5,0.6l-1.8-20.5l6.8-0.6l0.3-8.1l-7.9,0.7l-0.4-5.1c-0.1-1.3,0.1-2.3,0.6-3c0.5-0.7,1.5-1.1,3.1-1.2
	l4.2-0.4l-0.6-7.1c-1.5-0.1-3.5,0-6.1,0.2c-3.1,0.3-5.5,1.4-7.2,3.4c-1.7,2-2.4,4.7-2.1,8l0.5,5.9l-6.9,0.6l0.7,8l6.9-0.6l1.8,20.5
	l-18.3,1.6c-2.7,0.2-5.1-0.5-7.2-2.3c-2.1-1.8-3.3-4-3.5-6.7l-2.8-33c-0.2-2.7,0.5-5.1,2.3-7.2c1.8-2.1,4-3.3,6.7-3.5L587.1,335.3z"
	/>
<path id="XMLID_323_" d="M593.2,450.3l-9,38.4c-0.4,1.8-1.4,3.2-3,4.2c-1.6,1-3.3,1.3-5.1,0.9l-38.4-9c-1.8-0.4-3.2-1.4-4.2-3
	c-1-1.6-1.3-3.3-0.9-5.1l9-38.4c0.4-1.8,1.4-3.2,3-4.2c1.6-1,3.3-1.3,5.1-0.9l38.4,9c1.8,0.4,3.2,1.4,4.2,3
	C593.4,446.7,593.6,448.4,593.2,450.3z M578.7,485.9l5.1-21.8l-4.5-1.1c0.1,1.5,0,3-0.4,4.6c-0.7,2.8-2,5.3-4,7.3
	c-2,2.1-4.4,3.5-7.2,4.3c-2.8,0.8-5.6,0.9-8.6,0.2c-4.4-1-7.8-3.4-10.3-7.2c-2.4-3.8-3.1-7.8-2.1-12.1c0.4-1.5,0.9-2.9,1.7-4.2
	l-4.7-1.1l-5.1,21.8c-0.1,0.6-0.1,1.1,0.2,1.6c0.3,0.5,0.7,0.8,1.3,0.9l35.9,8.4c0.6,0.1,1.1,0,1.6-0.3
	C578.3,486.9,578.6,486.5,578.7,485.9z M568.7,472.2c2.5-1.5,4.1-3.6,4.7-6.4s0.2-5.4-1.4-7.8c-1.6-2.4-3.8-4-6.7-4.7
	c-2.8-0.7-5.5-0.3-8,1.2c-2.5,1.5-4.1,3.6-4.7,6.4s-0.2,5.4,1.4,7.8s3.8,4,6.6,4.6C563.5,474,566.2,473.6,568.7,472.2z M585.7,455.9
	l1.3-5.5c0.1-0.6,0-1.2-0.3-1.8c-0.3-0.6-0.8-0.9-1.5-1.1l-5.8-1.4c-0.7-0.2-1.3-0.1-1.8,0.3c-0.6,0.4-0.9,0.8-1.1,1.5l-1.3,5.5
	c-0.2,0.7-0.1,1.3,0.3,1.8c0.3,0.6,0.8,0.9,1.5,1.1l5.8,1.4c0.7,0.2,1.3,0.1,1.8-0.3C585.2,457,585.6,456.5,585.7,455.9z"/>
<path id="XMLID_358_" class="st5" d="M441.4,450c11.5-13.9,16.1-33.2,10.5-51.8c-5.6-19-20.4-32.8-38.2-38"/>
<path id="XMLID_357_" class="st5" d="M467.8,472.1c18.8-22.4,26.3-53.6,17.4-83.7c-9-30.5-32.7-52.6-61-61"/>
<path id="XMLID_10_" class="st6" d="M2407.1,511.2c10-1.5,20.1-2.2,30.3-2.1c5,0.1,9.1,0.7,12.6,4.5c5.4,5.8,6.4,13.7,6,21.3
	c-0.7,13.4-2.4,26.7-3.9,40.1"/>
<g id="XMLID_2_">
	<path id="XMLID_13_" d="M2402,532.6c-9.4,0-24.5-5.2-28.9-14.3c-18.6-37.9-6.9-72.3,3.1-109.3c3.7-13.6,13.2-23.7,27.1-20.9
		c13.8,2.8,19.7,16.3,16.9,30.1c-6.1,30.3-7.2,53.7,4.6,77.7c6.2,12.6,1,27.9-11.6,34.1C2409.6,531.7,2405.8,532.6,2402,532.6z"/>
</g>
<g id="XMLID_3_">
	<polygon id="XMLID_49_" class="st0" points="2577.1,340.3 2577.1,262.7 2462.9,262.7 2462.9,340.3 2477.3,340.3 2477.3,365.6 
		2497.9,340.3 	"/>
	<line id="XMLID_48_" class="st0" x1="2478.1" y1="281.7" x2="2561.2" y2="281.7"/>
	<line id="XMLID_47_" class="st0" x1="2478.1" y1="300.5" x2="2561.2" y2="300.5"/>
	<line id="XMLID_46_" class="st0" x1="2478.1" y1="318.8" x2="2561.2" y2="318.8"/>
</g>
<rect id="XMLID_273_" x="2437.9" y="459.1" class="st5" width="238.2" height="15.3"/>
<rect id="XMLID_274_" x="2549.4" y="474.3" class="st5" width="15.3" height="97.6"/>
<g id="XMLID_45_">
	<rect id="XMLID_275_" x="2339.7" y="431.9" class="st4" width="15.3" height="147"/>
	<polygon id="XMLID_272_" class="st4" points="2423.5,522.4 2357,522.4 2357,537.7 2408.2,537.7 2408.2,578.9 2423.5,578.9 	"/>
</g>
<polygon id="XMLID_277_" class="st4" points="2601,566.7 2564.6,556.7 2549.4,556.7 2513,566.7 2513,571.9 2601,571.9 "/>
<path id="XMLID_280_" class="st7" d="M2402.3,293.2"/>
<path id="XMLID_283_" class="st7" d="M2402.3,293.2"/>
<path id="XMLID_11_" class="st6" d="M2403.1,408.9c2.8,7.8,9.4,13.9,16.9,17.3s16,4.3,24.3,4.1c15.7-0.5,29.6-6.6,42.9-14.9"/>
<path id="XMLID_27_" class="st6" d="M2703.8,511.2c-18.4-2.8-36.1-3.5-49.9,11.4c-13.3,14.3-12.4,34.3-10.4,52.4"/>
<g id="XMLID_25_">
	<path id="XMLID_26_" d="M2708.9,532.6c9.4,0,24.5-5.2,28.9-14.3c18.6-37.9,6.9-72.3-3.1-109.3c-3.7-13.6-13.2-23.7-27.1-20.9
		c-13.8,2.8-19.7,16.3-16.9,30.1c6.1,30.3,7.2,53.7-4.6,77.7c-6.2,12.6-1,27.9,11.6,34.1C2701.2,531.7,2705.1,532.6,2708.9,532.6z"
		/>
</g>
<g id="XMLID_137_">
	<path id="XMLID_138_" d="M3517.1,447.9c8.4,0,21.8-4.7,25.7-12.7c16.6-33.7,6.1-64.3-2.8-97.3c-3.3-12.1-11.8-21.1-24.1-18.6
		c-12.3,2.5-17.6,14.5-15.1,26.7c5.5,27,6.4,47.8-4.1,69.2c-5.5,11.2-0.9,24.8,10.4,30.4C3510.3,447.1,3513.7,447.9,3517.1,447.9z"
		/>
</g>
<g id="XMLID_21_">
	<rect id="XMLID_23_" x="2755.9" y="431.9" class="st4" width="15.3" height="147"/>
	<polygon id="XMLID_22_" class="st4" points="2687.4,522.4 2753.9,522.4 2753.9,537.7 2702.6,537.7 2702.6,578.9 2687.4,578.9 	"/>
</g>
<circle id="XMLID_16_" class="st5" cx="2697.9" cy="353.1" r="26"/>
<circle id="XMLID_76_" class="st5" cx="3510.7" cy="286.1" r="23.1"/>
<circle id="XMLID_125_" class="st5" cx="2415.5" cy="353.1" r="26"/>
<path id="XMLID_15_" class="st6" d="M3519.5,344.6c4.8,30.1-28.9,51.1-55,49.6"/>
<path id="XMLID_150_" class="st6" d="M2708.6,400.8c4.8,30.1-28.9,51.1-55,49.6"/>
<g id="XMLID_267_">
	<polygon id="XMLID_271_" class="st1" points="2546.4,305.6 2546.4,224.1 2666.3,224.1 2666.3,305.6 2651.3,305.6 2651.3,332.1 
		2629.6,305.6 	"/>
	<line id="XMLID_270_" class="st1" x1="2650.3" y1="244" x2="2563.1" y2="244"/>
	<line id="XMLID_269_" class="st1" x1="2650.3" y1="263.8" x2="2563.1" y2="263.8"/>
	<line id="XMLID_268_" class="st1" x1="2650.3" y1="283" x2="2563.1" y2="283"/>
</g>
<path id="XMLID_90_" class="st6" d="M1484.6,443c-23.2,0.5-44-7.4-64.3-18.5"/>
<path id="XMLID_86_" class="st6" d="M1505.3,443c23.2,0.5,44-7.4,64.3-18.5"/>
<circle id="XMLID_87_" class="st5" cx="1490.8" cy="375.6" r="26"/>
<path id="XMLID_83_" class="st6" d="M1356.6,521.6c5-0.4,9.1-0.1,12.9,3.4c0,0,26.7,19.2,15.5,60.9"/>
<path id="XMLID_82_" class="st6" d="M1353.6,443c23.2,0.5,44-7.4,64.3-18.5"/>
<g id="XMLID_70_">
	<path id="XMLID_81_" d="M1356,556.1c-9.4,0-24.5-5.2-28.9-14.3c-18.6-37.9-6.9-72.3,3.1-109.3c3.7-13.6,13.2-23.7,27.1-20.9
		c13.8,2.8,19.7,16.3,16.9,30.1c-6.1,30.3-7.2,53.7,4.6,77.7c6.2,12.6,1,27.9-11.6,34.1C1363.6,555.3,1359.8,556.1,1356,556.1z"/>
</g>
<circle id="XMLID_31_" class="st5" cx="1367.5" cy="375.6" r="26"/>
<path id="XMLID_29_" class="st6" d="M1339,437.2c-8.1,0-16.2,0-24.4,0c-2.5,0-5.1,0-7.3,1.1c-3.1,1.5-4.8,4.8-6.2,7.9
	c-4.7,10-8.1,20.6-10.2,31.5"/>
<path id="XMLID_28_" class="st6" d="M1333.7,525.7c8.4,25.5,7.1,51-3.8,76.5"/>
<path id="XMLID_374_" class="st6" d="M1631.7,521.6c-5-0.4-9.1-0.1-12.9,3.4c0,0-26.7,19.2-15.5,60.9"/>
<path id="XMLID_373_" class="st6" d="M1634.7,443c-23.2,0.5-44-7.4-64.3-18.5"/>
<g id="XMLID_127_">
	<path id="XMLID_130_" d="M1632.3,556.1c9.4,0,24.5-5.2,28.9-14.3c18.6-37.9,6.9-72.3-3.1-109.3c-3.7-13.6-13.2-23.7-27.1-20.9
		c-13.8,2.8-19.7,16.3-16.9,30.1c6.1,30.3,7.2,53.7-4.6,77.7c-6.2,12.6-1,27.9,11.6,34.1C1624.7,555.3,1628.5,556.1,1632.3,556.1z"
		/>
</g>
<circle id="XMLID_126_" class="st5" cx="1620.8" cy="375.6" r="26"/>
<path id="XMLID_123_" class="st6" d="M1649.3,437.2c8.1,0,16.2,0,24.4,0c2.5,0,5.1,0,7.3,1.1c3.1,1.5,4.8,4.8,6.2,7.9
	c4.7,10,8.1,20.6,10.2,31.5"/>
<path id="XMLID_121_" class="st6" d="M1654.6,525.7c-8.4,25.5-7.1,51,3.8,76.5"/>
<line id="XMLID_132_" class="st0" x1="1598.2" y1="265.5" x2="1562.4" y2="453.9"/>
<polygon id="XMLID_122_" class="st1" points="1557.3,311.7 1667.6,333.2 1687.9,228.8 1528.9,197.8 1508.6,302.2 1528.6,306.1 "/>
<path id="XMLID_120_" class="st6" d="M3526.6,429.6c-34.3,30.2-34.3,81.8-15.9,103.2"/>
<g id="XMLID_291_">
	<path id="XMLID_292_" d="M3637.2,448.8c8.4,0,21.8-4.7,25.7-12.7c16.6-33.7,6.1-64.3-2.8-97.3c-3.3-12.1-11.8-21.1-24.1-18.6
		c-12.3,2.5-17.6,14.5-15.1,26.7c5.5,27,6.4,47.8-4.1,69.2c-5.5,11.2-0.9,24.8,10.4,30.4C3630.4,448,3633.8,448.8,3637.2,448.8z"/>
</g>
<circle id="XMLID_290_" class="st5" cx="3630.8" cy="287" r="23.1"/>
<path id="XMLID_289_" class="st6" d="M3639.6,345.5c4.8,30.1-28.9,51.1-55,49.6"/>
<path id="XMLID_288_" class="st6" d="M3646.7,430.5c-34.3,30.2-34.3,81.8-15.9,103.2"/>
<g id="XMLID_296_">
	<path id="XMLID_297_" d="M3754.5,447.9c8.4,0,21.8-4.7,25.7-12.7c16.6-33.7,6.1-64.3-2.8-97.3c-3.3-12.1-11.8-21.1-24.1-18.6
		c-12.3,2.5-17.6,14.5-15.1,26.7c5.5,27,6.4,47.8-4.1,69.2c-5.5,11.2-0.9,24.8,10.4,30.4C3747.8,447.1,3751.2,447.9,3754.5,447.9z"
		/>
</g>
<circle id="XMLID_295_" class="st5" cx="3748.2" cy="286.1" r="23.1"/>
<path id="XMLID_294_" class="st6" d="M3757,344.6c4.8,30.1-28.9,51.1-55,49.6"/>
<path id="XMLID_293_" class="st6" d="M3764.1,429.6c-34.3,30.2-34.3,81.8-15.9,103.2"/>
<path id="XMLID_124_" d="M1489.7,551.5c-20.5,0-37.2-13.4-37.2-30l7.2-75.2c0-16.6,13.4-30,30-30s30,13.4,30,30l7.2,75.2
	C1526.8,538,1510.2,551.5,1489.7,551.5z"/>
<line id="XMLID_32_" class="st6" x1="1468.8" y1="532.1" x2="1468.8" y2="593.9"/>
<line id="XMLID_34_" class="st6" x1="1510.8" y1="532.1" x2="1510.8" y2="593.9"/>
</svg>
