<?xml version="1.0" encoding="utf-8"?>
<!-- Generator: Adobe Illustrator 19.0.0, SVG Export Plug-In . SVG Version: 6.00 Build 0)  -->
<svg version="1.1" id="Layer_1" xmlns="http://www.w3.org/2000/svg" xmlns:xlink="http://www.w3.org/1999/xlink" x="0px" y="0px"
	 viewBox="0 0 800 800" style="enable-background:new 0 0 800 800;" xml:space="preserve">
<style type="text/css">
	.st0{fill:none;stroke:#000000;stroke-width:9;stroke-miterlimit:10;}
	.st1{fill:#FFFFFF;stroke:#000000;stroke-width:9;stroke-miterlimit:10;}
	.st2{fill:none;stroke:#000000;stroke-width:12;stroke-linecap:round;stroke-miterlimit:10;}
	.st3{fill:none;stroke:#000000;stroke-width:12;stroke-linecap:round;stroke-linejoin:round;stroke-miterlimit:10;}
	.st4{fill:#FFFFFF;stroke:#000000;stroke-width:12;stroke-miterlimit:10;}
	.st5{fill:none;stroke:#000000;stroke-width:12;stroke-miterlimit:10;}
	.st6{fill:none;stroke:#000000;stroke-width:20;stroke-linecap:round;stroke-miterlimit:10;}
	.st7{fill:none;stroke:#FF00FF;stroke-width:12;stroke-miterlimit:10;}
</style>
<line id="XMLID_84_" class="st0" x1="-768.8" y1="265.5" x2="-733" y2="453.9"/>
<polygon id="XMLID_30_" class="st1" points="-727.9,311.7 -838.2,333.2 -858.5,228.8 -699.5,197.8 -679.2,302.2 -699.2,306.1 "/>
<circle id="XMLID_151_" class="st2" cx="1242.2" cy="520" r="53.4"/>
<circle id="XMLID_154_" class="st2" cx="1668" cy="520" r="53.4"/>
<path id="XMLID_155_" class="st2" d="M1242.2,520l31.2-98.4c0,0,4.2-24,22.1-24c17.9,0,17.9,0,17.9,0"/>
<path id="XMLID_162_" class="st2" d="M1359.3,520l31.2-98.4c0,0,4.2-24,22.1-24c17.9,0,17.9,0,17.9,0"/>
<path id="XMLID_163_" class="st2" d="M1477.3,520l31.2-98.4c0,0,4.2-24,22.1-24c17.9,0,17.9,0,17.9,0"/>
<path id="XMLID_12_" class="st2" d="M1614.6,429.6c0,0,2.5-19.6,20.4-19.6c17.9,0,17.9,0,17.9,0"/>
<path id="XMLID_156_" class="st3" d="M1271.8,427h355l45.4,93.1c0,0-275.9,0-303.5,0c-21.8,0-30.1-6.9-46.1-22.9l-54.2-59.5"/>
<line id="XMLID_160_" class="st2" x1="1391.4" y1="427" x2="1434.8" y2="520"/>
<line id="XMLID_161_" class="st2" x1="1508.2" y1="427" x2="1551.6" y2="520"/>
<g id="XMLID_9_">
	
		<rect id="XMLID_898_" x="-778.9" y="236.3" transform="matrix(0.178 0.984 -0.984 0.178 -398.5202 959.824)" width="10.2" height="10.2"/>
	
		<rect id="XMLID_897_" x="-768" y="296.6" transform="matrix(-0.984 0.178 -0.178 -0.984 -1459.8413 734.4076)" width="10.2" height="10.2"/>
	<polygon id="XMLID_896_" points="-789.8,239.1 -779.7,237.2 -781.5,227.2 -791.6,229 -801.7,230.8 -811.7,232.7 -809.9,242.7 
		-799.8,240.9 	"/>
	
		<rect id="XMLID_895_" x="-779.9" y="288.4" transform="matrix(-0.178 -0.984 0.984 -0.178 -1201.4535 -416.6534)" width="10.2" height="10.2"/>
	
		<rect id="XMLID_894_" x="-759.7" y="284.7" transform="matrix(-0.984 0.178 -0.178 -0.984 -1445.6123 709.3784)" width="10.2" height="10.2"/>
	
		<rect id="XMLID_893_" x="-791.7" y="280.1" transform="matrix(-0.178 -0.984 0.984 -0.178 -1207.3383 -438.0437)" width="10.2" height="10.2"/>
	
		<rect id="XMLID_892_" x="-751.5" y="272.8" transform="matrix(-0.984 0.178 -0.178 -0.984 -1431.3835 684.3493)" width="10.2" height="10.2"/>
	
		<rect id="XMLID_891_" x="-803.6" y="271.9" transform="matrix(-0.178 -0.984 0.984 -0.178 -1213.223 -459.434)" width="10.2" height="10.2"/>
	
		<rect id="XMLID_890_" x="-743.3" y="261" transform="matrix(-0.984 0.178 -0.178 -0.984 -1417.1545 659.3201)" width="10.2" height="10.2"/>
	<polygon id="XMLID_889_" points="-749.6,231.8 -739.5,230 -741.3,219.9 -751.4,221.7 -761.4,223.6 -771.5,225.4 -769.7,235.4 
		-759.6,233.6 	"/>
	<polygon id="XMLID_888_" points="-808.1,252.8 -809.9,242.7 -820,244.5 -818.1,254.6 -816.3,264.6 -814.5,274.7 -804.4,272.9 
		-806.3,262.8 	"/>
	<polygon id="XMLID_887_" points="-739.5,230 -737.7,240 -735.9,250.1 -734,260.1 -724,258.3 -725.8,248.3 -727.6,238.2 
		-729.4,228.2 	"/>
</g>
<polygon id="XMLID_36_" class="st4" points="-2885,520 -2741.7,520 -2741.7,280 -2948.3,280 -2948.3,520 -2922.3,520 "/>
<line id="XMLID_6_" class="st5" x1="-2920.8" y1="314.3" x2="-2770.4" y2="314.3"/>
<line id="XMLID_7_" class="st5" x1="-2920.8" y1="348.4" x2="-2770.4" y2="348.4"/>
<line id="XMLID_8_" class="st5" x1="-2920.8" y1="381.5" x2="-2770.4" y2="381.5"/>
<line id="XMLID_37_" class="st5" x1="-2920.8" y1="415.5" x2="-2808.5" y2="415.5"/>
<line id="XMLID_39_" class="st5" x1="-2920.8" y1="448.6" x2="-2808.5" y2="448.6"/>
<line id="XMLID_38_" class="st5" x1="-2920.8" y1="481.7" x2="-2808.5" y2="481.7"/>
<g id="XMLID_73_">
	<rect id="XMLID_72_" x="-2777.3" y="415.6" class="st4" width="71.4" height="71.4"/>
	<polyline id="XMLID_71_" class="st5" points="-2755.2,442.9 -2741.4,461.4 -2683.7,375.8 	"/>
</g>
<path id="XMLID_306_" class="st4" d="M-1874.9,500.5l41.5-12.3l-28.3-95.7l-77.3,22.9c-13.8,4.1-21.6,18.5-17.5,32.3l13.6,45.8
	c4.1,13.8,18.5,21.6,32.3,17.5v0L-1874.9,500.5z"/>
<polygon id="XMLID_319_" class="st4" points="-1742.4,482.1 -1833.4,488.2 -1861.7,392.5 -1782.1,348 "/>
<line id="XMLID_320_" class="st5" x1="-1943.1" y1="493.5" x2="-1884.7" y2="476.3"/>
<line id="XMLID_322_" class="st5" x1="-1949.8" y1="470.6" x2="-1891.5" y2="453.3"/>
<polygon id="XMLID_321_" class="st5" points="-1824.1,536.6 -1863.8,548.4 -1906.5,509.8 -1866.8,498.1 "/>
<path id="XMLID_330_" d="M-1620.4,263.7l-1.7,33.1c-0.1,2.7-1.2,5-3.3,6.9c-2,1.8-4.4,2.7-7.2,2.6l-33.1-1.7c-2.7-0.1-5-1.2-6.9-3.3
	s-2.7-4.4-2.6-7.2l1.7-33.1c0.1-2.7,1.2-5,3.3-6.9s4.4-2.7,7.2-2.6l33.1,1.7c2.7,0.1,5,1.2,6.9,3.3
	C-1621.1,258.6-1620.2,261-1620.4,263.7z M-1629.5,270c-1.3,0.5-2.7,0.8-4.2,1c1.6-0.8,2.7-2.1,3.4-3.9c-1.5,0.8-3.1,1.3-4.7,1.5
	c-1.3-1.6-3-2.4-5.2-2.5c-2-0.1-3.7,0.5-5.2,1.9c-1.5,1.3-2.3,3-2.4,5c0,0.7,0,1.2,0.1,1.7c-3-0.3-5.7-1.2-8.2-2.7
	c-2.5-1.5-4.6-3.4-6.3-5.7c-0.7,1.1-1.1,2.3-1.2,3.6c-0.1,2.6,0.8,4.7,2.8,6.2c-1.1-0.1-2.2-0.4-3.4-1.1l0,0.1
	c-0.1,1.7,0.4,3.3,1.5,4.7c1.1,1.4,2.5,2.3,4.1,2.7c-0.7,0.1-1.3,0.2-1.8,0.2c-0.3,0-0.7-0.1-1.3-0.2c0.4,1.5,1.2,2.7,2.4,3.7
	c1.2,1,2.6,1.6,4.1,1.7c-2.8,1.9-5.8,2.8-9.2,2.6c-0.6,0-1.2-0.1-1.7-0.2c3.3,2.3,6.9,3.6,10.9,3.8c2.6,0.1,5-0.2,7.3-0.9
	c2.3-0.7,4.3-1.7,6-3c1.7-1.3,3.1-2.8,4.4-4.5c1.2-1.7,2.2-3.5,2.9-5.5c0.7-1.9,1-3.8,1.1-5.8c0-0.4,0-0.7,0-0.9
	C-1631.8,272.6-1630.6,271.4-1629.5,270z"/>
<path id="XMLID_328_" d="M-1569.9,335.3c2.7-0.2,5.1,0.5,7.2,2.3c2.1,1.8,3.3,4,3.5,6.7l2.8,33c0.2,2.7-0.5,5.1-2.3,7.2
	c-1.8,2.1-4,3.3-6.7,3.5l-6.5,0.6l-1.8-20.5l6.8-0.6l0.3-8.1l-7.9,0.7l-0.4-5.1c-0.1-1.3,0.1-2.3,0.6-3c0.5-0.7,1.5-1.1,3.1-1.2
	l4.2-0.4l-0.6-7.1c-1.5-0.1-3.5,0-6.1,0.2c-3.1,0.3-5.5,1.4-7.2,3.4c-1.7,2-2.4,4.7-2.1,8l0.5,5.9l-6.9,0.6l0.7,8l6.9-0.6l1.8,20.5
	l-18.3,1.6c-2.7,0.2-5.1-0.5-7.2-2.3c-2.1-1.8-3.3-4-3.5-6.7l-2.8-33c-0.2-2.7,0.5-5.1,2.3-7.2c1.8-2.1,4-3.3,6.7-3.5L-1569.9,335.3
	z"/>
<path id="XMLID_323_" d="M-1563.8,450.3l-9,38.4c-0.4,1.8-1.4,3.2-3,4.2c-1.6,1-3.3,1.3-5.1,0.9l-38.4-9c-1.8-0.4-3.2-1.4-4.2-3
	c-1-1.6-1.3-3.3-0.9-5.1l9-38.4c0.4-1.8,1.4-3.2,3-4.2c1.6-1,3.3-1.3,5.1-0.9l38.4,9c1.8,0.4,3.2,1.4,4.2,3
	C-1563.6,446.7-1563.4,448.4-1563.8,450.3z M-1578.3,485.9l5.1-21.8l-4.5-1.1c0.1,1.5,0,3-0.4,4.6c-0.7,2.8-2,5.3-4,7.3
	c-2,2.1-4.4,3.5-7.2,4.3c-2.8,0.8-5.6,0.9-8.6,0.2c-4.4-1-7.8-3.4-10.3-7.2c-2.4-3.8-3.1-7.8-2.1-12.1c0.4-1.5,0.9-2.9,1.7-4.2
	l-4.7-1.1l-5.1,21.8c-0.1,0.6-0.1,1.1,0.2,1.6c0.3,0.5,0.7,0.8,1.3,0.9l35.9,8.4c0.6,0.1,1.1,0,1.6-0.3
	C-1578.7,486.9-1578.4,486.5-1578.3,485.9z M-1588.3,472.2c2.5-1.5,4.1-3.6,4.7-6.4s0.2-5.4-1.4-7.8c-1.6-2.4-3.8-4-6.7-4.7
	c-2.8-0.7-5.5-0.3-8,1.2c-2.5,1.5-4.1,3.6-4.7,6.4c-0.6,2.8-0.2,5.4,1.4,7.8s3.8,4,6.6,4.6C-1593.5,474-1590.8,473.6-1588.3,472.2z
	 M-1571.3,455.9l1.3-5.5c0.1-0.6,0-1.2-0.3-1.8c-0.3-0.6-0.8-0.9-1.5-1.1l-5.8-1.4c-0.7-0.2-1.3-0.1-1.8,0.3
	c-0.6,0.4-0.9,0.8-1.1,1.5l-1.3,5.5c-0.2,0.7-0.1,1.3,0.3,1.8c0.3,0.6,0.8,0.9,1.5,1.1l5.8,1.4c0.7,0.2,1.3,0.1,1.8-0.3
	C-1571.8,457-1571.4,456.5-1571.3,455.9z"/>
<path id="XMLID_358_" class="st5" d="M-1715.6,450c11.5-13.9,16.1-33.2,10.5-51.8c-5.6-19-20.4-32.8-38.2-38"/>
<path id="XMLID_357_" class="st5" d="M-1689.2,472.1c18.8-22.4,26.3-53.6,17.4-83.7c-9-30.5-32.7-52.6-61-61"/>
<path id="XMLID_10_" class="st6" d="M250.1,511.2c10-1.5,20.1-2.2,30.3-2.1c5,0.1,9.1,0.7,12.6,4.5c5.4,5.8,6.4,13.7,6,21.3
	c-0.7,13.4-2.4,26.7-3.9,40.1"/>
<g id="XMLID_2_">
	<path id="XMLID_13_" d="M245,532.6c-9.4,0-24.5-5.2-28.9-14.3c-18.6-37.9-6.9-72.3,3.1-109.3c3.7-13.6,13.2-23.7,27.1-20.9
		c13.8,2.8,19.7,16.3,16.9,30.1c-6.1,30.3-7.2,53.7,4.6,77.7c6.2,12.6,1,27.9-11.6,34.1C252.6,531.7,248.8,532.6,245,532.6z"/>
</g>
<g id="XMLID_3_">
	<polygon id="XMLID_49_" class="st0" points="420.1,340.3 420.1,262.7 305.9,262.7 305.9,340.3 320.3,340.3 320.3,365.6 
		340.9,340.3 	"/>
	<line id="XMLID_48_" class="st0" x1="321.1" y1="281.7" x2="404.2" y2="281.7"/>
	<line id="XMLID_47_" class="st0" x1="321.1" y1="300.5" x2="404.2" y2="300.5"/>
	<line id="XMLID_46_" class="st0" x1="321.1" y1="318.8" x2="404.2" y2="318.8"/>
</g>
<rect id="XMLID_273_" x="280.9" y="459.1" class="st5" width="238.2" height="15.3"/>
<rect id="XMLID_274_" x="392.4" y="474.3" class="st5" width="15.3" height="97.6"/>
<g id="XMLID_45_">
	<rect id="XMLID_275_" x="182.7" y="431.9" class="st4" width="15.3" height="147"/>
	<polygon id="XMLID_272_" class="st4" points="266.5,522.4 200,522.4 200,537.7 251.2,537.7 251.2,578.9 266.5,578.9 	"/>
</g>
<polygon id="XMLID_277_" class="st4" points="444,566.7 407.6,556.7 392.4,556.7 356,566.7 356,571.9 444,571.9 "/>
<path id="XMLID_280_" class="st7" d="M245.3,293.2"/>
<path id="XMLID_283_" class="st7" d="M245.3,293.2"/>
<path id="XMLID_11_" class="st6" d="M246.1,408.9c2.8,7.8,9.4,13.9,16.9,17.3c7.6,3.4,16,4.3,24.3,4.1c15.7-0.5,29.6-6.6,42.9-14.9"
	/>
<path id="XMLID_27_" class="st6" d="M546.8,511.2c-18.4-2.8-36.1-3.5-49.9,11.4c-13.3,14.3-12.4,34.3-10.4,52.4"/>
<g id="XMLID_25_">
	<path id="XMLID_26_" d="M551.9,532.6c9.4,0,24.5-5.2,28.9-14.3c18.6-37.9,6.9-72.3-3.1-109.3c-3.7-13.6-13.2-23.7-27.1-20.9
		c-13.8,2.8-19.7,16.3-16.9,30.1c6.1,30.3,7.2,53.7-4.6,77.7c-6.2,12.6-1,27.9,11.6,34.1C544.2,531.7,548.1,532.6,551.9,532.6z"/>
</g>
<g id="XMLID_137_">
	<path id="XMLID_138_" d="M1360.1,447.9c8.4,0,21.8-4.7,25.7-12.7c16.6-33.7,6.1-64.3-2.8-97.3c-3.3-12.1-11.8-21.1-24.1-18.6
		c-12.3,2.5-17.6,14.5-15.1,26.7c5.5,27,6.4,47.8-4.1,69.2c-5.5,11.2-0.9,24.8,10.4,30.4C1353.3,447.1,1356.7,447.9,1360.1,447.9z"
		/>
</g>
<g id="XMLID_21_">
	<rect id="XMLID_23_" x="598.9" y="431.9" class="st4" width="15.3" height="147"/>
	<polygon id="XMLID_22_" class="st4" points="530.4,522.4 596.9,522.4 596.9,537.7 545.6,537.7 545.6,578.9 530.4,578.9 	"/>
</g>
<circle id="XMLID_16_" class="st5" cx="540.9" cy="353.1" r="26"/>
<circle id="XMLID_76_" class="st5" cx="1353.7" cy="286.1" r="23.1"/>
<circle id="XMLID_125_" class="st5" cx="258.5" cy="353.1" r="26"/>
<path id="XMLID_15_" class="st6" d="M1362.5,344.6c4.8,30.1-28.9,51.1-55,49.6"/>
<path id="XMLID_150_" class="st6" d="M551.6,400.8c4.8,30.1-28.9,51.1-55,49.6"/>
<g id="XMLID_267_">
	<polygon id="XMLID_271_" class="st1" points="389.4,305.6 389.4,224.1 509.3,224.1 509.3,305.6 494.3,305.6 494.3,332.1 
		472.6,305.6 	"/>
	<line id="XMLID_270_" class="st1" x1="493.3" y1="244" x2="406.1" y2="244"/>
	<line id="XMLID_269_" class="st1" x1="493.3" y1="263.8" x2="406.1" y2="263.8"/>
	<line id="XMLID_268_" class="st1" x1="493.3" y1="283" x2="406.1" y2="283"/>
</g>
<path id="XMLID_90_" class="st6" d="M-672.4,443c-23.2,0.5-44-7.4-64.3-18.5"/>
<path id="XMLID_86_" class="st6" d="M-651.7,443c23.2,0.5,44-7.4,64.3-18.5"/>
<circle id="XMLID_87_" class="st5" cx="-666.2" cy="375.6" r="26"/>
<path id="XMLID_83_" class="st6" d="M-800.4,521.6c5-0.4,9.1-0.1,12.9,3.4c0,0,26.7,19.2,15.5,60.9"/>
<path id="XMLID_82_" class="st6" d="M-803.4,443c23.2,0.5,44-7.4,64.3-18.5"/>
<g id="XMLID_70_">
	<path id="XMLID_81_" d="M-801,556.1c-9.4,0-24.5-5.2-28.9-14.3c-18.6-37.9-6.9-72.3,3.1-109.3c3.7-13.6,13.2-23.7,27.1-20.9
		c13.8,2.8,19.7,16.3,16.9,30.1c-6.1,30.3-7.2,53.7,4.6,77.7c6.2,12.6,1,27.9-11.6,34.1C-793.4,555.3-797.2,556.1-801,556.1z"/>
</g>
<circle id="XMLID_31_" class="st5" cx="-789.5" cy="375.6" r="26"/>
<path id="XMLID_29_" class="st6" d="M-818,437.2c-8.1,0-16.2,0-24.4,0c-2.5,0-5.1,0-7.3,1.1c-3.1,1.5-4.8,4.8-6.2,7.9
	c-4.7,10-8.1,20.6-10.2,31.5"/>
<path id="XMLID_28_" class="st6" d="M-823.3,525.7c8.4,25.5,7.1,51-3.8,76.5"/>
<path id="XMLID_374_" class="st6" d="M-525.3,521.6c-5-0.4-9.1-0.1-12.9,3.4c0,0-26.7,19.2-15.5,60.9"/>
<path id="XMLID_373_" class="st6" d="M-522.3,443c-23.2,0.5-44-7.4-64.3-18.5"/>
<g id="XMLID_127_">
	<path id="XMLID_130_" d="M-524.7,556.1c9.4,0,24.5-5.2,28.9-14.3c18.6-37.9,6.9-72.3-3.1-109.3c-3.7-13.6-13.2-23.7-27.1-20.9
		c-13.8,2.8-19.7,16.3-16.9,30.1c6.1,30.3,7.2,53.7-4.6,77.7c-6.2,12.6-1,27.9,11.6,34.1C-532.3,555.3-528.5,556.1-524.7,556.1z"/>
</g>
<circle id="XMLID_126_" class="st5" cx="-536.2" cy="375.6" r="26"/>
<path id="XMLID_123_" class="st6" d="M-507.7,437.2c8.1,0,16.2,0,24.4,0c2.5,0,5.1,0,7.3,1.1c3.1,1.5,4.8,4.8,6.2,7.9
	c4.7,10,8.1,20.6,10.2,31.5"/>
<path id="XMLID_121_" class="st6" d="M-502.4,525.7c-8.4,25.5-7.1,51,3.8,76.5"/>
<line id="XMLID_132_" class="st0" x1="-558.8" y1="265.5" x2="-594.6" y2="453.9"/>
<polygon id="XMLID_122_" class="st1" points="-599.7,311.7 -489.4,333.2 -469.1,228.8 -628.1,197.8 -648.4,302.2 -628.4,306.1 "/>
<path id="XMLID_120_" class="st6" d="M1369.6,429.6c-34.3,30.2-34.3,81.8-15.9,103.2"/>
<g id="XMLID_291_">
	<path id="XMLID_292_" d="M1480.2,448.8c8.4,0,21.8-4.7,25.7-12.7c16.6-33.7,6.1-64.3-2.8-97.3c-3.3-12.1-11.8-21.1-24.1-18.6
		c-12.3,2.5-17.6,14.5-15.1,26.7c5.5,27,6.4,47.8-4.1,69.2c-5.5,11.2-0.9,24.8,10.4,30.4C1473.4,448,1476.8,448.8,1480.2,448.8z"/>
</g>
<circle id="XMLID_290_" class="st5" cx="1473.8" cy="287" r="23.1"/>
<path id="XMLID_289_" class="st6" d="M1482.6,345.5c4.8,30.1-28.9,51.1-55,49.6"/>
<path id="XMLID_288_" class="st6" d="M1489.7,430.5c-34.3,30.2-34.3,81.8-15.9,103.2"/>
<g id="XMLID_296_">
	<path id="XMLID_297_" d="M1597.5,447.9c8.4,0,21.8-4.7,25.7-12.7c16.6-33.7,6.1-64.3-2.8-97.3c-3.3-12.1-11.8-21.1-24.1-18.6
		c-12.3,2.5-17.6,14.5-15.1,26.7c5.5,27,6.4,47.8-4.1,69.2c-5.5,11.2-0.9,24.8,10.4,30.4C1590.8,447.1,1594.2,447.9,1597.5,447.9z"
		/>
</g>
<circle id="XMLID_295_" class="st5" cx="1591.2" cy="286.1" r="23.1"/>
<path id="XMLID_294_" class="st6" d="M1600,344.6c4.8,30.1-28.9,51.1-55,49.6"/>
<path id="XMLID_293_" class="st6" d="M1607.1,429.6c-34.3,30.2-34.3,81.8-15.9,103.2"/>
<path id="XMLID_124_" d="M-667.3,551.5c-20.5,0-37.2-13.4-37.2-30l7.2-75.2c0-16.6,13.4-30,30-30s30,13.4,30,30l7.2,75.2
	C-630.2,538-646.8,551.5-667.3,551.5z"/>
<line id="XMLID_32_" class="st6" x1="-688.2" y1="532.1" x2="-688.2" y2="593.9"/>
<line id="XMLID_34_" class="st6" x1="-646.2" y1="532.1" x2="-646.2" y2="593.9"/>
</svg>
