<?xml version="1.0" encoding="utf-8"?>
<!-- Generator: Adobe Illustrator 16.0.0, SVG Export Plug-In . SVG Version: 6.00 Build 0)  -->
<!DOCTYPE svg PUBLIC "-//W3C//DTD SVG 1.1//EN" "http://www.w3.org/Graphics/SVG/1.1/DTD/svg11.dtd">
<svg version="1.1" id="Layer_1" xmlns="http://www.w3.org/2000/svg" xmlns:xlink="http://www.w3.org/1999/xlink" x="0px" y="0px"
	 width="800px" height="800px" viewBox="0 0 800 800" enable-background="new 0 0 800 800" xml:space="preserve">
<line id="XMLID_84_" fill="none" stroke="#000000" stroke-width="9" stroke-miterlimit="10" x1="-1830.1" y1="265.5" x2="-1794.2" y2="453.9"/>
<polygon id="XMLID_30_" fill="#FFFFFF" stroke="#000000" stroke-width="9" stroke-miterlimit="10" points="-1789.1,311.7 
	-1899.4,333.2 -1919.8,228.8 -1760.7,197.8 -1740.4,302.2 -1760.4,306.1 "/>
<circle id="XMLID_151_" fill="#FFFFFF" stroke="#000000" stroke-width="12" stroke-linecap="round" stroke-miterlimit="10" cx="181" cy="520" r="53.4"/>
<circle id="XMLID_154_" fill="#FFFFFF" stroke="#000000" stroke-width="12" stroke-linecap="round" stroke-miterlimit="10" cx="606.8" cy="520" r="53.4"/>
<path id="XMLID_155_" fill="none" stroke="#000000" stroke-width="12" stroke-linecap="round" stroke-miterlimit="10" d="M181,520
	l31.2-98.4c0,0,4.2-24,22.1-24c17.9,0,17.9,0,17.9,0"/>
<path id="XMLID_162_" fill="none" stroke="#000000" stroke-width="12" stroke-linecap="round" stroke-miterlimit="10" d="M298,520
	l31.2-98.4c0,0,4.2-24,22.1-24c17.9,0,17.9,0,17.9,0"/>
<path id="XMLID_163_" fill="none" stroke="#000000" stroke-width="12" stroke-linecap="round" stroke-miterlimit="10" d="M416,520
	l31.2-98.4c0,0,4.2-24,22.1-24c17.9,0,17.9,0,17.9,0"/>
<path id="XMLID_12_" fill="none" stroke="#000000" stroke-width="12" stroke-linecap="round" stroke-miterlimit="10" d="
	M553.4,429.6c0,0,2.5-19.6,20.399-19.6c17.9,0,17.9,0,17.9,0"/>
<path id="XMLID_156_" fill="none" stroke="#000000" stroke-width="12" stroke-linecap="round" stroke-linejoin="round" stroke-miterlimit="10" d="
	M210.5,427h355l45.4,93.1c0,0-275.9,0-303.5,0c-21.8,0-30.101-6.899-46.101-22.899l-54.2-59.5"/>
<line id="XMLID_160_" fill="none" stroke="#000000" stroke-width="12" stroke-linecap="round" stroke-miterlimit="10" x1="330.1" y1="427" x2="373.5" y2="520"/>
<line id="XMLID_161_" fill="none" stroke="#000000" stroke-width="12" stroke-linecap="round" stroke-miterlimit="10" x1="447" y1="427" x2="490.4" y2="520"/>
<g id="XMLID_9_">
	
		<rect id="XMLID_898_" x="-1840.13" y="236.257" transform="matrix(-0.178 -0.984 0.984 -0.178 -2399.2368 -1521.3851)" width="10.2" height="10.2"/>
	
		<rect id="XMLID_897_" x="-1829.286" y="296.675" transform="matrix(0.984 -0.178 0.178 0.984 -82.8663 -319.9394)" width="10.2" height="10.2"/>
	<polygon id="XMLID_896_" points="-1851,239.1 -1841,237.2 -1842.8,227.2 -1852.9,229 -1862.9,230.8 -1873,232.7 -1871.1,242.7 
		-1861.1,240.9 	"/>
	
		<rect id="XMLID_895_" x="-1841.126" y="288.326" transform="matrix(0.178 0.984 -0.984 0.178 -1220.4874 2047.9065)" width="10.199" height="10.2"/>
	
		<rect id="XMLID_894_" x="-1821.008" y="284.815" transform="matrix(0.984 -0.178 0.178 0.984 -80.594 -318.5733)" width="10.2" height="10.199"/>
	
		<rect id="XMLID_893_" x="-1853.06" y="280.122" transform="matrix(0.178 0.984 -0.984 0.178 -1238.2865 2052.8777)" width="10.2" height="10.2"/>
	
		<rect id="XMLID_892_" x="-1812.729" y="272.955" transform="matrix(0.984 -0.178 0.178 0.984 -78.356 -317.304)" width="10.199" height="10.2"/>
	
		<rect id="XMLID_891_" x="-1864.895" y="271.901" transform="matrix(0.178 0.984 -0.984 0.178 -1256.119 2057.7717)" width="10.2" height="10.2"/>
	
		<rect id="XMLID_890_" x="-1804.567" y="261.015" transform="matrix(0.984 -0.178 0.178 0.984 -76.1003 -316.0419)" width="10.199" height="10.199"/>
	<polygon id="XMLID_889_" points="-1810.8,231.8 -1800.8,230 -1802.6,219.9 -1812.6,221.7 -1822.7,223.6 -1832.7,225.4 
		-1830.9,235.4 -1820.9,233.6 	"/>
	<polygon id="XMLID_888_" points="-1869.3,252.8 -1871.1,242.7 -1881.2,244.5 -1879.4,254.6 -1877.6,264.6 -1875.7,274.7 
		-1865.7,272.9 -1867.5,262.8 	"/>
	<polygon id="XMLID_887_" points="-1800.8,230 -1798.9,240 -1797.1,250.1 -1795.3,260.1 -1785.2,258.3 -1787.1,248.3 -1788.9,238.2 
		-1790.7,228.2 	"/>
</g>
<polygon id="XMLID_36_" fill="#FFFFFF" stroke="#000000" stroke-width="12" stroke-miterlimit="10" points="-3946.3,520 
	-3802.9,520 -3802.9,280 -4009.6,280 -4009.6,520 -3983.6,520 "/>
<line id="XMLID_6_" fill="none" stroke="#000000" stroke-width="12" stroke-miterlimit="10" x1="-3982" y1="314.3" x2="-3831.7" y2="314.3"/>
<line id="XMLID_7_" fill="none" stroke="#000000" stroke-width="12" stroke-miterlimit="10" x1="-3982" y1="348.4" x2="-3831.7" y2="348.4"/>
<line id="XMLID_8_" fill="none" stroke="#000000" stroke-width="12" stroke-miterlimit="10" x1="-3982" y1="381.5" x2="-3831.7" y2="381.5"/>
<line id="XMLID_37_" fill="none" stroke="#000000" stroke-width="12" stroke-miterlimit="10" x1="-3982" y1="415.5" x2="-3869.8" y2="415.5"/>
<line id="XMLID_39_" fill="none" stroke="#000000" stroke-width="12" stroke-miterlimit="10" x1="-3982" y1="448.6" x2="-3869.8" y2="448.6"/>
<line id="XMLID_38_" fill="none" stroke="#000000" stroke-width="12" stroke-miterlimit="10" x1="-3982" y1="481.7" x2="-3869.8" y2="481.7"/>
<g id="XMLID_73_">
	
		<rect id="XMLID_72_" x="-3838.5" y="415.6" fill="#FFFFFF" stroke="#000000" stroke-width="12" stroke-miterlimit="10" width="71.4" height="71.4"/>
	<polyline id="XMLID_71_" fill="none" stroke="#000000" stroke-width="12" stroke-miterlimit="10" points="-3816.5,442.9 
		-3802.6,461.4 -3745,375.8 	"/>
</g>
<path id="XMLID_306_" fill="#FFFFFF" stroke="#000000" stroke-width="12" stroke-miterlimit="10" d="M-2936.2,500.5l41.5-12.3
	l-28.3-95.7l-77.3,22.9c-13.8,4.1-21.601,18.5-17.5,32.3l13.6,45.8c4.101,13.8,18.5,21.6,32.3,17.5l0,0L-2936.2,500.5z"/>
<polygon id="XMLID_319_" fill="#FFFFFF" stroke="#000000" stroke-width="12" stroke-miterlimit="10" points="-2803.6,482.1 
	-2894.7,488.2 -2923,392.5 -2843.3,348 "/>
<line id="XMLID_320_" fill="none" stroke="#000000" stroke-width="12" stroke-miterlimit="10" x1="-3004.3" y1="493.5" x2="-2946" y2="476.3"/>
<line id="XMLID_322_" fill="none" stroke="#000000" stroke-width="12" stroke-miterlimit="10" x1="-3011.1" y1="470.6" x2="-2952.8" y2="453.3"/>
<polygon id="XMLID_321_" fill="none" stroke="#000000" stroke-width="12" stroke-miterlimit="10" points="-2885.3,536.6 
	-2925.1,548.4 -2967.8,509.8 -2928,498.1 "/>
<path id="XMLID_330_" d="M-2681.6,263.7l-1.7,33.1c-0.101,2.7-1.2,5-3.3,6.9c-2,1.8-4.4,2.7-7.2,2.6l-33.101-1.7
	c-2.7-0.1-5-1.2-6.899-3.3c-1.9-2.1-2.7-4.4-2.601-7.2l1.7-33.1c0.1-2.7,1.2-5,3.3-6.9c2-1.8,4.4-2.7,7.2-2.6l33.1,1.7
	c2.7,0.1,5,1.2,6.9,3.3C-2682.3,258.6-2681.5,261-2681.6,263.7z M-2690.8,270c-1.3,0.5-2.7,0.8-4.2,1c1.6-0.8,2.7-2.1,3.4-3.9
	c-1.5,0.8-3.1,1.3-4.7,1.5c-1.3-1.6-3-2.4-5.2-2.5c-2-0.1-3.7,0.5-5.2,1.9c-1.5,1.3-2.3,3-2.399,5c0,0.7,0,1.2,0.1,1.7
	c-3-0.3-5.7-1.2-8.2-2.7s-4.6-3.4-6.3-5.7c-0.7,1.1-1.1,2.3-1.2,3.6c-0.1,2.6,0.8,4.7,2.8,6.2c-1.101-0.1-2.2-0.4-3.4-1.1v0.1
	c-0.1,1.7,0.4,3.3,1.5,4.7c1.101,1.4,2.5,2.3,4.101,2.7c-0.7,0.1-1.3,0.2-1.8,0.2c-0.3,0-0.7-0.1-1.3-0.2c0.4,1.5,1.2,2.7,2.4,3.7
	c1.2,1,2.6,1.6,4.1,1.7c-2.8,1.9-5.8,2.8-9.2,2.6c-0.6,0-1.2-0.1-1.7-0.2c3.3,2.3,6.899,3.6,10.899,3.8c2.601,0.1,5-0.2,7.3-0.9
	c2.3-0.7,4.3-1.7,6-3c1.7-1.3,3.1-2.8,4.4-4.5c1.2-1.7,2.2-3.5,2.9-5.5c0.7-1.9,1-3.8,1.1-5.8c0-0.4,0-0.7,0-0.9
	C-2693.1,272.6-2691.8,271.4-2690.8,270z"/>
<path id="XMLID_328_" d="M-2631.2,335.3c2.7-0.2,5.101,0.5,7.2,2.3c2.1,1.8,3.3,4,3.5,6.7l2.8,33c0.2,2.7-0.5,5.1-2.3,7.2
	s-4,3.3-6.7,3.5l-6.5,0.6l-1.8-20.5l6.8-0.6l0.3-8.1l-7.9,0.7l-0.4-5.1c-0.1-1.3,0.1-2.3,0.6-3s1.5-1.1,3.1-1.2l4.2-0.4l-0.6-7.1
	c-1.5-0.1-3.5,0-6.101,0.2c-3.1,0.3-5.5,1.4-7.2,3.4s-2.4,4.7-2.1,8l0.5,5.9l-6.9,0.6l0.7,8l6.9-0.6l1.8,20.5l-18.3,1.6
	c-2.7,0.2-5.101-0.5-7.2-2.3c-2.1-1.8-3.3-4-3.5-6.7l-2.8-33c-0.2-2.7,0.5-5.1,2.3-7.2c1.8-2.1,4-3.3,6.7-3.5L-2631.2,335.3z"/>
<path id="XMLID_323_" d="M-2625,450.3l-9,38.4c-0.4,1.8-1.4,3.2-3,4.2s-3.3,1.3-5.1,0.899l-38.4-9c-1.8-0.399-3.2-1.399-4.2-3
	c-1-1.6-1.3-3.3-0.899-5.1l9-38.4c0.399-1.8,1.399-3.2,3-4.2c1.6-1,3.3-1.3,5.1-0.899l38.4,9c1.8,0.399,3.2,1.399,4.2,3
	C-2624.9,446.7-2624.6,448.4-2625,450.3z M-2639.5,485.9l5.1-21.801l-4.5-1.1c0.1,1.5,0,3-0.4,4.6c-0.7,2.801-2,5.301-4,7.301
	c-2,2.1-4.4,3.5-7.2,4.3c-2.8,0.8-5.6,0.899-8.6,0.2c-4.4-1-7.8-3.4-10.3-7.2c-2.4-3.8-3.1-7.8-2.1-12.101
	c0.4-1.5,0.9-2.899,1.7-4.199l-4.7-1.101l-5.1,21.8c-0.1,0.601-0.1,1.101,0.2,1.601c0.3,0.5,0.7,0.8,1.3,0.899l35.9,8.4
	c0.6,0.1,1.1,0,1.6-0.3C-2640,486.9-2639.7,486.5-2639.5,485.9z M-2649.6,472.2c2.5-1.5,4.1-3.601,4.7-6.4
	c0.601-2.8,0.2-5.399-1.399-7.8c-1.601-2.4-3.8-4-6.7-4.7c-2.8-0.7-5.5-0.3-8,1.2s-4.1,3.6-4.7,6.4c-0.6,2.8-0.2,5.399,1.4,7.8
	c1.6,2.399,3.8,4,6.6,4.6C-2654.7,474-2652.1,473.6-2649.6,472.2z M-2632.5,455.9l1.3-5.5c0.101-0.601,0-1.2-0.3-1.801
	c-0.3-0.6-0.8-0.899-1.5-1.1l-5.8-1.4c-0.7-0.199-1.3-0.1-1.8,0.301c-0.6,0.399-0.9,0.8-1.1,1.5l-1.3,5.5
	c-0.2,0.699-0.101,1.3,0.3,1.8c0.3,0.6,0.8,0.899,1.5,1.1l5.8,1.4c0.7,0.2,1.3,0.1,1.8-0.3C-2633,457-2632.7,456.5-2632.5,455.9z"/>
<path id="XMLID_358_" fill="none" stroke="#000000" stroke-width="12" stroke-miterlimit="10" d="M-2776.9,450
	c11.5-13.9,16.1-33.2,10.5-51.8c-5.6-19-20.4-32.8-38.2-38"/>
<path id="XMLID_357_" fill="none" stroke="#000000" stroke-width="12" stroke-miterlimit="10" d="M-2750.4,472.1
	c18.8-22.399,26.3-53.6,17.4-83.7c-9-30.5-32.7-52.6-61-61"/>
<path id="XMLID_10_" fill="none" stroke="#000000" stroke-width="20" stroke-linecap="round" stroke-miterlimit="10" d="
	M-811.2,511.2c10-1.5,20.1-2.2,30.3-2.101c5,0.101,9.1,0.7,12.6,4.5c5.4,5.801,6.4,13.7,6,21.301c-0.7,13.399-2.4,26.699-3.9,40.1"
	/>
<g id="XMLID_2_">
	<path id="XMLID_13_" d="M-816.2,532.6c-9.4,0-24.5-5.199-28.9-14.3C-863.7,480.4-852,446-842,409c3.7-13.6,13.2-23.7,27.1-20.9
		c13.8,2.8,19.7,16.3,16.9,30.1c-6.1,30.3-7.2,53.7,4.6,77.7c6.2,12.6,1,27.899-11.6,34.1C-808.6,531.7-812.5,532.6-816.2,532.6z"/>
</g>
<g id="XMLID_3_">
	<polygon id="XMLID_49_" fill="none" stroke="#000000" stroke-width="9" stroke-miterlimit="10" points="-641.1,340.3 -641.1,262.7 
		-755.4,262.7 -755.4,340.3 -741,340.3 -741,365.6 -720.4,340.3 	"/>
	
		<line id="XMLID_48_" fill="none" stroke="#000000" stroke-width="9" stroke-miterlimit="10" x1="-740.1" y1="281.7" x2="-657" y2="281.7"/>
	
		<line id="XMLID_47_" fill="none" stroke="#000000" stroke-width="9" stroke-miterlimit="10" x1="-740.1" y1="300.5" x2="-657" y2="300.5"/>
	
		<line id="XMLID_46_" fill="none" stroke="#000000" stroke-width="9" stroke-miterlimit="10" x1="-740.1" y1="318.8" x2="-657" y2="318.8"/>
</g>
<rect id="XMLID_273_" x="-780.3" y="459.1" fill="none" stroke="#000000" stroke-width="12" stroke-miterlimit="10" width="238.2" height="15.301"/>
<rect id="XMLID_274_" x="-668.9" y="474.3" fill="none" stroke="#000000" stroke-width="12" stroke-miterlimit="10" width="15.3" height="97.601"/>
<g id="XMLID_45_">
	
		<rect id="XMLID_275_" x="-878.5" y="431.9" fill="#FFFFFF" stroke="#000000" stroke-width="12" stroke-miterlimit="10" width="15.3" height="147"/>
	<polygon id="XMLID_272_" fill="#FFFFFF" stroke="#000000" stroke-width="12" stroke-miterlimit="10" points="-794.8,522.4 
		-861.3,522.4 -861.3,537.7 -810,537.7 -810,578.9 -794.8,578.9 	"/>
</g>
<polygon id="XMLID_277_" fill="#FFFFFF" stroke="#000000" stroke-width="12" stroke-miterlimit="10" points="-617.3,566.7 
	-653.6,556.7 -668.9,556.7 -705.3,566.7 -705.3,571.9 -617.3,571.9 "/>
<path id="XMLID_280_" fill="none" stroke="#FF00FF" stroke-width="12" stroke-miterlimit="10" d="M-815.9,293.2"/>
<path id="XMLID_283_" fill="none" stroke="#FF00FF" stroke-width="12" stroke-miterlimit="10" d="M-815.9,293.2"/>
<path id="XMLID_11_" fill="none" stroke="#000000" stroke-width="20" stroke-linecap="round" stroke-miterlimit="10" d="
	M-815.1,408.9c2.8,7.8,9.4,13.899,16.9,17.3c7.5,3.399,16,4.3,24.3,4.1c15.7-0.5,29.6-6.6,42.9-14.899"/>
<path id="XMLID_27_" fill="none" stroke="#000000" stroke-width="20" stroke-linecap="round" stroke-miterlimit="10" d="
	M-514.4,511.2c-18.4-2.8-36.1-3.5-49.9,11.399c-13.3,14.301-12.4,34.301-10.4,52.4"/>
<g id="XMLID_25_">
	<path id="XMLID_26_" d="M-509.4,532.6c9.4,0,24.5-5.199,28.9-14.3c18.6-37.899,6.9-72.3-3.1-109.3c-3.7-13.6-13.2-23.7-27.1-20.9
		c-13.8,2.8-19.7,16.3-16.9,30.1c6.1,30.3,7.2,53.7-4.6,77.7c-6.2,12.6-1,27.899,11.6,34.1C-517,531.7-513.2,532.6-509.4,532.6z"/>
</g>
<g id="XMLID_137_">
	<path id="XMLID_138_" d="M298.8,447.9c8.4,0,21.8-4.7,25.7-12.7c16.6-33.7,6.1-64.3-2.8-97.3c-3.3-12.1-11.8-21.1-24.1-18.6
		S280,333.8,282.5,346c5.5,27,6.4,47.8-4.1,69.2c-5.5,11.2-0.9,24.8,10.4,30.399C292,447.1,295.5,447.9,298.8,447.9z"/>
</g>
<g id="XMLID_21_">
	
		<rect id="XMLID_23_" x="-462.4" y="431.9" fill="#FFFFFF" stroke="#000000" stroke-width="12" stroke-miterlimit="10" width="15.3" height="147"/>
	<polygon id="XMLID_22_" fill="#FFFFFF" stroke="#000000" stroke-width="12" stroke-miterlimit="10" points="-530.9,522.4 
		-464.4,522.4 -464.4,537.7 -515.6,537.7 -515.6,578.9 -530.9,578.9 	"/>
</g>
<circle id="XMLID_16_" fill="none" stroke="#000000" stroke-width="12" stroke-miterlimit="10" cx="-520.4" cy="353.1" r="26"/>
<circle id="XMLID_76_" fill="none" stroke="#000000" stroke-width="12" stroke-miterlimit="10" cx="292.4" cy="286.1" r="23.1"/>
<circle id="XMLID_125_" fill="none" stroke="#000000" stroke-width="12" stroke-miterlimit="10" cx="-802.8" cy="353.1" r="26"/>
<path id="XMLID_15_" fill="none" stroke="#000000" stroke-width="20" stroke-linecap="round" stroke-miterlimit="10" d="
	M301.3,344.6c4.8,30.1-28.9,51.1-55,49.6"/>
<path id="XMLID_150_" fill="none" stroke="#000000" stroke-width="20" stroke-linecap="round" stroke-miterlimit="10" d="
	M-509.6,400.8c4.8,30.101-28.9,51.101-55,49.601"/>
<g id="XMLID_267_">
	<polygon id="XMLID_271_" fill="#FFFFFF" stroke="#000000" stroke-width="9" stroke-miterlimit="10" points="-671.9,305.6 
		-671.9,224.1 -551.9,224.1 -551.9,305.6 -567,305.6 -567,332.1 -588.7,305.6 	"/>
	
		<line id="XMLID_270_" fill="none" stroke="#000000" stroke-width="9" stroke-miterlimit="10" x1="-567.9" y1="244" x2="-655.2" y2="244"/>
	
		<line id="XMLID_269_" fill="none" stroke="#000000" stroke-width="9" stroke-miterlimit="10" x1="-567.9" y1="263.8" x2="-655.2" y2="263.8"/>
	
		<line id="XMLID_268_" fill="none" stroke="#000000" stroke-width="9" stroke-miterlimit="10" x1="-567.9" y1="283" x2="-655.2" y2="283"/>
</g>
<path id="XMLID_90_" fill="none" stroke="#000000" stroke-width="20" stroke-linecap="round" stroke-miterlimit="10" d="
	M-1733.7,443c-23.2,0.5-44-7.4-64.3-18.5"/>
<path id="XMLID_86_" fill="none" stroke="#000000" stroke-width="20" stroke-linecap="round" stroke-miterlimit="10" d="M-1713,443
	c23.2,0.5,44-7.4,64.3-18.5"/>
<circle id="XMLID_87_" fill="none" stroke="#000000" stroke-width="12" stroke-miterlimit="10" cx="-1727.5" cy="375.6" r="26"/>
<path id="XMLID_83_" fill="none" stroke="#000000" stroke-width="20" stroke-linecap="round" stroke-miterlimit="10" d="
	M-1861.7,521.6c5-0.399,9.1-0.1,12.9,3.4c0,0,26.7,19.2,15.5,60.9"/>
<path id="XMLID_82_" fill="none" stroke="#000000" stroke-width="20" stroke-linecap="round" stroke-miterlimit="10" d="
	M-1864.6,443c23.2,0.5,44-7.4,64.3-18.5"/>
<g id="XMLID_70_">
	<path id="XMLID_81_" d="M-1862.3,556.1c-9.4,0-24.5-5.199-28.9-14.3c-18.6-37.899-6.9-72.3,3.1-109.3c3.7-13.6,13.2-23.7,27.1-20.9
		c13.8,2.801,19.7,16.301,16.9,30.101c-6.1,30.3-7.2,53.7,4.6,77.7c6.2,12.6,1,27.899-11.6,34.1
		C-1854.6,555.3-1858.5,556.1-1862.3,556.1z"/>
</g>
<circle id="XMLID_31_" fill="none" stroke="#000000" stroke-width="12" stroke-miterlimit="10" cx="-1850.8" cy="375.6" r="26"/>
<path id="XMLID_29_" fill="none" stroke="#000000" stroke-width="20" stroke-linecap="round" stroke-miterlimit="10" d="
	M-1879.2,437.2c-8.1,0-16.2,0-24.4,0c-2.5,0-5.1,0-7.3,1.1c-3.1,1.5-4.8,4.8-6.2,7.9c-4.7,10-8.1,20.6-10.2,31.5"/>
<path id="XMLID_28_" fill="none" stroke="#000000" stroke-width="20" stroke-linecap="round" stroke-miterlimit="10" d="
	M-1884.6,525.7c8.4,25.5,7.1,51-3.8,76.5"/>
<path id="XMLID_374_" fill="none" stroke="#000000" stroke-width="20" stroke-linecap="round" stroke-miterlimit="10" d="
	M-1586.5,521.6c-5-0.399-9.1-0.1-12.9,3.4c0,0-26.7,19.2-15.5,60.9"/>
<path id="XMLID_373_" fill="none" stroke="#000000" stroke-width="20" stroke-linecap="round" stroke-miterlimit="10" d="
	M-1583.6,443c-23.2,0.5-44-7.4-64.3-18.5"/>
<g id="XMLID_127_">
	<path id="XMLID_130_" d="M-1585.9,556.1c9.4,0,24.5-5.199,28.9-14.3c18.6-37.899,6.9-72.3-3.1-109.3c-3.7-13.6-13.2-23.7-27.1-20.9
		c-13.8,2.801-19.7,16.301-16.9,30.101c6.1,30.3,7.2,53.7-4.6,77.7c-6.2,12.6-1,27.899,11.6,34.1
		C-1593.6,555.3-1589.7,556.1-1585.9,556.1z"/>
</g>
<circle id="XMLID_126_" fill="none" stroke="#000000" stroke-width="12" stroke-miterlimit="10" cx="-1597.4" cy="375.6" r="26"/>
<path id="XMLID_123_" fill="none" stroke="#000000" stroke-width="20" stroke-linecap="round" stroke-miterlimit="10" d="
	M-1569,437.2c8.1,0,16.2,0,24.4,0c2.5,0,5.1,0,7.3,1.1c3.1,1.5,4.8,4.8,6.2,7.9c4.7,10,8.1,20.6,10.2,31.5"/>
<path id="XMLID_121_" fill="none" stroke="#000000" stroke-width="20" stroke-linecap="round" stroke-miterlimit="10" d="
	M-1563.6,525.7c-8.4,25.5-7.1,51,3.8,76.5"/>
<line id="XMLID_132_" fill="none" stroke="#000000" stroke-width="9" stroke-miterlimit="10" x1="-1620" y1="265.5" x2="-1655.9" y2="453.9"/>
<polygon id="XMLID_122_" fill="#FFFFFF" stroke="#000000" stroke-width="9" stroke-miterlimit="10" points="-1661,311.7 
	-1550.7,333.2 -1530.3,228.8 -1689.4,197.8 -1709.7,302.2 -1689.7,306.1 "/>
<path id="XMLID_120_" fill="none" stroke="#000000" stroke-width="20" stroke-linecap="round" stroke-miterlimit="10" d="
	M308.3,429.6C274,459.8,274,511.4,292.4,532.8"/>
<g id="XMLID_291_">
	<path id="XMLID_292_" d="M419,448.8c8.4,0,21.8-4.7,25.7-12.7c16.6-33.699,6.1-64.3-2.8-97.3c-3.301-12.1-11.801-21.1-24.101-18.6
		s-17.6,14.5-15.1,26.7c5.5,27,6.399,47.8-4.101,69.2c-5.5,11.2-0.899,24.801,10.4,30.4C412.2,448,415.6,448.8,419,448.8z"/>
</g>
<circle id="XMLID_290_" fill="none" stroke="#000000" stroke-width="12" stroke-miterlimit="10" cx="412.6" cy="287" r="23.1"/>
<path id="XMLID_289_" fill="none" stroke="#000000" stroke-width="20" stroke-linecap="round" stroke-miterlimit="10" d="
	M421.4,345.5c4.8,30.1-28.9,51.1-55,49.6"/>
<path id="XMLID_288_" fill="none" stroke="#000000" stroke-width="20" stroke-linecap="round" stroke-miterlimit="10" d="
	M428.5,430.5c-34.3,30.2-34.3,81.8-15.9,103.2"/>
<g id="XMLID_296_">
	<path id="XMLID_297_" d="M536.3,447.9c8.4,0,21.8-4.7,25.7-12.7c16.6-33.7,6.1-64.3-2.8-97.3c-3.3-12.1-11.8-21.1-24.101-18.6
		c-12.3,2.5-17.6,14.5-15.1,26.7c5.5,27,6.4,47.8-4.1,69.2C510.4,426.4,515,440,526.3,445.6C529.5,447.1,532.9,447.9,536.3,447.9z"
		/>
</g>
<circle id="XMLID_295_" fill="none" stroke="#000000" stroke-width="12" stroke-miterlimit="10" cx="529.9" cy="286.1" r="23.1"/>
<path id="XMLID_294_" fill="none" stroke="#000000" stroke-width="20" stroke-linecap="round" stroke-miterlimit="10" d="
	M538.7,344.6c4.8,30.1-28.9,51.1-55,49.6"/>
<path id="XMLID_293_" fill="none" stroke="#000000" stroke-width="20" stroke-linecap="round" stroke-miterlimit="10" d="
	M545.8,429.6c-34.3,30.2-34.3,81.801-15.899,103.2"/>
<path id="XMLID_124_" d="M-1728.6,551.5c-20.5,0-37.2-13.4-37.2-30l7.2-75.2c0-16.6,13.4-30,30-30s30,13.4,30,30l7.2,75.2
	C-1691.4,538-1708.1,551.5-1728.6,551.5z"/>
<line id="XMLID_32_" fill="none" stroke="#000000" stroke-width="20" stroke-linecap="round" stroke-miterlimit="10" x1="-1749.5" y1="532.1" x2="-1749.5" y2="593.9"/>
<line id="XMLID_34_" fill="none" stroke="#000000" stroke-width="20" stroke-linecap="round" stroke-miterlimit="10" x1="-1707.5" y1="532.1" x2="-1707.5" y2="593.9"/>
</svg>
