<?xml version="1.0" encoding="utf-8"?>
<!-- Generator: Adobe Illustrator 19.0.0, SVG Export Plug-In . SVG Version: 6.00 Build 0)  -->
<svg version="1.1" id="Layer_1" xmlns="http://www.w3.org/2000/svg" xmlns:xlink="http://www.w3.org/1999/xlink" x="0px" y="0px"
	 viewBox="0 0 800 800" style="enable-background:new 0 0 800 800;" xml:space="preserve">
<g id="XMLID_1_">
	<rect id="XMLID_2_" x="349.3" y="288.5" width="25.4" height="25.4"/>
	<polygon id="XMLID_3_" points="298.6,313.9 298.6,313.9 298.6,288.5 323.9,288.5 349.3,288.5 349.3,263.1 323.9,263.1 298.6,263.1 
		298.6,288.5 273.2,288.5 273.2,313.9 273.2,313.9 273.2,339.3 298.6,339.3 	"/>
	<rect id="XMLID_262_" x="298.6" y="339.3" width="25.4" height="25.4"/>
	<polygon id="XMLID_263_" points="349.4,364.8 324,364.8 324,390.2 349.4,390.2 349.4,415.5 374.8,415.5 374.8,390.1 349.4,390.1 	
		"/>
	<polygon id="XMLID_264_" points="425.5,288.5 425.5,263.1 400.1,263.1 374.7,263.1 374.7,288.5 400.1,288.5 	"/>
	<polygon id="XMLID_265_" points="425.5,313.9 425.5,339.3 450.9,339.3 450.9,313.9 450.9,313.9 450.9,288.5 425.5,288.5 
		425.5,313.9 	"/>
	<rect id="XMLID_266_" x="400.1" y="339.3" width="25.4" height="25.4"/>
	<rect id="XMLID_267_" x="374.7" y="364.7" width="25.4" height="25.4"/>
	<path id="XMLID_270_" d="M197,248h25.4h25.4h25.4h25.4h25.4h25.4h25.4h25.4h25.4h25.4h25.4h25.4H527h25.3v0.1h0.1v25.3v25.4v25.4
		h-0.2h-25.4h-25.4v0h-25.4v25.4h0v25.4v25.4v25.4h-25.2h-25.4h-25.4h-25.4h-25.4h-25.4h-25.4h-25.4h-25.4h-25.4H197h-25.4v-25.4
		v-25.4v-25.4v-25.4v-25.4v-25.4V248h-25.4v25.4v25.4v25.4v25.4v25.4v25.4v25.4v25.4v25.4v25.4h25.4H197h25.4h25.4h25.4h25.4h25.4
		h25.4v25.4v25.4h-25.4h-25.4h-25.4V578h25.4h25.4h25.4h25.3h0.1H400h0.1h25.3h0.1h25.3v-25.4h-25.3h-0.1h-25.3H400h-25.3v-25.4
		v-25.4h25.4h25.4h25.4h25.2v25.4v25.4h0.1v25.3h25.3v0.1h25.4h25.4h25.4H603h25.4v0h25.4v-25.4h0v-25.4v-25.4v-25.4v-25.4v-25.4
		v-25.4v-25.4v-25.4h0v-25.4h-25.4v0H603h-25.2v-25.4v-25.4V248h-0.1v-25.3h-25.3v-0.1H527h-25.4h-25.4h-25.4h-25.4h-25.4h-25.4
		h-25.4h-25.4h-25.4h-25.4h-25.4h-25.4H197h-25.4h-25.4V248h25.4 M450.9,476.5h-25.4h-25.4h-25.4h-25.4h-25.4h-25.4h-25.4h-25.4
		h-25.4H197h-25.4v-25.4H197h25.4h25.4h25.4h25.4h25.4h25.4h25.4h25.4h25.4h25.4h25.2v25.4H450.9z M628.4,552.6H603h-25.4h-25.4
		h-25.4h-25.3v-0.1h-0.1v-25.3h25.4h25.4h25.4H603h25.4V552.6z M628.4,400.3v25.4v25.4v25.4v25.4H603h-25.4h-25.4h-25.4h-25.2v-25.4
		h-0.2v-25.4h0.2v-25.4h-0.2v-25.4v-25.4v-25.4h25.4h25.4h0.2h25.2h0.2H603h25.4v25.4V400.3z"/>
	<rect id="XMLID_273_" x="558.3" y="413.9" width="13.7" height="13.7"/>
	<polygon id="XMLID_274_" points="544.6,400.2 530.9,400.2 530.9,413.9 544.6,413.9 558.3,413.9 558.3,400.2 	"/>
	<polygon id="XMLID_275_" points="517.2,427.6 517.2,441.3 530.9,441.3 530.9,427.6 530.9,413.9 517.2,413.9 	"/>
	<rect id="XMLID_276_" x="530.9" y="441.3" width="13.7" height="13.7"/>
	<polygon id="XMLID_277_" points="585.7,400.2 572,400.2 572,413.9 585.7,413.9 599.4,413.9 599.4,400.2 	"/>
	<polygon id="XMLID_278_" points="599.4,427.6 599.4,441.3 613.1,441.3 613.1,427.6 613.1,413.9 599.4,413.9 	"/>
	<rect id="XMLID_279_" x="585.7" y="441.3" width="13.7" height="13.7"/>
	<polygon id="XMLID_280_" points="572,468.8 558.3,468.8 558.3,455.1 544.6,455.1 544.6,468.8 558.3,468.8 558.3,482.5 572,482.5 
		572,468.8 585.7,468.8 585.7,455.1 572,455.1 	"/>
</g>
</svg>
