<svg xmlns="http://www.w3.org/2000/svg" xmlns:xlink="http://www.w3.org/1999/xlink" version="1.1" x="0px" y="0px" viewBox="0 0 100 100" enable-background="new 0 0 100 100" xml:space="preserve"><g><path fill="#000000" d="M40.438,45.11h-4.561c-0.54,0-0.977,0.438-0.977,0.978v4.398c0,0.539,0.437,0.978,0.977,0.978   s0.978-0.438,0.978-0.978v-3.421h3.583c0.539,0,0.977-0.438,0.977-0.978C41.416,45.549,40.978,45.11,40.438,45.11z"></path><path fill="#000000" d="M51.168,50.323c-0.54,0-0.977,0.437-0.977,0.978v34.692c0,0.539,0.437,0.978,0.977,0.978   c0.539,0,0.977-0.438,0.977-0.978V51.301C52.145,50.76,51.707,50.323,51.168,50.323z"></path><path fill="#000000" d="M25.834,80.293c-0.54,0-0.978,0.437-0.978,0.977v5.538c0,0.54,0.438,0.978,0.978,0.978   c0.54,0,0.977-0.438,0.977-0.978V81.27C26.811,80.729,26.374,80.293,25.834,80.293z"></path><circle fill="#000000" cx="83.002" cy="84.021" r="1.772"></circle><path fill="#000000" d="M98.042,89.4h-6.407V56.294c0-0.898-0.729-1.627-1.627-1.627h-3.476v-1.521h1.086   c0.54,0,0.978-0.438,0.978-0.977c0-0.54-0.438-0.978-0.978-0.978h-2.064c-0.539,0-0.976,0.438-0.976,0.978v2.497h-8.579   c-0.899,0-1.629,0.729-1.629,1.627v5.35h-6.299v-5.35c0-0.898-0.728-1.627-1.628-1.627h-7.926V45.6   c0-0.901-0.729-1.628-1.631-1.628H46.791v-2.661c0-0.9-0.729-1.629-1.629-1.629H31.153c-0.899,0-1.629,0.729-1.629,1.629v8.36   h-6.297v-8.36c0-0.9-0.729-1.629-1.628-1.629h-9.555c-0.9,0-1.629,0.729-1.629,1.629V89.4H3.792c-0.9,0-1.629,0.729-1.629,1.63   c0,0.899,0.729,1.629,1.629,1.629h8.252h9.555h9.555h14.008h11.726h9.557h9.556h14.009h8.034c0.898,0,1.628-0.729,1.628-1.629   C99.67,90.13,98.94,89.4,98.042,89.4z M13.672,42.94h6.297v8.361v38.1h-6.297V42.94z M23.227,52.928h6.297V89.4h-6.297V52.928z    M32.783,51.301V42.94h10.75v2.66v43.8h-10.75V51.301z M46.791,47.228h8.468v9.066V89.4h-8.468V47.228z M58.518,57.924h6.297v5.35   V89.4h-6.297V57.924z M68.071,64.902h6.299V89.4h-6.299V64.902z M77.627,89.4V63.273v-5.35h10.752V89.4H77.627z"></path></g></svg>