<?xml version="1.0" encoding="utf-8"?>
<!-- Generator: Adobe Illustrator 16.0.0, SVG Export Plug-In . SVG Version: 6.00 Build 0)  -->
<!DOCTYPE svg PUBLIC "-//W3C//DTD SVG 1.1//EN" "http://www.w3.org/Graphics/SVG/1.1/DTD/svg11.dtd">
<svg version="1.1" id="Layer_1" xmlns="http://www.w3.org/2000/svg" xmlns:xlink="http://www.w3.org/1999/xlink" x="0px" y="0px"
	 width="288px" height="288px" viewBox="0 0 288 288" enable-background="new 0 0 288 288" xml:space="preserve">
<g id="XMLID_198_">
	<g id="XMLID_349_">
		<path id="XMLID_350_" fill="#FFFF00" d="M123.84,104.68V64.36h40.32v40.32H123.84z"/>
	</g>
	<g id="XMLID_346_">
		<path id="XMLID_347_" fill="#FFFF00" d="M83.52,64.36V24.04h40.32v40.32H83.52z"/>
	</g>
	<g id="XMLID_343_">
		<path id="XMLID_344_" fill="#FFFF00" d="M43.2,64.36V24.04h40.32v40.32H43.2z"/>
	</g>
	<g id="XMLID_340_">
		<path id="XMLID_341_" fill="#FFFF00" d="M3.168,104.68V64.36h40.32v40.32H3.168z"/>
	</g>
	<g id="XMLID_337_">
		<path id="XMLID_338_" fill="#FFFF00" d="M3.168,145v-40.32h40.32V145H3.168z"/>
	</g>
	<g id="XMLID_334_">
		<path id="XMLID_335_" fill="#FFFF00" d="M43.2,185.32V145h40.32v40.32H43.2z"/>
	</g>
	<g id="XMLID_331_">
		<path id="XMLID_332_" fill="#FFFF00" d="M83.808,225.641v-40.32h40.32v40.32H83.808z"/>
	</g>
	<g id="XMLID_328_">
		<path id="XMLID_329_" fill="#FFFF00" d="M123.84,265.96v-40.319h40.32v40.319H123.84z"/>
	</g>
	<g id="XMLID_325_">
		<path id="XMLID_326_" fill="#FFFF00" d="M164.16,64.36V24.04h40.32v40.32H164.16z"/>
	</g>
	<g id="XMLID_322_">
		<path id="XMLID_323_" fill="#FFFF00" d="M204.48,64.36V24.04H244.8v40.32H204.48z"/>
	</g>
	<g id="XMLID_319_">
		<path id="XMLID_320_" fill="#FFFF00" d="M244.8,104.68V64.36h40.32v40.32H244.8z"/>
	</g>
	<g id="XMLID_316_">
		<path id="XMLID_317_" fill="#FFFF00" d="M244.8,145v-40.32h40.32V145H244.8z"/>
	</g>
	<g id="XMLID_313_">
		<path id="XMLID_314_" fill="#FFFF00" d="M204.48,185.32V145H244.8v40.32H204.48z"/>
	</g>
	<g id="XMLID_310_">
		<path id="XMLID_311_" fill="#FFFF00" d="M164.16,225.641v-40.32h40.32v40.32H164.16z"/>
	</g>
</g>
</svg>
