<?xml version="1.0" encoding="utf-8"?>
<!-- Generator: Adobe Illustrator 19.1.0, SVG Export Plug-In . SVG Version: 6.00 Build 0)  -->
<!DOCTYPE svg PUBLIC "-//W3C//DTD SVG 1.1//EN" "http://www.w3.org/Graphics/SVG/1.1/DTD/svg11.dtd">
<svg version="1.1" id="Layer_1" xmlns="http://www.w3.org/2000/svg" xmlns:xlink="http://www.w3.org/1999/xlink" x="0px" y="0px"
	 width="16px" height="16px" viewBox="-471 273 16 16" style="enable-background:new -471 273 16 16;" xml:space="preserve">
<path d="M-463,289c-4.4,0-8-3.6-8-8s3.6-8,8-8s8,3.6,8,8S-458.6,289-463,289z M-463.1,274.6c-3.6,0-6.4,2.9-6.4,6.4s2.9,6.4,6.4,6.4
	s6.4-2.9,6.4-6.4S-459.5,274.6-463.1,274.6z M-463,276.5c-1.7,0-3,1.3-3,3h2c0-0.6,0.4-1,1-1s1,0.4,1,1c0,0.6-0.4,1-1,1
	c0,0-0.2,0-0.5,0c-0.3,0-0.5,0.2-0.5,0.5v2h2v-0.7c1.2-0.4,2-1.5,2-2.8C-460,277.8-461.3,276.5-463,276.5z"/>
<circle cx="-463" cy="284.6" r="0.9"/>
</svg>
