<?xml version="1.0" encoding="utf-8"?>
<!-- Generator: Adobe Illustrator 19.0.0, SVG Export Plug-In . SVG Version: 6.00 Build 0)  -->
<svg version="1.1" id="Layer_1" xmlns="http://www.w3.org/2000/svg" xmlns:xlink="http://www.w3.org/1999/xlink" x="0px" y="0px"
	 viewBox="0 0 32 32" style="enable-background:new 0 0 32 32;" xml:space="preserve">
<style type="text/css">
	.st0{fill:#663399;}
	.st1{fill:#FFFF00;}
</style>
<rect id="XMLID_917_" y="0" class="st0" width="32" height="32"/>
<g id="XMLID_27_">
	<rect id="XMLID_28_" x="14.4" y="9.7" class="st1" width="3.1" height="3.1"/>
	<polygon id="XMLID_29_" class="st1" points="14.4,6.6 11.3,6.6 8.2,6.6 8.2,9.7 11.3,9.7 14.4,9.7 	"/>
	<polygon id="XMLID_58_" class="st1" points="8.2,12.9 8.2,12.9 8.2,9.7 5.1,9.7 5.1,12.9 5.1,12.9 5.1,16 8.2,16 8.2,19.1 
		11.3,19.1 11.3,16 8.2,16 	"/>
	<polygon id="XMLID_59_" class="st1" points="14.4,19.1 11.3,19.1 11.3,22.3 14.4,22.3 14.4,25.4 17.6,25.4 17.6,22.3 14.4,22.3 	
		"/>
	<polygon id="XMLID_60_" class="st1" points="23.8,9.7 23.8,6.6 20.7,6.6 17.6,6.6 17.6,9.7 20.7,9.7 	"/>
	<polygon id="XMLID_61_" class="st1" points="23.8,9.7 23.8,12.9 23.8,12.9 23.8,16 20.7,16 20.7,19.1 23.8,19.1 23.8,16 26.9,16 
		26.9,12.9 26.9,12.9 26.9,9.7 	"/>
	<rect id="XMLID_62_" x="17.6" y="19.1" class="st1" width="3.1" height="3.1"/>
</g>
<rect id="XMLID_52_" x="76.1" y="16" class="st0" width="16" height="16"/>
<g id="XMLID_32_">
	<rect id="XMLID_39_" x="83.3" y="20.9" class="st1" width="1.6" height="1.6"/>
	<polygon id="XMLID_38_" class="st1" points="83.3,19.3 81.8,19.3 80.2,19.3 80.2,20.9 81.8,20.9 83.3,20.9 	"/>
	<polygon id="XMLID_37_" class="st1" points="80.2,22.4 80.2,22.4 80.2,20.9 78.7,20.9 78.7,22.4 78.7,22.4 78.7,24 80.2,24 
		80.2,25.6 81.8,25.6 81.8,24 80.2,24 	"/>
	<polygon id="XMLID_36_" class="st1" points="83.3,25.6 81.8,25.6 81.8,27.1 83.3,27.1 83.3,28.7 84.9,28.7 84.9,27.1 83.3,27.1 	
		"/>
	<polygon id="XMLID_35_" class="st1" points="88,20.9 88,19.3 86.5,19.3 84.9,19.3 84.9,20.9 86.5,20.9 	"/>
	<polygon id="XMLID_34_" class="st1" points="88,20.9 88,22.4 88,22.4 88,24 86.5,24 86.5,25.6 88,25.6 88,24 89.6,24 89.6,22.4 
		89.6,22.4 89.6,20.9 	"/>
	<rect id="XMLID_33_" x="84.9" y="25.6" class="st1" width="1.6" height="1.6"/>
</g>
</svg>
