<?xml version="1.0" encoding="utf-8"?>
<!-- Generator: Adobe Illustrator 19.0.0, SVG Export Plug-In . SVG Version: 6.00 Build 0)  -->
<svg version="1.1" id="Layer_1" xmlns="http://www.w3.org/2000/svg" xmlns:xlink="http://www.w3.org/1999/xlink" x="0px" y="0px"
	 viewBox="0 0 16 16" style="enable-background:new 0 0 16 16;" xml:space="preserve">
<style type="text/css">
	.st0{fill:#663399;}
	.st1{fill:#FFFF00;}
</style>
<rect id="XMLID_917_" x="-76.1" y="-16" class="st0" width="32" height="32"/>
<g id="XMLID_27_">
	<rect id="XMLID_28_" x="-61.7" y="-6.3" class="st1" width="3.1" height="3.1"/>
	<polygon id="XMLID_29_" class="st1" points="-61.7,-9.4 -64.8,-9.4 -67.9,-9.4 -67.9,-6.3 -64.8,-6.3 -61.7,-6.3 	"/>
	<polygon id="XMLID_58_" class="st1" points="-67.9,-3.1 -67.9,-3.1 -67.9,-6.3 -71.1,-6.3 -71.1,-3.1 -71.1,-3.1 -71.1,0 -67.9,0 
		-67.9,3.1 -64.8,3.1 -64.8,0 -67.9,0 	"/>
	<polygon id="XMLID_59_" class="st1" points="-61.7,3.1 -64.8,3.1 -64.8,6.3 -61.7,6.3 -61.7,9.4 -58.6,9.4 -58.6,6.3 -61.7,6.3 	
		"/>
	<polygon id="XMLID_60_" class="st1" points="-52.3,-6.3 -52.3,-9.4 -55.4,-9.4 -58.6,-9.4 -58.6,-6.3 -55.4,-6.3 	"/>
	<polygon id="XMLID_61_" class="st1" points="-52.3,-6.3 -52.3,-3.1 -52.3,-3.1 -52.3,0 -55.4,0 -55.4,3.1 -52.3,3.1 -52.3,0 
		-49.2,0 -49.2,-3.1 -49.2,-3.1 -49.2,-6.3 	"/>
	<rect id="XMLID_62_" x="-58.6" y="3.1" class="st1" width="3.1" height="3.1"/>
</g>
<rect id="XMLID_52_" x="0" y="0" class="st0" width="16" height="16"/>
<g id="XMLID_32_">
	<rect id="XMLID_39_" x="7.2" y="4.9" class="st1" width="1.6" height="1.6"/>
	<polygon id="XMLID_38_" class="st1" points="7.2,3.3 5.7,3.3 4.1,3.3 4.1,4.9 5.7,4.9 7.2,4.9 	"/>
	<polygon id="XMLID_37_" class="st1" points="4.1,6.4 4.1,6.4 4.1,4.9 2.5,4.9 2.5,6.4 2.5,6.4 2.5,8 4.1,8 4.1,9.6 5.7,9.6 5.7,8 
		4.1,8 	"/>
	<polygon id="XMLID_36_" class="st1" points="7.2,9.6 5.7,9.6 5.7,11.1 7.2,11.1 7.2,12.7 8.8,12.7 8.8,11.1 7.2,11.1 	"/>
	<polygon id="XMLID_35_" class="st1" points="11.9,4.9 11.9,3.3 10.3,3.3 8.8,3.3 8.8,4.9 10.3,4.9 	"/>
	<polygon id="XMLID_34_" class="st1" points="11.9,4.9 11.9,6.4 11.9,6.4 11.9,8 10.3,8 10.3,9.6 11.9,9.6 11.9,8 13.5,8 13.5,6.4 
		13.5,6.4 13.5,4.9 	"/>
	<rect id="XMLID_33_" x="8.8" y="9.6" class="st1" width="1.6" height="1.6"/>
</g>
</svg>
