<svg xmlns:x="http://ns.adobe.com/Extensibility/1.0/" xmlns:i="http://ns.adobe.com/AdobeIllustrator/10.0/" xmlns:graph="http://ns.adobe.com/Graphs/1.0/" xmlns="http://www.w3.org/2000/svg" xmlns:xlink="http://www.w3.org/1999/xlink" version="1.1" x="0px" y="0px" viewBox="0 0 100 100" enable-background="new 0 0 100 100" xml:space="preserve"><metadata><sfw xmlns="http://ns.adobe.com/SaveForWeb/1.0/"><slices></slices><sliceSourceBounds height="38.667" width="82" x="9" y="30.666" bottomLeftOrigin="true"></sliceSourceBounds></sfw></metadata><g><path d="M91,30.667H9V36h9.709c-0.531,0.295-0.952,0.766-1.182,1.333H9v26.999h8.417c0.478,2.834,2.949,5,5.917,5   c2.968,0,5.438-2.166,5.916-5h24.834c0.478,2.834,2.948,5,5.916,5s5.438-2.166,5.916-5h4.834c0.477,2.835,2.948,5.002,5.917,5.002   s5.44-2.167,5.917-5.002H91V52.334H81V40c0-1.536-0.58-2.938-1.532-4H91V30.667z M22.473,37.333   c-0.23-0.567-0.651-1.038-1.182-1.333h49.242C69.58,37.062,69,38.465,69,40v12.333H32.667v-15H22.473z M23.334,67.332   c-2.206,0-4.001-1.794-4.001-4s1.795-4,4.001-4c2.206,0,4,1.794,4,4S25.54,67.332,23.334,67.332z M60,67.332c-2.206,0-4-1.794-4-4   s1.794-4,4-4s4,1.794,4,4S62.206,67.332,60,67.332z M76.667,67.334c-2.206,0-4-1.794-4-4c0-2.207,1.794-4.002,4-4.002   s4,1.795,4,4.002C80.667,65.54,78.873,67.334,76.667,67.334z M79,40v14.333h10v7.998h-4.732c-0.492-3.757-3.713-6.666-7.602-6.666   s-7.109,2.909-7.602,6.666h-1.463c-0.492-3.757-3.713-6.666-7.602-6.666s-7.109,2.909-7.602,6.666H30.933   c-0.491-3.757-3.713-6.666-7.601-6.666s-7.11,2.909-7.601,6.666H11V39.333h8.333v-1c0-0.368,0.299-0.667,0.667-0.667   s0.667,0.299,0.667,0.667v1h10v15H71V40c0-2.206,1.794-4,4-4S79,37.795,79,40z M89,34H11v-1.334h78V34z"></path><path d="M12.334,52.666h12v-12h-12V52.666z M14.334,42.667h8v8h-8V42.667z"></path></g></svg>