<svg xmlns="http://www.w3.org/2000/svg" xmlns:xlink="http://www.w3.org/1999/xlink" version="1.1" x="0px" y="0px" viewBox="0 0 100 100" enable-background="new 0 0 100 100" xml:space="preserve"><path fill="#000000" d="M78.04,53.053c-2.165-10.325-9.547-11.623-12.013-11.764c-3.256-12.183-13.778-13.148-16.981-13.148  c-0.49,0-0.814,0.022-0.924,0.031c-0.665,0.019-7.7,0.38-13.753,7.03c-6.777,7.445-9.556,19.561-8.259,36.012  c0.027,0.348,0.227,0.659,0.531,0.829c0.305,0.171,0.674,0.178,0.984,0.02l3.791-1.925l2.498,1.835  c0.182,0.134,0.4,0.203,0.618,0.203c0.159,0,0.318-0.036,0.465-0.109l3.535-1.755l2.913,1.719c0.301,0.178,0.671,0.194,0.986,0.041  l3.802-1.836l3.114,1.8c0.301,0.173,0.666,0.186,0.978,0.036l3.827-1.849l3.514,1.834c0.303,0.159,0.665,0.159,0.967,0l3.669-1.918  l4.423,1.884c0.39,0.167,0.842,0.081,1.143-0.217c0.302-0.298,0.394-0.748,0.234-1.14l-1.559-3.809  c-1.68-3.745-0.451-8.241,0.1-9.495c1.065-2.256,6.036-3.056,9.968-3.056c0.233,0,0.368,0.004,0.376,0.004  c0.339,0.003,0.627-0.129,0.832-0.374C78.024,53.693,78.106,53.366,78.04,53.053z M64.741,56.497  c-0.708,1.608-2.105,6.758-0.12,11.185l0.582,1.424l-2.538-1.081c-0.289-0.123-0.616-0.11-0.893,0.035l-3.624,1.894l-3.495-1.825  c-0.152-0.079-0.318-0.119-0.484-0.119c-0.155,0-0.311,0.035-0.454,0.104l-3.802,1.836l-3.114-1.8  c-0.301-0.173-0.667-0.186-0.978-0.036l-3.797,1.834l-2.919-1.723c-0.304-0.18-0.68-0.194-0.996-0.036l-3.473,1.725l-2.503-1.839  c-0.316-0.233-0.739-0.267-1.091-0.089l-2.961,1.503c-0.959-15.019,1.661-26.061,7.793-32.835  c5.599-6.184,12.257-6.391,12.321-6.393c0.027-0.001,0.054-0.002,0.081-0.004c0.024-0.002,0.303-0.026,0.77-0.026  c2.882,0,12.493,0.889,15.145,12.331c0.116,0.499,0.594,0.849,1.09,0.806c0.016-0.001,0.095-0.005,0.225-0.005  c6.134,0,8.826,4.996,9.903,8.066c-2.938-0.866-10.113-2.326-16.254,1.653c-0.484,0.314-0.622,0.961-0.309,1.445  c0.2,0.309,0.535,0.477,0.878,0.477c0.195,0,0.392-0.054,0.567-0.168c3.614-2.342,7.755-2.505,10.877-2.131  C68.476,53.235,65.771,54.316,64.741,56.497z"></path><path fill="#000000" d="M54.771,42.67l1.986-1.986c0.408-0.408,0.408-1.069,0-1.478c-0.408-0.408-1.069-0.408-1.478,0l-1.986,1.986  l-1.986-1.986c-0.408-0.408-1.069-0.408-1.478,0c-0.408,0.408-0.408,1.07,0,1.478l1.986,1.986l-2.049,2.049  c-0.408,0.408-0.408,1.069,0,1.478c0.204,0.204,0.471,0.306,0.739,0.306c0.267,0,0.535-0.102,0.739-0.306l2.049-2.049l2.049,2.049  c0.204,0.204,0.471,0.306,0.739,0.306s0.535-0.102,0.739-0.306c0.408-0.408,0.408-1.07,0-1.478L54.771,42.67z"></path><path fill="#000000" d="M35.154,76.822c-0.521-0.249-1.145-0.031-1.395,0.489l-3.165,6.581c-0.25,0.52-0.031,1.144,0.488,1.395  c0.146,0.07,0.301,0.103,0.452,0.103c0.389,0,0.763-0.218,0.942-0.593l3.165-6.581C35.893,77.697,35.674,77.073,35.154,76.822z"></path><path fill="#000000" d="M63.365,77.311c-0.25-0.52-0.873-0.739-1.395-0.488c-0.52,0.25-0.739,0.875-0.488,1.395l3.165,6.581  c0.18,0.374,0.553,0.592,0.942,0.592c0.152,0,0.306-0.033,0.452-0.104c0.52-0.25,0.739-0.875,0.488-1.395L63.365,77.311z"></path><path fill="#000000" d="M48.89,77.173c-0.577,0-1.045,0.468-1.045,1.045v7.186c0,0.577,0.468,1.045,1.045,1.045  s1.045-0.468,1.045-1.045v-7.186C49.935,77.641,49.467,77.173,48.89,77.173z"></path><path fill="#000000" d="M33.76,24.3c0.18,0.374,0.553,0.593,0.942,0.593c0.152,0,0.306-0.033,0.452-0.103  c0.52-0.25,0.739-0.875,0.488-1.395l-3.165-6.581c-0.25-0.52-0.873-0.739-1.395-0.489c-0.52,0.25-0.739,0.875-0.488,1.395  L33.76,24.3z"></path><path fill="#000000" d="M61.971,24.789c0.146,0.07,0.301,0.104,0.452,0.104c0.389,0,0.763-0.218,0.942-0.592l3.165-6.581  c0.25-0.52,0.031-1.145-0.488-1.395c-0.521-0.251-1.145-0.031-1.395,0.488l-3.165,6.581C61.232,23.914,61.451,24.539,61.971,24.789z  "></path><path fill="#000000" d="M48.89,24.438c0.577,0,1.045-0.468,1.045-1.045v-7.186c0-0.577-0.468-1.045-1.045-1.045  s-1.045,0.468-1.045,1.045v7.186C47.845,23.97,48.313,24.438,48.89,24.438z"></path></svg>