<svg xmlns="http://www.w3.org/2000/svg" xmlns:xlink="http://www.w3.org/1999/xlink" version="1.1" x="0px" y="0px" viewBox="0 0 100 100" enable-background="new 0 0 100 100" xml:space="preserve"><circle fill="#000000" cx="85.374" cy="52.989" r="6.082"></circle><circle cx="85.374" cy="52.989" r="4.041"></circle><path d="M90.292,30.226H49.87l15.407-25.95c0.354-0.82-0.021-1.772-0.842-2.127c-0.82-0.355-1.771,0.022-2.127,0.842L46.6,29.446  l-8.939-17.94c-0.398-0.8-1.37-1.125-2.169-0.727c-0.8,0.398-1.125,1.37-0.727,2.169l8.608,17.277H9.714  c-3.982,0-7.211,3.229-7.211,7.211v53.207c0,3.982,3.229,7.213,7.211,7.213h80.578c3.981,0,7.211-3.229,7.211-7.213V37.437  C97.503,33.454,94.275,30.226,90.292,30.226z M81.45,38.131h7.848c0.892,0,1.612,0.722,1.612,1.612c0,0.89-0.723,1.611-1.612,1.611  H81.45c-0.892,0-1.612-0.722-1.612-1.611C79.837,38.853,80.559,38.131,81.45,38.131z M73.928,85.643  c0,2.377-1.929,4.307-4.308,4.307H12.55c-2.378,0-4.306-1.93-4.306-4.307V42.438c0-2.378,1.928-4.306,4.306-4.306h57.07  c2.379,0,4.307,1.928,4.307,4.306C73.927,42.438,73.927,85.643,73.928,85.643z M78.768,69.576c-1.184,0-2.143-0.959-2.143-2.143  c0-1.183,0.959-2.142,2.143-2.142c1.183,0,2.142,0.959,2.142,2.142C80.909,68.617,79.95,69.576,78.768,69.576z M85.374,69.576  c-1.183,0-2.142-0.959-2.142-2.143c0-1.183,0.959-2.142,2.142-2.142s2.142,0.959,2.142,2.142  C87.516,68.617,86.557,69.576,85.374,69.576z M85.374,59.07c-3.358,0-6.082-2.723-6.082-6.081s2.724-6.081,6.082-6.081  s6.082,2.723,6.082,6.081S88.732,59.07,85.374,59.07z M91.98,69.576c-1.184,0-2.143-0.959-2.143-2.143  c0-1.183,0.959-2.142,2.143-2.142c1.183,0,2.142,0.959,2.142,2.142C94.122,68.617,93.163,69.576,91.98,69.576z"></path><path d="M34.19,42.167H13.368c-0.793,0-1.436,0.643-1.436,1.436v10.943c0,0.793,0.643,1.437,1.436,1.437H34.19  c0.792,0,1.435-0.644,1.435-1.437V43.603C35.625,42.81,34.983,42.167,34.19,42.167z M26.598,45.339  c0.034-0.017,0.125-0.068,0.192-0.102c0.067-0.034,0.086-0.102,0.134-0.102c0.048,0,0.279-0.057,0.308-0.045  c0.029,0.012,0.168,0.023,0.197-0.022c0.029-0.045,0.129-0.017,0.105,0.022c-0.023,0.04-0.11,0.13-0.168,0.114  c-0.057-0.017-0.221-0.011-0.293,0c-0.072,0.011-0.139,0.062-0.202,0.102s-0.048,0.085-0.024,0.09  c0.024,0.006,0.048,0.063,0.019,0.097c-0.035,0.042-0.11,0.028-0.163-0.006c-0.053-0.034-0.115-0.04-0.144-0.051  C26.531,45.424,26.564,45.356,26.598,45.339z M23.251,46.332c0.029-0.012,0.058,0.028,0.082-0.006  c0.024-0.034,0.058-0.068,0.096-0.04c0.038,0.028,0.14,0.004,0.174,0.044s-0.102,0.115-0.073,0.138  c0.029,0.022,0.077,0.125,0.12,0.147c0.043,0.022,0.091,0.085,0.096,0.125c0.004,0.04-0.058,0.102-0.096,0.102  s-0.115-0.028-0.154-0.028c-0.038,0-0.053,0.051-0.077,0.04c-0.024-0.012,0.005-0.051,0.005-0.051s-0.135,0.015-0.125-0.019  c0.009-0.034,0.121-0.146,0.159-0.168c0.038-0.023-0.063-0.046-0.111-0.068c-0.048-0.022-0.082-0.085-0.101-0.113  C23.227,46.406,23.212,46.347,23.251,46.332z M23.069,46.701c0.029-0.017,0.01-0.045,0-0.085c-0.01-0.04,0.024-0.051,0.053-0.051  c0.029,0,0.033-0.054,0.077-0.063c0.029-0.005,0.063,0,0.082,0.023c0.019,0.022,0.029,0.068,0.029,0.119  c0,0.051-0.048,0.085-0.082,0.102c-0.033,0.017-0.077,0.051-0.115,0.045C23.074,46.786,23.041,46.717,23.069,46.701z M18.131,44.955  c0,0.011,0.068,0.026,0.109,0.038c0.08,0.022,0.074,0.022,0.112,0.03c0.039,0.008,0.103,0.068,0.131,0.087  c0.029,0.02,0.058,0.053,0.096,0.05c0.038-0.004,0.099-0.004,0.147,0c0.047,0.003,0.211,0.003,0.24,0  c0.029-0.004,0.147,0.026,0.141,0.042c-0.007,0.015-0.016,0.038-0.077,0.042c-0.061,0.004-0.169-0.008-0.243-0.015  c-0.074-0.008-0.144,0.011-0.144,0.011l-0.103-0.011c0,0-0.086-0.031-0.112-0.068c-0.025-0.038-0.105-0.042-0.147-0.061  c-0.042-0.02-0.099-0.053-0.134-0.072C18.112,45.008,18.131,44.944,18.131,44.955z M18.342,45.258  c0.029-0.011,0.055,0.022,0.086,0.026c0.032,0.003,0.026,0.061-0.003,0.064c-0.029,0.003-0.09,0.011-0.131,0.019  c-0.042,0.007-0.066-0.013-0.07-0.023C18.214,45.318,18.314,45.269,18.342,45.258z M18.214,45.186  c0.016-0.045,0.096-0.03,0.112,0.015C18.342,45.247,18.201,45.226,18.214,45.186z M18.147,45.405  c-0.016,0.004-0.013,0.034-0.071,0.068c-0.058,0.034-0.08-0.068-0.086-0.091c-0.006-0.023-0.067,0.007-0.102,0.003  c-0.035-0.003-0.048-0.059-0.026-0.076c0.035-0.026,0.103,0.004,0.125-0.007c0.022-0.011,0.105-0.023,0.131-0.004  C18.144,45.318,18.163,45.401,18.147,45.405z M18.099,45.144c-0.003,0.02-0.039,0.076-0.083,0.072  c-0.045-0.004-0.045,0.015-0.061-0.026c-0.016-0.042-0.115-0.015-0.134-0.015c-0.02,0-0.032,0.072-0.058,0.079  c-0.026,0.008-0.039-0.026-0.029-0.034c0.01-0.007-0.015-0.084,0.01-0.11s0.211-0.007,0.272-0.015  C18.077,45.087,18.103,45.125,18.099,45.144z M17.77,44.891c0.039-0.003,0.096-0.003,0.154,0.015  c0.058,0.019,0.051,0.016,0.073,0.049c0.022,0.034,0.032,0.083,0.007,0.083c-0.026,0-0.045-0.008-0.09-0.016  c-0.045-0.007-0.035-0.022-0.042-0.042c-0.006-0.019-0.09,0.004-0.128,0.004c-0.039,0-0.069-0.022-0.064-0.049  C17.689,44.883,17.731,44.895,17.77,44.891z M17.248,44.985c0.057-0.022,0.112-0.068,0.15-0.064  c0.038,0.003,0.016,0.079,0.019,0.098s-0.045,0.034-0.064,0.015c-0.019-0.019-0.083,0.007-0.109,0.007  C17.219,45.042,17.21,45,17.248,44.985z M16.771,45.11c0.025,0-0.016-0.045,0.003-0.045s0.141-0.049,0.211-0.057  c0.07-0.008,0.096,0.03,0.103,0.053c0.006,0.023,0.16,0.03,0.16,0.03s0.074,0.049,0.086,0.057c0.013,0.008,0.048-0.004,0.064-0.019  c0.016-0.015,0.025-0.049,0.077-0.06c0.051-0.012,0.051,0.049,0.08,0.057c0.029,0.007,0.039-0.004,0.07-0.023  c0.032-0.019,0.051,0.023,0.051,0.023s-0.016,0.071-0.019,0.094c-0.003,0.023-0.032,0.027-0.042,0.049  c-0.01,0.023-0.112,0-0.147-0.007c-0.035-0.008-0.115-0.008-0.144,0.003c-0.029,0.012-0.09,0.012-0.112,0  c-0.022-0.011-0.025-0.057-0.048-0.075c-0.022-0.019-0.067,0.03-0.089,0.038c-0.022,0.007-0.064-0.045-0.061-0.08  c0.003-0.034-0.093-0.007-0.112,0.004c-0.02,0.011-0.087,0.011-0.128,0.011s-0.077,0-0.07-0.022  C16.713,45.106,16.745,45.11,16.771,45.11z M13.816,46.763c-0.039,0-0.101-0.017-0.091-0.04c0.009-0.022,0.067-0.028,0.125-0.022  c0,0,0.053,0.022,0.067,0.028C13.932,46.734,13.854,46.763,13.816,46.763z M14.215,46.689c-0.01,0.018-0.096,0.034-0.134,0.023  c-0.039-0.011,0.019-0.04,0.067-0.051c0.048-0.011,0.024-0.104,0.072-0.085C14.234,46.582,14.224,46.672,14.215,46.689z   M14.22,46.252c-0.02,0-0.072-0.039-0.053-0.045c0.048-0.017,0.029-0.017,0.067-0.017S14.239,46.252,14.22,46.252z M21.624,50.882  c-0.004,0.028-0.082,0.13-0.154,0.199c-0.072,0.067-0.029,0.147-0.024,0.183c0.005,0.034-0.048,0.157-0.033,0.188  c0.014,0.027-0.02,0.09-0.048,0.13c-0.029,0.039-0.048,0.112-0.067,0.147c-0.02,0.033-0.082,0.021-0.14,0.039  C21.1,51.784,21.071,51.8,21.071,51.8s-0.101,0.058-0.158,0.103c-0.057,0.046,0.019,0.125-0.01,0.188  c-0.029,0.063-0.052,0.007-0.081,0.08c-0.029,0.074-0.048,0.062-0.073,0.078c-0.024,0.019-0.038,0.063-0.043,0.108  s-0.053,0.091-0.115,0.158c-0.063,0.067-0.101,0.058-0.168,0.033c-0.067-0.021-0.058-0.215-0.067-0.188  c-0.01,0.029-0.042,0.127-0.033,0.145c0.009,0.018,0.076,0.083,0.1,0.1c0.024,0.019,0.019,0.047,0,0.074  c-0.02,0.028-0.072,0.131-0.091,0.137s-0.168,0.027-0.197,0.012c-0.029-0.016-0.043,0.04-0.039,0.074  c0.005,0.033,0.029,0.072-0.024,0.062c-0.053-0.011-0.125-0.051-0.125-0.022c0,0.029,0.015,0.092,0.043,0.092  c0.028,0,0.058-0.022,0.043,0.017c-0.015,0.04-0.053,0.074-0.072,0.091c-0.02,0.019-0.043,0.074-0.091,0.114  c-0.048,0.039-0.048,0.063-0.039,0.079c0.01,0.018,0.082,0.006,0.096,0.018c0.014,0.012-0.014,0.09-0.034,0.107  c-0.019,0.018-0.101,0.096-0.134,0.119c-0.034,0.021-0.034,0.091-0.024,0.125c0.009,0.033,0.086,0.119,0.129,0.136  c0.043,0.017,0.134,0.013,0.125,0.028c-0.01,0.017-0.115,0.033-0.129,0.04c-0.015,0.005-0.092,0.028-0.13,0.028  c-0.039,0-0.11-0.047-0.125-0.047c-0.014,0,0.01-0.021,0.058-0.066c0.048-0.047-0.019-0.098-0.029-0.034  c-0.01,0.063-0.029,0.079-0.053,0.079s-0.053-0.04-0.067-0.057c-0.014-0.019-0.077-0.035-0.067-0.104  c0.009-0.066-0.029-0.063-0.058-0.091c-0.029-0.028,0.038-0.052,0.028-0.079c-0.009-0.028-0.053-0.012-0.058-0.051  c-0.004-0.041,0.039-0.098,0.043-0.113c0.005-0.018-0.029-0.053-0.034-0.08c-0.005-0.027,0.02-0.057,0.053-0.102  c0.033-0.047,0.057-0.104,0.057-0.119c0-0.018-0.024-0.08-0.024-0.125s0.024-0.063,0.034-0.125c0.01-0.063-0.034-0.04-0.034-0.092  c0-0.051,0.048-0.033,0.039-0.084c-0.009-0.051,0.024-0.086,0.039-0.119c0.014-0.034,0.029-0.09,0.048-0.131  c0.019-0.039-0.019-0.131-0.019-0.147s0.062-0.039,0.033-0.073c-0.028-0.033,0.025-0.046,0.054-0.074  c0.029-0.027-0.021-0.125-0.006-0.227c0.014-0.104,0.029-0.277,0.029-0.295s0.005-0.085-0.02-0.13  c-0.024-0.046-0.053-0.08-0.086-0.099c-0.034-0.017-0.077-0.066-0.101-0.072s-0.169-0.055-0.169-0.133  c0-0.08-0.051-0.146-0.061-0.203c-0.01-0.057-0.082-0.18-0.086-0.237s-0.105-0.074-0.12-0.136c-0.015-0.063,0.021-0.104,0.031-0.144  c0.009-0.04-0.007-0.13-0.012-0.158c-0.005-0.029,0.043-0.123,0.072-0.14c0.029-0.017,0.082-0.077,0.101-0.077  c0.02,0,0.015-0.062,0.034-0.125c0.019-0.063-0.009-0.146-0.024-0.159s-0.029-0.085-0.053-0.108  c-0.024-0.023-0.072-0.011-0.072-0.011s0.009,0.051-0.034,0.079c-0.043,0.029-0.053-0.005-0.067-0.022  c-0.014-0.017-0.067-0.022-0.091-0.051c-0.024-0.029-0.063-0.069-0.091-0.085c-0.029-0.017-0.099-0.032-0.094-0.1  c0.005-0.068-0.035-0.11-0.055-0.121c-0.019-0.012-0.058-0.04-0.082-0.023c-0.024,0.017-0.067-0.034-0.101-0.028  c-0.033,0.006-0.101-0.068-0.125-0.097c-0.024-0.028-0.043-0.068-0.086-0.068s-0.048,0.017-0.077,0.057  c-0.029,0.04-0.072-0.028-0.086-0.045c-0.015-0.017-0.084,0.011-0.137,0.011s-0.077-0.108-0.079-0.13  c-0.007-0.084-0.154-0.085-0.187-0.107c-0.034-0.023-0.067-0.108-0.053-0.131c0.015-0.022-0.023-0.096-0.023-0.096  s-0.068-0.091-0.092-0.091s-0.101-0.159-0.144-0.204c-0.043-0.046-0.144-0.147-0.163-0.199c-0.019-0.051-0.024-0.13-0.072-0.091  c-0.048,0.04-0.01,0.079,0.038,0.125c0.048,0.045,0.039,0.091,0.106,0.153c0.067,0.063,0.038,0.125,0.067,0.153  c0.028,0.028,0.129,0.096,0.086,0.142c-0.043,0.045-0.086-0.057-0.105-0.063c-0.019-0.005-0.063-0.017-0.058-0.051  c0.005-0.034-0.039-0.063-0.072-0.113c-0.033-0.051-0.048-0.022-0.091-0.022s-0.005-0.063,0.019-0.091  c0.024-0.028-0.024-0.068-0.053-0.079C17.074,48.25,17.038,48.119,17,48.04c-0.038-0.08-0.067-0.119-0.11-0.114  c-0.043,0.006-0.114-0.037-0.143-0.06c-0.029-0.022-0.02-0.149-0.068-0.207c-0.048-0.057-0.091-0.165-0.087-0.227  c0.005-0.063,0.02-0.221,0.02-0.261s-0.037-0.115-0.037-0.132s-0.011-0.067-0.03-0.072c-0.019-0.005-0.082-0.062-0.125-0.062  s-0.063-0.08-0.048-0.12s-0.038-0.107-0.063-0.107c-0.024,0-0.062-0.074-0.077-0.114c-0.014-0.04-0.053-0.04-0.043-0.017  c0.009,0.022-0.005,0.063,0.019,0.074c0.024,0.012,0.043,0.102,0.024,0.113c-0.019,0.012-0.063-0.034-0.11-0.062  c-0.048-0.028-0.029-0.142-0.029-0.17c0-0.028-0.067-0.057-0.096-0.057c-0.029,0-0.058,0.005-0.063-0.068  c-0.005-0.074-0.091-0.114-0.12-0.114s-0.19-0.055-0.238-0.055c-0.048,0-0.122-0.07-0.15-0.047c-0.028,0.023-0.082-0.04-0.11-0.04  c-0.028,0-0.014,0.078-0.066,0.117c-0.052,0.039-0.087-0.038-0.116-0.009c-0.029,0.029-0.101,0.057-0.077-0.011  c0.024-0.068,0.024-0.08-0.015-0.063c-0.038,0.017-0.048,0.063-0.048,0.091c0,0.029-0.067,0.074-0.067,0.074s0.062,0.006,0.086,0  c0.023-0.005,0.004,0.063-0.02,0.08s-0.058,0.063-0.096,0.051c-0.038-0.011-0.043-0.051-0.067-0.057  c-0.024-0.005-0.05,0.074-0.137,0.125c-0.086,0.051-0.098-0.022-0.132-0.005s-0.154,0.068-0.197,0.074  c-0.043,0.005-0.034-0.063-0.01-0.063s0.115-0.051,0.139-0.068s0.129-0.063,0.159-0.079c0.029-0.018,0.077-0.045,0.058-0.08  c-0.019-0.035-0.082,0.017-0.082,0.017s-0.048-0.051-0.063-0.063c-0.015-0.012-0.043,0.045-0.043,0.045s-0.063-0.011-0.048-0.074  c0.015-0.063-0.034-0.063-0.043-0.034c-0.01,0.028-0.091,0.074-0.096,0.045c-0.005-0.029-0.077-0.085-0.096-0.13  c-0.019-0.045,0.019-0.051,0.063-0.091c0.043-0.04,0.105-0.051,0.158-0.045c0.053,0.005,0.086-0.068,0.067-0.074  s-0.053-0.012-0.082,0.017c-0.029,0.028-0.101,0.022-0.101,0.022s-0.105,0-0.148-0.034c-0.043-0.034-0.067-0.085-0.067-0.085  s0.086-0.04,0.153-0.045l0.053-0.029c0,0,0,0,0.029,0.029c0.029,0.028,0.077,0.04,0.12,0.045c0.043,0.006,0.043-0.028,0.009-0.062  c-0.034-0.034-0.043-0.029-0.072-0.034c-0.029-0.006-0.034-0.04-0.11-0.04c-0.077,0-0.067-0.045-0.077-0.068  c-0.01-0.022,0.074-0.067,0.093-0.062c0.02,0.006,0.09-0.012,0.09-0.012s0.125-0.057,0.139-0.045  c0.015,0.011,0.086-0.011,0.12-0.023c0.034-0.011,0.053-0.074,0.053-0.074s0.043,0.018,0.067,0.046s0.077,0,0.091,0  c0.014,0,0.094,0.018,0.094,0.018s0.078-0.011,0.116-0.017c0.039-0.006,0.15,0.044,0.188,0.056c0.038,0.011,0.24-0.039,0.259-0.039  s0.086,0.101,0.148,0.084c0.063-0.018,0.091,0.011,0.106,0.017c0.014,0.006,0.029,0.006,0.053,0.04  c0.024,0.034,0.048,0.005,0.082-0.017c0.034-0.023,0.029-0.045,0.029-0.045s0,0,0.029-0.006c0.028-0.006,0.048,0.012,0.129,0.017  c0.082,0.006,0.063-0.017,0.12-0.04c0.058-0.023,0.115,0.028,0.134,0.022c0.019-0.006,0.043-0.051,0.058-0.028  c0.015,0.022,0.039,0.068,0.039,0.068s0.063-0.057,0.082-0.057c0.019,0,0.129,0.01,0.163,0.005c0.034-0.006,0.111,0.006,0.14,0.035  c0.029,0.028,0.101,0.022,0.14,0.051c0.038,0.029,0.077-0.022,0.058-0.034c-0.02-0.012-0.067-0.057-0.067-0.057  s-0.072-0.102-0.082-0.12c-0.01-0.017-0.024-0.017-0.043,0.029c-0.019,0.045-0.091,0.045-0.173,0.051  c-0.082,0.006-0.029-0.045-0.12-0.051c-0.091-0.006-0.057-0.046-0.028-0.046c0.028,0,0.048-0.068,0.058-0.107  c0.009-0.04,0.043-0.034,0.11-0.028c0.067,0.005,0.086-0.012,0.154,0c0.067,0.011,0.063-0.034,0.13-0.028  c0.067,0.005,0.034,0.017,0.072,0.045c0.039,0.028,0.063,0.022,0.115,0.051c0.052,0.029,0.034,0.028,0.058,0.034  c0.024,0.006,0.106-0.011,0.154-0.017c0.048-0.006,0.086-0.011,0.11,0.023c0.024,0.034,0.02,0.074,0.053,0.102  c0.034,0.028-0.019-0.102-0.019-0.147c0-0.045,0.067-0.006,0.11-0.006s0.091-0.017,0.101,0.006c0.009,0.022-0.063,0.057-0.02,0.108  c0.043,0.051,0.072,0.068,0.111,0.068c0.038,0,0.125,0.011,0.086,0.074c-0.038,0.062-0.139,0.057-0.173,0.057  c-0.033,0-0.091,0.023-0.077,0.057c0.015,0.034,0.091,0.017,0.144,0.017c0.053,0,0.216,0.017,0.259,0s0.034-0.085-0.015-0.102  c-0.048-0.017-0.009-0.051,0.039-0.04c0.048,0.011,0.096-0.018,0.086,0c-0.009,0.017,0.005,0.057,0.005,0.102  s0.015,0.074,0.048,0.063c0.034-0.011,0.028-0.049,0.062-0.055c0.034-0.006,0.025-0.07,0.006-0.122  c-0.019-0.051-0.034-0.079-0.029-0.107c0.005-0.029,0.058-0.034,0.086-0.006c0.028,0.028,0.067,0.085,0.067,0.085  s0.058,0.04,0.077,0.085c0.02,0.045,0.024,0.034,0.063,0.005c0.039-0.028,0.048-0.022,0.082,0.006  c0.034,0.028,0.01,0.085,0.01,0.102c0,0.017,0.048,0,0.058-0.034c0.01-0.034,0.048-0.034,0.072-0.045  c0.024-0.012,0.024-0.08,0.024-0.08s-0.063-0.018-0.125-0.012c-0.062,0.006-0.082-0.006-0.13-0.045  c-0.048-0.04-0.019-0.068-0.043-0.108s0.077-0.062,0.139-0.096c0.062-0.034,0.125-0.011,0.11,0.074  c-0.014,0.085-0.024,0.074,0.048,0.057c0.072-0.018-0.005-0.091,0.028-0.097c0.034-0.006,0.12-0.022,0.149-0.017  c0.028,0.006,0.187-0.017,0.225-0.017c0.039,0,0.101,0.04,0.144,0.068c0.043,0.028,0.159,0.068,0.188,0.085  c0.029,0.017,0.23,0.051,0.25,0.057c0.02,0.006,0.02,0.074,0.039,0.131c0.02,0.057,0.072,0.017,0.091,0.017s0.086,0.04,0.106,0.068  c0.019,0.028,0.163,0.051,0.163,0.051s-0.034,0.051-0.048,0.068c-0.015,0.018-0.048,0.028-0.077,0.051  c-0.029,0.023-0.063-0.005-0.101-0.034c-0.038-0.029-0.105-0.046-0.12-0.034c-0.015,0.011-0.005,0.034,0.005,0.051  c0.009,0.017,0.072,0.04,0.11,0.074c0.038,0.034,0.029,0.068,0.033,0.114c0.005,0.045-0.038-0.018-0.086-0.028  c-0.048-0.012-0.053,0.045-0.053,0.045S19.8,46.06,19.771,46.06s0,0-0.053-0.045c-0.053-0.045-0.043,0.028-0.072,0.006  c-0.029-0.023-0.058-0.057-0.072-0.046c-0.014,0.012-0.062-0.051-0.091-0.045c-0.029,0.005-0.144-0.017-0.172-0.006  c-0.029,0.011-0.053,0.011-0.077,0.023c-0.024,0.011-0.034-0.08-0.019-0.108c0.014-0.028,0.048-0.034,0.11-0.017  c0.062,0.017,0.067,0,0.082-0.028c0.015-0.028,0.029-0.057,0.096-0.08c0.067-0.022-0.005-0.04-0.024-0.051  c-0.019-0.012-0.043-0.034-0.058,0c-0.014,0.034-0.048,0.074-0.048,0.074s-0.039,0-0.091-0.006c-0.052-0.006-0.014-0.028,0.01-0.04  c0.024-0.012,0.053-0.08,0.029-0.097c-0.024-0.017-0.034-0.028-0.077-0.017c-0.043,0.012-0.015-0.04-0.043-0.057  c-0.028-0.017-0.019,0.011-0.019,0.034c0,0.022-0.043,0.017-0.043,0.017s-0.067-0.012-0.091,0c-0.024,0.011-0.067,0.034-0.053,0.051  c0.014,0.017,0.062,0.017,0.077,0.068c0.014,0.051-0.063,0.063-0.077,0.068c-0.015,0.006-0.072,0.028-0.072,0.028  s-0.058-0.017-0.105-0.017c-0.048,0-0.063,0.005-0.053,0.028c0.01,0.023,0.034,0.012,0.048,0.012s0.014,0.028,0.058,0.017  c0.043-0.011,0.033-0.028,0.072,0.018c0.039,0.045,0.077,0.039,0.14,0.079c0.062,0.04-0.01,0.085-0.043,0.085  s-0.034-0.034-0.053-0.068c-0.02-0.034-0.096,0.006-0.096,0.006s-0.063,0.04-0.096,0.04c-0.033,0-0.058-0.006-0.014-0.045  c0.044-0.039-0.053-0.045-0.053-0.102c0-0.057-0.028,0.096-0.028,0.125c0,0.028-0.03-0.034-0.112-0.023  c-0.082,0.011-0.067,0.045-0.173,0.125c-0.105,0.08-0.078,0.061-0.068,0.135c0.01,0.074-0.018,0.087,0.025,0.098  c0.043,0.011,0.029,0.096,0.063,0.091c0.034-0.005,0.058-0.034,0.125,0.005c0.067,0.04,0.101,0.051,0.183,0.068  s0.122,0.007,0.165-0.004s0.085,0.044,0.085,0.083c0,0.04,0.028,0.046,0.024,0.097c-0.005,0.051,0.053-0.045,0.053-0.045  s0.024,0.085,0.005,0.096c-0.019,0.012,0.004,0.063,0.029,0.057c0.024-0.006,0.058,0.017,0.086-0.012  c0.029-0.028-0.015-0.113-0.015-0.147c0-0.034-0.029-0.051-0.043-0.085c-0.015-0.034,0.039-0.04,0.058-0.005  c0.019,0.034,0.053,0.005,0.086-0.023c0.033-0.028,0.033-0.08,0.033-0.08s-0.057-0.091-0.101-0.113  c-0.044-0.022-0.024-0.028,0.019-0.04c0.043-0.012,0-0.029,0.01-0.091c0.01-0.062,0.01-0.102,0.034-0.102s0.11-0.018,0.183-0.011  c0.072,0.005,0.105,0.068,0.153,0.074c0.048,0.005,0.125,0.017,0.139,0.045c0.015,0.029-0.084,0.046-0.051,0.091  c0.034,0.045,0.071,0.028,0.104,0.045c0.033,0.017,0.072,0.006,0.115-0.063c0.043-0.068,0.062-0.074,0.077-0.062  c0.014,0.011,0.106,0.136,0.129,0.165c0.024,0.028,0.047,0.11,0.052,0.139c0.005,0.028,0.097,0.008,0.116,0.008  s0.091,0.063,0.101,0.097c0.01,0.034,0.029,0.045,0.091,0.063s0,0.079-0.015,0.113c-0.014,0.034-0.024,0.045-0.043,0.085  s0,0,0.024,0.018c0.024,0.017,0.034,0.04,0.072,0.028c0.039-0.012,0.058,0,0.072,0.034c0.015,0.034,0.034,0.063,0.048,0.091  c0.014,0.029,0,0.074-0.02,0.045c-0.019-0.028-0.082-0.011-0.082-0.011s-0.029,0.034-0.039,0.017  c-0.009-0.017-0.029-0.04-0.063-0.028c-0.033,0.011-0.067,0-0.105,0.006c-0.038,0.005-0.053-0.023-0.029-0.046  c0.024-0.022,0.029-0.107,0.077-0.142c0.048-0.034,0.033-0.085,0-0.085c-0.034,0-0.048,0.051-0.067,0.063  c-0.019,0.011-0.085-0.021-0.119,0.007c-0.034,0.028-0.088,0.05-0.054,0.061c0.033,0.011-0.048,0.057-0.077,0.057  s-0.02-0.074-0.02-0.102S20,46.865,20,46.865s-0.077-0.051-0.105-0.017c-0.028,0.034-0.132,0.02-0.166,0.053  c-0.034,0.034-0.05,0.123-0.05,0.123s0.029-0.017,0.086-0.034c0.057-0.017,0.053-0.011,0.101-0.04  c0.048-0.028,0.096-0.04,0.13,0.012c0.033,0.051-0.015,0.079-0.015,0.079s0.019,0.04,0.039,0.051  c0.019,0.011,0.024-0.012,0.058-0.034c0.034-0.022,0.019,0.045,0.029,0.068c0.009,0.023,0.043,0.023,0.062-0.005  c0.02-0.028,0.034-0.051,0.048-0.034c0.014,0.017,0.029,0.057,0.043,0.097c0.015,0.04-0.101,0.051-0.12,0.057  c-0.02,0.005-0.111,0.028-0.125,0.034c-0.015,0.004-0.062,0.055-0.1,0.055c-0.039,0-0.034-0.068-0.039-0.107  c-0.005-0.04-0.053,0.005-0.058,0.022c-0.005,0.017-0.048,0.011-0.082,0.017c-0.034,0.006-0.091,0.045-0.091,0.091  s0.068,0.094,0.053,0.117c-0.015,0.023-0.125,0.014-0.159,0.002c-0.033-0.012-0.082,0.017-0.067,0.04  c0.014,0.023,0.004,0.057-0.029,0.051c-0.034-0.006-0.039,0.034-0.024,0.063c0.015,0.028-0.043,0.085-0.058,0.063  c-0.014-0.023-0.043-0.034-0.043,0c0,0.034,0.028,0.081,0.057,0.126s-0.081,0.056-0.115,0.089c-0.034,0.034-0.108,0.151-0.156,0.173  s-0.089,0.093-0.064,0.122c0.024,0.028,0.053,0.147,0.067,0.187c0.014,0.04-0.005,0.153-0.048,0.148  c-0.043-0.006-0.019-0.074-0.063-0.091c-0.043-0.017-0.067-0.119-0.077-0.188c-0.01-0.069-0.02-0.028-0.048-0.005  c-0.029,0.022-0.058-0.045-0.072-0.063c-0.014-0.017-0.085,0.034-0.143,0.028c-0.058-0.005-0.087,0.007-0.087,0.023  c0,0.017-0.01,0.068-0.063,0.034c-0.053-0.034-0.063-0.034-0.115-0.034c-0.052,0-0.101-0.005-0.11,0.017  c-0.01,0.023-0.063,0.074-0.096,0.085c-0.033,0.011-0.096,0.068-0.067,0.08c0.029,0.012,0.029,0.091,0.009,0.136  c-0.019,0.045-0.014,0.125-0.004,0.204c0.009,0.08,0.067,0.131,0.12,0.182c0.053,0.051,0.072,0.068,0.125,0.023  c0.053-0.045,0.072-0.017,0.086-0.012c0.014,0.006,0.053-0.028,0.038-0.08c-0.014-0.051,0.02-0.096,0.063-0.09  c0.043,0.005,0.106-0.017,0.14-0.011c0.034,0.005,0.053,0.113,0,0.159c-0.053,0.046-0.024,0.113-0.034,0.165  c-0.01,0.051-0.053,0.062,0,0.062c0.053,0,0.039,0.012,0.072,0.017c0.034,0.006,0.067-0.034,0.101-0.04  c0.034-0.006,0.12,0.085,0.105,0.131c-0.014,0.045-0.029,0.125-0.024,0.199c0.005,0.074,0.024,0.08,0.034,0.102  c0.01,0.022,0.048,0.073,0.091,0.051s0.086-0.04,0.101-0.063c0.015-0.022,0.106,0.04,0.096,0.057  c-0.01,0.018,0.034,0.034,0.063,0.018c0.029-0.018,0.043-0.046,0.072-0.091c0.029-0.046,0.077-0.085,0.101-0.091  c0.024-0.006,0.082-0.074,0.12-0.063c0.038,0.012-0.015,0.068-0.02,0.102c-0.004,0.034,0,0.131,0.02,0.137  c0.019,0.006,0.009-0.068,0.033-0.119c0.024-0.051,0.072-0.08,0.096-0.08s0.043,0.12,0.077,0.086  c0.034-0.034,0.101-0.029,0.116,0.005c0.014,0.034,0.028,0.051,0.028,0.051s0.024-0.022,0.024-0.051  c0-0.029,0.077-0.057,0.125-0.023c0.048,0.034,0.028,0.046,0.052,0.052c0.024,0.005,0.048-0.074,0.063-0.08  c0.014-0.006,0,0.09-0.034,0.141c-0.033,0.052,0.029,0.034,0.029,0.034s0,0,0.015,0.018c0.014,0.017,0.063-0.018,0.082,0.017  c0.02,0.034,0.053,0.045,0.082,0.108c0.029,0.063,0.062,0.007,0.12-0.004c0.058-0.011,0.14,0.072,0.197,0.146  c0.058,0.073,0.048,0.13,0.086,0.13c0.039,0,0.048,0.063,0.048,0.085s-0.086,0.074-0.134,0.085  c-0.048,0.011-0.048,0.068,0.029,0.051s0.043-0.051,0.091-0.068c0.048-0.017,0.096,0.022,0.053,0.091  c-0.043,0.068-0.129,0.074-0.053,0.085c0.077,0.011,0.034-0.011,0.077-0.079c0.043-0.068,0.038-0.045,0.067-0.045  c0.029,0,0.091,0.017,0.115,0.04c0.024,0.023,0.086,0.057,0.125,0.085c0.038,0.029,0.086,0.017,0.115,0.006  c0.029-0.011,0.11,0.034,0.139,0.079c0.029,0.046,0.101,0.052,0.134,0.068c0.034,0.019,0.086,0.085,0.091,0.142  C21.686,50.734,21.628,50.854,21.624,50.882z M19.121,46.109c-0.032,0.015-0.08-0.028-0.029-0.046  C19.137,46.048,19.152,46.094,19.121,46.109z M18.976,46.048c-0.013,0.022-0.083-0.002-0.07-0.019  C18.938,45.988,18.989,46.025,18.976,46.048z M19.9,49.044c-0.053,0.019-0.063-0.083-0.02-0.092  C19.924,48.943,19.953,49.026,19.9,49.044z M19.761,48.999c-0.005,0.073-0.029,0.005-0.048,0.005s-0.072,0.04-0.101,0.022  c-0.029-0.018-0.048-0.04-0.082-0.04c-0.033,0-0.086-0.011-0.086-0.011s0.082-0.085,0.11-0.091c0.028-0.006,0.072-0.017,0.11-0.006  C19.703,48.891,19.766,48.924,19.761,48.999z M19.28,48.856c-0.024-0.023-0.11-0.068-0.129-0.097  c-0.019-0.029-0.12-0.017-0.178-0.017c-0.058,0-0.105,0.017-0.101-0.04c0,0,0.115-0.04,0.144-0.04c0.029,0,0.101,0,0.14,0.04  c0.038,0.04,0.11,0.085,0.144,0.08c0.033-0.006,0.091,0.057,0.086,0.079C19.381,48.885,19.304,48.879,19.28,48.856z M19.266,49.106  c-0.053,0.019-0.063-0.083-0.019-0.092C19.29,49.005,19.319,49.088,19.266,49.106z M19.223,48.544  c0.043-0.006,0.072,0.045,0.02,0.057C19.191,48.613,19.179,48.55,19.223,48.544z M22.099,45.545  c-0.059,0.015-0.079-0.034-0.076-0.072c0.003-0.038-0.104-0.083-0.116-0.083c-0.011,0-0.004,0.117,0.04,0.117  c0.043,0,0.073,0.053,0.093,0.076c0.021,0.022-0.043,0.022-0.07,0.019c-0.026-0.004-0.108,0.053-0.185,0.068  c-0.077,0.015-0.161-0.003-0.193,0c-0.032,0.003-0.083,0.117-0.094,0.136c-0.012,0.019-0.117,0-0.155,0  c-0.038,0-0.07,0.049-0.132,0.061c-0.062,0.011-0.029,0.057-0.026,0.095s-0.018,0.057-0.056,0.045  c-0.038-0.011-0.035,0.016-0.038,0.049c-0.003,0.034,0.006,0.08-0.029,0.114s-0.05,0.045-0.09,0.042  c-0.042-0.004-0.039-0.087-0.053-0.083c-0.015,0.003-0.085,0.057-0.097,0.026c-0.012-0.03-0.103-0.098-0.135-0.113  s-0.055-0.079-0.07-0.106c-0.015-0.026,0.044-0.03,0.026-0.034c-0.018-0.004-0.079-0.023-0.091-0.042  c-0.012-0.019-0.05-0.109-0.053-0.136c-0.002-0.026,0.047-0.072,0.047-0.087c0-0.015-0.047-0.015-0.067-0.015  c-0.021,0-0.044-0.057-0.015-0.114c0.029-0.057,0.073-0.042,0.073-0.042s0.021,0,0.044,0s0.018,0.064,0.006,0.094  c-0.012,0.031,0.017,0.027,0.035,0.042s0.026-0.027,0.029-0.053c0.003-0.026-0.044-0.091-0.064-0.117  c-0.021-0.026-0.082-0.038-0.094-0.019c-0.012,0.019-0.062,0.098-0.076,0.079c-0.015-0.019-0.018-0.189-0.044-0.238  s-0.12-0.064-0.158-0.087c-0.038-0.023-0.175-0.045-0.199-0.049c-0.024-0.003-0.111,0.023-0.146,0.008  c-0.035-0.016-0.035-0.091-0.035-0.091s-0.021,0.08-0.035,0.102c-0.015,0.023-0.047,0.034-0.07,0.023  c-0.023-0.012-0.059-0.095-0.103-0.106c-0.044-0.012-0.064,0.007-0.1-0.023c-0.053-0.045,0.091-0.042,0.1-0.042  c0.009,0,0.12-0.026,0.123-0.064c0.003-0.038,0.038-0.076,0.088-0.064c0.05,0.011,0.07-0.042,0.064-0.087  c-0.006-0.045,0.088-0.094,0.108-0.072c0.021,0.023,0.099-0.004,0.073-0.049c-0.026-0.045,0.103-0.091,0.22-0.099  c0.117-0.007,0.146,0.008,0.176,0.027c0.029,0.019,0.128,0.026,0.164-0.027c0.035-0.053-0.003-0.128,0.038-0.159  s0.047,0.045,0.079,0.076c0.032,0.031,0.064-0.083,0.1-0.129c0.006-0.008,0.085-0.013,0.146-0.057  c0.07-0.051,0.176-0.045,0.265-0.047c0.069-0.002,0.114-0.027,0.184-0.023c0.089,0.005,0.201,0.041,0.275,0.051  c0.02,0.002,0.066,0.03,0.009,0.041c-0.057,0.011-0.175,0.04-0.244,0.051c-0.09,0.016-0.208-0.002-0.191,0  c0.021,0.004,0.136,0.055,0.28,0.018c0.017-0.004,0.076-0.045,0.141-0.027c0.034,0.009,0.071-0.032,0.129-0.047  c0.045-0.011,0.117,0.004,0.117,0.004s0,0,0.062-0.011c0.061-0.011,0.026,0.136,0.083,0.211c0.04,0.052,0.051,0.152,0.121,0.171  c0.07,0.019,0.105-0.038,0.167-0.098c0.061-0.061,0.155-0.027,0.202-0.008s0,0.106-0.067,0.128c-0.067,0.023-0.19,0.17-0.213,0.193  s-0.062,0.064-0.041,0.122c0.021,0.057,0.047,0.03,0.067,0.042c0.021,0.011-0.018,0.034-0.035,0.068s-0.021,0.098-0.018,0.159  c0.003,0.061-0.113-0.026-0.174-0.019c-0.062,0.007-0.034,0.09-0.022,0.117c0.012,0.027,0.021,0.064,0.032,0.08  C22.148,45.474,22.157,45.53,22.099,45.545z M22.509,45.999c-0.054,0.019-0.08-0.007-0.089-0.038  c-0.01-0.031-0.086-0.027-0.109-0.023s-0.042-0.026-0.067-0.08c-0.025-0.053,0-0.054,0.013-0.079  c0.01-0.019,0.115-0.004,0.141,0.026c0.026,0.03,0.067,0,0.131,0s0.093-0.03,0.122-0.026c0.029,0.003,0.09,0.022,0.116,0.049  c0.025,0.026-0.045,0.091-0.045,0.091s-0.086,0.003-0.1,0.026C22.608,45.969,22.564,45.98,22.509,45.999z M26.459,51.393  c-0.015,0.033-0.039,0.164-0.067,0.227c-0.029,0.063-0.034,0.137-0.063,0.21c-0.029,0.073-0.053,0.103-0.12,0.103  s-0.091-0.039-0.082-0.103c0.009-0.063-0.053-0.177-0.019-0.215c0.034-0.04,0.039-0.125,0.005-0.21  c-0.034-0.086,0.072-0.131,0.091-0.125c0.02,0.006,0.072-0.047,0.121-0.107c0.048-0.063,0.055-0.156,0.115-0.137  c0.033,0.012,0.052,0.091,0.058,0.152C26.502,51.25,26.473,51.357,26.459,51.393z M28.177,49.889  c-0.058-0.023-0.026-0.296,0.005-0.312c0.043-0.023,0.053,0.085,0.072,0.114C28.274,49.719,28.235,49.912,28.177,49.889z   M29.556,50.592c-0.02-0.045-0.184-0.083-0.208-0.106c-0.024-0.022-0.066-0.216-0.066-0.279s-0.129-0.193-0.144-0.21  c-0.015-0.017-0.161-0.139-0.101-0.153c0.024-0.006,0.081,0.011,0.12,0.051c0.038,0.039,0.111,0.085,0.168,0.158  c0.057,0.074,0.105,0.108,0.168,0.159c0.063,0.051,0.096,0.131,0.134,0.125s0.048,0.045,0.024,0.08  c-0.024,0.034-0.034,0.106-0.034,0.17S29.575,50.639,29.556,50.592z M29.224,49.543c0,0,0.087,0.085,0.111,0.13  s0.058,0.062,0.096,0.13c0.038,0.068,0.063,0.13,0.067,0.17c0.005,0.04,0.043,0.09,0.063,0.125c0.02,0.035-0.024,0.074-0.053,0.045  c-0.029-0.029-0.11-0.084-0.13-0.125c-0.019-0.04-0.067-0.142-0.091-0.244c-0.024-0.103-0.063-0.085-0.082-0.114  C29.186,49.634,29.186,49.548,29.224,49.543z M29.858,50.729c-0.009-0.01-0.013-0.018-0.013-0.023  c-0.006,0.016-0.045,0.025-0.078,0.029c-0.048,0.006-0.101-0.006-0.115-0.017c-0.015-0.011-0.059-0.05-0.024-0.102  c0.019-0.028,0.048-0.028,0.067,0.017c0.02,0.045,0.082,0.012,0.135,0.045c0.013,0.008,0.017,0.016,0.018,0.021  c0.006-0.018,0.036-0.026,0.059-0.039c0,0,0.12,0.035,0.144,0.035c0.024,0,0.082,0.051,0.077,0.084  c-0.004,0.035-0.091-0.006-0.148,0C29.921,50.786,29.896,50.77,29.858,50.729z M30.199,49.81c0.005-0.04,0.08-0.091,0.082-0.051  c0.01,0.187,0.091,0.079,0.091,0.107c0,0.029-0.039,0.04-0.072,0.074c-0.034,0.034,0.014,0.079,0.038,0.152  c0.024,0.074-0.024,0.103-0.072,0.154c-0.048,0.051-0.039,0.13-0.034,0.182c0.005,0.051-0.106,0.039-0.14,0.028  c-0.033-0.012-0.081-0.012-0.105-0.012c-0.023,0-0.11-0.057-0.144-0.147c-0.034-0.09-0.048-0.199-0.029-0.221  c0.02-0.023,0.086,0.057,0.096,0.028c0.01-0.029,0.019-0.074,0.058-0.085c0.039-0.011,0.058-0.017,0.077-0.034  c0.02-0.018,0.024-0.103,0.115-0.103C30.251,49.882,30.194,49.849,30.199,49.81z M30.473,49.061c0.048-0.04,0.009-0.102,0.043-0.102  c0.015,0,0.063,0.017,0.077,0.085c0.014,0.068-0.058,0.051-0.082,0.142c-0.024,0.091,0.029,0.028,0.072,0.045  s0.096,0.028,0.096,0.028s0,0-0.014,0.028c-0.014,0.028-0.082,0-0.115,0.051c-0.034,0.051-0.159,0.182-0.149,0.131  c0.01-0.051,0.082-0.108,0.105-0.136c0.024-0.028-0.077-0.08-0.105-0.147C30.372,49.117,30.425,49.1,30.473,49.061z M30.511,48.539  c0.063-0.011,0,0.182-0.058,0.187C30.396,48.731,30.44,48.552,30.511,48.539z M30.732,49.577c0,0,0.063,0.057,0.077,0.096  c0.014,0.04-0.034,0.119-0.082,0.13c-0.048,0.011-0.048,0.006-0.072-0.045c-0.024-0.051-0.129-0.017-0.144-0.045  c-0.014-0.028,0.063-0.103,0.11-0.08C30.67,49.657,30.665,49.679,30.732,49.577z M30.718,49.367  c0.067,0.005,0.091,0.108,0.005,0.113S30.698,49.365,30.718,49.367z M30.708,50.757c0.029-0.045,0.106,0.007,0.106,0.045  c0,0.04-0.077,0.052-0.077,0.052s-0.098,0.096-0.105,0.033C30.626,50.848,30.679,50.802,30.708,50.757z M30.492,50.212  c-0.052,0.006-0.076-0.034-0.043-0.074c0,0,0.087,0.017,0.101,0.011c0.015-0.006,0.148-0.034,0.168-0.034  c0.019,0-0.014,0.074-0.039,0.074C30.655,50.19,30.545,50.207,30.492,50.212z M30.56,49.452c0.053-0.023,0.101,0.068,0.12,0.096  c0.019,0.029-0.072,0.012-0.125,0.012C30.502,49.56,30.543,49.459,30.56,49.452z M30.42,50.252c0,0,0.043,0.028,0.072,0.022  c0.029-0.005,0.121-0.022,0.135,0.012c0.015,0.033-0.019,0.062-0.082,0.051c-0.063-0.012-0.029,0.028,0.024,0.062  c0.053,0.034,0.058,0.169,0.058,0.169s-0.062,0.007-0.096-0.045c-0.034-0.05-0.01-0.067-0.029-0.106  c-0.02-0.04-0.091,0.085-0.13,0.056c-0.039-0.028,0.005-0.068,0.015-0.125C30.396,50.292,30.391,50.263,30.42,50.252z   M30.454,50.865c-0.005,0.056-0.087,0.033-0.077-0.018C30.387,50.802,30.458,50.809,30.454,50.865z M31.966,53.118  c-0.024,0.011-0.11,0.032-0.096-0.029c0.015-0.063-0.091-0.063-0.039-0.125c0,0,0.053,0.022,0.077,0.028  c0.024,0.006,0.12-0.085,0.129-0.051C32.048,52.975,31.99,53.105,31.966,53.118z M32.192,52.521  c-0.043,0.067-0.058,0.158-0.077,0.192c-0.02,0.034-0.01,0.028-0.082,0.052c-0.072,0.021-0.125,0.09-0.145,0.067  c-0.019-0.022-0.086-0.063-0.105-0.034c-0.019,0.028-0.043,0.092-0.077,0.021c-0.034-0.068-0.11-0.057-0.125-0.067  c-0.014-0.011-0.014-0.045-0.014-0.103c0-0.057-0.063-0.063-0.067-0.078c-0.005-0.018-0.019-0.034-0.019-0.051  c0-0.06-0.029,0.062-0.048,0.011c-0.019-0.052,0.02-0.138-0.028-0.103c-0.048,0.033-0.072,0.063-0.077,0.092  c-0.005,0.026-0.091,0.039-0.086,0.011c0.005-0.028,0.039-0.097,0.005-0.125c-0.034-0.028-0.091-0.04-0.135-0.058  c-0.043-0.017,0.005-0.074-0.11-0.045c-0.115,0.028-0.158,0.063-0.158,0.063s-0.106-0.039-0.139,0.006  c-0.034,0.046-0.053,0.189-0.053,0.189s-0.164-0.054-0.192-0.049c-0.029,0.008-0.077,0.053-0.12,0.068  c-0.043,0.018-0.115,0.034-0.144,0.006c-0.029-0.027-0.077-0.079-0.063-0.113c0.015-0.033,0.12-0.08,0.082-0.137  c-0.039-0.057-0.063-0.068-0.067-0.102c-0.005-0.034,0.014-0.051-0.043-0.119s-0.043-0.147-0.019-0.159  c0.024-0.013-0.08-0.079-0.099-0.106c-0.019-0.028,0.046-0.132,0.084-0.16c0.039-0.027,0.154-0.135,0.188-0.135  c0.034,0,0.086,0.017,0.12-0.013c0.034-0.028,0.134-0.017,0.134-0.039s-0.028-0.206-0.004-0.233  c0.024-0.028,0.163,0.035,0.177,0.013s0.039-0.119,0.067-0.136c0.029-0.019,0.053-0.058,0.097,0  c0.043,0.057,0.086,0.078,0.105,0.021s0.004-0.04,0.048-0.091c0.043-0.052-0.005-0.138,0.039-0.085  c0.043,0.051,0.072,0.09,0.072,0.09s-0.004-0.113,0.024-0.113c0.028,0,0.058,0.057,0.072,0.057c0.015,0,0.144-0.033,0.168,0.006  c0.024,0.04-0.067,0.146-0.033,0.188c0.033,0.04,0.101,0.063,0.148,0.098c0.048,0.033,0.106,0.113,0.13,0.046  c0.024-0.068,0.072-0.171,0.038-0.222c-0.033-0.052,0.01-0.217,0.024-0.228s0.038,0.13,0.086,0.192  c0.048,0.063,0.096,0.107,0.12,0.177c0.024,0.067,0.029,0.187,0.072,0.228c0.043,0.039,0.209,0.036,0.205,0.088  c-0.005,0.051,0.016,0.149,0.069,0.246c0.053,0.098,0.155,0.322,0.155,0.413S32.235,52.454,32.192,52.521z M30.938,50.06  c0.034,0.017-0.009,0.221-0.067,0.204C30.814,50.247,30.895,50.037,30.938,50.06z M31.467,50.604  c-0.019-0.021-0.039-0.062-0.134-0.078c-0.096-0.018-0.067-0.022-0.077-0.045c-0.009-0.022-0.096,0.006-0.125,0  c-0.029-0.006-0.005-0.062,0.029-0.107c0.034-0.046,0.009-0.046-0.072-0.063c-0.082-0.017-0.065-0.02-0.029-0.063  c0.043-0.051,0.077-0.04,0.091,0c0.015,0.04,0.058,0.017,0.115,0.04c0.058,0.022,0.053,0.051,0.058,0.022  c0.005-0.029,0.178-0.029,0.254,0.017c0.077,0.046,0.096,0.074,0.168,0.091c0.072,0.017,0.096,0.097,0.125,0.125  c0.029,0.028,0.086,0.04,0.086,0.079s0.067,0.136,0.105,0.152c0.039,0.018,0.072,0.125,0.067,0.153  c-0.004,0.029-0.072-0.005-0.129-0.04c-0.058-0.033-0.086-0.085-0.096-0.136c-0.01-0.05-0.105-0.034-0.13-0.005  c-0.024,0.027-0.053,0.13-0.101,0.136c-0.048,0.005-0.096-0.103-0.101-0.118c-0.004-0.018-0.091,0.006-0.12,0  c-0.029-0.007,0.014-0.063,0.053-0.063S31.486,50.627,31.467,50.604z M31.822,47.359c0,0-0.063,0.022-0.13,0.028  c-0.067,0.005-0.11,0.04-0.153-0.006c-0.043-0.045,0.091-0.08,0.091-0.097c0-0.017,0.013-0.074,0.048-0.085  c0.038-0.011,0.072,0.057,0.091,0.051s0.125,0,0.139,0.057C31.923,47.364,31.822,47.359,31.822,47.359z M31.568,47.421  c0.048-0.034,0.048,0.04,0.086,0.12c0.038,0.079,0.004,0.079-0.02,0.09c-0.024,0.011-0.019,0.142-0.024,0.165  c-0.005,0.023-0.082,0.051-0.101,0.068c-0.02,0.017-0.125,0.045-0.125,0.062c0,0.017-0.019,0.063-0.077,0.045  c-0.057-0.017-0.024-0.085-0.038-0.04c-0.015,0.045-0.034,0.085-0.067,0.091c-0.034,0.005-0.101-0.057-0.101,0.005  c0,0.063-0.039,0.085-0.067,0.085c-0.028,0-0.063-0.063-0.077-0.13c-0.014-0.068,0.053-0.051,0.077-0.074  c0.024-0.022,0.063-0.057,0.082-0.085c0.02-0.028,0.159,0.034,0.187,0c0.029-0.034,0.13-0.079,0.149-0.079s0.043-0.063,0.072-0.131  C31.553,47.546,31.532,47.446,31.568,47.421z M32.869,46.372c-0.014,0.045-0.038,0.097-0.038,0.136s-0.086,0.045-0.115,0.08  c-0.029,0.034-0.077,0.119-0.159,0.181c-0.082,0.063-0.139,0.159-0.139,0.159s0.015-0.097,0.053-0.165  c0.039-0.068-0.043-0.165-0.048-0.238c-0.005-0.074,0.024-0.097,0.072-0.165c0.048-0.068,0.164-0.09,0.211-0.125  c0.048-0.034,0.245-0.193,0.245-0.193s-0.039,0.028-0.086,0.051c-0.048,0.022-0.106,0.068-0.144,0.068  c-0.039,0-0.024-0.045-0.029-0.091c-0.005-0.046-0.096-0.011-0.13,0.034s-0.096,0.074-0.163,0.13s-0.048,0.051-0.091,0.057  s-0.115-0.028-0.149-0.057c-0.033-0.028-0.067,0.023-0.173,0.028c-0.105,0.006-0.226-0.011-0.273-0.005  c-0.048,0.005-0.168,0.17-0.24,0.198c-0.072,0.028-0.164,0.08-0.139,0.119c0.024,0.04,0.067-0.034,0.086-0.034  s-0.014,0.08,0.029,0.08c0.043,0,0.067-0.028,0.11-0.034s0.077,0.039,0.086,0.102c-0.029-0.079,0.054-0.059,0.082-0.068  c0.034-0.011,0.024,0.028,0.039,0.04c0.014,0.012-0.01,0.057-0.029,0.063c-0.02,0.006,0.014,0.028,0.038,0.068  s0.043,0.136,0.024,0.142c-0.02,0.006-0.053,0.04-0.053,0.063c0,0.022,0.034,0.136,0.01,0.147c-0.024,0.011-0.063-0.028-0.072-0.045  c-0.01-0.017-0.015-0.147-0.01-0.209c0.005-0.063,0-0.12-0.029-0.199c0.01,0.063-0.019,0.114-0.039,0.193  c-0.019,0.08-0.048,0.159-0.125,0.227s-0.202,0.193-0.226,0.227s-0.11,0.005-0.125-0.017c-0.015-0.022-0.058,0.051-0.091,0.068  c-0.034,0.017-0.067,0.051-0.067,0.096s-0.096,0.045-0.096,0.074c0,0.029,0.058,0.108,0.082,0.147  c0.024,0.04-0.004,0.165-0.047,0.193s-0.063,0.063-0.12,0.023c-0.058-0.04-0.01-0.063,0.014-0.125  c0.024-0.063-0.024-0.096-0.034-0.113s-0.048,0.034-0.067,0.04c-0.02,0.006-0.02-0.051-0.005-0.085  c0.015-0.034-0.009-0.108-0.023-0.114c-0.015-0.005-0.106,0.085-0.144,0.08c-0.039-0.005-0.005-0.108,0.009-0.136  c0.015-0.028-0.029-0.006-0.058,0.022c-0.029,0.029-0.091,0.091-0.115,0.085c-0.024-0.006-0.072,0.045-0.034,0.08  c0.039,0.034,0.053,0.063,0.077,0.068c0.024,0.006,0.086-0.011,0.11-0.017c0.024-0.005,0.072,0.04,0.024,0.091  c-0.048,0.051-0.149,0.057-0.129,0.091c0.019,0.034,0.067,0.085,0.105,0.165c0.038,0.08,0.024,0.165,0.034,0.227  c0.01,0.062-0.139,0.193-0.183,0.232c-0.043,0.04-0.086,0.136-0.158,0.182c-0.072,0.045-0.226,0.085-0.25,0.068  c-0.024-0.017-0.092,0.028-0.087,0.091s0.039,0.057,0.039,0.074c0,0.017-0.048,0.085-0.067,0.114c-0.019,0.028-0.086,0-0.077-0.085  c0.01-0.085,0.058-0.119,0.053-0.159c-0.005-0.04-0.048-0.063-0.077-0.028s-0.12,0.13-0.12,0.13s0.034,0.103,0.077,0.142  c0.043,0.04,0.072,0.096,0.13,0.181s0.014,0.159,0,0.221c-0.015,0.063-0.063,0.063-0.101,0.074  c-0.038,0.011-0.048,0.029-0.063,0.063c-0.014,0.034-0.083,0.197-0.093,0.168c-0.01-0.029-0.07-0.22-0.07-0.22  s-0.043-0.103-0.105-0.153c-0.063-0.051-0.086-0.074-0.086-0.022s-0.039,0.147-0.039,0.182c0,0.035-0.086-0.103-0.086-0.159  s-0.015-0.153-0.01-0.244c0.005-0.091-0.101-0.006-0.101-0.006s-0.082,0.204-0.105,0.204c-0.024,0,0-0.187,0.004-0.255  c0.005-0.068-0.024-0.13-0.038-0.153c-0.015-0.023-0.096-0.114-0.111-0.176c-0.014-0.062-0.043-0.04-0.072-0.005  c-0.029,0.035-0.019,0.034-0.134,0.034c-0.116,0-0.111,0.085-0.168,0.136c-0.058,0.051-0.105,0.148-0.173,0.182  c-0.067,0.034-0.096,0.068-0.096,0.108s0.027,0.17,0.013,0.228c-0.015,0.057-0.051,0.107-0.085,0.164  c-0.034,0.057-0.062,0.147-0.091,0.147c-0.028,0-0.038-0.079-0.038-0.13c0-0.051-0.082-0.17-0.101-0.209  c-0.019-0.04-0.091-0.215-0.091-0.215s-0.058-0.188-0.052-0.239c0.004-0.051,0.004-0.193,0.004-0.193s-0.077,0.091-0.11,0.085  c-0.033-0.006-0.067-0.068-0.063-0.142c0.005-0.074-0.058-0.068-0.091-0.079c-0.034-0.012-0.077-0.114-0.101-0.114  s-0.038,0-0.057,0.034s-0.12,0.028-0.145,0.028c-0.024,0-0.167-0.006-0.211-0.023c-0.044-0.017-0.091-0.119-0.115-0.13  c-0.024-0.011-0.096,0.063-0.125,0.051c-0.028-0.012-0.086-0.068-0.149-0.103c-0.062-0.034-0.081-0.113-0.105-0.165  c-0.024-0.051-0.105,0.029-0.096,0.085c0.01,0.056,0.115,0.13,0.115,0.17s0.02,0.051,0.072,0.103c0.053,0.051,0.01,0.08,0.043,0.09  c0.034,0.011,0.082-0.045,0.13-0.074c0.048-0.029,0.043-0.068,0.067-0.068s0.019,0.074,0.058,0.079  c0.038,0.006,0.139,0.074,0.163,0.12c0.024,0.045-0.024,0.074-0.043,0.113c-0.02,0.04-0.077,0.153-0.125,0.198  c-0.048,0.046-0.101,0.108-0.173,0.125c-0.072,0.017-0.082,0.063-0.139,0.068c-0.058,0.006-0.216,0.097-0.24,0.114  s-0.154,0.063-0.192,0.045c-0.039-0.017-0.053-0.13-0.067-0.216c-0.015-0.085-0.033-0.13-0.048-0.164  c-0.015-0.034-0.101-0.125-0.12-0.142c-0.02-0.017-0.067-0.153-0.072-0.209c-0.004-0.057-0.058-0.035-0.067-0.097  c-0.01-0.063-0.063-0.148-0.072-0.188c-0.008-0.033-0.074-0.008-0.118,0.004c0.009,0.018,0.018,0.033,0.027,0.052  c0.034,0.074,0.067,0.176,0.106,0.255c0.039,0.08-0.005,0.239,0.034,0.29c0.039,0.051,0.139,0.096,0.163,0.164  c0.024,0.068,0.082,0.136,0.101,0.142c0.02,0.006,0.101,0.136,0.106,0.17c0.005,0.034-0.029,0.108,0.048,0.114  c0.077,0.006,0.144-0.04,0.168-0.052c0.024-0.011,0.211-0.096,0.235-0.063c0.024,0.034-0.033,0.182-0.038,0.222  s-0.145,0.232-0.149,0.284c-0.004,0.051-0.086,0.142-0.139,0.153c-0.053,0.011-0.163,0.171-0.202,0.222  c-0.038,0.051-0.101,0.164-0.129,0.176c-0.028,0.012-0.051,0.162-0.037,0.185c0.014,0.023,0.017,0.127,0.061,0.173  c0.044,0.046,0.058,0.08,0.038,0.119c-0.019,0.04,0.01,0.13,0,0.204c-0.009,0.072-0.091,0.146-0.11,0.17  c-0.019,0.021-0.11,0.086-0.148,0.143c-0.039,0.058-0.072,0.107-0.063,0.137c0.009,0.027,0.048,0.17,0.043,0.203  c-0.004,0.035-0.132,0.053-0.17,0.074c-0.039,0.023,0.017,0.096,0.026,0.143c0.01,0.045-0.067,0.119-0.101,0.158  c-0.034,0.039-0.125,0.176-0.188,0.228c-0.063,0.051-0.152,0.041-0.215,0.035c-0.062-0.007-0.165,0.05-0.188,0.078  s-0.057,0.021-0.105-0.005c-0.048-0.029-0.053-0.068-0.058-0.131c-0.005-0.063-0.02-0.104-0.02-0.104s-0.014-0.098-0.057-0.143  s-0.058-0.097-0.082-0.131c-0.024-0.033,0.044-0.131,0.04-0.192c-0.005-0.063-0.088-0.136-0.112-0.175  c-0.024-0.041-0.072-0.147-0.091-0.188c-0.019-0.041-0.043-0.119-0.039-0.231c0.004-0.113,0.054-0.181,0.092-0.215  c0.039-0.033,0.023-0.074-0.011-0.143c-0.033-0.068,0.005-0.182-0.024-0.221c-0.029-0.041-0.073-0.262-0.126-0.295  c-0.053-0.034-0.109-0.034-0.08-0.113c0.029-0.08,0-0.159,0.048-0.21c0.048-0.051,0.024-0.085-0.029-0.119  c-0.053-0.034-0.034-0.051-0.077-0.011c-0.043,0.04-0.101,0.062-0.135,0.023c-0.033-0.041-0.024-0.103-0.086-0.146  c-0.063-0.046-0.163-0.03-0.187-0.02c-0.024,0.012-0.073,0.109-0.14,0.121c-0.067,0.012-0.115-0.005-0.182-0.005  s-0.125,0.005-0.135,0.045c-0.009,0.04-0.024,0.063-0.067,0.023c-0.043-0.04-0.13-0.131-0.13-0.131s-0.08-0.156-0.104-0.225  c-0.023-0.068-0.107-0.07-0.198-0.121c-0.091-0.051-0.039-0.108-0.048-0.165c-0.01-0.057-0.058-0.08-0.034-0.085  c0.024-0.006,0.019-0.045,0.072-0.125c0.053-0.08,0.02-0.165,0.01-0.21c-0.01-0.045-0.058-0.113-0.01-0.187  c0.048-0.074,0.078-0.25,0.116-0.295c0.039-0.045,0.153-0.09,0.206-0.119c0.053-0.029,0.019-0.102,0.048-0.188  c0.029-0.085,0.072-0.125,0.086-0.125c0.015,0,0.068-0.059,0.125-0.096c0.043-0.029,0.144,0.005,0.163-0.006  c0.02-0.012,0.096-0.04,0.14-0.063c0.043-0.023,0.182-0.08,0.201-0.08c0.02,0,0.259,0.006,0.293-0.011s0.164-0.041,0.202,0.083  c0.038,0.125-0.043,0.076-0.082,0.098c-0.038,0.022,0.015,0.074,0.034,0.074s0.086,0.074,0.12,0.074c0.033,0,0.115,0.04,0.115,0.04  s0.082,0.074,0.125,0.074s0.116,0.088,0.164,0.032c0.048-0.057,0.071-0.173,0.119-0.162c0.048,0.011,0.101,0.057,0.164,0.057  s0.178-0.011,0.197,0.017c0.02,0.028-0.129,0.125-0.12,0.147c0.01,0.022,0.029,0.017,0.077-0.051  c0.048-0.068,0.12-0.068,0.178-0.085c0.029-0.009,0.051,0.015,0.066,0.044c0.016-0.009,0.036-0.01,0.058-0.01  c0.048,0,0.029-0.028,0.077-0.085c0.047-0.057,0.063-0.17,0.067-0.244c0.005-0.074-0.034-0.04-0.072-0.028  c-0.039,0.011-0.096,0.028-0.115,0.022c-0.019-0.005-0.096-0.034-0.11-0.017c-0.015,0.017-0.096,0.005-0.115-0.023  c-0.02-0.028-0.115-0.063-0.125-0.085c-0.01-0.023,0-0.159-0.02-0.193c-0.019-0.034-0.062,0.006-0.086,0.029  s-0.091,0.04-0.072,0.057c0.019,0.017,0.082,0.051,0.077,0.096c-0.005,0.046-0.048,0.057-0.072,0.08s-0.111,0.113-0.126,0.084  c-0.014-0.029-0.023-0.209-0.038-0.232c-0.014-0.022-0.058-0.08-0.072-0.13c-0.015-0.051-0.067-0.068-0.101-0.108  c-0.034-0.04-0.13-0.102-0.168-0.147c-0.039-0.045-0.106-0.08-0.111-0.023c-0.005,0.057,0.067,0.068,0.096,0.125  c0.029,0.057,0.091,0.091,0.125,0.108c0.034,0.017,0.125,0.091,0.125,0.091s-0.039,0.017-0.072,0.011  c-0.033-0.006,0.019,0.123,0.015,0.162c-0.005,0.04-0.063-0.015-0.072-0.06c-0.01-0.045-0.039-0.096-0.058-0.113  s-0.144-0.063-0.164-0.074c-0.019-0.012-0.101-0.074-0.11-0.125c-0.009-0.051-0.082-0.057-0.101-0.045  c-0.02,0.011-0.092,0.073-0.125,0.073c-0.034,0-0.086-0.028-0.125-0.034c-0.038-0.005-0.043,0.074-0.058,0.119  c-0.014,0.046-0.077,0.012-0.11,0.051c-0.033,0.04-0.091,0.08-0.077,0.114c0.014,0.034,0.038,0.034-0.005,0.062  c-0.043,0.029-0.067,0.085-0.11,0.091s-0.101,0.028-0.125,0.011c-0.024-0.017-0.043,0.057-0.058,0.074  c-0.014,0.017-0.039-0.051-0.063-0.08c-0.024-0.029-0.086-0.006-0.105-0.011c-0.02-0.006-0.039-0.057-0.063-0.08  s-0.019-0.074,0-0.091c0.019-0.017,0.039-0.045,0.024-0.096c-0.014-0.051-0.024-0.165,0.024-0.188c0.048-0.022,0.164,0,0.221,0  c0.057,0,0.156,0.023,0.173-0.011c0.024-0.051,0.034-0.108,0.029-0.159c-0.005-0.051-0.101-0.097-0.164-0.108  c-0.062-0.011-0.053-0.045,0.015-0.051c0.067-0.006,0.063-0.034,0.12-0.046c0.058-0.011,0.115-0.028,0.158-0.034  c0.043-0.006,0.043-0.051,0.043-0.085c0-0.034,0.12-0.045,0.12-0.045s0.067-0.073,0.105-0.107c0.039-0.034,0.105-0.028,0.159-0.011  c0.053,0.017-0.005-0.04-0.024-0.068c-0.019-0.028-0.004-0.091,0.01-0.125c0.015-0.034,0.101-0.051,0.125-0.04  c0.024,0.011,0,0.063,0.004,0.108c0.005,0.045,0.043,0.074,0.043,0.074l0.039-0.006c0,0,0,0,0.062,0  c0.063,0,0.066,0.001,0.114-0.016s0.083,0.004,0.103-0.007c0.019-0.012,0.072-0.012,0.144,0.017  c0.072,0.029,0.034-0.051,0.048-0.096c0.015-0.045,0.043-0.125,0.091-0.119c0.048,0.005,0.086,0.04,0.125,0.011  c0.038-0.028-0.072-0.068-0.072-0.085c0-0.017,0.091-0.017,0.173-0.022c0.082-0.006,0.13,0,0.168-0.012  c0.038-0.011-0.029-0.091-0.043-0.091c-0.014,0-0.11,0.012-0.159,0.006c-0.048-0.006-0.101,0.034-0.144,0.045  c-0.043,0.011-0.053-0.068-0.077-0.102c-0.024-0.034-0.034-0.097,0.029-0.131c0.063-0.034,0.173-0.107,0.192-0.142  c0.02-0.034-0.077-0.028-0.168-0.022c-0.091,0.005,0.015,0.034-0.072,0.136c-0.087,0.102-0.13,0.034-0.197,0.102  c-0.067,0.068-0.019,0.073,0.043,0.096s0.01,0.091-0.005,0.108c-0.014,0.017-0.086,0.08-0.077,0.125  c0.009,0.045-0.048,0.073-0.048,0.073s-0.178,0.046-0.211,0.051c-0.034,0.006-0.043-0.028-0.034-0.063  c0.01-0.034-0.039-0.113-0.043-0.164c-0.005-0.051-0.077,0.022-0.082,0.057c-0.005,0.034-0.097,0.04-0.149,0.017  c-0.053-0.023-0.082-0.108-0.072-0.125c0.01-0.017-0.029-0.103-0.029-0.125s0.112-0.188,0.204-0.21  c0.092-0.022,0.2-0.079,0.262-0.135c0.062-0.056,0.091-0.125,0.11-0.142c0.019-0.017,0.351-0.205,0.471-0.228  s0.384,0.114,0.427,0.125c0.043,0.011,0.067,0.028,0.173,0.074c0.106,0.045,0.206-0.004,0.272,0.007  c0.067,0.011,0.102,0.083,0.146,0.106c0.043,0.022,0,0.04-0.106,0.079c-0.105,0.04-0.177,0.028-0.235,0.006  c-0.058-0.023-0.091-0.023-0.048,0.011s0.029,0.051,0.033,0.102c0.005,0.051,0.073,0.006,0.087-0.006  c0.015-0.011,0.015-0.034,0.067,0.006c0.053,0.04,0.072,0.017,0.096,0.011c0.024-0.005,0.005-0.068,0.019-0.091  c0.015-0.022,0.072-0.022,0.087-0.034c0.015-0.012,0.048-0.028,0.077-0.034c0.029-0.006,0.024,0.051,0.053,0.068  s0.015-0.074,0.005-0.096c-0.01-0.022-0.019-0.085-0.005-0.103c0.015-0.017,0.115-0.028,0.139-0.005s-0.038,0.091-0.024,0.13  c0.015,0.04,0.048-0.022,0.072-0.057s0.077,0,0.163-0.017s0.067-0.074,0.158-0.04c0.091,0.034,0.067,0.034,0.096,0  s0.082,0.006,0.134-0.017c0.053-0.022,0.053,0,0.092,0.023c0.038,0.022,0.086-0.045,0.105-0.068  c0.019-0.022,0.096-0.022,0.134-0.017c0.039,0.006,0.086,0.034,0.125,0.034c0.038,0,0.101,0.034,0.101,0.034  s0.082,0.034,0.101,0.012c0.019-0.023-0.005-0.051-0.077-0.091c-0.072-0.04-0.043-0.108,0-0.113  c0.043-0.006,0.039-0.034,0.072-0.057c0.034-0.023,0.077-0.108,0.115-0.091c0.038,0.017,0.072,0.051,0.12,0.079  s0.005,0.068-0.005,0.097c-0.009,0.028,0.01,0.136,0.024,0.153c0.015,0.018-0.014,0.08-0.053,0.108  c-0.039,0.028-0.091,0.091-0.077,0.102c0.014,0.011,0.129-0.051,0.129-0.051s0.072-0.102,0.106-0.13  c0.033-0.029,0.067-0.029,0.077,0.005c0.009,0.034,0.062,0.045,0.11,0.023c0.048-0.023,0-0.04-0.005-0.091  c-0.004-0.051-0.082-0.023-0.125-0.012c-0.043,0.012-0.077,0.063-0.091,0.063c-0.015,0-0.015-0.034-0.005-0.085  c0.009-0.051-0.019-0.08-0.019-0.108c0-0.028,0.014-0.028,0.048-0.085c0.034-0.057,0.034,0.04,0.038,0.091  c0.005,0.051,0.039,0.028,0.067,0.022c0.029-0.005,0.015-0.074,0.039-0.107c0.024-0.034,0.077-0.04,0.125,0.011  c0.048,0.051,0.043,0.034,0.101,0.057c0.058,0.023,0.063,0.028,0.068,0.08c0.004,0.051,0.043,0.057,0.067,0.04  s0.005-0.085-0.009-0.108c-0.014-0.022-0.13-0.062-0.168-0.102c-0.038-0.04,0.02-0.04,0.063-0.04s0.125,0.006,0.125,0.006  s0.091-0.023,0.139-0.063c0.048-0.039,0.082-0.039,0.13-0.062c0.048-0.023,0.125-0.023,0.173-0.011  c0.048,0.011,0.081-0.023,0.129-0.045c0.048-0.023,0.111-0.17,0.115-0.028c0.001,0.018,0.134,0.045,0.153,0.04  c0.02-0.006,0.068-0.013,0.14-0.057c0.04-0.024,0.057-0.044,0.064-0.06c-0.02-0.041,0.017-0.034,0,0  c0.002,0.004,0.003,0.008,0.007,0.014c0.019,0.027,0.077-0.023,0.178,0.028c0.101,0.051,0,0,0.028,0.034  c0.029,0.034,0.043-0.006,0.111-0.017c0.067-0.011,0.11,0,0.153,0.005c0.043,0.006,0.139,0.006,0.183,0.04  c0.043,0.034-0.029,0.107-0.053,0.13c-0.024,0.022,0.038,0.04,0.057,0.034c0.02-0.006,0.178,0,0.25,0.011  c0.072,0.012,0.101,0.051,0.134,0.051c0.034,0,0.087-0.017,0.106-0.04c0.019-0.023,0.139-0.034,0.177-0.04  c0.039-0.006,0.145,0,0.159,0.011s0.029,0.068,0.029,0.113c0,0.045,0.043,0.085,0.077,0.091c0.034,0.006,0.096-0.068,0.12-0.08  c0.024-0.011,0.053,0.051,0.067,0.034c0.014-0.017,0.135,0.006,0.183-0.022c0.048-0.029,0.077,0,0.101-0.012  c0.024-0.011,0.063-0.074,0.063-0.096s0.019-0.04,0-0.074c-0.019-0.034-0.086-0.011-0.159-0.034  c-0.072-0.023,0.003-0.141,0.024-0.08c0.012,0.035,0.077,0,0.125,0.011c0.048,0.011,0.029-0.017,0.053-0.017  s0.111,0.028,0.159,0.028c0.048,0,0.086,0.062,0.086,0.062s-0.134,0.046-0.163,0.046c-0.029,0-0.01,0.045,0.014,0.045  c0.024,0,0.058,0.018,0.091,0.046c0.033,0.028,0.182,0,0.202,0c0.019,0,0.077,0.028,0.135,0.068c0.057,0.04,0.096,0.057,0.096,0.057  s0.082,0,0.164-0.011c0.082-0.011,0.187-0.011,0.206,0.006c0.019,0.017,0.072,0.034,0.11,0.073c0.039,0.04,0.067,0.023,0.12,0.018  c0.053-0.006,0.106-0.018,0.154-0.018c0.048,0,0.207-0.005,0.235,0.046c0.029,0.051,0.063,0.04,0.063,0.04s0.043-0.091,0.063-0.108  s0.082,0.012,0.12,0.034s0.226,0,0.273,0.011c0.048,0.011,0.116,0.068,0.077,0.114c-0.039,0.045,0.029,0.125,0.015,0.17  c-0.015,0.045-0.053,0.051-0.092,0.063c-0.038,0.011,0.039,0.068,0.072,0.108c0.034,0.04-0.019,0.051-0.053,0.034  c-0.033-0.017-0.12,0.005-0.23,0.04c-0.11,0.035-0.153,0.102-0.269,0.108c-0.116,0.005-0.067-0.006-0.211-0.006  s-0.14,0.045-0.168,0.102C32.84,46.337,32.883,46.326,32.869,46.372z M23.775,47.551c0.033-0.063,0.058-0.017,0.048,0.006  C23.813,47.58,23.763,47.573,23.775,47.551z M24.14,47.46c0.024,0,0.067,0.057,0.043,0.097s-0.053,0.045-0.082,0.017  C24.072,47.546,24.094,47.46,24.14,47.46z M24.346,47.648c0.024-0.017,0.086,0,0.101,0c0.014,0,0.058,0,0.077,0.057  s-0.043,0.063-0.063,0.057c-0.019-0.005-0.038-0.04-0.063-0.051C24.375,47.699,24.329,47.66,24.346,47.648z M32.989,51.67  c-0.029-0.052-0.087-0.091,0-0.068c0.086,0.023,0.101,0.063,0.096,0.092C33.076,51.749,33.018,51.721,32.989,51.67z M33.445,53.123  c-0.062,0.057-0.11,0.097-0.163,0.164c-0.053,0.068-0.033,0.052-0.11,0.046c-0.077-0.006-0.115-0.034-0.096-0.085  c0.02-0.051,0.12-0.113,0.202-0.17c0.082-0.059,0.053-0.068,0.082-0.098c0.028-0.027,0.069-0.035,0.077-0.063  c0.005-0.018,0.072,0.063,0.072,0.063S33.507,53.066,33.445,53.123z M33.709,52.805c-0.033,0.022-0.048,0.057-0.067,0.098  c-0.02,0.039-0.034,0.09-0.077,0.078s-0.004-0.058,0.005-0.09c0.01-0.035-0.063-0.007-0.101-0.035  c-0.038-0.027,0.043-0.057,0.048-0.078c0.005-0.023-0.005-0.104-0.024-0.125c-0.019-0.022-0.039-0.086-0.019-0.098  c0.048-0.027,0.053,0.047,0.082,0.104c0.029,0.057,0.019,0.045,0.063,0.072c0.043,0.028,0.052,0,0.072,0  C33.709,52.73,33.743,52.782,33.709,52.805z M33.695,51.41c0,0,0.086-0.137,0.129-0.119C33.868,51.307,33.757,51.438,33.695,51.41z"></path><path fill="#000000" d="M14.181,46.661c-0.048,0.012-0.106,0.04-0.067,0.051c0.039,0.011,0.125-0.005,0.134-0.023  c0.01-0.017,0.02-0.107,0.005-0.113C14.204,46.557,14.229,46.649,14.181,46.661z"></path><path fill="#000000" d="M13.758,46.723c-0.009,0.023,0.053,0.04,0.091,0.04c0.039,0,0.115-0.029,0.101-0.034  c-0.014-0.006-0.067-0.028-0.067-0.028C13.825,46.695,13.768,46.701,13.758,46.723z"></path><path fill="#000000" d="M14.2,46.207c-0.02,0.007,0.034,0.045,0.053,0.045s0.053-0.063,0.015-0.063  C14.229,46.19,14.248,46.19,14.2,46.207z"></path><path fill="#000000" d="M18.939,46.029c-0.013,0.017,0.058,0.042,0.07,0.019C19.022,46.025,18.971,45.988,18.939,46.029z"></path><path fill="#000000" d="M19.125,46.063c-0.051,0.018-0.003,0.061,0.029,0.046C19.185,46.094,19.169,46.048,19.125,46.063z"></path><path fill="#000000" d="M16.807,45.163c0.042,0,0.109,0,0.128-0.011c0.019-0.011,0.115-0.038,0.112-0.004  c-0.003,0.034,0.039,0.087,0.061,0.08c0.022-0.008,0.067-0.057,0.09-0.038c0.022,0.019,0.025,0.064,0.048,0.075  c0.022,0.012,0.083,0.012,0.112,0c0.029-0.011,0.109-0.011,0.144-0.003c0.035,0.007,0.138,0.03,0.147,0.007  c0.01-0.022,0.038-0.026,0.042-0.049c0.004-0.022,0.019-0.094,0.019-0.094s-0.019-0.042-0.051-0.023  c-0.032,0.019-0.042,0.03-0.071,0.023c-0.029-0.008-0.029-0.068-0.08-0.057c-0.051,0.011-0.061,0.045-0.077,0.06  c-0.016,0.015-0.051,0.027-0.064,0.019c-0.013-0.007-0.086-0.057-0.086-0.057s-0.154-0.007-0.16-0.03  c-0.006-0.022-0.032-0.061-0.103-0.053c-0.07,0.007-0.192,0.057-0.211,0.057s0.023,0.045-0.003,0.045  c-0.025,0-0.058-0.003-0.067,0.031C16.73,45.164,16.765,45.163,16.807,45.163z"></path><path fill="#000000" d="M17.278,45.042c0.025,0,0.089-0.026,0.108-0.007c0.02,0.019,0.067,0.004,0.064-0.015  c-0.003-0.019,0.02-0.095-0.019-0.098c-0.039-0.004-0.093,0.042-0.15,0.064C17.244,45,17.252,45.042,17.278,45.042z"></path><path fill="#000000" d="M17.777,44.985c0.039,0,0.122-0.022,0.128-0.004c0.006,0.019-0.003,0.034,0.042,0.042  c0.045,0.008,0.064,0.016,0.09,0.016s0.016-0.05-0.006-0.083c-0.022-0.033-0.016-0.03-0.074-0.049  c-0.058-0.019-0.115-0.019-0.154-0.015c-0.038,0.004-0.08-0.007-0.089,0.046C17.708,44.963,17.738,44.985,17.777,44.985z"></path><path fill="#000000" d="M17.777,45.11c-0.024,0.025,0,0.103-0.01,0.11c-0.009,0.008,0.003,0.042,0.029,0.034  c0.025-0.007,0.038-0.079,0.058-0.079c0.019,0,0.118-0.027,0.134,0.015c0.017,0.041,0.017,0.022,0.061,0.026  c0.045,0.003,0.08-0.053,0.083-0.072s-0.022-0.057-0.083-0.049C17.988,45.103,17.802,45.084,17.777,45.11z"></path><path fill="#000000" d="M18.02,45.303c-0.022,0.011-0.089-0.019-0.125,0.007c-0.022,0.017-0.01,0.072,0.025,0.076  c0.035,0.004,0.096-0.026,0.103-0.003c0.006,0.022,0.029,0.125,0.086,0.091c0.058-0.034,0.054-0.064,0.07-0.068  c0.016-0.004-0.003-0.087-0.029-0.106C18.126,45.28,18.042,45.292,18.02,45.303z"></path><path fill="#000000" d="M18.458,45.349c0.029-0.004,0.035-0.061,0.003-0.064c-0.032-0.004-0.058-0.038-0.086-0.026  c-0.028,0.012-0.128,0.06-0.119,0.087c0.004,0.01,0.029,0.03,0.071,0.023C18.369,45.36,18.43,45.352,18.458,45.349z"></path><path fill="#000000" d="M18.36,45.201c-0.017-0.045-0.096-0.061-0.112-0.015C18.233,45.226,18.375,45.247,18.36,45.201z"></path><path fill="#000000" d="M18.315,45.099c0.042,0.019,0.121,0.022,0.147,0.061c0.025,0.037,0.112,0.068,0.112,0.068l0.103,0.011  c0,0,0.071-0.02,0.144-0.011c0.074,0.007,0.183,0.019,0.243,0.015c0.061-0.004,0.071-0.026,0.077-0.042  c0.006-0.016-0.112-0.045-0.141-0.041c-0.029,0.003-0.192,0.003-0.24,0c-0.048-0.004-0.109-0.004-0.147,0  c-0.039,0.003-0.067-0.03-0.096-0.05c-0.029-0.019-0.093-0.079-0.131-0.087c-0.038-0.007-0.032-0.007-0.112-0.03  c-0.041-0.012-0.109-0.027-0.109-0.038c0-0.011-0.019,0.053,0.016,0.072C18.215,45.046,18.273,45.08,18.315,45.099z"></path><path fill="#000000" d="M22.798,45.829c-0.025-0.027-0.086-0.046-0.115-0.049c-0.029-0.004-0.058,0.026-0.122,0.026  s-0.105,0.03-0.131,0c-0.025-0.03-0.131-0.045-0.141-0.026c-0.013,0.025-0.038,0.026-0.013,0.079  c0.026,0.053,0.045,0.083,0.067,0.08c0.022-0.003,0.099-0.008,0.109,0.023c0.01,0.03,0.035,0.057,0.09,0.038  c0.054-0.019,0.099-0.03,0.112-0.053c0.013-0.023,0.099-0.026,0.099-0.026S22.824,45.855,22.798,45.829z"></path><path fill="#000000" d="M19.419,48.862c0.005-0.022-0.053-0.085-0.086-0.079c-0.034,0.005-0.105-0.04-0.144-0.08  s-0.11-0.04-0.139-0.04c-0.029,0-0.144,0.04-0.144,0.04c-0.005,0.057,0.043,0.04,0.101,0.04c0.057,0,0.158-0.011,0.177,0.017  c0.02,0.028,0.106,0.074,0.13,0.097C19.337,48.879,19.414,48.885,19.419,48.862z"></path><path fill="#000000" d="M19.256,48.544c-0.044,0.006-0.034,0.068,0.019,0.057C19.328,48.59,19.299,48.539,19.256,48.544z"></path><path fill="#000000" d="M19.28,49.014c-0.044,0.009-0.034,0.111,0.019,0.092C19.352,49.088,19.323,49.005,19.28,49.014z"></path><path fill="#000000" d="M19.914,48.952c-0.044,0.009-0.033,0.111,0.019,0.092C19.986,49.026,19.957,48.943,19.914,48.952z"></path><path fill="#000000" d="M19.697,48.879c-0.038-0.011-0.081,0-0.11,0.006c-0.029,0.006-0.111,0.091-0.111,0.091  s0.053,0.011,0.086,0.011c0.034,0,0.053,0.022,0.082,0.04c0.028,0.017,0.082-0.022,0.101-0.022s0.043,0.068,0.048-0.005  C19.798,48.924,19.736,48.891,19.697,48.879z"></path><path fill="#000000" d="M26.473,51.035c-0.06-0.02-0.067,0.074-0.115,0.137s-0.101,0.113-0.12,0.107  c-0.019-0.006-0.125,0.039-0.091,0.125c0.034,0.085,0.029,0.17-0.005,0.21c-0.034,0.038,0.029,0.151,0.02,0.215  c-0.01,0.063,0.014,0.103,0.082,0.103c0.067,0,0.091-0.027,0.12-0.103c0.029-0.073,0.034-0.147,0.063-0.21  c0.029-0.063,0.053-0.192,0.067-0.227c0.015-0.035,0.043-0.143,0.039-0.205C26.529,51.126,26.506,51.046,26.473,51.035z"></path><path fill="#000000" d="M28.215,49.577c-0.031,0.016-0.063,0.289-0.005,0.312s0.097-0.17,0.078-0.198  C28.269,49.662,28.259,49.554,28.215,49.577z"></path><path fill="#000000" d="M24.216,47.557c0.024-0.04-0.02-0.097-0.043-0.097c-0.045,0-0.067,0.085-0.039,0.114  C24.162,47.603,24.192,47.597,24.216,47.557z"></path><path fill="#000000" d="M23.855,47.557c0.01-0.022-0.014-0.068-0.048-0.006C23.796,47.573,23.846,47.58,23.855,47.557z"></path><path fill="#000000" d="M24.494,47.761c0.02,0.006,0.082,0,0.063-0.057c-0.019-0.057-0.063-0.057-0.077-0.057  c-0.015,0-0.077-0.017-0.101,0c-0.018,0.012,0.029,0.051,0.053,0.063C24.456,47.722,24.475,47.756,24.494,47.761z"></path><path fill="#000000" d="M23.145,46.792c0.038,0.005,0.082-0.028,0.115-0.045c0.034-0.017,0.082-0.051,0.082-0.102  c0-0.051-0.009-0.097-0.029-0.119c-0.019-0.023-0.053-0.028-0.082-0.023c-0.043,0.008-0.048,0.063-0.077,0.063  c-0.028,0-0.062,0.011-0.052,0.051c0.009,0.04,0.029,0.068,0,0.085C23.073,46.717,23.106,46.786,23.145,46.792z"></path><path fill="#000000" d="M23.38,46.547c0.048,0.022,0.148,0.045,0.11,0.068c-0.039,0.022-0.149,0.134-0.159,0.168  c-0.01,0.034,0.125,0.019,0.125,0.019s-0.029,0.04-0.005,0.051c0.024,0.011,0.039-0.04,0.077-0.04c0.039,0,0.116,0.028,0.154,0.028  s0.101-0.062,0.096-0.102c-0.005-0.04-0.053-0.102-0.096-0.125c-0.043-0.023-0.092-0.125-0.12-0.147  c-0.029-0.023,0.106-0.098,0.073-0.138c-0.033-0.04-0.135-0.016-0.174-0.044c-0.039-0.028-0.072,0.005-0.096,0.04  c-0.024,0.034-0.053-0.006-0.081,0.006c-0.039,0.015-0.024,0.074-0.005,0.102C23.299,46.462,23.333,46.525,23.38,46.547z"></path><path fill="#000000" d="M29.461,45.007C29.478,44.973,29.442,44.967,29.461,45.007L29.461,45.007z"></path><path fill="#000000" d="M26.737,45.486c0.053,0.034,0.127,0.048,0.163,0.006c0.029-0.034,0.005-0.091-0.019-0.097  c-0.024-0.005-0.039-0.051,0.024-0.09c0.063-0.04,0.13-0.091,0.202-0.102c0.072-0.011,0.235-0.017,0.293,0  c0.058,0.017,0.144-0.074,0.168-0.114s-0.077-0.068-0.106-0.022c-0.029,0.046-0.168,0.034-0.197,0.022  c-0.028-0.011-0.259,0.045-0.307,0.045s-0.067,0.068-0.134,0.102c-0.067,0.034-0.159,0.085-0.192,0.102  c-0.033,0.017-0.067,0.085-0.039,0.097C26.622,45.447,26.684,45.453,26.737,45.486z"></path><path fill="#000000" d="M31.716,47.098c0.009,0.017,0.047,0.057,0.071,0.045c0.024-0.011-0.009-0.125-0.009-0.147  c0-0.023,0.034-0.057,0.053-0.063c0.02-0.005,0-0.102-0.024-0.142s-0.058-0.063-0.039-0.068c0.019-0.005,0.043-0.051,0.029-0.063  c-0.015-0.011-0.005-0.051-0.039-0.04c-0.027,0.009-0.11-0.011-0.081,0.068c0.028,0.08,0.033,0.137,0.028,0.199  C31.701,46.95,31.706,47.081,31.716,47.098z"></path><path fill="#000000" d="M31.802,47.251c-0.02,0.005-0.053-0.063-0.091-0.051c-0.035,0.011-0.048,0.068-0.048,0.085  c0,0.017-0.135,0.051-0.091,0.097c0.043,0.045,0.087,0.011,0.154,0.006c0.067-0.006,0.13-0.028,0.13-0.028s0.101,0.005,0.086-0.051  C31.927,47.251,31.821,47.245,31.802,47.251z"></path><path fill="#000000" d="M31.485,47.745c-0.019,0-0.12,0.045-0.149,0.079c-0.029,0.034-0.168-0.028-0.187,0  c-0.02,0.028-0.058,0.063-0.082,0.085c-0.024,0.023-0.091,0.006-0.077,0.074c0.015,0.068,0.048,0.13,0.077,0.13  c0.029,0,0.067-0.023,0.067-0.085s0.067,0,0.101-0.005c0.034-0.006,0.053-0.045,0.067-0.091c0.015-0.045-0.019,0.023,0.039,0.04  c0.058,0.017,0.077-0.028,0.077-0.045c0-0.017,0.105-0.045,0.125-0.062c0.019-0.017,0.096-0.045,0.101-0.068  c0.004-0.022,0-0.153,0.024-0.165c0.024-0.012,0.058-0.011,0.019-0.09c-0.039-0.08-0.039-0.153-0.086-0.12  c-0.035,0.025-0.014,0.125-0.043,0.193C31.528,47.682,31.504,47.745,31.485,47.745z"></path><path fill="#000000" d="M30.544,48.539c-0.071,0.013-0.115,0.193-0.057,0.187C30.544,48.72,30.606,48.527,30.544,48.539z"></path><path fill="#000000" d="M33.723,52.73c-0.019,0-0.028,0.028-0.072,0c-0.043-0.027-0.034-0.017-0.063-0.072  c-0.029-0.057-0.034-0.131-0.082-0.104c-0.019,0.012,0,0.074,0.019,0.098c0.02,0.021,0.029,0.102,0.024,0.125  c-0.004,0.021-0.086,0.051-0.048,0.078c0.038,0.028,0.11,0,0.101,0.035c-0.01,0.032-0.048,0.078-0.005,0.09s0.058-0.039,0.077-0.078  c0.02-0.041,0.034-0.074,0.067-0.098C33.775,52.782,33.742,52.73,33.723,52.73z"></path><path fill="#000000" d="M33.468,52.918c-0.008,0.027-0.048,0.034-0.077,0.063c-0.029,0.029,0,0.039-0.082,0.098  c-0.082,0.057-0.183,0.119-0.202,0.17s0.019,0.079,0.096,0.085c0.077,0.006,0.057,0.022,0.11-0.046  c0.053-0.067,0.101-0.107,0.163-0.164s0.063-0.143,0.063-0.143S33.474,52.902,33.468,52.918z"></path><path fill="#000000" d="M31.941,52.992c-0.024-0.006-0.077-0.028-0.077-0.028c-0.053,0.063,0.053,0.063,0.039,0.125  c-0.015,0.063,0.072,0.04,0.096,0.029c0.024-0.013,0.082-0.144,0.072-0.177C32.062,52.907,31.965,52.998,31.941,52.992z"></path><path fill="#000000" d="M33.728,51.41c0.063,0.027,0.173-0.104,0.13-0.119C33.814,51.273,33.728,51.41,33.728,51.41z"></path><path fill="#000000" d="M33.022,51.602c-0.086-0.021-0.029,0.018,0,0.068s0.086,0.078,0.096,0.021  C33.123,51.665,33.108,51.625,33.022,51.602z"></path><path fill="#000000" d="M29.685,50.417c0.024-0.035,0.015-0.086-0.024-0.08c-0.038,0.006-0.072-0.074-0.134-0.125  c-0.063-0.051-0.11-0.085-0.168-0.159c-0.058-0.073-0.13-0.119-0.168-0.158c-0.039-0.04-0.096-0.057-0.12-0.051  c-0.06,0.014,0.086,0.136,0.101,0.153c0.015,0.017,0.144,0.147,0.144,0.21s0.042,0.257,0.066,0.279  c0.024,0.023,0.189,0.061,0.208,0.106c0.019,0.047,0.063,0.057,0.063-0.005S29.661,50.451,29.685,50.417z"></path><path fill="#000000" d="M29.32,49.776c0.024,0.102,0.072,0.204,0.091,0.244s0.101,0.096,0.13,0.125s0.072-0.011,0.053-0.045  c-0.02-0.034-0.058-0.085-0.063-0.125c-0.004-0.04-0.029-0.102-0.067-0.17c-0.039-0.068-0.072-0.085-0.096-0.13  c-0.024-0.045-0.11-0.13-0.11-0.13c-0.038,0.005-0.038,0.09-0.019,0.119C29.257,49.691,29.296,49.673,29.32,49.776z"></path><path fill="#000000" d="M30.16,50.779c0.005-0.034-0.053-0.084-0.077-0.084s-0.145-0.035-0.145-0.035  c-0.023,0.012-0.053,0.021-0.058,0.039c-0.001-0.006-0.006-0.014-0.019-0.021c-0.053-0.033-0.115,0-0.134-0.045  s-0.048-0.045-0.067-0.017c-0.035,0.052,0.01,0.091,0.024,0.102c0.015,0.011,0.067,0.022,0.116,0.017  c0.033-0.004,0.072-0.014,0.078-0.029c0,0.006,0.003,0.014,0.013,0.023c0.038,0.041,0.062,0.058,0.12,0.052  C30.069,50.773,30.155,50.814,30.16,50.779z"></path><path fill="#000000" d="M30.41,50.848c-0.011,0.051,0.072,0.073,0.077,0.018C30.491,50.809,30.419,50.802,30.41,50.848z"></path><path fill="#000000" d="M30.77,50.854c0,0,0.077-0.011,0.077-0.051c0-0.039-0.077-0.091-0.106-0.045  c-0.028,0.045-0.081,0.092-0.076,0.131C30.672,50.949,30.77,50.854,30.77,50.854z"></path><path fill="#000000" d="M30.405,50.473c0.039,0.029,0.111-0.096,0.13-0.056s-0.005,0.056,0.029,0.106  c0.034,0.052,0.096,0.045,0.096,0.045s-0.005-0.135-0.058-0.169c-0.053-0.034-0.086-0.074-0.024-0.062  c0.062,0.011,0.096-0.018,0.082-0.051c-0.014-0.034-0.106-0.017-0.135-0.012c-0.028,0.005-0.072-0.022-0.072-0.022  c-0.029,0.011-0.024,0.04-0.034,0.096C30.41,50.405,30.367,50.445,30.405,50.473z"></path><path fill="#000000" d="M30.751,50.116c-0.02,0-0.154,0.028-0.168,0.034c-0.014,0.006-0.101-0.011-0.101-0.011  c-0.034,0.04-0.01,0.08,0.043,0.074c0.053-0.006,0.164-0.022,0.188-0.022S30.77,50.116,30.751,50.116z"></path><path fill="#000000" d="M30.971,50.06c-0.044-0.023-0.125,0.187-0.067,0.204C30.962,50.28,31.005,50.076,30.971,50.06z"></path><path fill="#000000" d="M30.194,49.883c-0.091,0-0.096,0.085-0.115,0.103c-0.019,0.017-0.039,0.022-0.077,0.034  c-0.038,0.011-0.048,0.057-0.058,0.085c-0.01,0.028-0.077-0.051-0.096-0.028c-0.019,0.022-0.005,0.13,0.029,0.221  c0.034,0.091,0.12,0.147,0.144,0.147s0.072,0,0.105,0.012c0.034,0.011,0.144,0.022,0.139-0.028  c-0.005-0.051-0.014-0.131,0.034-0.182c0.048-0.051,0.096-0.08,0.072-0.154c-0.024-0.073-0.072-0.119-0.039-0.152  c0.034-0.034,0.072-0.045,0.072-0.074c0-0.028-0.082,0.08-0.091-0.107c-0.002-0.041-0.077,0.011-0.082,0.051  C30.228,49.849,30.285,49.883,30.194,49.883z"></path><path fill="#000000" d="M30.434,49.186c0.029,0.068,0.13,0.119,0.106,0.147s-0.096,0.085-0.106,0.136  c-0.009,0.051,0.115-0.08,0.149-0.131c0.034-0.051,0.101-0.022,0.115-0.051c0.015-0.028,0.015-0.028,0.015-0.028  s-0.053-0.011-0.096-0.028s-0.096,0.045-0.072-0.045c0.024-0.091,0.096-0.074,0.082-0.142c-0.015-0.068-0.063-0.085-0.077-0.085  c-0.033,0,0.005,0.063-0.043,0.102C30.459,49.1,30.405,49.117,30.434,49.186z"></path><path fill="#000000" d="M30.712,49.548c-0.019-0.028-0.067-0.119-0.12-0.096c-0.016,0.007-0.058,0.108-0.005,0.108  C30.64,49.56,30.731,49.577,30.712,49.548z"></path><path fill="#000000" d="M30.751,49.367c-0.02-0.002-0.082,0.119,0.004,0.113S30.818,49.373,30.751,49.367z"></path><path fill="#000000" d="M30.655,49.634c-0.048-0.023-0.125,0.051-0.111,0.08c0.015,0.028,0.121-0.006,0.145,0.045  c0.024,0.051,0.024,0.056,0.072,0.045c0.048-0.011,0.096-0.09,0.082-0.13c-0.014-0.04-0.077-0.096-0.077-0.096  C30.698,49.679,30.703,49.657,30.655,49.634z"></path><path fill="#000000" d="M31.485,50.764c0.029,0.006,0.115-0.018,0.12,0c0.005,0.017,0.053,0.125,0.101,0.118  c0.048-0.006,0.077-0.108,0.101-0.136c0.024-0.028,0.12-0.045,0.129,0.005c0.01,0.051,0.039,0.103,0.096,0.136  c0.058,0.034,0.125,0.068,0.13,0.04c0.004-0.028-0.029-0.136-0.067-0.153c-0.039-0.017-0.105-0.113-0.105-0.152  s-0.058-0.051-0.086-0.079c-0.029-0.028-0.053-0.108-0.125-0.125c-0.072-0.018-0.091-0.045-0.168-0.091  c-0.077-0.045-0.25-0.045-0.254-0.017c-0.005,0.028,0,0-0.058-0.022c-0.058-0.023-0.101,0-0.115-0.04  c-0.015-0.04-0.048-0.051-0.091,0c-0.036,0.042-0.053,0.045,0.029,0.063c0.082,0.017,0.105,0.017,0.072,0.063  c-0.034,0.045-0.058,0.102-0.029,0.107s0.115-0.022,0.125,0c0.01,0.023-0.019,0.028,0.077,0.045  c0.096,0.017,0.115,0.057,0.135,0.078c0.019,0.023,0.077,0.098,0.038,0.098C31.5,50.701,31.457,50.757,31.485,50.764z"></path><g><path fill="none" d="M54.318,65.581c2.684,0,4.894-2.965,5.18-6.772c0.036-0.248,0.057-0.496,0.059-0.754l-0.836,0.963   c0.461-1.023-1.186-3.629-1.186-3.629c-2.773,2.006-6.896,0-6.896,0c-1.244,0.491-0.656,3.991-0.656,3.991   c-0.31-0.218-0.597-0.329-0.829-0.389C49.497,62.714,51.678,65.581,54.318,65.581z"></path><path fill="none" d="M43.189,70.064h-2.606c-0.804,0-1.455,0.644-1.455,1.438l2.937,13.403c0,0.792,0.65,1.436,1.455,1.436h21.535   c0.805,0,1.452-0.644,1.452-1.436l2.938-13.403c0-0.794-0.649-1.436-1.454-1.436h-2.542 M54.284,79.115   c-0.431,0-0.778-0.352-0.778-0.78c0-0.431,0.35-0.778,0.778-0.778c0.431,0,0.78,0.349,0.78,0.778   C55.066,78.764,54.716,79.115,54.284,79.115z"></path><path fill="none" d="M56.375,70.064h-1.43"></path><path fill="#000000" d="M48.419,58.775c0.004,0.057,0.01,0.111,0.014,0.168c0.376,4.26,2.868,7.549,5.885,7.549   c3.056,0,5.572-3.376,5.897-7.715c0.046-0.312,0.068-0.631,0.068-0.953c0-0.324-0.021-0.645-0.068-0.956   c-0.437-3.017-2.911-5.326-5.897-5.326c-2.988,0-5.463,2.313-5.899,5.329c-0.045,0.311-0.069,0.629-0.069,0.953   c0,0.131,0.005,0.261,0.012,0.392C48.374,58.402,48.393,58.591,48.419,58.775z M50.637,55.389c0,0,4.123,2.008,6.897,0   c0,0,1.646,2.604,1.184,3.631l0.837-0.963c-0.002,0.256-0.022,0.506-0.058,0.754c-0.286,3.806-2.495,6.772-5.179,6.772   c-2.641,0-4.823-2.869-5.167-6.589c0.232,0.058,0.519,0.17,0.829,0.389C49.982,59.379,49.393,55.881,50.637,55.389z"></path><path fill="#000000" d="M59.052,65.502c-0.017,0.712-1.265,2.609-2.503,4.325h8.784C64.163,67.449,61.814,65.753,59.052,65.502z"></path><path fill="#000000" d="M54.85,68.667c0.549-0.281,0.973-0.872,0.973-1.474c0,0-0.813,0.359-1.646,0.359   c-0.831,0-1.646-0.359-1.646-0.359c0,0.601,0.425,1.188,0.973,1.474l-0.082,1.16h1.512L54.85,68.667z"></path><path fill="#000000" d="M49.584,65.502c-2.764,0.252-5.11,1.946-6.281,4.325h8.565C50.738,68.114,49.6,66.214,49.584,65.502z"></path><g><circle fill="#000000" cx="54.284" cy="78.333" r="0.78"></circle><path fill="#000000" d="M66.611,86.951h-24.65c-0.347,0-0.627,0.283-0.627,0.63c0,0.349,0.281,0.629,0.627,0.629h24.65    c0.347,0,0.629-0.28,0.629-0.629C67.238,87.234,66.958,86.951,66.611,86.951z"></path></g><path fill="#000000" d="M56.375,70.064c0.059-0.08,0.115-0.158,0.173-0.236h-1.616l0.016,0.236H56.375z"></path><path fill="#000000" d="M53.406,70.064l0.017-0.236h-1.555c0.054,0.081,0.104,0.158,0.159,0.236H53.406z"></path><path fill="#000000" d="M43.385,86.578h21.801c0.811,0,1.467-0.656,1.467-1.467l2.938-13.817c0-0.81-0.656-1.468-1.471-1.468   h-2.788c0.039,0.081,0.079,0.158,0.114,0.238h2.545c0.802,0,1.453,0.644,1.453,1.438l-2.938,13.403c0,0.79-0.65,1.436-1.453,1.436   H43.52c-0.805,0-1.455-0.646-1.455-1.436l-2.937-13.403c0-0.794,0.651-1.438,1.455-1.438h2.607   c0.036-0.082,0.076-0.159,0.114-0.238h-2.855c-0.811,0-1.469,0.658-1.469,1.468l2.937,13.817   C41.917,85.921,42.575,86.578,43.385,86.578z"></path><path fill="#000000" d="M52.027,70.064c-0.055-0.08-0.105-0.156-0.16-0.236h-8.563c-0.039,0.08-0.08,0.156-0.115,0.236H52.027z"></path><polygon fill="#000000" points="54.947,70.064 54.932,69.828 53.42,69.828 53.406,70.064  "></polygon><path fill="#000000" d="M65.445,70.064c-0.035-0.08-0.074-0.158-0.114-0.236h-8.783c-0.057,0.081-0.112,0.16-0.172,0.236H65.445z"></path></g></svg>