<svg xmlns="http://www.w3.org/2000/svg" xmlns:xlink="http://www.w3.org/1999/xlink" version="1.1" x="0px" y="0px" viewBox="0 0 100 100" style="enable-background:new 0 0 100 100;" xml:space="preserve"><g><path d="M77.5,11.9h-2c-0.8-3.9-2.8-6.6-5.2-6.6c-2.4,0-4.4,2.6-5.2,6.6H37c-0.8-3.9-2.8-6.6-5.2-6.6c-2.4,0-4.4,2.6-5.2,6.6h-4   c-7.7,0-13.9,6.2-13.9,13.9v55c0,7.7,6.2,13.9,13.9,13.9h55c7.7,0,13.9-6.2,13.9-13.9v-55C91.4,18.1,85.2,11.9,77.5,11.9z    M70.3,8.3c0.6,0,1.6,1.3,2.2,3.6h-4.4C68.7,9.6,69.7,8.3,70.3,8.3z M31.8,8.3c0.6,0,1.6,1.3,2.2,3.6h-4.4   C30.1,9.6,31.1,8.3,31.8,8.3z M22.5,17.7h11.9c-0.3,3.9-1.8,6.2-2.6,6.2c-0.8,0-1.5,0.7-1.5,1.5c0,0.8,0.7,1.5,1.5,1.5   c2.9,0,5.2-3.8,5.6-9.1H73c-0.3,3.9-1.8,6.2-2.6,6.2c-0.8,0-1.5,0.7-1.5,1.5c0,0.8,0.7,1.5,1.5,1.5c2.9,0,5.2-3.8,5.6-9.1h1.6   c4.4,0,8,3.6,8,8v5.6H14.5v-5.6C14.5,21.3,18.1,17.7,22.5,17.7z M77.5,88.8h-55c-4.4,0-8-3.6-8-8V34.3h71.1v46.4   C85.5,85.2,81.9,88.8,77.5,88.8z"></path><path d="M31.8,39.8h-9.1c-0.8,0-1.5,0.7-1.5,1.5v8.5c0,0.8,0.7,1.5,1.5,1.5h9.1c0.8,0,1.5-0.7,1.5-1.5v-8.5   C33.2,40.4,32.6,39.8,31.8,39.8z M30.3,48.3h-6.2v-5.6h6.2V48.3z"></path><path d="M47,39.8h-9.1c-0.8,0-1.5,0.7-1.5,1.5v8.5c0,0.8,0.7,1.5,1.5,1.5H47c0.8,0,1.5-0.7,1.5-1.5v-8.5   C48.4,40.4,47.8,39.8,47,39.8z M45.5,48.3h-6.2v-5.6h6.2V48.3z"></path><path d="M62.2,39.8H53c-0.8,0-1.5,0.7-1.5,1.5v8.5c0,0.8,0.7,1.5,1.5,1.5h9.1c0.8,0,1.5-0.7,1.5-1.5v-8.5   C63.6,40.4,63,39.8,62.2,39.8z M60.7,48.3h-6.2v-5.6h6.2V48.3z"></path><path d="M77.3,39.8h-9.1c-0.8,0-1.5,0.7-1.5,1.5v8.5c0,0.8,0.7,1.5,1.5,1.5h9.1c0.8,0,1.5-0.7,1.5-1.5v-8.5   C78.8,40.4,78.2,39.8,77.3,39.8z M75.9,48.3h-6.2v-5.6h6.2V48.3z"></path><path d="M31.8,56.2h-9.1c-0.8,0-1.5,0.7-1.5,1.5v8.5c0,0.8,0.7,1.5,1.5,1.5h9.1c0.8,0,1.5-0.7,1.5-1.5v-8.5   C33.2,56.8,32.6,56.2,31.8,56.2z M30.3,64.7h-6.2v-5.6h6.2V64.7z"></path><path d="M47,56.2h-9.1c-0.8,0-1.5,0.7-1.5,1.5v8.5c0,0.8,0.7,1.5,1.5,1.5H47c0.8,0,1.5-0.7,1.5-1.5v-8.5   C48.4,56.8,47.8,56.2,47,56.2z M45.5,64.7h-6.2v-5.6h6.2V64.7z"></path><path d="M62.2,56.2H53c-0.8,0-1.5,0.7-1.5,1.5v8.5c0,0.8,0.7,1.5,1.5,1.5h9.1c0.8,0,1.5-0.7,1.5-1.5v-8.5   C63.6,56.8,63,56.2,62.2,56.2z M60.7,64.7h-6.2v-5.6h6.2V64.7z"></path><path d="M77.3,56.2h-9.1c-0.8,0-1.5,0.7-1.5,1.5v8.5c0,0.8,0.7,1.5,1.5,1.5h9.1c0.8,0,1.5-0.7,1.5-1.5v-8.5   C78.8,56.8,78.2,56.2,77.3,56.2z M75.9,64.7h-6.2v-5.6h6.2V64.7z"></path><path d="M31.8,72.6h-9.1c-0.8,0-1.5,0.7-1.5,1.5v8.5c0,0.8,0.7,1.5,1.5,1.5h9.1c0.8,0,1.5-0.7,1.5-1.5v-8.5   C33.2,73.3,32.6,72.6,31.8,72.6z M30.3,81.1h-6.2v-5.6h6.2V81.1z"></path><path d="M47,72.6h-9.1c-0.8,0-1.5,0.7-1.5,1.5v8.5c0,0.8,0.7,1.5,1.5,1.5H47c0.8,0,1.5-0.7,1.5-1.5v-8.5   C48.4,73.3,47.8,72.6,47,72.6z M45.5,81.1h-6.2v-5.6h6.2V81.1z"></path><path d="M62.2,72.6H53c-0.8,0-1.5,0.7-1.5,1.5v8.5c0,0.8,0.7,1.5,1.5,1.5h9.1c0.8,0,1.5-0.7,1.5-1.5v-8.5   C63.6,73.3,63,72.6,62.2,72.6z M60.7,81.1h-6.2v-5.6h6.2V81.1z"></path><path d="M77.3,72.6h-9.1c-0.8,0-1.5,0.7-1.5,1.5v8.5c0,0.8,0.7,1.5,1.5,1.5h9.1c0.8,0,1.5-0.7,1.5-1.5v-8.5   C78.8,73.3,78.2,72.6,77.3,72.6z M75.9,81.1h-6.2v-5.6h6.2V81.1z"></path></g></svg>