<svg xmlns="http://www.w3.org/2000/svg" xmlns:xlink="http://www.w3.org/1999/xlink" version="1.1" x="0px" y="0px" viewBox="0 0 100 100" enable-background="new 0 0 100 100" xml:space="preserve"><path d="M30,95H20V84.4c0-8.3,4.9-15.1,12.6-16l9,14.1c1.3,2,3.5,3.2,6.1,3.2c2.3,0,4.6-1.2,5.9-3.1c0,0,0,0,0-0.1l9.5-14.3  C72.2,68.7,77,76.6,77,84.6V95H67v-7h-3.2l0,7H33v-7h-3V95z M57.7,51.7c-0.2-3.9-2.7-7.3-6.2-8.7c-1.2-0.5-2.6-0.8-4-0.8  c-1.4,0-2.7,0.3-4,0.8c-3.6,1.5-6.2,5.2-6.2,9.4s2.6,7.8,6.2,9.4c1.2,0.5,2.6,0.8,4,0.8c1.4,0,2.7-0.3,4-0.8  c1.4-0.6,2.7-1.6,3.7-2.7C55,58.4,55,57.9,55,57.3C55,55,56,53,57.7,51.7z M64,53.1c-0.5-0.2-1.1-0.4-1.8-0.4c-0.2,0-0.5,0-0.7,0.1  c-0.7,0.1-1.3,0.4-1.9,0.7c-1.2,0.8-2,2.2-2,3.8s0.8,3,2,3.8c0.5,0.4,1.2,0.6,1.9,0.7c0.2,0,0.5,0.1,0.7,0.1c0.6,0,1.2-0.1,1.8-0.4  c1.6-0.7,2.8-2.3,2.8-4.2S65.6,53.8,64,53.1z M81.7,42.9l-0.1-0.2c-0.1-0.2-0.2-0.3-0.4-0.5c-0.6-0.7-1.5-1.2-2.4-1.3  c-0.1,0-19.8-4.5-23.4-5.3c-1.8,1.1-3.8,1.8-5.8,2.1c-0.6,0.1-1.1,0.1-1.6,0.1c-2,0-4-0.4-5.8-1.3c-0.2-0.1-0.4-0.2-0.6-0.3  C39.8,38,29.3,48.2,29.3,48.2c-1.7,1.3-2.9,4.4-1.7,6.3c0.6,0.9,4.4,6.9,8.2,12.9c4.1,6.4,8.1,12.8,8.1,12.8c0.7,1.2,2,2,3.8,2  c1.6,0,3-0.9,3.7-1.9L60,67.3l1.9-2.9c-2.2-0.1-4.2-1.2-5.5-2.9c-1.7,1.6-3.7,2.7-6.1,3.3l-1.8,2.8l-0.6,1l-0.1,0.1l0,0v0l0,0l0,0  L45.7,65c-6.2-0.9-11-6.2-11-12.7c0-7.1,5.8-12.8,12.8-12.8c5.2,0,9.6,2.8,11.6,7.3l6.1,0.5l-2.8,2.8c3.7,0.1,6.7,2.9,7,6.5  c0,0,11.6-8,11.7-8.1C82.6,47,82.9,44.7,81.7,42.9z M48.3,28.7c-4,0-7.8-0.8-10.7-2.2l-0.1,0l-0.1,0l0,0c0.6,2.5,2,5.3,4.1,6.8  c0.5,0.4,1.1,0.7,1.7,1c1.4,0.7,3,1,4.7,1c2.8,0,6.2-1.5,7.9-3.2c1.4-1.3,2.4-3.3,2.9-5.3l-0.1,0C55.8,28,52.1,28.7,48.3,28.7z   M57.4,23.9c0.2-0.1,0.4-0.2,0.6-0.3c-2.4-0.4-5.8-0.9-9.7-0.9c-3.3,0-6.6,0.3-9.9,0.9c0.1,0.1,0.3,0.2,0.4,0.2  c2.4,1.2,5.7,1.9,9.4,1.9C51.8,25.7,55,25,57.4,23.9z M63,10.5l-15.2-5l-14.4,5.7l-2.5,8.2c0,0,1.8,1,3.5,1.9l3.5-0.6  c3.5-0.6,6.9-0.9,10.4-0.9c4.1,0,7.6,0.5,10.2,0.9l3,0.5l3.8-2.6L63,10.5z M49.2,17c-0.2,0.1-0.5,0.1-0.8,0.2  c-0.2,0.1-0.4,0.2-0.4,0.2s-0.2-0.1-0.4-0.2c-0.2-0.1-0.6-0.1-0.9-0.2c-0.3-0.1-0.7-0.1-1-0.2c-0.8-0.3-1.3-1.1-1.3-1.9  c0-0.5,0.1-1,0.2-1.4c0.2-0.7,0.6-1.8-0.1-2.4c-0.1-0.1-0.1-0.1-0.2-0.1c0,0,0,0,0,0c0,0,1-1.2,1.1-1.2c0.6,0.5,1.4,0.5,2.1,0.1  c0.2-0.1,0.4-0.2,0.5-0.3c0,0,0.6,0.5,1.2,0.5c0.8,0,1-0.2,1.2-0.3c0,0,0.9,0.9,1.1,1c-0.5,0.3-0.5,0.9-0.4,1.5  c0,0.2,0.1,0.4,0.1,0.5c0.1,0.4,0.2,0.6,0.3,1c0,0,0,0,0,0c0.1,0.4,0.2,0.8,0.2,1.2C51.6,16.2,50.3,16.8,49.2,17z"></path></svg>