<svg xmlns="http://www.w3.org/2000/svg" xmlns:xlink="http://www.w3.org/1999/xlink" version="1.1" x="0px" y="0px" viewBox="0 0 100 100" enable-background="new 0 0 100 100" xml:space="preserve"><g><path d="M93.42,47.505L52.662,6.747c-0.753-0.753-1.757-1.168-2.828-1.168s-2.075,0.415-2.828,1.168L6.248,47.505   c-1.56,1.56-1.56,4.098,0,5.656l40.758,40.758c0.753,0.753,1.757,1.167,2.828,1.167s2.075-0.414,2.828-1.167L93.42,53.161   C94.979,51.603,94.979,49.064,93.42,47.505z M92.006,51.747L51.248,92.505c-0.75,0.75-2.078,0.75-2.828,0L7.662,51.747   c-0.779-0.78-0.779-2.048,0-2.828L48.42,8.161c0.375-0.375,0.877-0.582,1.414-0.582s1.039,0.207,1.414,0.582l40.758,40.758   C92.785,49.699,92.785,50.967,92.006,51.747z"></path><path d="M50.895,11.675c-0.564-0.564-1.557-0.564-2.121,0L11.176,49.272c-0.585,0.585-0.585,1.536,0,2.121l37.598,37.598   c0.282,0.282,0.659,0.438,1.061,0.438s0.778-0.155,1.061-0.438l37.598-37.598c0.585-0.585,0.585-1.536,0-2.121L50.895,11.675z    M87.785,50.687L50.188,88.284c-0.188,0.188-0.52,0.188-0.707,0L11.883,50.687c-0.195-0.195-0.195-0.512,0-0.707L49.48,12.382   c0.094-0.094,0.219-0.145,0.354-0.145s0.26,0.051,0.354,0.145l37.598,37.598C87.98,50.174,87.98,50.492,87.785,50.687z"></path><polygon points="57,38 31,38 31,44 57,44 57,48.295 69.348,41.166 57,34.035  "></polygon><polygon points="41,53.371 28.652,60.5 41,67.631 41,64 68,64 68,58 41,58  "></polygon></g></svg>