<svg xmlns="http://www.w3.org/2000/svg" xmlns:xlink="http://www.w3.org/1999/xlink" version="1.1" x="0px" y="0px" viewBox="0 0 100 100" enable-background="new 0 0 100 100" xml:space="preserve"><path d="M62.496,2.433L37.664,16.783L10.641,5.019V82.95l27.303,14.617L62.54,81.714l27.107,15.562V18.924L62.496,2.433z   M36.734,91.147L15.73,79.902V12.786l21.004,9.144V91.147z M38.916,21.938L61.373,8.959v67.452L38.916,90.887V21.938z   M84.559,88.485L63.555,76.429V9.03l21.004,12.758V88.485z"></path><polygon points="30.939,37.205 28.822,35.132 26.039,37.974 23.254,35.132 21.138,37.205 23.965,40.091 21.138,42.978 23.254,45.05   26.039,42.208 28.822,45.05 30.939,42.978 28.111,40.091 "></polygon><path d="M39.44,71.406l-0.409-2.143l1.071-0.204c0.109-0.021,0.219-0.044,0.327-0.067l1.066-0.233l0.466,2.131l-1.065,0.233  c-0.128,0.027-0.256,0.055-0.384,0.078L39.44,71.406z M36.134,71.406l-1.075-0.186c-0.127-0.021-0.253-0.045-0.38-0.069l-1.07-0.207  l0.414-2.142l1.071,0.207c0.112,0.022,0.224,0.042,0.336,0.062l1.074,0.185L36.134,71.406z M30.574,69.872l-0.971-0.494  c-0.115-0.059-0.229-0.117-0.342-0.179l-0.961-0.515l1.028-1.923l0.962,0.515c0.1,0.054,0.201,0.106,0.303,0.158l0.972,0.495  L30.574,69.872z M44.973,69.548l-1.173-1.84l0.92-0.586c0.096-0.062,0.192-0.124,0.289-0.188l0.909-0.602l1.204,1.818l-0.909,0.603  c-0.107,0.07-0.213,0.14-0.32,0.208L44.973,69.548z M25.698,66.84l-0.802-0.739c-0.094-0.087-0.187-0.174-0.279-0.263l-0.788-0.754  l1.508-1.575l0.788,0.754c0.082,0.078,0.165,0.157,0.249,0.234l0.802,0.739L25.698,66.84z M49.526,66.162l-1.528-1.557l0.778-0.764  c0.084-0.082,0.167-0.165,0.249-0.248l0.77-0.772l1.546,1.539l-0.771,0.773c-0.088,0.088-0.176,0.176-0.266,0.264L49.526,66.162z   M21.891,62.577l-1.37-2.146l1.84-1.172l1.368,2.144L21.891,62.577z M52.764,62.953l-1.74-1.315l1.52-2.029l1.752,1.299  l-0.648,0.876c-0.074,0.101-0.149,0.2-0.225,0.3L52.764,62.953z M61.973,60.613l-0.326-2.157l1.078-0.163  c0.1-0.015,0.197-0.033,0.295-0.054l1.067-0.226l0.452,2.133l-1.066,0.227c-0.141,0.029-0.28,0.055-0.421,0.076L61.973,60.613z   M58.678,60.788l-2.446-0.722l0.622-2.091l2.436,0.719L58.678,60.788z M67.518,58.538l-1.293-1.757l0.879-0.646  c0.093-0.068,0.186-0.138,0.277-0.208l0.867-0.66l1.321,1.735l-0.868,0.661c-0.102,0.076-0.203,0.152-0.305,0.229L67.518,58.538z   M54.053,59.067l-2.307-1.097l0.943-1.966l2.29,1.087L54.053,59.067z M56.986,57.069l-1.909-1.055l0.526-0.954  c0.057-0.104,0.113-0.206,0.168-0.309l0.516-0.961l1.922,1.031l-0.516,0.961c-0.059,0.11-0.119,0.22-0.18,0.331L56.986,57.069z   M21.389,57.35l-2.128-0.476l0.238-1.064c0.032-0.143,0.07-0.289,0.116-0.436l0.322-1.043l2.084,0.645l-0.322,1.043  c-0.027,0.09-0.051,0.18-0.071,0.268L21.389,57.35z M48.304,55.631l-0.878-0.647c-0.102-0.075-0.203-0.151-0.305-0.227l-0.868-0.66  l1.319-1.737l0.869,0.66c0.092,0.069,0.185,0.14,0.277,0.208l0.879,0.646L48.304,55.631z M71.818,55.056L70.396,53.4l1.934-1.657  l1.418,1.657L71.818,55.056z M23.915,53.427l-1.585-1.498l0.749-0.792c0.063-0.068,0.115-0.131,0.165-0.195l0.667-0.863l1.727,1.333  l-0.667,0.862c-0.086,0.113-0.178,0.223-0.276,0.329l-0.029,0.03L23.915,53.427z M58.957,52.29l-2.092-0.615l0.307-1.046  c0.033-0.111,0.064-0.222,0.096-0.333l0.291-1.051l2.102,0.582l-0.291,1.051c-0.033,0.123-0.068,0.245-0.104,0.367L58.957,52.29z   M43.949,51.794l-0.621-0.897c-0.075-0.109-0.149-0.22-0.221-0.33l-0.592-0.916l1.832-1.185l0.592,0.916  c0.06,0.092,0.121,0.184,0.183,0.274l0.621,0.896L43.949,51.794z M76.016,51.367l-1.612-1.469l0.735-0.806  c0.077-0.084,0.153-0.17,0.229-0.256l0.721-0.819l1.638,1.44l-0.72,0.819c-0.084,0.096-0.169,0.191-0.256,0.285L76.016,51.367z   M26.432,48.108l-2.124-0.496l0.249-1.062c0.03-0.13,0.063-0.26,0.097-0.387l0.283-1.053l2.106,0.565l-0.283,1.053  c-0.028,0.104-0.054,0.211-0.08,0.318L26.432,48.108z M60.162,46.714l-2.178-0.105l0.053-1.089c0.006-0.116,0.011-0.231,0.014-0.348  l0.037-1.089l2.18,0.073l-0.036,1.09c-0.005,0.126-0.01,0.252-0.016,0.379L60.162,46.714z M79.441,46.529l-2.096-0.604l0.301-1.048  c0.031-0.104,0.059-0.208,0.085-0.314l0.266-1.058l2.115,0.53l-0.265,1.058c-0.033,0.13-0.068,0.259-0.104,0.387L79.441,46.529z   M41.407,46.367l-0.073-1.088c-0.009-0.133-0.016-0.267-0.02-0.4l-0.037-1.09l2.18-0.073l0.037,1.089  c0.004,0.109,0.009,0.218,0.017,0.327l0.073,1.088L41.407,46.367z M57.885,41.412l-0.194-1.073c-0.021-0.113-0.042-0.227-0.063-0.34  l-0.211-1.07l2.14-0.421l0.21,1.07c0.025,0.125,0.049,0.249,0.071,0.374l0.194,1.073L57.885,41.412z M43.879,41.167l-2.102-0.584  l0.292-1.05c0.034-0.122,0.068-0.243,0.104-0.364l0.306-1.047l2.093,0.613l-0.306,1.046c-0.033,0.112-0.064,0.223-0.096,0.336  L43.879,41.167z M80.284,40.875l-2.181-0.032l0.033-2.542l2.181,0.025L80.284,40.875z M56.638,36.337l-0.406-1.012  c-0.044-0.108-0.087-0.216-0.133-0.324l-0.419-1.006l2.014-0.838l0.42,1.007c0.048,0.116,0.096,0.232,0.142,0.348l0.407,1.012  L56.638,36.337z M45.956,35.749h-2.181l0-1.349l0.089-0.178c0.053-0.137,0.12-0.279,0.201-0.424l0.531-0.953l1.905,1.061  l-0.53,0.953c-0.006,0.009-0.01,0.019-0.015,0.027V35.749z M48.379,32.394l-1.156-1.85l0.926-0.578  c0.111-0.07,0.225-0.139,0.337-0.204l0.94-0.552l1.104,1.881l-0.94,0.552c-0.095,0.056-0.19,0.113-0.286,0.173L48.379,32.394z   M54.52,32.023l-0.922-0.581c-0.078-0.049-0.158-0.094-0.24-0.137l-0.967-0.506l1.012-1.933l0.967,0.506  c0.133,0.07,0.264,0.145,0.39,0.224l0.923,0.582L54.52,32.023z"></path></svg>