<svg xmlns="http://www.w3.org/2000/svg" xmlns:xlink="http://www.w3.org/1999/xlink" version="1.1" x="0px" y="0px" viewBox="0 0 50.4 50.4" enable-background="new 0 0 50.4 50.4" xml:space="preserve"><g><circle cx="8.897" cy="21.832" r="1.403"></circle><circle cx="8.897" cy="40.977" r="1.403"></circle><circle cx="41.968" cy="41.419" r="1.403"></circle><circle cx="41.968" cy="21.587" r="1.403"></circle><path d="M47.453,24.42l-0.026-12.038l-14.101,8.224v-2.74h1.276v-2.736h-1.46c0,0,0-2.736-1.822-5.108   c-1.828-2.371-4.017-3.466-4.017-3.466V2.693H26.21v-2.71h-2.008v2.71h-1.094v3.862c0,0-2.189,1.095-4.014,3.466   c-1.826,2.372-1.824,5.108-1.824,5.108h-1.458v2.736h1.275v2.714L2.963,12.305L2.97,24.42l7.933,4.637H3L3.014,50.4l9.206-5.383   v1.048h4.123v-3.458l1.374-0.804v4.262h1.375v-5.064l1.375-0.804v5.868h1.372v-6.672l1.372-0.801h0.003v7.473h1.374v-7.473h1.374   v7.473h1.375v-7.4l1.376,0.804v6.597h1.373v-5.794l1.375,0.805v4.989h1.374v-4.187l1.375,0.804v3.383h4.122v-0.973L47.41,50.4   l0.021-21.344h-7.911L47.453,24.42z M31.186,17.869v3.984l-1.327,0.774v-4.759H31.186z M28.535,17.869V23.4l-1.327,0.774v-6.305   H28.535z M25.884,17.869v7.077l-0.672,0.392l-0.653-0.382v-7.086H25.884z M23.232,17.869v6.31l-1.325-0.777v-5.533H23.232z    M19.255,17.869h1.325v4.755l-1.325-0.775V17.869z M4.657,23.455l0.001-8.176l18.83,11.008l-6.939,4.097L4.657,23.455z    M5.35,34.579h1.374v1.566L5.35,36.95V34.579z M4.687,47.471l-0.005-1.406l-0.024-6.761l41.079-24.017l0.029,8.167L4.687,47.471z    M43.831,34.579h1.376v2.449l-1.376-0.804V34.579z M45.745,39.305l-0.009,8.166l-0.02-0.013v0.014L26.915,36.474l6.938-4.098   L45.745,39.305z"></path></g><g display="none"><path display="inline" fill="#000000" d="M24.082,177.408l-75.252-43.995l0.074-20.421l75.25,43.995L24.082,177.408L24.082,177.408   z M-48.313,131.78l69.561,40.669l0.049-13.829l-69.56-40.669L-48.313,131.78L-48.313,131.78z"></path><path display="inline" fill="#000000" d="M-51.096,177.408l-0.074-20.421l75.252-43.995l0.072,20.421L-51.096,177.408   L-51.096,177.408z M-48.313,158.62l0.05,13.829l69.56-40.669l-0.049-13.829L-48.313,158.62L-48.313,158.62z"></path></g><g display="none"><line display="inline" fill="#000000" x1="21.297" y1="158.62" x2="-48.263" y2="117.951"></line><line display="inline" fill="#000000" x1="21.248" y1="117.951" x2="-48.313" y2="158.62"></line><line display="inline" fill="#000000" x1="-48.263" y1="172.449" x2="21.297" y2="131.78"></line><line display="inline" fill="#000000" x1="21.297" y1="158.62" x2="-48.263" y2="117.951"></line></g></svg>