<svg xmlns="http://www.w3.org/2000/svg" xmlns:xlink="http://www.w3.org/1999/xlink" version="1.1" x="0px" y="0px" viewBox="0 0 100 100" enable-background="new 0 0 100 100" xml:space="preserve"><g><g><path fill="#000000" d="M88.6,17.7c-1.8-0.4-4.4-0.9-7.9-2.4C71,11.1,58.3,7.5,47.4,5.8c-21-3.3-34.7,5.5-37.3,15.8    c-5,19.6-4.5,26.6-3.2,29.3c-0.2,1.5-0.3,2.8-0.1,3.5c0.5,2.3,2.3,4.4,3.6,5.6C11,79.4,27,94.9,46.5,94.9H48    c19.4,0,35-15.5,36.2-36.1l0-26c4.8-2.1,9.2-5.1,9.9-9C94.8,19,90.9,18.2,88.6,17.7z M78.4,58.6C77.3,76,64.3,89.1,48,89.1h-1.5    c-16.8,0-30.4-13.6-30.4-30.4l0-1.4L15,56.4c-0.7-0.6-1.7-1.6-2.3-2.5c1,0.1,2.1,0.2,3.1,0.2c1,0,1.8-0.1,2.3-0.2    c1.4-0.3,2.4-1,2.9-2c1.6-2.9,2.5-8.4,3.5-15.3c0.2-1.1,0.3-2.3,0.5-3.3c4.6,1.9,10.5,3.4,17.4,4.5c9.8,1.5,22.1,0.8,32.7-1.9    c1-0.3,2.1-0.6,3.3-0.9V58.6z M83.7,26.6C82.9,27,82,27.4,81,27.8c-0.8,0.3-1.8,0.7-2.8,1c-1.3,0.4-2.8,0.9-4.5,1.3    c-9.9,2.5-21.3,3.2-30.4,1.8c-8-1.2-14.3-3-18.8-5.4l-1.4-0.7l-1.3,0.7c-1.8,0.9-2,2.5-3,9.1c-0.6,4-1.4,9.8-2.5,12.6    c-0.8,0-1.9,0-3-0.2c-0.5-0.1-1-0.1-1.4-0.2c-0.2-1-0.3-3.1,0.1-6.6c0.5-4,1.5-10,3.7-18.4c0.2-0.8,0.5-1.6,0.9-2.3    c4.5-9.3,20.3-10.6,29.9-9.1c4.3,0.7,9,1.7,13.6,2.9c3.2,0.8,6.3,1.8,9.4,2.8c2.8,0.9,5.5,1.9,7.9,3c0.3,0.1,0.7,0.3,1,0.4    c1.4,0.6,2.7,1.1,3.9,1.5c2.1,0.7,3.9,1.1,5.1,1.3c0.2,0,0.4,0.1,0.6,0.1C87.4,24.3,86,25.4,83.7,26.6z"></path></g></g></svg>