<svg xmlns="http://www.w3.org/2000/svg" xmlns:xlink="http://www.w3.org/1999/xlink" version="1.1" x="0px" y="0px" viewBox="0 0 100 100" enable-background="new 0 0 100 100" xml:space="preserve"><g><g><path fill="#000000" d="M91,55C87.4,40.6,76.1,7.3,49.6,7.3c-20.7,0-37.3,23.5-40.8,45.2c-1.4,8.3,0.8,16.2,6.3,22.6    c5.5,6.4,13.8,10.9,23.3,12.9c3.8,2.5,8,4,12.1,4c5.6,0,10.8-1.8,15.4-5c9-2.4,16.5-6.7,21-12.5C91.4,69,92.8,62.2,91,55z     M24.2,54.3c-0.1-0.8,0.9-2.2,2.3-2.9c17.3-8.1,23.7-15.6,26.8-19.2c0.3-0.4,0.7-0.8,1-1.1l0.3,0.2c9.5,4.9,21.2,11,21.2,23.1    c0,17.6-11.3,31.9-25.2,31.9C38.7,86.3,25.9,68.4,24.2,54.3z M75.5,77c3.9-6.3,6.2-14.1,6.2-22.6c0-15.6-14.1-23-24.4-28.3    l-1.1-0.6c-3.3-1.7-5.5,0.9-7.3,2.9c-3,3.5-8.7,10.1-24.8,17.7c-3.1,1.5-6.1,5-5.6,8.9c0.9,7.8,4.6,16.4,9.9,23.3    c-3.4-1.9-6.4-4.2-8.7-6.9c-4.4-5.1-6.1-11.3-5-17.9c4-24.9,21.3-40.3,35.1-40.3C72,13.1,82,43.4,85.3,56.4    c1.4,5.5,0.4,10.5-2.9,14.7C80.7,73.3,78.3,75.3,75.5,77z"></path></g></g></svg>