<svg xmlns="http://www.w3.org/2000/svg" xmlns:xlink="http://www.w3.org/1999/xlink" version="1.1" x="0px" y="0px" viewBox="0 0 100 100" enable-background="new 0 0 100 100" xml:space="preserve"><g><path d="M63.209,78.428c-1-1.423-1.084-5.942-1.084-5.942c-16.259,0-15.986,0-24.417,0c-0.083,4.437-1.083,6.277-1.083,6.277   L24.458,95h9.834c0,0,2-14.585,15.729-14.585S64.542,95,64.542,95h11C75.542,95,64.209,79.852,63.209,78.428z"></path><polygon points="47.708,59.681 52.375,59.681 54.709,70.393 60.209,70.393 56.292,58.424 56.292,54.574 44.208,54.574    44.208,58.675 40.042,70.393 45.292,70.393  "></polygon><path d="M54.781,52.063c-2.5-22.641-2.917-35.405-2.917-35.405h0.5V13.06h-4.25v3.599h0.417   c-0.167,14.479-3.083,35.405-3.083,35.405S48.948,52.063,54.781,52.063z"></path><rect x="49.465" y="5" width="1.301" height="6.488"></rect></g></svg>