<svg xmlns="http://www.w3.org/2000/svg" xmlns:xlink="http://www.w3.org/1999/xlink" version="1.1" x="0px" y="0px" viewBox="2.206 14.194 100 73.612" enable-background="new 2.206 14.194 100 73.612" xml:space="preserve"><path fill="#000000" d="M52.043,63.576l0.007-0.012l-5.398-11.87l-0.001,0.011c0-0.003,0-0.007,0-0.011  c0-12.272-9.949-22.222-22.222-22.222S2.206,39.422,2.206,51.694c0,7.015,3.258,13.26,8.333,17.333v18.779H34.15v-8.333h2.778  v-0.002c4.602,0,8.333-3.73,8.333-8.333v-5.554l5.556-0.002c0.768,0,1.389-0.621,1.389-1.389  C52.206,63.969,52.14,63.763,52.043,63.576z M39.706,57.25c-1.534,0-2.778-1.244-2.778-2.778c0-1.533,1.244-2.777,2.778-2.777  s2.778,1.244,2.778,2.777C42.484,56.006,41.24,57.25,39.706,57.25z"></path><path fill="#000000" d="M93.873,14.194H60.539c-4.604,0-8.333,3.73-8.333,8.333c0,0,0,0,0,0.001v19.443  c0,4.602,3.729,8.332,8.333,8.332l4.167,0.001l-4.167,11.111l18.056-11.111l15.278-0.001c4.604,0,8.333-3.73,8.333-8.332v-1.388  V22.529c0-0.001,0-0.001,0-0.001C102.206,17.924,98.477,14.194,93.873,14.194z M87.503,38.619l-3.928,3.928l-6.369-6.369  l-6.369,6.369l-3.928-3.928l6.369-6.369l-6.369-6.37l3.928-3.928l6.369,6.369l6.369-6.369l3.928,3.928l-6.369,6.37L87.503,38.619z"></path></svg>