<svg xmlns="http://www.w3.org/2000/svg" xmlns:xlink="http://www.w3.org/1999/xlink" version="1.1" x="0px" y="0px" viewBox="14 1 52 100" enable-background="new 14 1 52 100" xml:space="preserve"><path d="M64.879,87.336l-0.611,0.165l0.289-0.935c-0.576-0.666-1.152-1.334-1.729-2.002l-0.52-0.938l-0.021-0.229l0.032-0.42  l0.283-1.146l0.031-0.299l-0.006-0.335l-0.1-0.542l-0.133-0.271l-0.168-0.197l-1.074-0.713c-0.584-0.873-1.168-1.75-1.75-2.627  l-0.854-1l-0.184-0.312l-0.146-0.315l-0.117-0.434l-0.033-0.291l0.008-0.264l0.039-0.226l0.27-0.937l0.086-0.42l-0.033-0.637  l-0.084-0.554l0.006-0.332l0.025-0.239l0.053-0.185l0.072-0.543l-0.007-0.573l0.126-1.186C57.436,45.938,56.27,23.469,55.107,1  l-0.033,0.006l-0.27,0.127l-0.437,0.542L53.516,3.04l-0.513,0.257L52.311,3.19l-0.67-0.244l-2.328-1.472l-0.5-0.074l-0.631,0.213  l-0.494,0.408l-0.81,1.084l-0.374,0.362l-1.223,0.314L44.999,4.04l0.729,0.381L46.176,4.9l-0.179,0.734L45.21,7.026l-0.126,0.407  l-0.145,0.73L44.794,8.58l-1.131,1.738L43.46,10.85l-0.052,0.62l0.064,0.911l0.006,0.004l-0.474,0.173l-0.282,0.374l-0.092,1.023  l0.205,0.907l0.381,0.598l0.231,0.612l-0.244,0.958c-0.845,1.217-1.69,2.432-2.539,3.645l-0.683,1.406l-0.119,0.974l0.283,0.62  l0.388,0.53l0.19,0.7l0.104,0.564l0.862,2.232l0.348,0.544l0.186,0.399l0.012,0.381l-0.264,0.394l-0.334,0.065l-0.343-0.001  l-0.282,0.193l-0.193,0.748l0.087,0.695l-0.026,0.675l-0.54,0.695l-0.94,0.793l-0.479,0.841l-0.25,0.342l-0.724,0.302l-2.421,1.541  l-0.439,0.408l-0.921,1.187l-0.521,0.368l-0.67,0.112l-1.354-0.06l-1.415,0.275l-1.013,0.83l-0.618,1.39l-0.203,1.958l0.013,3.391  l-0.158,1.475L27.82,48.87l-1.17,2.146l-0.172,0.606l0.125,0.319l0.236,0.238l0.178,0.221l-0.06,0.283l-1.81,2.596l-0.407,0.799  l-0.171,0.805l-0.06,0.842l-0.158,0.828l-0.229,0.752l-0.296,0.608l-1.46,1.353l-0.362,0.502l-0.75,0.613l-0.171,0.396l-0.091,1.334  l-0.25,1.584l-0.224,0.754l-0.387,0.646l-0.961,0.937l-0.282,0.546l-0.166,1.002l-0.21,6.493l0.112,1.435l-0.066,0.861l-0.335,0.721  l-0.283,0.344l-0.21,0.344l-0.132,0.391l-0.047,0.486l0.027,0.109l0.065,0.073l0.066,0.113l0.032,0.222l-0.059,0.225l-0.133,0.191  l-0.19,0.209l-0.171,1.553l0.007,0.463l0.164,0.979l-0.065,0.864l-0.486,2.13l-0.112,1.729l-0.27,0.627l-0.664,0.244l-0.481,0.271  l-0.19,0.666l-0.19,1.639l-0.211,0.54l-0.204,0.394l-0.132,0.441l-0.02,0.684l0.06,0.586l0.104,0.43l0.164,0.37l0.237,0.415  l1.19,1.234l0.539,0.775l0.178,1.095v0.007l0.007,0.002h0.045c10.706,0.354,21.409,0.711,32.114,1.066l0.275-0.046l0.217-0.106  l0.407-0.313l0.409-0.4l0.373-0.48l0.212-0.141l0.282-0.125l0.545-0.162l0.322-0.152l0.289-0.324l0.112-0.255l0.25-0.705  l0.224-0.397l0.112-0.172l0.25-0.313l0.149-0.133l0.146-0.103l0.223-0.088l0.275-0.043l0.475,0.024l0.315,0.061l0.31,0.002  l0.264-0.087l0.361-0.267l0.205-0.209l0.412-0.502l0.141-0.135l0.303-0.221l2.689-1.197l0.248-0.008l0.336,0.053l0.929,0.401  l0.577,0.151l1-0.252l0.064-0.598l0.237-0.781l0.592-1.328l1.479-2.351l0.244-0.616l0.104-0.172l0.205-0.49l0.117-0.52L65.51,87.27  L64.879,87.336z"></path></svg>