<svg xmlns="http://www.w3.org/2000/svg" xmlns:xlink="http://www.w3.org/1999/xlink" version="1.1" x="0px" y="0px" viewBox="0 0 100 100" enable-background="new 0 0 100 100" xml:space="preserve"><path fill="#000000" d="M95.97,26.181H61.06v-6.255c0-1.79-1.184-4.45-4.45-4.45H42.874c-1.789,0-4.45,1.186-4.45,4.45v6.255H3.826  c0,0-3.666,0-3.666,3.665v61.175c0,0,0,3.662,3.666,3.662H95.97c0,0,3.666,0,3.666-3.662V29.846  C99.636,29.846,99.636,26.181,95.97,26.181z M96.011,28.875c0.509,0,0.922,0.413,0.922,0.922s-0.413,0.922-0.922,0.922  s-0.922-0.413-0.922-0.922S95.502,28.875,96.011,28.875z M95.886,38.859c0.509,0,0.922,0.413,0.922,0.922s-0.413,0.922-0.922,0.922  s-0.922-0.413-0.922-0.922S95.377,38.859,95.886,38.859z M86.375,28.87c0.509,0,0.922,0.413,0.922,0.922s-0.413,0.922-0.922,0.922  s-0.922-0.413-0.922-0.922S85.866,28.87,86.375,28.87z M41.479,19.926c0-1.122,0.77-1.378,1.396-1.395h13.735  c1.124,0,1.38,0.769,1.397,1.395v6.255H41.479V19.926z M13.005,28.87c0.509,0,0.922,0.413,0.922,0.922s-0.413,0.922-0.922,0.922  s-0.922-0.413-0.922-0.922S12.497,28.87,13.005,28.87z M3.37,28.875c0.509,0,0.922,0.413,0.922,0.922s-0.413,0.922-0.922,0.922  s-0.922-0.413-0.922-0.922S2.861,28.875,3.37,28.875z M4.417,39.781c0,0.509-0.413,0.922-0.922,0.922s-0.922-0.413-0.922-0.922  s0.413-0.922,0.922-0.922S4.417,39.272,4.417,39.781z M3.37,92.197c-0.509,0-0.922-0.412-0.922-0.922  c0-0.509,0.413-0.922,0.922-0.922s0.922,0.413,0.922,0.922C4.292,91.785,3.879,92.197,3.37,92.197z M3.495,82.213  c-0.509,0-0.922-0.412-0.922-0.922c0-0.509,0.413-0.922,0.922-0.922s0.922,0.413,0.922,0.922  C4.417,81.801,4.004,82.213,3.495,82.213z M13.005,92.203c-0.509,0-0.922-0.412-0.922-0.922s0.413-0.922,0.922-0.922  s0.922,0.412,0.922,0.922S13.514,92.203,13.005,92.203z M86.375,92.203c-0.509,0-0.922-0.412-0.922-0.922s0.413-0.922,0.922-0.922  s0.922,0.412,0.922,0.922S86.884,92.203,86.375,92.203z M96.011,92.197c-0.509,0-0.922-0.412-0.922-0.922  c0-0.509,0.413-0.922,0.922-0.922s0.922,0.413,0.922,0.922C96.933,91.785,96.52,92.197,96.011,92.197z M94.964,81.291  c0-0.509,0.413-0.922,0.922-0.922s0.922,0.413,0.922,0.922c0,0.51-0.413,0.922-0.922,0.922S94.964,81.801,94.964,81.291z   M97.771,76.502L82.503,92.693H17.035L2.024,76.502v-32.27L17.035,28.17h65.468l15.269,16.116V76.502z"></path><path fill="#000000" d="M16.933,70.824l0.318,12.099l-0.22,0.899c0,0,6.173,0.879,7.294,0.121s1.502-0.591,5.888-1.847  c4.393-1.258,4.234-2.456,4.234-2.456l-5.638,0.489l4.515-4.141l-4.636,1.228c3.505-2.245,6.812-4.745,8.242-6.913  C37.327,70.156,16.933,70.824,16.933,70.824"></path><path fill="#000000" d="M18.916,64.366l-8.321-13.315l19.612-12.257l8.319,13.319L18.916,64.366z M13.979,51.832l5.719,9.15  l15.446-9.65l-5.717-9.154L13.979,51.832z"></path><rect x="66.187" y="36.447" transform="matrix(0.342 -0.9397 0.9397 0.342 4.1174 98.7751)" fill="#000000" width="12.806" height="20.001"></rect><circle fill="#000000" cx="69.167" cy="75.832" r="11.833"></circle></svg>