<svg xmlns="http://www.w3.org/2000/svg" xmlns:xlink="http://www.w3.org/1999/xlink" version="1.1" x="0px" y="0px" viewBox="0 0 100 100" enable-background="new 0 0 100 100" xml:space="preserve"><path fill="#000000" d="M83.277,52.43c-1.321,0-8.354,0.147-16.043,3.016c0.05-0.02,0.101-0.043,0.149-0.062  c0.073-1.79,0.115-3.606,0.115-5.453c0-26.233-7.61-47.5-17-47.5c-9.113,0-16.551,20.037-16.979,45.203  c0.286,0.123,0.57,0.254,0.855,0.384c-9.146-4.185-18.893-4.614-22.462-4.614c-0.905,0-1.413,0.027-1.413,0.027c17,4,19,34,19,34  s0.836,18.154,15.996,19.971c0.002,0.01,0.003,0.02,0.004,0.029c0,0,0.873,0.137,2.273,0.137c0.361,0,0.761-0.01,1.187-0.033  c0.481-0.025,1.001-0.07,1.55-0.139c5.85-0.732,14.986-4.272,16.99-18.965c3-22,16-26,16-26S83.423,52.43,83.277,52.43z M42,51.3  c0-1.654,1.346-3,3-3s3,1.346,3,3c0,1.654-1.346,3-3,3c-0.697,0-1.332-0.249-1.842-0.649c0.042,0.037,0.082,0.078,0.123,0.115  c-0.412-0.371-0.831-0.728-1.258-1.072c0.27,0.219,0.539,0.437,0.803,0.664C42.317,52.818,42,52.098,42,51.3z M53,45  c0,1.654-1.346,3-3,3c-1.654,0-3-1.346-3-3s1.346-3,3-3C51.654,42,53,43.346,53,45z M47,32.3c0-1.654,1.346-3,3-3  c1.654,0,3,1.346,3,3c0,1.654-1.346,3-3,3C48.346,35.3,47,33.954,47,32.3z M55,48.3c1.654,0,3,1.346,3,3c0,1.654-1.346,3-3,3  s-3-1.346-3-3C52,49.646,53.346,48.3,55,48.3z M57,45c0-1.654,1.346-3,3-3s3,1.346,3,3s-1.346,3-3,3S57,46.654,57,45z M55,41.7  c-1.654,0-3-1.346-3-3c0-1.654,1.346-3,3-3s3,1.346,3,3C58,40.354,56.654,41.7,55,41.7z M52,26c0-1.654,1.346-3,3-3s3,1.346,3,3  s-1.346,3-3,3S52,27.654,52,26z M50,22.5c-1.654,0-3-1.346-3-3s1.346-3,3-3c1.654,0,3,1.346,3,3S51.654,22.5,50,22.5z M48,26  c0,1.654-1.346,3-3,3s-3-1.346-3-3s1.346-3,3-3S48,24.346,48,26z M48,38.7c0,1.654-1.346,3-3,3s-3-1.346-3-3c0-1.654,1.346-3,3-3  S48,37.046,48,38.7z M44.481,54.912c-0.341-0.344-0.688-0.678-1.042-0.999C43.793,54.234,44.141,54.568,44.481,54.912z   M45.66,56.172c-0.287-0.324-0.578-0.642-0.875-0.949C45.082,55.531,45.374,55.848,45.66,56.172z M47,57.7c0-1.654,1.346-3,3-3  c1.654,0,3,1.346,3,3c0,1.653-1.346,3-3,3c-0.429,0-0.835-0.095-1.204-0.257c0.067,0.111,0.128,0.231,0.194,0.347  c-0.906-1.562-1.924-2.989-3.034-4.284c0.36,0.421,0.714,0.852,1.055,1.299C47.01,57.77,47,57.736,47,57.7z M49.859,62.412  c-0.173-0.348-0.351-0.689-0.535-1.023C49.508,61.723,49.687,62.064,49.859,62.412z M52,64.2c0-1.654,1.346-3,3-3  c0.525,0,1.016,0.147,1.445,0.388c0.06-0.05,0.121-0.092,0.182-0.141c-1.805,1.486-3.507,3.214-5.021,5.232l0,0  c0.26-0.348,0.522-0.686,0.793-1.015C52.152,65.23,52,64.734,52,64.2z M51.339,65.938c-0.123-0.352-0.243-0.703-0.375-1.043  C51.096,65.232,51.216,65.586,51.339,65.938z M50.633,64.104c-0.143-0.338-0.287-0.676-0.439-1.002  C50.347,63.43,50.491,63.766,50.633,64.104z M57,57.7c0-1.654,1.346-3,3-3c1.521,0,2.77,1.143,2.961,2.612  c0.014-0.008,0.025-0.013,0.038-0.019c-1.61,0.817-3.208,1.772-4.75,2.892c0.013-0.011,0.024-0.021,0.037-0.029  C57.511,59.613,57,58.717,57,57.7z M63.5,49.931c0,1.284-0.021,2.555-0.061,3.82C62.58,53.223,62,52.281,62,51.2  c0-1.101,0.604-2.055,1.488-2.577C63.493,49.059,63.5,49.493,63.5,49.931z M65.305,56.218c-0.099,0.042-0.195,0.087-0.295,0.13  C65.107,56.305,65.206,56.26,65.305,56.218z M63.198,41.083C62.475,40.535,62,39.676,62,38.7c0-0.789,0.312-1.501,0.811-2.037  C62.966,38.112,63.096,39.587,63.198,41.083z M62.486,33.976C61.947,34.774,61.034,35.3,60,35.3c-1.654,0-3-1.346-3-3  c0-1.654,1.346-3,3-3c0.715,0,1.364,0.262,1.88,0.682C62.105,31.284,62.309,32.617,62.486,33.976z M58.471,16.933  c0.096,0.252,0.19,0.497,0.284,0.758c0.539,1.507,1.033,3.108,1.485,4.784C60.16,22.482,60.082,22.5,60,22.5c-1.654,0-3-1.346-3-3  C57,18.407,57.594,17.458,58.471,16.933z M55.145,10.215c0.81,1.199,1.631,2.693,2.429,4.505C57.049,15.602,56.098,16.2,55,16.2  c-1.654,0-3-1.346-3-3c0-1.654,1.346-3,3-3C55.049,10.2,55.096,10.212,55.145,10.215z M50.5,6.431c0.695,0,1.531,0.39,2.438,1.181  C52.652,8.974,51.443,10,50,10c-1.174,0-2.181-0.684-2.674-1.667C48.516,7.051,49.619,6.431,50.5,6.431z M45.787,10.318  C47.059,10.667,48,11.82,48,13.2c0,1.654-1.346,3-3,3c-0.727,0-1.385-0.27-1.904-0.701C43.975,13.389,44.888,11.669,45.787,10.318z   M42.245,17.691c0.013-0.038,0.027-0.071,0.04-0.108C42.727,18.102,43,18.766,43,19.5c0,1.381-0.943,2.535-2.215,2.882  C41.23,20.741,41.716,19.17,42.245,17.691z M39.221,29.415C39.471,29.348,39.729,29.3,40,29.3c1.654,0,3,1.346,3,3  c0,1.654-1.346,3-3,3c-0.588,0-1.134-0.176-1.598-0.47C38.633,32.974,38.907,31.168,39.221,29.415z M37.677,43.125  C38.227,42.445,39.059,42,40,42c1.654,0,3,1.346,3,3s-1.346,3-3,3c-1.017,0-1.913-0.511-2.456-1.287  C37.573,45.508,37.615,44.31,37.677,43.125z M41.938,52.623c-0.891-0.715-1.812-1.374-2.754-1.982  C40.126,51.249,41.047,51.908,41.938,52.623z M38.959,50.498c-0.386-0.246-0.776-0.483-1.169-0.712  C38.183,50.015,38.573,50.252,38.959,50.498z M36.074,48.84c-0.476-0.246-0.954-0.48-1.435-0.704  C35.12,48.36,35.599,48.595,36.074,48.84z M37.491,49.612c-0.408-0.233-0.819-0.458-1.232-0.673  C36.672,49.154,37.083,49.379,37.491,49.612z M45.086,93.305c-4.119-0.746-7.16-3.169-9.236-7.357l-2.354-8.697l-0.002-0.042  l-0.003-0.042c-0.063-0.96-1.269-17.333-9.081-28.326c6.74,1.564,14.432,4.796,19.453,11.422c2.393,3.156,3.993,6.894,4.828,11.17  C45.953,76.96,44.445,84.093,45.086,93.305z M63.537,77.891c-1.418,10.398-6.709,14.197-11.957,15.295  c-0.829,0.174-1.657,0.287-2.469,0.34c-0.665-8.562,0.604-15.737,3.766-21.442c0.909-1.642,1.969-3.168,3.191-4.562  c4.113-4.686,9.451-7.393,14.32-8.957C67.411,62.951,64.727,69.164,63.537,77.891z"></path></svg>