<svg xmlns="http://www.w3.org/2000/svg" xmlns:xlink="http://www.w3.org/1999/xlink" version="1.0" x="0px" y="0px" viewBox="0 0 183 210" enable-background="new 0 0 183 210" xml:space="preserve"><g><g><defs><rect id="bt" x="19" y="21.3" width="141" height="169"></rect></defs><defs><path id="br" d="M74.9,143.7c0,0,4.9-1.5,6-2.8s2.2-3.2,5.7-3.2s6.5,2.6,8.1,3.6s5.5,3.3,5.5,3.3s-4.1-0.9-5.2,0.1     s-0.9,4.3-1.5,5.2c-0.6,0.9-2.8,1.9-4.8,1.9s-4.7-0.6-5.7-1.8s-0.1-3.1-1.3-4.1S74.9,143.7,74.9,143.7L74.9,143.7z M83.4,139.8     c0,0-1.2,1.6,8.5,1.6c1.8,0-2.8-2.5-4.7-2.5S83.4,139.8,83.4,139.8L83.4,139.8z M83,147.4c0-0.3,5.9,2.4,9.4-0.4     c1.2-1,1.6,3.7-3.1,4C83.8,151.4,83,149,83,147.4L83,147.4z M83,147.4"></path></defs><defs><path id="bp" d="M19,21.3h141v169H19V21.3z M19,21.3"></path></defs><defs><rect id="bn" x="19" y="-601.7" width="612" height="792"></rect></defs><clipPath id="bs"><use xlink:href="#bt" overflow="visible"></use></clipPath><clipPath id="bq" clip-path="url(#bs)"><use xlink:href="#br" overflow="visible"></use></clipPath><clipPath id="bo" clip-path="url(#bq)"><use xlink:href="#bp" overflow="visible"></use></clipPath><clipPath id="bm" clip-path="url(#bo)"><use xlink:href="#bn" overflow="visible"></use></clipPath><rect x="69.9" y="132.8" clip-path="url(#bm)" width="35.2" height="24.1"></rect></g><g><defs><rect id="bl" x="19" y="21.3" width="141" height="169"></rect></defs><defs><path id="bj" d="M77.7,150.4c0.5,0.8,3.8,7.5,9.4,7.2s4.5-2.3,4.9-1.8c0.4,0.5-1.5,4.7-6.9,4.7s-6.4-1.1-6.4-1.1     s1.6-1,1.3-2.4S77.2,149.6,77.7,150.4L77.7,150.4z M77.7,150.4"></path></defs><defs><path id="bh" d="M19,21.3h141v169H19V21.3z M19,21.3"></path></defs><defs><rect id="bf" x="19" y="-601.7" width="612" height="792"></rect></defs><clipPath id="bk"><use xlink:href="#bl" overflow="visible"></use></clipPath><clipPath id="bi" clip-path="url(#bk)"><use xlink:href="#bj" overflow="visible"></use></clipPath><clipPath id="bg" clip-path="url(#bi)"><use xlink:href="#bh" overflow="visible"></use></clipPath><clipPath id="be" clip-path="url(#bg)"><use xlink:href="#bf" overflow="visible"></use></clipPath><rect x="72.6" y="145.4" clip-path="url(#be)" width="24.5" height="20.2"></rect></g><g><defs><rect id="bd" x="19" y="21.3" width="141" height="169"></rect></defs><defs><path id="bb" d="M94.6,114.4c0.3,0.6,1.2,0.9,2.6,3.1c1.8,2.8,3.5,8.3,4,8.3c1.4,0-3.7-7.8-3-8.8c0.7-1,3.5,3.1,3.5,1.9     S94,113,94.6,114.4L94.6,114.4z M94.6,114.4"></path></defs><defs><path id="az" d="M19,21.3h141v169H19V21.3z M19,21.3"></path></defs><defs><rect id="ax" x="19" y="-601.7" width="612" height="792"></rect></defs><clipPath id="bc"><use xlink:href="#bd" overflow="visible"></use></clipPath><clipPath id="ba" clip-path="url(#bc)"><use xlink:href="#bb" overflow="visible"></use></clipPath><clipPath id="ay" clip-path="url(#ba)"><use xlink:href="#az" overflow="visible"></use></clipPath><clipPath id="aw" clip-path="url(#ay)"><use xlink:href="#ax" overflow="visible"></use></clipPath><rect x="89.6" y="109.2" clip-path="url(#aw)" fill="#000000" width="17.2" height="21.6"></rect></g><g><defs><rect id="av" x="19" y="21.3" width="141" height="169"></rect></defs><defs><path id="at" d="M91.4,124.6c3.3-2.9,4.7-3.7,5-2.6c0.3,1.2-0.7,3.2-1.8,3.2C93.5,125.2,88.2,127.4,91.4,124.6L91.4,124.6     z M91.4,124.6"></path></defs><defs><path id="ar" d="M19,21.3h141v169H19V21.3z M19,21.3"></path></defs><defs><rect id="ap" x="19" y="-601.7" width="612" height="792"></rect></defs><clipPath id="au"><use xlink:href="#av" overflow="visible"></use></clipPath><clipPath id="as" clip-path="url(#au)"><use xlink:href="#at" overflow="visible"></use></clipPath><clipPath id="aq" clip-path="url(#as)"><use xlink:href="#ar" overflow="visible"></use></clipPath><clipPath id="ao" clip-path="url(#aq)"><use xlink:href="#ap" overflow="visible"></use></clipPath><rect x="85.4" y="116.5" clip-path="url(#ao)" width="16.1" height="14.5"></rect></g><g><defs><rect id="an" x="19" y="21.3" width="141" height="169"></rect></defs><defs><path id="al" d="M82.6,114.2c-0.8-1-3.8,2.2-8,10.6c-4.1,8.4,0.7-0.1,2.5,0.9s6.2,4.9,8.4,4.1s4-1.4,3.2-1.9     s-1.1,1.1-2.4-0.1s-3.1-1.5-3.1-3.6s-2.9-2.4-2.9-1.2s-1.1,2-2.1,0.9c-0.9-1.1-0.9-4.3,2.1-6.4C83.3,115.3,83.3,115.2,82.6,114.2     L82.6,114.2z M82.6,114.2"></path></defs><defs><path id="aj" d="M19,21.3h141v169H19V21.3z M19,21.3"></path></defs><defs><rect id="ah" x="19" y="-601.7" width="612" height="792"></rect></defs><clipPath id="am"><use xlink:href="#an" overflow="visible"></use></clipPath><clipPath id="ak" clip-path="url(#am)"><use xlink:href="#al" overflow="visible"></use></clipPath><clipPath id="ai" clip-path="url(#ak)"><use xlink:href="#aj" overflow="visible"></use></clipPath><clipPath id="ag" clip-path="url(#ai)"><use xlink:href="#ah" overflow="visible"></use></clipPath><rect x="68" y="109" clip-path="url(#ag)" width="26" height="25.8"></rect></g><g><defs><rect id="af" x="19" y="21.3" width="141" height="169"></rect></defs><defs><path id="ad" d="M51,87.5l-16.8-7.7c-0.3-0.1-0.5,0-0.7,0.2c-0.1,0.3,0,0.5,0.2,0.7l16.8,7.7c0.3,0.1,0.5,0,0.7-0.2     C51.4,87.9,51.3,87.6,51,87.5L51,87.5z M49.7,104.9l-13.8-6.3c-0.3-0.1-0.5,0-0.7,0.2c-0.1,0.3,0,0.5,0.2,0.7l13.8,6.3     c0.3,0.1,0.5,0,0.7-0.2C50.1,105.4,50,105.1,49.7,104.9L49.7,104.9z M49.7,102.9l-13.8-6.3c-0.3-0.1-0.5,0-0.7,0.2     c-0.1,0.3,0,0.5,0.2,0.7l13.8,6.3c0.3,0.1,0.5,0,0.7-0.2C50.1,103.4,50,103.1,49.7,102.9L49.7,102.9z M50.3,100.2L36,93.5     c-0.3-0.1-0.5,0-0.7,0.2s0,0.5,0.2,0.7l14.3,6.7c0.3,0.1,0.5,0,0.7-0.2C50.6,100.6,50.5,100.3,50.3,100.2L50.3,100.2z M50.6,93.1     l-14.1-6.4c-0.3-0.1-0.5,0-0.7,0.2s0,0.5,0.2,0.7L50.1,94c0.3,0.1,0.5,0,0.7-0.2C50.9,93.5,50.8,93.2,50.6,93.1L50.6,93.1z      M50.6,97.1l-14.1-6.4c-0.3-0.1-0.5,0-0.7,0.2s0,0.5,0.2,0.7L50.1,98c0.3,0.1,0.5,0,0.7-0.2C50.9,97.5,50.8,97.2,50.6,97.1     L50.6,97.1z M130,103.1l16.4-7.5c0.3-0.1,0.4-0.4,0.2-0.7c-0.1-0.3-0.4-0.4-0.7-0.2l-16.4,7.5c-0.3,0.1-0.4,0.4-0.2,0.7     C129.4,103.1,129.7,103.2,130,103.1L130,103.1z M130,100.1l18.9-8.7c0.3-0.1,0.4-0.4,0.2-0.7c-0.1-0.3-0.4-0.4-0.7-0.2l-18.9,8.7     c-0.3,0.1-0.4,0.4-0.2,0.7C129.4,100.1,129.7,100.2,130,100.1L130,100.1z M129,96.1l20.2-9.4c0.3-0.1,0.4-0.4,0.2-0.7     c-0.1-0.3-0.4-0.4-0.7-0.2l-20.2,9.4c-0.3,0.1-0.4,0.4-0.2,0.7C128.4,96.1,128.7,96.2,129,96.1L129,96.1z M128,91.1l17.2-8.1     c0.3-0.1,0.4-0.4,0.2-0.7c-0.1-0.3-0.4-0.4-0.7-0.2l-17.2,8.1c-0.3,0.1-0.4,0.4-0.2,0.7C127.4,91.1,127.7,91.2,128,91.1L128,91.1     z M126.9,83.1l13-5.6c0.3-0.1,0.4-0.4,0.3-0.7c-0.1-0.3-0.4-0.4-0.7-0.3l-13,5.6c-0.3,0.1-0.4,0.4-0.3,0.7     C126.4,83.1,126.7,83.2,126.9,83.1L126.9,83.1z M51.9,137.1c-0.2-1.2-0.3-2.4-0.5-3.4c-0.1-0.4-0.1-1.1-0.1-1.1s-0.2,0.1-0.5,0     c-0.8-0.3-1.6-0.7-2.3-1c-0.3-0.1-0.6-0.3-0.8-0.4c-0.9-0.4-1.6-0.8-2.1-1.1c-0.7-0.5-1.3-1.6-2-3.5c-0.1-0.4-0.3-0.8-0.4-1.2     c0.1,0.5,0.1,1,0.1,1.5c0,0.9,0.3,2.1,1,3.4c0.5,1,1.2,1.2,2.1,2.6c0.2,0.3,0.4,0.6,0.7,1.1c0.1,0.2,0.1,0.2,0.4,0.5     c0.2,0.3,0.3,0.4,0.3,0.5c0.6,0.9,0.9,1.4,1.2,1.9c0.3,0.5,0.5,0.6,0.9,0.7c0.4,0,0.9-0.1,1.4-0.4     C51.6,137.3,51.8,137.2,51.9,137.1L51.9,137.1z M52.5,140.2c0.6,3.2,1.2,6.3,2,9.2c1.9,7.2,4.3,12.6,7.3,15.5     c1.2,1.1,4.9,4.9,5.2,5.3c6.7,6.7,12.1,9.4,21.9,9.4c13.9,0,31.8-12.6,34.2-22.5c0.5-2.2,1.1-4.6,1.6-7.6c0.3-1.5,0.6-3,1-5     c0.1-0.6,0.5-2.5,0.5-2.4c0.2-0.9,0.3-1.6,0.4-2.2c0.1-0.4,0.2-0.9,0.2-1.3h0.7c3.5,0,7.1-6.3,8.6-14.1c0.3-1.7,0.9-2.9,2.8-5.6     c3.2-4.7,4-7.1,3.3-11.1c-0.4-2.6,0.3-4.7,2.7-8.2c0.2-0.3,0.4-0.5,0.6-0.9c0.1-0.2,0.1-0.2,0.3-0.4c0.2-0.3,0.2-0.3,0.3-0.5     c2.6-3.7,3.7-5.8,4.3-8.6c1-4.6-0.6-6.7-5.6-8.4c-2.5-0.8-3.2-1.2-3.6-1.9c-0.7-1.3-0.7-1.7,0-2.6c0-0.1,0.2-0.2,0.3-0.4     c0.1-0.1,0.4-0.5,0.4-0.5c0.7-0.9,1.1-1.6,1.4-2.4c0.9-2.3,0.6-6.1-0.6-9.9c-1.7-5.2-5.1-10.3-10-15     c-8.9-8.4-18.5-13.3-25.3-13.3c-0.8,0-2.6-0.2-5.5-0.5c-0.7-0.1-2.1-0.3-4.6-0.6c-0.6-0.1-2.6-0.3-2.9-0.4     c-1-0.1-1.5-0.2-1.8-0.2c-1.8-0.2-3.4-0.4-4.9-0.6c-6.7-0.8-11.5-1.1-14.9-1.1c-4.9,0-11.2,3.3-18.4,9.2     c-5.1,4.2-10.4,9.7-11.6,12.1c-0.2,0.4-1.2,1.9-2.7,4.2c-0.2,0.3-2.6,4-2.8,4.3c-1,1.6-1.8,3-2.6,4.3c-2.4,4.3-3.6,7.5-3.6,10.1     c0,2.6,0.6,4.4,2,6.9c0,0.1,0.2,0.3,0.3,0.5c0.3,0.5,0.4,0.6,0.5,0.8c0.9,1.6,1.1,2.7,0.6,4.3c-1.4,4.7-0.3,21.7,1.7,28     c0.4,1.3,0.9,2.5,1.8,4.1c0,0.1,0.1,0.2,0.2,0.4c0.2,0.4,0.2,0.4,0.3,0.5c0.2,0.4,0.3,0.6,0.5,0.9c0.9,1.7,1.2,2.8,1.2,4.1     c0,1.4,0.4,3,1.2,4.7c0.6,1.2,1.3,2.4,2.3,4c0.2,0.3,0.4,0.7,0.7,1.1c0.1,0.2,0.1,0.2,0.4,0.5c0.2,0.3,0.3,0.4,0.3,0.5     c0.5,0.8,0.9,1.3,1.1,1.7c0.8,1.3,1.9,2,3.3,2.1C50.6,140.8,51.5,140.6,52.5,140.2L52.5,140.2z M127.5,135.5     c0.2-0.9,0.4-1.5,0.5-1.9c0.4-1.2,0.5-2.1,0.5-3.9c0-1.7,0.1-1.9,0.5-1.9c1.3,0,2.6-0.8,3.8-1.9c-1.4,5.2-3.9,9.6-5.2,9.6H127.5     L127.5,135.5z M137.8,115.3c0-0.1,0.1-0.2,0.1-0.3c0.4-1.1,0.8-2.5,1.1-4.1c0.2-0.9,0.3-1.7,0.5-2.5     C139.9,110.9,139.5,112.5,137.8,115.3L137.8,115.3z M140.4,101.5c0-0.3,0-0.6,0-0.8c0,0,0-1.7,0-1.7l-1.4,0.8     c-0.1,0-0.2,0.1-0.3,0.2c-0.3,0.1-0.5,0.3-0.8,0.4c-0.9,0.5-1.8,0.9-2.7,1.3c-0.3,0.2-0.7,0.3-1,0.5c-1.3,0.6-2.4,1-3.2,1.3     c-0.4,0.1-0.4-0.7-1.1-4.6c0-0.2,0-0.2-0.1-0.4c-0.5-2.7-0.8-4.2-0.8-5c0-1-0.4-3.6-1-7.4c-0.1-0.3-0.1-0.7-0.2-1.1     c-0.3-1.5-0.6-3.1-0.8-4.6c-0.1-0.5-0.2-1-0.3-1.5c-0.1-0.3-0.1-0.4-0.1-0.5l-0.1-0.5l-0.4-0.2l-11.5-5.8l-5.4-2.7l4.7,4.8     l-2.4-0.2l-4.4-0.5l3.8,2.4l-9,0.2l-23.4,0.5l-8.5-0.9l-6.1-2.2l0.3,0.2c-0.1-0.1-0.3-0.3-0.6-0.5c-0.5-0.4-0.9-0.7-1.5-1.1     c-0.8-0.5-1.7-1-2.5-1.3c-1.3-0.5-2.5-0.5-3.4,0c-0.6,0.3-1,0.9-1.4,1.7c-0.8,1.6-1.7,4.4-2.5,8.1c-0.5,2-0.9,4.2-1.3,6.4     c-0.1,0.8-0.3,1.5-0.4,2.1c0,0.2-0.1,0.4-0.1,0.6c0,0.3,0,0.3-0.1,0.3c0,0.3,0,0.3,0,0.7c-0.1,0.8-0.1,0.8-0.1,1.8     C50,94.9,50,94.9,49.7,98c-0.2,3-0.2,3-0.4,5.6c-0.2,2,0.3,1.3,0,1.1c-0.9-0.4-1.9-0.9-2.9-1.3c-0.4-0.2-0.7-0.3-1-0.4     c-1.5-0.6-2.7-1.1-3.6-1.3c-0.6-0.2-1.1-0.2-1.4-0.2c-0.8,0-1.4,0.5-1.4,1.3c0,1.7,0.1,4.2,0.2,6.5c0.2,3.7,0.6,6.3,1.2,7.6     c0.2,0.5,0.5,1.3,0.9,2.5c0.2,0.5,0.7,2.3,0.9,3.1c-0.1-0.3-0.3-0.6-0.5-0.9c-0.1-0.3-0.3-0.6-0.5-1c-0.1-0.1-0.1-0.1-0.3-0.5     c-0.1-0.3-0.2-0.4-0.2-0.4c-0.8-1.5-1.3-2.5-1.6-3.6c-1.8-5.7-2.9-23.2-1.7-27.3c0.8-2.5,0.5-4.3-0.8-6.7     c-0.1-0.2-0.2-0.4-0.4-0.7c-0.2-0.4-0.4-0.6-0.4-0.7c-1.2-2-1.6-3.4-1.6-5.4c0-2,1.1-4.9,3.2-8.7c0.7-1.3,1.5-2.6,2.5-4.1     c0.2-0.3,2.4-3.7,2.8-4.2c1.7-2.5,2.6-4,2.8-4.5c1-2,6.1-7.2,10.9-11.1c6.7-5.5,12.5-8.5,16.5-8.5c3.3,0,8,0.4,14.6,1.1     c1.5,0.2,3.1,0.4,4.9,0.6c0.3,0,0.9,0.1,1.8,0.2c0.3,0,2.3,0.3,2.9,0.4c2.5,0.3,4,0.5,4.6,0.6c3.1,0.4,4.9,0.6,5.9,0.6     c6,0,14.9,4.6,23.3,12.5c4.6,4.4,7.7,9,9.2,13.8c1,3.2,1.3,6.4,0.7,7.9c-0.2,0.5-0.5,1-1,1.6c0,0-0.3,0.3-0.4,0.5     c-0.2,0.2-0.3,0.4-0.4,0.5c-1.4,1.9-1.5,3.6-0.2,5.9c0.9,1.5,2,2.2,5,3.3c3.9,1.3,4.5,2.1,3.9,5c-0.5,2.3-1.4,4.1-3.8,7.5     c-0.1,0.2-0.1,0.2-0.3,0.5c-0.2,0.3-0.2,0.3-0.3,0.5c-0.3,0.4-0.5,0.6-0.6,0.9C141.7,99.1,140.9,100.4,140.4,101.5L140.4,101.5z      M53.2,131.4l-0.6-0.2c-0.1,0-0.1-0.1-0.3-0.1c-0.2-0.1-0.5-0.2-0.8-0.3c-0.8-0.3-1.6-0.6-2.3-1c-0.3-0.1-0.6-0.2-0.8-0.4     c-0.8-0.4-1.5-0.7-1.8-0.9c-0.2-0.1-0.7-1-1.2-2.5c-0.4-1-0.7-2.1-1.2-3.7c0-0.1-0.9-2.9-1.1-3.6c-0.4-1.3-0.7-2.1-1-2.7     c-0.5-1-0.8-3.5-1-6.9c-0.1-2.3-0.3-5.7,0.1-5.6c0.8,0.2,2,0.6,3.4,1.2c0.3,0.1,0.7,0.3,1,0.4c0.9,0.4,1.9,0.8,2.8,1.3     c0.3,0.2,0.6,0.3,0.9,0.4c0.2,0.1,0.3,0.1,0.3,0.2l1.3,0.7l0.1-1.5c0-0.5,0-0.5,0.2-2.5c0.2-2.5,0.2-2.5,0.4-5.6     c0.2-3,0.2-3,0.4-5.6c0.1-1.1,0.1-1.1,0.1-1.8c0-0.3,0-0.3,0-0.5c0.1-0.5,0.1-0.7,0.1-0.9c0.1-0.6,0.2-1.3,0.4-2.1     c0.4-2.2,0.9-4.3,1.3-6.3c0.8-3.5,1.6-6.2,2.4-7.7c0.3-0.5,0.5-0.8,0.6-0.9c0.4-0.2,1-0.2,1.8,0.1c0.6,0.2,1.3,0.6,2,1.1     c0.5,0.3,0.9,0.6,1.3,1c0.2,0.2,0.4,0.3,0.5,0.4l0.3,0.2l5.4,2.4c0,0,2.1,1.6,9.5,2.1c7.4,0.5,23.2,0.8,23.2,0.8     s6.8,0.4,12.3,0.4c5.5,0,5.7-4.2,5.7-4.2s5.4,2.4,5.5,2.7c0.1,0.4,0.2,0.9,0.3,1.5c0.3,1.5,0.6,3.1,0.8,4.6     c0.1,0.4,0.1,0.7,0.2,1.1c0.6,3.7,1,6.2,1,7.1c0,1,0.2,2.6,0.8,5.4c0,0.2,0,0.2,0.1,0.4c0.7,3.6,0.8,4.4,0.8,5     c0,0.8,0.6,1.3,1.4,1.3c0.4,0,0.9-0.1,1.4-0.2c0.9-0.3,2.1-0.7,3.5-1.4c0.3-0.2,0.7-0.3,1-0.5c0.9-0.4,1.8-0.9,2.7-1.4     c0.3-0.2-0.4,0-0.5,0.7c-0.2,1.9-0.6,4.4-1.2,7.5c-0.3,1.5-0.6,2.8-1,3.8c-0.3,0.9-0.7,1.6-1.1,2.3c-0.1,0.2-0.8,1.2-0.9,1.5     c-0.4,0.7-0.6,1.4-0.6,2.3c0,2.2-2.7,5.5-4.5,5.5c-2.1,0-2.5,1.1-2.5,3.8c0,1.6-0.1,2.4-0.4,3.3c-0.4,1.1-0.8,3-1.4,6.4     c-0.1,0.6-0.2,1.3-0.4,2.2c0-0.1-0.3,1.8-0.5,2.4c-0.4,2-0.7,3.5-1,5c-0.6,2.9-1.1,5.3-1.6,7.5c-2.2,9-19.3,21-32.3,21     c-9.2,0-14.2-2.4-20.5-8.8c-0.3-0.3-4-4.1-5.2-5.3c-2.7-2.6-4.9-7.7-6.7-14.6c-1-3.7-1.8-7.7-2.4-11.6c-0.2-1.4-0.4-2.7-0.5-3.8     c-0.1-0.4-0.1-0.8-0.1-1.1c0-0.2,0-0.3,0-0.4L53.2,131.4L53.2,131.4z M53.2,131.4"></path></defs><defs><path id="ab" d="M19,21.3h141v169H19V21.3z M19,21.3"></path></defs><defs><rect id="z" x="19" y="-601.7" width="612" height="792"></rect></defs><clipPath id="ae"><use xlink:href="#af" overflow="visible"></use></clipPath><clipPath id="ac" clip-path="url(#ae)"><use xlink:href="#ad" overflow="visible"></use></clipPath><clipPath id="aa" clip-path="url(#ac)"><use xlink:href="#ab" overflow="visible"></use></clipPath><clipPath id="y" clip-path="url(#aa)"><use xlink:href="#z" overflow="visible"></use></clipPath><rect x="26.2" y="26.2" clip-path="url(#y)" width="129.7" height="158.3"></rect></g><g><defs><rect id="x" x="19" y="21.3" width="141" height="169"></rect></defs><defs><path id="v" d="M105.8,160.6c0,0.1-0.1,0.2-0.2,0.3c-0.2,0.3-0.3,0.6-0.5,0.9c-0.6,0.9-1.3,1.9-2,2.7     c-2,2.4-4.1,3.8-6.1,3.8c-0.8,0-1.2,0-3.3,0c-2.3,0-3.7,0.1-5.2,0c-5.3-0.1-8.9-0.6-10.2-1.6c-0.2-0.2-1-0.8-1.1-0.8     c-0.4-0.3-0.8-0.6-1.1-0.9c-3.2-2.6-4.7-4.8-4.7-7.5c0-0.6-0.4-1-1-1c-0.6,0-1,0.4-1,1c0,3.4,1.8,6,5.4,9     c0.3,0.3,0.7,0.6,1.1,0.9c0.1,0.1,0.9,0.7,1.1,0.8c1.8,1.4,5.5,2,11.4,2c1.5,0,2.9,0,5.2,0c2.1,0,2.5,0,3.3,0     c2.7,0,5.3-1.7,7.6-4.5c0.8-0.9,1.5-1.9,2.2-2.9c0.2-0.4,0.4-0.7,0.6-1c0.1-0.2,0.2-0.3,0.2-0.4c0.3-0.5,0.1-1.1-0.4-1.4     C106.7,160,106.1,160.2,105.8,160.6L105.8,160.6L105.8,160.6z M105.8,160.6"></path></defs><defs><path id="t" d="M19,21.3h141v169H19V21.3z M19,21.3"></path></defs><defs><rect id="r" x="19" y="-601.7" width="612" height="792"></rect></defs><clipPath id="w"><use xlink:href="#x" overflow="visible"></use></clipPath><clipPath id="u" clip-path="url(#w)"><use xlink:href="#v" overflow="visible"></use></clipPath><clipPath id="s" clip-path="url(#u)"><use xlink:href="#t" overflow="visible"></use></clipPath><clipPath id="q" clip-path="url(#s)"><use xlink:href="#r" overflow="visible"></use></clipPath><rect x="64.4" y="151.6" clip-path="url(#q)" width="48.2" height="23.8"></rect></g><g><defs><rect id="p" x="19" y="21.3" width="141" height="169"></rect></defs><defs><path id="n" d="M79.3,92c0.5,0.8,0.4,0.8,0.7,1.1c0.7,0.9,1.4,1.5,2.4,1.5v-0.4c-0.8,0-1.4-0.5-2-1.3     c-0.2-0.3-0.2-0.3-0.7-1.1L79.3,92L79.3,92z M75,92.4c0.1,0.1,0.1,0.2,0.2,0.3c0.2,0.3,0.4,0.4,1,1c0,0,0.1,0.1,0.2,0.2     c0.1,0.1,0.2,0.2,0.2,0.2c0.6,0.5,1.1,0.8,1.5,0.9c0.1,0,0.1,0,0.2,0v-0.4c0,0-0.1,0-0.1,0c-0.4,0-0.8-0.3-1.3-0.8     c-0.1-0.1-0.1-0.1-0.2-0.2c-0.1-0.1-0.2-0.2-0.2-0.2c-0.6-0.6-0.8-0.7-1-1c-0.1-0.1-0.1-0.1-0.1-0.2L75,92.4L75,92.4z M67.2,91.3     c0.1,0.1,0.1,0.2,0.2,0.3c0.2,0.3,0.4,0.4,1,1c0,0,0.1,0.1,0.2,0.2c0.1,0.1,0.2,0.2,0.2,0.2c0.6,0.5,1.1,0.8,1.5,0.9     c0.1,0,0.1,0,0.2,0c0.1,0,0.2-0.1,0.2-0.2c0-0.1-0.1-0.2-0.2-0.2c0,0-0.1,0-0.1,0c-0.4,0-0.8-0.3-1.3-0.8     c-0.1-0.1-0.1-0.1-0.2-0.2c-0.1-0.1-0.2-0.2-0.2-0.2c-0.6-0.6-0.8-0.7-1-1c-0.1-0.1-0.1-0.1-0.1-0.2c-0.1-0.1-0.2-0.1-0.3-0.1     C67.2,91.1,67.2,91.2,67.2,91.3L67.2,91.3z M77.9,92.4c0.1,0.1,0.2,0.3,0.3,0.4c0.1,0.1,0.2,0.2,0.4,0.4c0,0,0.1,0.1,0.2,0.2     c0.1,0.1,0.2,0.2,0.3,0.2c0.8,0.7,1.8,1.3,2.5,1.3c0.1,0,0.2-0.1,0.2-0.2s-0.1-0.2-0.2-0.2c-0.6,0-1.5-0.6-2.2-1.2     c0.1,0.1-0.7-0.6-0.8-0.8c-0.1-0.1-0.2-0.2-0.2-0.3c-0.1-0.1-0.2-0.1-0.3-0.1S77.8,92.4,77.9,92.4L77.9,92.4z M71.7,92.4     c0.1,0.1,0.1,0.2,0.2,0.3c0.2,0.3,0.4,0.4,1,1c0,0,0.1,0.1,0.2,0.2c0.1,0.1,0.2,0.2,0.2,0.2c0.6,0.5,1.1,0.8,1.5,0.9     c0.1,0,0.1,0,0.2,0c0.1,0,0.2-0.1,0.2-0.2s-0.1-0.2-0.2-0.2c0,0-0.1,0-0.1,0c-0.4,0-0.8-0.3-1.3-0.8c-0.1-0.1-0.1-0.1-0.2-0.2     c-0.1-0.1-0.2-0.2-0.2-0.2c-0.6-0.6-0.8-0.7-1-1c-0.1-0.1-0.1-0.1-0.1-0.2c-0.1-0.1-0.2-0.1-0.3-0.1     C71.7,92.2,71.7,92.3,71.7,92.4L71.7,92.4z M80.7,92c0.3,0.4,0.5,0.7,1,1.2c0.6,0.5,1.1,0.7,1.8,0.7c0.1,0,0.2-0.1,0.2-0.2     c0-0.1-0.1-0.2-0.2-0.2c-0.7,0-1-0.2-1.6-0.6c-0.5-0.5-0.7-0.7-1-1.1c-0.1-0.1-0.2-0.1-0.3-0.1S80.6,91.9,80.7,92L80.7,92z      M75.3,94.4c0.6,0.5,0.8,0.2,0.3-0.3c-0.5-0.5-1.3-0.9-1.6-1.3c-0.1-0.1-0.2-0.1-0.3-0.1c-0.1,0.1-0.1,0.2-0.1,0.3     C73.9,93.4,74.7,93.9,75.3,94.4L75.3,94.4z M84,93.6l-3.9-4.3c-0.2-0.2-0.6-0.1-0.6,0.2L79,92.1l0.4,0.1l0.3-0.3c0,0,0,0-0.1-0.1     c0,0,0,0-0.1-0.1l-1.3-1.3c-0.1-0.1-0.2-0.1-0.4-0.1l-0.8,0.3c-0.2,0.1-0.3,0.4-0.2,0.6l1,1.4l0.5-0.5C78,92,78,92,77.7,91.9     c-0.2-0.1-0.2-0.1-0.3-0.1c-0.3-0.2-0.3-0.2-0.7-0.4c-0.8-0.4-0.8-0.4-1.1-0.5l-0.1,0l-1.4-0.1c-0.3,0-0.5,0.4-0.3,0.6l1.1,1.3     l0.5-0.6l-3.9-1.9c-0.3-0.2-0.7,0.2-0.5,0.5l1.2,1.9l0.5-0.5l-4.3-2.5c-0.1-0.1-0.2-0.1-0.3,0l-1,0.3l0.3,0l-1.8-0.9     c-0.1,0-0.2,0-0.3,0l-2.5,0.6c-0.3,0.1-0.4,0.4-0.2,0.6l1.2,1.1l0.3-0.7l-2.2,0c-0.4,0-0.5,0.5-0.2,0.7l3.4,1.7l0.2,0l3.4,0.1     l-0.2,0l2.6,1.3l3.3,0.6l3.8,0.1l3.2-0.1l0.1,0l2.2-0.8C84.1,94.1,84.2,93.8,84,93.6L84,93.6L84,93.6z M83.6,93.5l-2.2,0.8l0.1,0     l-3.2,0.1l-3.8-0.1l-3.2-0.6l-2.5-1.2l-0.2,0l-3.4-0.1l0.2,0l-3.4-1.7l-0.2,0.7l2.2,0c0.3,0,0.5-0.4,0.3-0.7l-1.2-1.1L63,90.3     l2.5-0.6l-0.3,0l1.8,0.9c0.1,0,0.2,0.1,0.3,0l1-0.3l-0.3,0l4.3,2.5c0.3,0.2,0.7-0.2,0.5-0.5l-1.2-1.9l-0.5,0.5l3.9,1.9     c0.4,0.2,0.7-0.3,0.5-0.6l-1.1-1.3L74,91.4l1.4,0.1l-0.1,0c0.3,0.1,0.3,0.1,1.1,0.5c0.4,0.2,0.4,0.2,0.7,0.4     c0.1,0.1,0.1,0.1,0.3,0.1c0.3,0.2,0.3,0.2,0.4,0.2c0.3,0.2,0.7-0.2,0.5-0.5l-1-1.4l-0.2,0.6l0.8-0.3L77.6,91l1.3,1.3     c0,0,0,0,0.1,0.1c0.1,0.1,0.1,0.1,0.1,0.1c0.2,0.2,0.6,0.1,0.6-0.2l0.4-2.7l-0.6,0.2l3.9,4.3L83.6,93.5L83.6,93.5z M83.6,93.5"></path></defs><defs><path id="l" d="M19,21.3h141v169H19V21.3z M19,21.3"></path></defs><defs><rect id="j" x="19" y="-601.7" width="612" height="792"></rect></defs><clipPath id="o"><use xlink:href="#p" overflow="visible"></use></clipPath><clipPath id="m" clip-path="url(#o)"><use xlink:href="#n" overflow="visible"></use></clipPath><clipPath id="k" clip-path="url(#m)"><use xlink:href="#l" overflow="visible"></use></clipPath><clipPath id="i" clip-path="url(#k)"><use xlink:href="#j" overflow="visible"></use></clipPath><rect x="56.5" y="83.9" clip-path="url(#i)" width="32.6" height="16.3"></rect></g><g><defs><rect id="h" x="19" y="21.3" width="141" height="169"></rect></defs><defs><path id="f" d="M100.4,94.7c0.3-0.2,0.3-0.2,0.6-0.5c0.3-0.3,0.6-0.6,0.8-0.9c0.1-0.1,0-0.2,0-0.3c-0.1-0.1-0.2,0-0.3,0     c-0.2,0.3-0.4,0.6-0.7,0.9c0.1-0.3,0.1-0.7,0.1-1.1c0-0.1-0.1-0.2-0.2-0.2c-0.1,0-0.2,0.1-0.2,0.2c0,1.3-0.4,2.1-1.6,2.4     c-0.1,0-0.2,0.2-0.2,0.3c0,0.1,0.2,0.2,0.3,0.2C99.6,95.5,100.1,95.1,100.4,94.7L100.4,94.7L100.4,94.7z M106.8,93.1     c0-0.2,0-0.5,0-1.1c0-0.1-0.1-0.2-0.2-0.2c-0.1,0-0.2,0.1-0.2,0.2c0,0.9-0.1,1.3-0.2,1.5c-0.1,0-0.1,0.1-0.2,0.1     c-0.2,0.2-0.4,0.3-0.5,0.4c-0.1,0.1-0.1,0.2,0,0.4c0.1,0.1,0.2,0.1,0.4,0c0.1-0.1,0.3-0.2,0.5-0.4c0.4-0.3,0.7-0.6,1.1-1     c0.2-0.2,0.4-0.4,0.6-0.6c0.3-0.3,0.5-0.5,0.6-0.8c0.1-0.1,0.1-0.3-0.1-0.3c-0.1-0.1-0.3-0.1-0.3,0.1c-0.1,0.2-0.4,0.4-0.6,0.7     c-0.2,0.2-0.4,0.4-0.6,0.6C107,92.9,106.9,93,106.8,93.1L106.8,93.1L106.8,93.1z M94.7,95c0.1,0,0.1,0,0.3-0.1     c0.2-0.1,0.4-0.1,0.5-0.2c0.5-0.3,0.9-0.7,0.9-1.2c0-0.1-0.1-0.2-0.2-0.2c-0.1,0-0.2,0.1-0.2,0.2c0,0.4-0.2,0.7-0.6,0.9     c-0.3,0.1-0.5,0.2-0.7,0.3c-0.1,0-0.2,0.1-0.2,0.2C94.5,94.9,94.6,95,94.7,95L94.7,95z M110.2,95c0.1-0.1,0.3-0.2,0.5-0.4     c0.4-0.3,0.7-0.6,1.1-0.9c0.3-0.3,0.6-0.6,0.8-0.8c0.1-0.2,0.3-0.3,0.4-0.5c0.1-0.1,0-0.2,0-0.3c-0.1-0.1-0.2,0-0.3,0     c-0.1,0.1-0.2,0.3-0.4,0.4c-0.2,0.2-0.5,0.5-0.8,0.8c-0.3,0.3-0.7,0.6-1,0.9c-0.2,0.2-0.4,0.3-0.5,0.4c-0.1,0.1-0.1,0.2,0,0.3     C109.9,95.1,110.1,95.1,110.2,95L110.2,95z M101.6,94.5c0.1-0.1,0.3-0.2,0.5-0.5c0.4-0.3,0.7-0.7,1.1-1.1     c0.1-0.1,0.3-0.3,0.4-0.4c0.3-0.4,0.6-0.7,0.8-1c0.1-0.1,0-0.2,0-0.3c-0.1-0.1-0.2,0-0.3,0c-0.2,0.3-0.5,0.6-0.8,0.9     c-0.1,0.1-0.3,0.3-0.4,0.4c-0.3,0.3-0.7,0.7-1.1,1c-0.2,0.2-0.4,0.4-0.5,0.4c-0.1,0.1-0.1,0.2,0,0.3     C101.4,94.6,101.5,94.6,101.6,94.5L101.6,94.5z M96.3,95.2c0.1-0.1,0.3-0.2,0.5-0.4c0.4-0.3,0.7-0.6,1.1-0.9     c0.2-0.2,0.4-0.4,0.6-0.6c0.3-0.3,0.5-0.5,0.6-0.8c0.1-0.1,0-0.2,0-0.3c-0.1-0.1-0.2,0-0.3,0c-0.2,0.2-0.4,0.5-0.6,0.7     c-0.2,0.2-0.4,0.4-0.6,0.6c-0.3,0.3-0.7,0.6-1.1,0.9c-0.2,0.2-0.4,0.3-0.5,0.4C96,95,96,95.1,96,95.2     C96.1,95.3,96.2,95.3,96.3,95.2L96.3,95.2z M106.7,94.4c0.1-0.1,0.3-0.3,0.6-0.5c0.4-0.4,0.9-0.7,1.3-1.1     c0.2-0.1,0.3-0.3,0.4-0.4c0.5-0.5,0.9-0.9,1.2-1.3c0.1-0.1,0-0.2,0-0.3c-0.1-0.1-0.2,0-0.3,0c-0.2,0.3-0.6,0.7-1.1,1.2     c-0.1,0.1-0.3,0.3-0.4,0.4c-0.4,0.4-0.8,0.7-1.2,1.1c-0.3,0.2-0.5,0.4-0.6,0.5c-0.1,0.1-0.1,0.2,0,0.3     C106.5,94.5,106.6,94.5,106.7,94.4L106.7,94.4z M94.3,93.6c0-0.4,0.1-0.4,0.4-0.4c0.1,0,0.3,0,0.4,0.1c0.1,0,0.2,0.1,0.2,0.1     c0.1,0.1,0.2,0.1,0.4,0l2.1-1.2l-0.4,0l1.2,0.8c0.1,0.1,0.3,0.1,0.4,0l1.5-1.1l-0.6-0.2l0.4,1.5c0.1,0.3,0.5,0.4,0.6,0.1l1.9-2.3     l-0.6,0l1.3,1.3c0.2,0.2,0.4,0.2,0.6,0l1.8-2l-0.7-0.2l0.1,1.4c0,0.3,0.4,0.5,0.7,0.2l1.4-1.7L107,90l2.2,0.7l0.2,0l2.1-0.3     l-0.3,0l1.5,0.9l2.3,1.3l-0.1-0.1l1.3,2.3l0-0.3l-0.6,1.6c0,0.1,0,0.2,0,0.3l0.4,1l0.6-0.4l-2.2-1.9l-1.3-1.4     c-0.1-0.1-0.3-0.2-0.4-0.1l-2.7,1.1l0.3,0l-2.1-0.8l-0.2,0l-2.9,0.3l-0.1,0l-2.6,1.3l0.2,0l-2.4-0.5l-0.2,0l-3.2,0.8l0.3,0     l-2-1.3c-0.1-0.1-0.2-0.1-0.3,0c0,0,0,0,0,0c-0.1,0-0.1,0-0.2,0C94.4,94.2,94.3,94,94.3,93.6L94.3,93.6L94.3,93.6z M93.5,93.6     c0,0.7,0.2,1.2,0.6,1.4c0.2,0.1,0.4,0.1,0.6,0.1c0,0,0,0,0.1,0l-0.3,0l2,1.3c0.1,0.1,0.2,0.1,0.3,0l3.2-0.8l-0.2,0l2.4,0.5     c0.1,0,0.2,0,0.2,0l2.6-1.3l-0.1,0l2.9-0.3l-0.2,0l2.1,0.8c0.1,0,0.2,0,0.3,0l2.7-1.1l-0.4-0.1l1.3,1.4l2.3,1.9     c0.3,0.3,0.7,0,0.6-0.4l-0.4-1l0,0.3l0.6-1.6c0-0.1,0-0.2,0-0.3l-1.3-2.3l-0.1-0.1l-2.3-1.3l-1.5-0.9c-0.1,0-0.2-0.1-0.3,0     l-2.1,0.3l0.2,0l-2.2-0.7c-0.1,0-0.3,0-0.4,0.1l-1.4,1.7l0.7,0.2l-0.1-1.4c0-0.3-0.4-0.5-0.7-0.2l-1.8,2l0.6,0l-1.3-1.3     c-0.2-0.2-0.4-0.2-0.6,0l-1.9,2.3l0.6,0.1l-0.4-1.5c-0.1-0.3-0.4-0.4-0.6-0.2l-1.5,1.1l0.4,0l-1.2-0.8c-0.1-0.1-0.3-0.1-0.4,0     l-2.1,1.2l0.4,0c-0.1,0-0.2-0.1-0.3-0.1c-0.2-0.1-0.4-0.1-0.6-0.1C94,92.4,93.5,92.8,93.5,93.6L93.5,93.6L93.5,93.6z M93.5,93.6"></path></defs><defs><path id="d" d="M19,21.3h141v169H19V21.3z M19,21.3"></path></defs><defs><rect id="b" x="19" y="-601.7" width="612" height="792"></rect></defs><clipPath id="g"><use xlink:href="#h" overflow="visible"></use></clipPath><clipPath id="e" clip-path="url(#g)"><use xlink:href="#f" overflow="visible"></use></clipPath><clipPath id="c" clip-path="url(#e)"><use xlink:href="#d" overflow="visible"></use></clipPath><clipPath id="a" clip-path="url(#c)"><use xlink:href="#b" overflow="visible"></use></clipPath><rect x="88.5" y="84.3" clip-path="url(#a)" width="33.3" height="18.2"></rect></g></g><path d="M64.9,100.5c1.2-0.7,9.7-0.9,11.1-0.6c1.4,0.3,4.7,2.5,4.6,3c-0.1,0.6-2.3-0.4-3.8-0.3s-3.4,1.1-5,0.7s-3.3-1.3-4.5-1.3  c-1.2,0.1-5.2,2.6-5.7,2.3C61.1,104.1,63.8,101.2,64.9,100.5z"></path><path d="M93.8,103.7c-0.5-0.1,0.9-1.8,1-2.7c0.1-1.4,3.8-2.2,3.9-2c0.4,0.6-0.6,1.9-0.4,2.1c0,0,0.2-0.1,0.7-0.1  c2.1-0.2,10.9-0.4,12.2,0.9c1.8,1.6,2.2,3.6,1.9,3.7c-0.6,0.1-1.4-2.4-3-2.6c-4.8-0.7-4.4,0.9-6.5,0.8s-4-1-6-1.1  C95.5,102.6,94.1,103.8,93.8,103.7z"></path></svg>