<svg xmlns="http://www.w3.org/2000/svg" xmlns:xlink="http://www.w3.org/1999/xlink" version="1.1" x="0px" y="0px" viewBox="0 0 100 100" enable-background="new 0 0 100 100" xml:space="preserve"><g><path d="M16.587,30.718c-0.157,0.055-0.277,0.158-0.377,0.278C16.311,30.876,16.433,30.772,16.587,30.718z"></path><path d="M16.152,31.069c-0.084,0.127-0.137,0.27-0.147,0.425C16.016,31.339,16.07,31.195,16.152,31.069z"></path></g><g><path d="M83.782,28.151c-0.549,0-1.011,0.411-1.082,0.985l-0.304,2.548c-0.024,0.428-0.164,0.952-0.312,1.477   c-0.069,0.229-0.129,0.471-0.19,0.718c-0.091,0.369-0.183,0.756-0.331,1.106c-0.112,0.242-0.221,0.49-0.329,0.742   c-0.178,0.411-0.359,0.832-0.507,1.133c-0.174,0.24-0.335,0.492-0.497,0.745c-0.252,0.395-0.492,0.769-0.762,1.059l-0.424,0.445   c-0.378,0.402-0.735,0.783-1.249,1.12c-0.295,0.251-0.633,0.464-0.991,0.668c-1.649-1.866-3.997-3.035-6.667-3.035   c-0.726,0-1.465,0.085-2.198,0.254c-5.624,1.294-13.435,2.112-16.207,1.675c-0.319-0.05-0.704-0.226-1.115-0.453   c0.669-0.975,1.314-1.838,1.907-2.52c0.97,0.538,1.968,0.956,3.005,0.89c1.14-0.016,2.141-0.53,2.89-1.485   c0.792-1.009,1.028-2.151,0.635-3.052c-0.317-0.723-0.988-1.178-1.844-1.247c-1.44-0.124-3.145,0.799-4.963,2.601   c-0.887-0.658-1.692-1.422-2.29-2.05l2.575-1.533c0.223-0.133,0.376-0.357,0.419-0.612l1.171-6.957   c0.007-0.04-0.013-0.076-0.012-0.116c0.001-0.033,0.025-0.06,0.022-0.093c-0.003-0.041-0.035-0.07-0.043-0.109   c-0.02-0.1-0.055-0.187-0.108-0.274c-0.037-0.061-0.071-0.112-0.122-0.162c-0.027-0.027-0.036-0.066-0.067-0.089   c-0.056-0.043-0.125-0.049-0.188-0.078c-0.042-0.019-0.067-0.061-0.113-0.074l-6.957-1.98c-0.174-0.049-0.362-0.046-0.533,0.016   L16.587,30.718c-0.345,0.121-0.58,0.44-0.592,0.806c-0.001,0.021,0.016,0.038,0.016,0.059c0.002,0.066-0.003,0.132,0.015,0.198   l2.425,9.031c0.069,0.257,0.25,0.471,0.495,0.578c0.114,0.05,0.235,0.076,0.357,0.076c0.14,0,0.278-0.033,0.404-0.098l2.121-1.095   c0.015,0.008,0.025,0.023,0.04,0.031l4.435,2.031l0.475,2.558c0.052,0.285,0.24,0.524,0.504,0.643   c0.116,0.053,0.24,0.079,0.364,0.079c0.157,0,0.314-0.041,0.452-0.124l7.862-4.682c0.544,0.829,1.096,1.901,1.521,3.265   c-1.592,2.097-2.135,3.475-1.724,4.417c0.135,0.311,0.495,0.842,1.394,0.916c0.066,0.005,0.131,0.009,0.2,0.009   c0.283,0,0.614-0.057,0.967-0.142c0.57,4.982,2.383,7.957,4.42,9.723l0.552,12.329l-1.033,3.569   c-0.319,1.106,0.226,2.305,1.27,2.786c0.314,0.147,0.647,0.221,0.992,0.221c0.913,0,1.751-0.535,2.141-1.378l1.918-4.346   c0.035-0.076,0.057-0.155,0.067-0.238l1.372-10.061c0.582,0.069,1.189,0.11,1.805,0.099l1.254,11.843L52.174,77.4   c-0.238,0.937,0.2,1.898,1.064,2.334c0.286,0.145,0.607,0.221,0.926,0.221c0.78,0,1.482-0.431,1.832-1.126l1.949-3.847   c0.095-0.186,0.155-0.397,0.173-0.611l3.273-15.31c0.352-0.195,0.684-0.379,0.996-0.551l2.111,2.832l0.775,4.682l-0.781,3.568   c-0.179,0.825,0.212,1.684,0.951,2.087c0.281,0.155,0.6,0.236,0.919,0.236c0.7,0,1.344-0.383,1.682-1.002l2.146-4.009   c0.047-0.086,0.078-0.178,0.093-0.273l1.063-6.391c0.021-0.128,0.014-0.257-0.021-0.381l-1.391-5.011   c0.095-0.036,0.186-0.07,0.287-0.107l0.247-0.093l5.762,5.772l0.806,8.037l-0.788,3.602c-0.179,0.825,0.212,1.684,0.951,2.087   c0.281,0.154,0.599,0.236,0.919,0.236c0.7,0,1.344-0.381,1.684-1.006l2.16-4.071c0.053-0.1,0.086-0.207,0.098-0.319l1.054-9.754   c0.016-0.14-0.003-0.279-0.053-0.411L79.17,48.638c0.029-0.39,0.057-0.781,0.057-1.223c0-1.095-0.204-2.122-0.513-3.093   c0.538-0.38,1.065-0.781,1.503-1.249c0.649-0.535,1.12-1.17,1.577-1.784l0.354-0.469c0.4-0.545,0.678-1.116,0.949-1.666   c0.122-0.25,0.243-0.499,0.423-0.838c0.212-0.542,0.378-1.087,0.538-1.611l0.236-0.762c0.162-0.547,0.231-1.08,0.292-1.549   c0.029-0.223,0.057-0.442,0.097-0.666c0.11-0.676,0.205-1.335,0.174-1.918l0.014-2.569C84.87,28.685,84.456,28.221,83.782,28.151z    M57.063,33.683c0.295,0.024,0.352,0.154,0.369,0.195c0.104,0.236,0.017,0.714-0.405,1.254c-0.426,0.543-0.911,0.8-1.525,0.811   c-0.01,0-0.022,0-0.035,0c-0.523,0-1.094-0.174-1.672-0.454C55.331,34.057,56.461,33.654,57.063,33.683z M51.036,35.836   c-0.621,0.733-1.25,1.588-1.88,2.506c-1.142-0.892-2.379-2.085-3.529-3.29l2.77-1.65C48.953,34.011,49.894,34.971,51.036,35.836z    M19.874,39.295l-1.679-6.23l1.552,0.655l1.344,4.934L19.874,39.295z M22.98,38.867l-1.164-4.274l1.779,0.75   c-0.275,0.315-0.471,0.704-0.472,1.184c-0.003,1.199,1.007,2.336,2.256,2.538c0.112,0.018,0.209-0.012,0.317-0.01l0.214,1.155   L22.98,38.867z M25.899,34.397l-6.567-2.771l26.987-9.454l4.342,1.235L25.899,34.397z M28.283,43.323l-1.38-7.439l25.202-11.186   l-0.185,1.097c-0.082,0.015-0.164,0.027-0.241,0.065l-12.498,6.331c-0.436,0.221-0.611,0.752-0.39,1.187   c0.155,0.307,0.468,0.485,0.788,0.485c0.135,0,0.271-0.031,0.398-0.095l11.588-5.87l-0.292,1.733L28.283,43.323z M37.407,47.665   c0.04-0.19,0.202-0.595,0.593-1.236c0.054,0.356,0.108,0.71,0.142,1.094C37.848,47.613,37.594,47.666,37.407,47.665z    M37.487,39.899l6.571-3.913c1.175,1.257,2.628,2.7,4.083,3.815c-2.266,3.11-5.815,5.705-8.299,6.991   C39.481,43.71,38.49,41.46,37.487,39.899z M46.913,71.577l-1.86,4.218c-0.097,0.205-0.305,0.34-0.533,0.34   c-0.085,0-0.167-0.019-0.248-0.057c-0.26-0.119-0.395-0.417-0.316-0.693l1.073-3.709c0.026-0.091,0.038-0.188,0.033-0.285   l-0.498-11.13c0.419,0.228,0.836,0.418,1.24,0.575c0.474,0.182,1.367,0.491,2.476,0.743L46.913,71.577z M68.564,66.198   l-2.075,3.875c-0.038,0.071-0.107,0.076-0.128,0.076l-0.072-0.019c-0.066-0.036-0.083-0.11-0.072-0.16l0.818-3.731   c0.024-0.11,0.028-0.223,0.009-0.333l-0.837-5.063c-0.022-0.138-0.079-0.269-0.162-0.383l-2.093-2.808   c2.19-1.196,3.199-1.699,4.328-2.163l1.292,4.655L68.564,66.198z M81.334,59.254l-1.013,9.372l-2.08,3.921l-0.197,0.048   c-0.066-0.036-0.083-0.11-0.072-0.16l0.819-3.738c0.021-0.091,0.026-0.185,0.016-0.278l-0.852-8.491   c-0.019-0.204-0.109-0.392-0.254-0.537l-6.386-6.397c-0.245-0.247-0.618-0.324-0.935-0.202l-0.778,0.292   c-2.99,1.118-3.304,1.235-9.416,4.625c-0.223,0.124-0.381,0.338-0.435,0.587l-3.367,15.636l-0.012,0.248l-1.951,3.85   c-0.059,0.116-0.171,0.157-0.255,0.157l-0.129-0.031c-0.135-0.067-0.178-0.216-0.15-0.326l0.944-3.733   c0.026-0.1,0.035-0.205,0.022-0.309l-1.268-11.976c0.462-0.093,1.011-0.259,1.46-0.559c0.405-0.273,0.514-0.821,0.243-1.227   c-0.273-0.405-0.821-0.514-1.227-0.243c-0.373,0.25-1.104,0.366-1.477,0.38c-0.002,0-0.004,0.002-0.006,0.002   c-0.016,0.001-0.031,0.001-0.047,0.002c-2.577,0.247-5.182-0.633-6.091-0.983c-3.666-1.416-5.852-5.062-6.389-10.529   c3.051-1.389,7.117-4.512,9.552-7.86c0.659,0.383,1.29,0.65,1.856,0.739c0.626,0.098,1.43,0.148,2.391,0.148   c3.743,0,9.837-0.778,14.487-1.848c0.602-0.14,1.208-0.209,1.801-0.209c4.176,0,7.325,3.347,7.325,7.787   c0,0.424-0.029,0.799-0.067,1.287c-0.009,0.131,0.01,0.26,0.057,0.383L81.334,59.254z"></path><path d="M36.624,33.711c-0.159,0.176-0.264,0.388-0.264,0.635c0,0.229,0.088,0.461,0.264,0.619c0.159,0.176,0.39,0.264,0.619,0.264   c0.229,0,0.459-0.088,0.635-0.264c0.159-0.178,0.248-0.39,0.248-0.619s-0.09-0.459-0.248-0.618   C37.544,33.391,36.943,33.391,36.624,33.711z"></path></g></svg>