<svg xmlns:dc="http://purl.org/dc/elements/1.1/" xmlns:cc="http://creativecommons.org/ns#" xmlns:rdf="http://www.w3.org/1999/02/22-rdf-syntax-ns#" xmlns:svg="http://www.w3.org/2000/svg" xmlns="http://www.w3.org/2000/svg" xmlns:sodipodi="http://sodipodi.sourceforge.net/DTD/sodipodi-0.dtd" xmlns:inkscape="http://www.inkscape.org/namespaces/inkscape" version="1.1" x="0px" y="0px" viewBox="0 0 100 100"><g transform="translate(0,-952.36218)"><path style="font-size:medium;font-style:normal;font-variant:normal;font-weight:normal;font-stretch:normal;text-indent:0;text-align:start;text-decoration:none;line-height:normal;letter-spacing:normal;word-spacing:normal;text-transform:none;direction:ltr;block-progression:tb;writing-mode:lr-tb;text-anchor:start;baseline-shift:baseline;opacity:1;color:#000000;fill:#000000;fill-opacity:1;stroke:none;stroke-width:4;marker:none;visibility:visible;display:inline;overflow:visible;enable-background:accumulate;font-family:Sans;-inkscape-font-specification:Sans" d="M 10.8125 9 A 2.0002 2.0002 0 0 0 9 11 L 9 89 A 2.0002 2.0002 0 0 0 11 91 L 89 91 A 2.0002 2.0002 0 0 0 91 89 L 91 11 A 2.0002 2.0002 0 0 0 89 9 L 11 9 A 2.0002 2.0002 0 0 0 10.8125 9 z M 13 13 L 87 13 L 87 87 L 13 87 L 13 13 z M 71.9375 31.96875 A 2.0002 2.0002 0 0 0 70.5625 32.59375 L 40.96875 63.125 L 29.40625 51.5625 A 2.0002 2.0002 0 1 0 26.59375 54.40625 L 39.59375 67.40625 A 2.0002 2.0002 0 0 0 42.4375 67.375 L 73.4375 35.375 A 2.0002 2.0002 0 0 0 71.9375 31.96875 z " transform="translate(0,952.36218)"></path></g></svg>