<svg xmlns="http://www.w3.org/2000/svg" xmlns:xlink="http://www.w3.org/1999/xlink" version="1.1" x="0px" y="0px" viewBox="0 0 100 100" style="enable-background:new 0 0 100 100;" xml:space="preserve"><path d="M0,50.047c0,25.986,19.826,47.327,45.175,49.755V72.204c-1.833,0-3.333-1.5-3.333-3.332v-6.341l-18.633,9.097l-5.503-8.21  L50.6,35.471l11.345,17.242l-6.77,3.308v12.852c0,1.832-1.5,3.332-3.334,3.332v27.749C78.594,98.976,100,77.039,100,50.047  c0-27.613-22.386-50-49.999-50C22.387,0.047,0,22.434,0,50.047z M54.604,31.8c0.993-2.752,2.83-5.229,5.465-6.966  c6.453-4.246,15.124-2.453,19.372,4.001c4.245,6.45,2.46,15.117-3.995,19.372c-2.635,1.732-5.634,2.438-8.558,2.256L54.604,31.8z"></path></svg>