<svg xmlns="http://www.w3.org/2000/svg" xmlns:xlink="http://www.w3.org/1999/xlink" version="1.1" x="0px" y="0px" viewBox="0 0 100 100" enable-background="new 0 0 100 100" xml:space="preserve"><g><g><path d="M63.147,66.021c-5.111,0-11.952-0.877-12.335-8.466c-0.229-1.551-0.149-4.877-0.076-6.687    c0.093-2.175,0.192-4.641-0.465-5.388c-1.035-1.17-2.075-3.032-1.605-4.433c0.168-0.505,0.605-1.154,1.72-1.378    c0.32-0.064,0.639-0.098,0.951-0.098c1.761,0,3.168,1.003,4.2,2.987l0.006-8.557c0-1.641,1.336-2.975,2.975-2.975    c0.527,0,1.024,0.136,1.459,0.383c0.163-1.49,1.426-2.654,2.959-2.654c1.54,0,2.812,1.175,2.961,2.676    c0.443-0.26,0.956-0.404,1.491-0.404c1.318,0,2.44,0.861,2.829,2.054c0.483-0.343,1.075-0.542,1.711-0.542    c1.639,0,2.973,1.335,2.973,2.974v21.123c-0.006,0.13-0.625,8.743-10.118,9.354C64.215,66.011,63.674,66.021,63.147,66.021z"></path><g><circle cx="42.874" cy="30.435" r="9.935"></circle><path d="M48.041,58.496c-0.253-1.805-0.168-3.842-0.087-5.814c0.079-1.878,0.198-4.72-0.313-5.297     c-1.25-1.411-2.363-3.494-1.953-5.263H33.84c-8.197,0-8.74,7.729-8.74,7.729V79.5h35.545V68.304     C56.434,68.174,48.52,67.114,48.041,58.496z"></path></g></g></g><g display="none"><circle display="inline" cx="50" cy="22.881" r="6.5"></circle><path display="inline" d="M62,35.584c0,0-1.121-4.584-6.485-4.584H44.091C38.727,31,38,35.584,38,35.584V49h24V35.584z"></path><path display="inline" d="M70.734,51c0.611-1,1.155-2.158-0.053-3.415c-0.912-0.95-1.668-1.083-2.222-1.048   c0.853-0.677,0.904-1.721,0.904-1.721c-1.874,0.068-1.942,2.256-1.942,2.256s-1.526-0.956-2.498,1.125   C64.299,49.538,65.054,51,65.634,51H26v9h3v24h8V60h26v24h8V60h3v-9H70.734z"></path></g></svg>