<svg xmlns="http://www.w3.org/2000/svg" xmlns:xlink="http://www.w3.org/1999/xlink" xml:space="preserve" version="1.1" style="shape-rendering:geometricPrecision;text-rendering:geometricPrecision;image-rendering:optimizeQuality;" viewBox="0 0 10000000 10000000" x="0px" y="0px" fill-rule="evenodd" clip-rule="evenodd"><defs><style type="text/css">
   
    .fil0 {fill:black}
   
  </style></defs><g><path class="fil0" d="M5053410 4855920l61130 -122280 -122270 0 -122310 0 61170 122280 -14090 197030c22670,-10270 47990,-16090 75230,-16090 27260,0 52530,5790 75220,16090l-14080 -197030z"></path><path class="fil0" d="M4258560 6152140l0 -929400c0,-269030 220100,-489100 489130,-489100l94940 379690c-29270,38660 -46010,88030 -46010,138740 0,51750 16900,102870 48890,142720l0 366010 -474160 0 -65210 391340 -47580 0z"></path><path class="fil0" d="M5236820 4733640c269030,0 489130,220510 489130,489100l0 929400 -47580 0 -65180 -391340 -474200 0 0 -365980c32030,-39820 48930,-91060 48930,-142750 0,-50710 -16750,-100080 -46020,-138740l94920 -379690z"></path><path class="fil0" d="M4992270 3510740c270150,0 489130,246330 489130,550230 0,303910 -218980,550300 -489130,550300 -270160,0 -489130,-246390 -489130,-550300 0,-303900 218970,-550230 489130,-550230z"></path><polygon class="fil0" points="4454210,5858640 5530300,5858640 5579210,6152120 4405300,6152120 "></polygon><path class="fil0" d="M4992250 5134690c54040,0 97830,52550 97830,117390 0,43470 -19680,81430 -48910,101700l0 407040 -97830 0 0 -407080c-29230,-20310 -48910,-58190 -48910,-101660 0,-64840 43780,-117390 97820,-117390z"></path><path class="fil0" d="M1715080 5760800l0 -538060c0,-269030 220100,-489100 489130,-489100l85240 340870c-49120,32810 -84460,87810 -95290,149110 -9020,50930 -1220,104240 23380,149070l-68400 388110 -434060 0z"></path><path class="fil0" d="M2525550 5404810c-5980,6700 -12370,13050 -18970,18840l-34120 193560 -16720 94690 -8610 48900 490790 0 0 391340 244550 0 0 -676450c0,-677640 485370,-944490 485370,-1307380l-30 -872470c30,-120780 -98850,-219680 -219690,-219680l0 0c-120850,0 -219660,98940 -219660,219680l40 775190c0,105090 -328010,662610 -535160,662610l-116270 465000c6950,29990 7960,61760 2450,92910 -5330,30080 -16340,58910 -32430,84460l-260 400 -280 410 -530 850 -250 400 -280 410 -530 850 -290 400 -250 410 -530 810 -280 440 -280 380 -530 810 -320 440 -250 370 -560 790 -310 470 -250 340 -570 820 -310 460 -250 320 -560 810 -320 470 -250 310 -590 820 -350 470 -220 310 -590 780 -350 500 -250 290 -590 780 -340 500 -260 280 -590 780 -380 500 -210 260 -600 780 -380 500 -250 280 -590 750 -410 500 -220 250 -620 790 -410 500 -220 250 -620 750 -410 530 -220 220 -630 750 -400 530 -220 220 -1940 2220 -440 540z"></path><path class="fil0" d="M2509930 4855920l61130 -122280 -122270 0 -122310 0 61170 122280 -13430 187760c16120,-1630 32870,-1030 50000,1970 42260,7480 77100,28180 103330,56820l-17620 -246550z"></path><path class="fil0" d="M2448790 3510740c270160,0 489130,246330 489130,550230 0,303910 -218970,550300 -489130,550300 -270160,0 -489130,-246390 -489130,-550300 0,-303900 218970,-550230 489130,-550230z"></path><path class="fil0" d="M2407220 5142010c53210,9390 87220,68750 75950,132570 -7550,42850 -33500,76770 -65820,91680l-69570 394560 -99310 0 72540 -411580c-25240,-25080 -38070,-65820 -30520,-108630 11270,-63860 63510,-108000 116730,-98600z"></path><polygon class="fil0" points="1763990,5858640 2840080,5858640 2840080,6152120 1666170,6152120 "></polygon><path class="fil0" d="M8269430 5760800l0 -538060c0,-269030 -220100,-489100 -489130,-489100l-85210 340870c49080,32810 84420,87810 95250,149110 9020,50930 1230,104240 -23380,149070l68400 388110 434070 0z"></path><path class="fil0" d="M7437450 5376040l0 -30 2130 3320 250 400 280 410 530 810 1100 1630 280 440 280 370 850 1260 250 340 560 820 2290 3190 340 470 250 310 1160 1570 590 780 350 500 250 280 590 780 1570 2040 250 280 630 750 1220 1540 400 500 220 250 630 750 410 530 220 220 620 750c6790,7950 14150,15500 21980,22350l34120 193560 16720 94690 8600 48900 -490750 0 0 391340 -244590 0 0 -929400c0,-268590 220110,-489100 489140,-489100l116260 465000c-6920,29990 -7950,61760 -2440,92910 5320,30080 16400,58980 32460,84490z"></path><path class="fil0" d="M7474580 4855920l-61140 -122280 122310 0 122270 0 -61170 122280 13430 187760c-16120,-1630 -32870,-1030 -49960,1970 -42260,7480 -77130,28180 -103370,56820l17630 -246550z"></path><path class="fil0" d="M7535750 3510740c-270160,0 -489130,246330 -489130,550230 0,303910 218970,550300 489130,550300 270150,0 489130,-246390 489130,-550300 0,-303900 -218980,-550230 -489130,-550230z"></path><path class="fil0" d="M7577290 5142010c-53220,9390 -87220,68750 -75960,132570 7560,42850 33500,76770 65820,91680l69580 394560 99310 0 -72550 -411580c25240,-25080 38080,-65820 30520,-108630 -11270,-63860 -63510,-108000 -116720,-98600z"></path><polygon class="fil0" points="8220510,5858640 7144430,5858640 7144430,6152120 7658010,6152120 8318340,6152120 "></polygon><polygon class="fil0" points="8619570,8304340 9010870,8304340 9010870,8500000 8619570,8500000 "></polygon><polygon class="fil0" points="989130,8304340 1380430,8304340 1380430,8500000 989130,8500000 "></polygon><polygon class="fil0" points="695650,6249960 9304350,6249960 9500000,8206490 500000,8206490 "></polygon></g></svg>