<svg xmlns="http://www.w3.org/2000/svg" xmlns:xlink="http://www.w3.org/1999/xlink" version="1.1" x="0px" y="0px" viewBox="0 0 100 100" style="enable-background:new 0 0 100 100;" xml:space="preserve"><style type="text/css">
	.st0{fill:#010101;}
	.st1{fill:#030303;}
	.st2{fill:#020202;}
	.st3{fill:none;stroke:#FFFFFF;stroke-width:2;stroke-miterlimit:10;}
	.st4{fill:none;}
	.st5{fill:#010101;stroke:#000000;stroke-width:0.5;stroke-linecap:round;stroke-linejoin:round;}
</style><g><g><path class="st2" d="M89,19.2v46.3c0,3.8-3.1,7-7,7h-9.7h-4.9H57.1v7h10.4c0.5,0,0.9,0.4,0.9,0.9v1.4c0,0.5-0.4,0.9-0.9,0.9H29.2    c-0.5,0-0.9-0.4-0.9-0.9v-1.4c0-0.5,0.4-0.9,0.9-0.9h10.4v-7h-9.5h-4.9H14.6c-3.9,0-7-3.1-7-7V19.2c0-3.9,3.1-7,7-7H82    C85.9,12.2,89,15.3,89,19.2z M84.3,65.5V19.2c0-1.3-1.1-2.3-2.3-2.3H14.6c-1.3,0-2.3,1.1-2.3,2.3v46.3c0,1.3,1.1,2.3,2.3,2.3H82    C83.3,67.8,84.3,66.8,84.3,65.5z"></path></g></g><g><path class="st0" d="M48.3,22.5c-11.1,0-20.1,9-20.1,20.1s9,20.1,20.1,20.1c11.1,0,20.1-9,20.1-20.1S59.4,22.5,48.3,22.5z    M43.7,25.9c0.8-0.2,1.6-0.4,2.5-0.5v7.2c-1.9,0.1-3.8,0.2-5.6,0.5C41.4,30.4,42.5,27.9,43.7,25.9z M46.2,35.3v7h-7   c0.1-2.2,0.3-4.3,0.7-6.3C41.9,35.6,44,35.4,46.2,35.3z M46.2,45.1v7c-2.2-0.1-4.3-0.3-6.3-0.7c-0.4-2-0.6-4.1-0.7-6.3H46.2z    M40.6,54.3c1.8,0.3,3.7,0.5,5.6,0.5v5c-1.4-0.2-2.7-0.5-3.9-0.9C41.7,57.5,41.1,55.9,40.6,54.3z M39.8,27.5   c-0.9,1.9-1.6,4-2.2,6.3c-1.8,0.4-3.5,1-5.1,1.7C34,32.1,36.6,29.3,39.8,27.5z M36.5,42.3h-5.5c0-1.1,0.1-2.3,0.4-3.4   c1.7-0.9,3.6-1.7,5.7-2.2C36.7,38.5,36.5,40.4,36.5,42.3z M37,50.7c-1.8-0.5-3.4-1.1-4.9-1.9c-0.5-1.2-0.8-2.4-1-3.8h5.3   C36.5,47,36.7,48.9,37,50.7z M34.1,52.6c1.1,0.4,2.3,0.8,3.5,1.1c0.3,1.2,0.6,2.3,1,3.3C36.9,55.8,35.3,54.3,34.1,52.6z"></path></g></svg>