<svg xmlns="http://www.w3.org/2000/svg" xmlns:xlink="http://www.w3.org/1999/xlink" version="1.1" x="0px" y="0px" viewBox="0 0 100 100" enable-background="new 0 0 100 100" xml:space="preserve"><path d="M61.42,65.354c7.615-1.779,15.253-3.46,22.902-5.091c1.998-0.426,3.109-0.73,1.819-3.245  c-6.461-12.6-12.754-25.286-19.051-37.969c-0.751-1.512-1.234-2.19-2.876-0.799C48.112,31.89,31.965,45.477,15.788,59.029  c-1.382,1.158-1.694,2.117-0.802,3.751c1.606,2.941,3.153,5.938,4.414,9.038c0.887,2.182,2.022,2.535,4.243,2.08  C27.951,73.013,59.944,65.699,61.42,65.354z"></path><path d="M93.845,58.936c-0.211-0.545-0.459-1.362-0.831-2.117c-6.974-14.147-13.952-28.292-20.966-42.419  c-0.567-1.142-1.066-2.946-2.863-2.118c-1.935,0.891-0.618,2.366-0.074,3.475c5.311,10.812,10.671,21.6,16.023,32.392  c1.765,3.559,3.559,7.105,5.314,10.669c0.412,0.837,0.928,1.472,1.932,1.477C93.083,60.3,93.521,59.906,93.845,58.936z"></path><path d="M11.343,62.842c-0.901-0.426-1.482-0.367-1.984,0.117c-0.627,0.605-0.605,1.332-0.274,2.051  c1.662,3.611,3.328,7.22,5.026,10.814c0.501,1.062,1.208,2.083,2.568,1.333c1.325-0.731,0.835-1.885,0.339-2.924  c-1.606-3.364-3.218-6.725-4.851-10.077C11.904,63.616,11.526,63.131,11.343,62.842z"></path><path d="M93.845,58.936c-0.323,0.97-0.762,1.363-1.466,1.36c-1.004-0.005-1.52-0.64-1.932-1.477  c-1.755-3.565-3.549-7.11-5.314-10.669C79.782,37.358,74.422,26.57,69.11,15.758c-0.545-1.109-1.862-2.584,0.074-3.475  c1.797-0.827,2.296,0.976,2.863,2.118c7.014,14.127,13.993,28.272,20.966,42.419C93.385,57.575,93.633,58.391,93.845,58.936z"></path><path d="M11.343,62.842c0.184,0.289,0.561,0.774,0.824,1.315c1.632,3.351,3.245,6.712,4.851,10.077  c0.496,1.038,0.986,2.193-0.339,2.924c-1.36,0.75-2.067-0.272-2.568-1.333c-1.698-3.594-3.364-7.203-5.026-10.814  c-0.331-0.719-0.353-1.446,0.274-2.051C9.861,62.474,10.442,62.415,11.343,62.842z"></path><g><path d="M48.404,77.392c-3.688-1.296-7.015-4.2-8.792-9.157l3.766-1.35c2.375,6.629,8.041,7.958,12.172,7.079   c4.31-0.915,8.457-4.524,8.01-10.522l3.988-0.298c0.624,8.36-5.351,13.498-11.167,14.733   C53.823,78.422,51.022,78.312,48.404,77.392z"></path></g></svg>