<svg xmlns="http://www.w3.org/2000/svg" xmlns:xlink="http://www.w3.org/1999/xlink" version="1.1" x="0px" y="0px" viewBox="0 0 100 100" enable-background="new 0 0 100 100" xml:space="preserve"><g display="none"><rect x="-192" display="inline" width="185" height="99"></rect><rect y="-36" display="inline" width="100" height="30"></rect><text transform="matrix(1 0 0 1 66 -19.5)" display="inline" fill="#000000" font-family="'Helvetica'" font-size="2.4">http://thenounproject.com</text><text transform="matrix(1 0 0 1 7.166 -24.5)" display="inline"><tspan x="0" y="0" fill="#000000" font-family="'Helvetica-Bold'" font-size="6.1578">The Noun Project</tspan><tspan x="1.12" y="4.8" fill="#000000" font-family="'Helvetica-Bold'" font-size="4">Icon Template</tspan></text><text transform="matrix(1 0 0 1 -178.5 10.5)" display="inline" fill="#000000" font-family="'Helvetica-Bold'" font-size="6.1578">Reminders</text><line display="inline" fill="#000000" stroke="#FFFFFF" stroke-miterlimit="10" x1="8" y1="-14.5" x2="18" y2="-14.5"></line><line display="inline" fill="#000000" stroke="#FFFFFF" stroke-miterlimit="10" x1="-179" y1="16.5" x2="-162" y2="16.5"></line><g display="inline"><g><g><rect x="-170.802" y="31.318" fill="#000000" width="8.721" height="8.642"></rect><path fill="#000000" d="M-164.455,42.312h4.747v-4.703h-4.747V42.312z M-159.266,42.749h-5.63V37.17h5.63V42.749      L-159.266,42.749z M-166.221,44.062h8.279v-8.203h-8.279V44.062L-166.221,44.062z M-157.5,44.5h-9.163v-9.079h9.163V44.5      L-157.5,44.5z"></path><polygon fill="#000000" points="-166.149,44.133 -166.292,43.991 -158.013,35.787 -157.871,35.929     "></polygon></g></g></g><rect x="-179" y="58" display="inline" fill="none" width="35" height="32.5"></rect><text transform="matrix(1 0 0 1 -179 60.1572)" display="inline"><tspan x="0" y="0" fill="#000000" font-family="'Helvetica-Bold'" font-size="3">Strokes</tspan><tspan x="0" y="5" fill="#000000" font-family="'Helvetica'" font-size="2.4">Try to keep strokes at 4px</tspan><tspan x="0" y="10" fill="#000000" font-family="'Helvetica'" font-size="2.4">Minimum stroke weight is 2px</tspan><tspan x="0" y="14.5" fill="#000000" font-family="'Helvetica'" font-size="2.4">For thicker strokes use even </tspan><tspan x="0" y="17.5" fill="#000000" font-family="'Helvetica'" font-size="2.4">numbers: 6px, 8px etc.</tspan><tspan x="0" y="22" fill="#000000" font-family="'Helvetica-Bold'" font-size="2.4">Remember to expand strokes </tspan><tspan x="0" y="25" fill="#000000" font-family="'Helvetica-Bold'" font-size="2.4">before saving as an SVG </tspan></text><rect x="-136.5" y="58" display="inline" fill="none" width="35" height="32.5"></rect><text transform="matrix(1 0 0 1 -136.5 60.1572)" display="inline"><tspan x="0" y="0" fill="#000000" font-family="'Helvetica-Bold'" font-size="3">Size</tspan><tspan x="0" y="5" fill="#000000" font-family="'Helvetica'" font-size="2.4">Cannot be wider or taller than </tspan><tspan x="0" y="8.5" fill="#000000" font-family="'Helvetica'" font-size="2.4">100px (artboard size)</tspan><tspan x="0" y="13.5" fill="#000000" font-family="'Helvetica'" font-size="2.4">Scale your icon to fill as much of </tspan><tspan x="0" y="16.5" fill="#000000" font-family="'Helvetica'" font-size="2.4">the artboard as possible</tspan></text><rect x="-94" y="58" display="inline" fill="none" width="35" height="32.5"></rect><text transform="matrix(1 0 0 1 -94 60.1572)" display="inline"><tspan x="0" y="0" fill="#000000" font-family="'Helvetica-Bold'" font-size="3">Ungroup</tspan><tspan x="0" y="5" fill="#000000" font-family="'Helvetica'" font-size="2.4">If your design has more than one </tspan><tspan x="0" y="8" fill="#000000" font-family="'Helvetica'" font-size="2.4">shape, make sure to ungroup</tspan></text><rect x="-50" y="58" display="inline" fill="none" width="35" height="32.5"></rect><text transform="matrix(1 0 0 1 -50 60.1572)" display="inline"><tspan x="0" y="0" fill="#000000" font-family="'Helvetica-Bold'" font-size="3">Save as</tspan><tspan x="0" y="5" fill="#000000" font-family="'Helvetica'" font-size="2.4">Save as .SVG and make sure </tspan><tspan x="0" y="8" fill="#000000" font-family="'Helvetica'" font-size="2.4">“Use Artboards” is checked</tspan></text><text transform="matrix(1.0074 0 0 1 -125.542 30.5933)" display="inline" fill="#000000" font-family="'Helvetica'" font-size="2.5731">100px</text><text transform="matrix(1.0074 0 0 1 -41 39)" display="inline" fill="#000000" font-family="'Helvetica-Bold'" font-size="5.1462">.SVG</text><rect x="-126.514" y="34.815" display="inline" fill="#000000" width="10.261" height="10.185"></rect><rect x="-126.477" y="31.766" display="inline" fill="#000000" width="0.522" height="2.337"></rect><rect x="-116.812" y="31.766" display="inline" fill="#000000" width="0.523" height="2.337"></rect><rect x="-127" y="32.337" display="inline" fill="#000000" width="11.233" height="0.572"></rect><g display="inline"><rect x="-83.805" y="33.844" fill="#000000" width="10.305" height="10.156"></rect><rect x="-76.809" y="28.707" fill="#000000" width="3.308" height="3.261"></rect></g><rect x="-178.5" y="22.5" display="inline" fill="#000000" stroke="#FFFFFF" stroke-miterlimit="10" width="30" height="30"></rect><rect x="-136.5" y="22.5" display="inline" fill="#000000" stroke="#FFFFFF" stroke-miterlimit="10" width="30" height="30"></rect><rect x="-93.5" y="22.5" display="inline" fill="#000000" stroke="#FFFFFF" stroke-miterlimit="10" width="30" height="30"></rect><rect x="-49.5" y="22.5" display="inline" fill="#000000" stroke="#FFFFFF" stroke-miterlimit="10" width="30" height="30"></rect></g><g><g><g><path fill="#000000" d="M11.84,56.975v2.071h3.563v-2.071c0-4.286,3.488-7.775,7.775-7.775c4.289,0,7.776,3.489,7.776,7.775     v2.071h3.562v-2.071c0-6.25-5.087-11.336-11.339-11.336C16.926,45.639,11.84,50.724,11.84,56.975z"></path><path fill="#000000" d="M38.97,64.686c0,1.116-0.903,2.021-2.019,2.021H9.406c-1.116,0-2.021-0.904-2.021-2.021v-2.373     c0-1.115,0.904-2.02,2.021-2.02h27.545c1.117,0,2.019,0.904,2.019,2.02V64.686z"></path><path fill="#000000" d="M39,70.15c0-1.116-0.933-2.15-2.049-2.15H9.406C8.29,68,7,69.034,7,70.15v2.372     c0,0.011,0.003,0.02,0.003,0.03C7.003,72.575,7,72.597,7,72.619v5.272C7,80.369,8.29,82,9.406,82h27.545     C38.066,82,39,80.369,39,77.892v-5.272c0-0.022-0.003-0.044-0.003-0.066c0-0.011,0.003-0.02,0.003-0.03V70.15z"></path><path fill="#000000" d="M24.039,66.773c0.745,0,1.349,0.217,1.349,0.484v6.604c0,0.269-0.605,0.484-1.349,0.484h-1.586     c-0.744,0-1.348-0.216-1.348-0.484v-6.604c0-0.268,0.604-0.484,1.348-0.484H24.039z"></path><path fill="#000000" d="M24.831,65.235c1.557,0,2.814,0.151,2.814,0.34v4.644c0,0.188-1.261,0.342-2.814,0.342h-3.307     c-1.553,0-2.814-0.153-2.814-0.342v-4.644c0-0.188,1.261-0.341,2.814-0.341L24.831,65.235L24.831,65.235z"></path></g></g><g><path fill="#000000" d="M90.715,69.052c-1.84-3.757-4.689-6.042-11.677-6.042H78.31h-0.709c-2.541,0-3.975,0.19-6.135,0.872    c-3.741,1.178-17.603,17.839-17.603,17.839c-0.847,0.845-0.847,2.217,0,3.065c0.424,0.423,0.976,0.633,1.527,0.633    c0.557,0,1.11-0.21,1.535-0.633l13.19-12.168c0.022,0.315,0.264,12.931,0.264,12.931h15.865l0.342-11.021l1.069,11.021h5.135    C92.137,78.677,91.256,70.154,90.715,69.052z M74.914,85.448h-3.607l11.977-21.423c1.191,0.242,2.177,0.603,3.02,1.054    L74.914,85.448z"></path><path fill="#000000" d="M85.807,53.76c0,4.143-3.354,7.496-7.491,7.496H78.31c-0.007,0-0.007,0-0.011,0    c-4.132,0-7.489-3.352-7.489-7.496c0-0.801,0.159-1.565,0.39-2.286h7.108h7.107C85.652,52.194,85.807,52.958,85.807,53.76z"></path><polygon fill="#000000" points="86.036,44.46 85.415,50.316 78.31,50.316 71.2,50.316 66.882,42.797 70.81,44.576   "></polygon><path fill="#000000" d="M59.561,88.067c-0.327,0.154-0.713,0.013-0.868-0.312L48.241,65.524c-0.154-0.327-0.015-0.715,0.312-0.868    l0.05-0.022c0.326-0.153,0.713-0.014,0.868,0.311l10.453,22.231c0.153,0.327,0.014,0.714-0.312,0.868L59.561,88.067z"></path></g><g><path fill="#000000" d="M67.461,24.786l-1.137,2.372c-0.203,0.418-0.707,0.597-1.126,0.396l-12.054-5.753    c-0.186,0.148-0.387,0.273-0.606,0.375l0,0v9.425c0,0.721-0.588,1.309-1.308,1.309l0,0c-0.721,0-1.308-0.588-1.308-1.309v-3.388    L35.262,33.22v2.177h-3.221V21.969h3.221v8.72l14.661-5.056v-3.458c-1-0.464-1.691-1.447-1.691-2.582    c0-0.046,0.002-0.091,0.003-0.134l-9.75-4.654c-0.42-0.2-0.598-0.707-0.397-1.125l4.549-9.495    c0.202-0.418,0.707-0.596,1.126-0.397l26.574,12.685l0.004,0.001c0.124,0.056,4.106,1.833,4.074,2.117    c-0.032,0.286-1.208,0.709-2.475-0.043c-0.957-0.479-1.368-0.137-1.368-0.137L67.461,24.786z"></path><circle fill="#000000" cx="52.039" cy="17.755" r="2.041"></circle><circle fill="#000000" cx="52.039" cy="17.755" r="1.403"></circle></g><path fill="#000000" d="M6.048,53.842c-0.829,0-1.5-0.672-1.5-1.5c0-17.887,10.549-34.174,26.876-41.494   c0.755-0.34,1.643-0.001,1.982,0.755c0.339,0.756,0.001,1.644-0.755,1.982C17.401,20.422,7.548,35.635,7.548,52.342   C7.548,53.17,6.876,53.842,6.048,53.842z"></path><path fill="#000000" d="M50.006,97.794c-0.004,0.001-0.007,0.001-0.01,0c-10.942,0-21.513-3.944-29.767-11.105   c-0.626-0.543-0.693-1.49-0.15-2.116c0.543-0.625,1.492-0.691,2.116-0.149c7.708,6.688,17.582,10.371,27.801,10.371   c0.004,0.001,0.005,0.001,0.009,0c7.134,0,14.187-1.804,20.397-5.215c0.727-0.4,1.639-0.135,2.037,0.592   c0.399,0.727,0.134,1.639-0.592,2.037C65.196,95.862,57.643,97.794,50.006,97.794z"></path><path fill="#000000" d="M92.522,64.999c-0.126,0-0.254-0.016-0.382-0.049c-0.801-0.211-1.28-1.03-1.07-1.832   c0.917-3.494,1.382-7.12,1.382-10.776c0-11.944-5.074-23.401-13.921-31.433c-0.614-0.557-0.659-1.506-0.103-2.119   c0.557-0.614,1.505-0.659,2.118-0.103c9.473,8.599,14.905,20.866,14.905,33.654c0,3.913-0.498,7.795-1.479,11.538   C93.796,64.554,93.188,64.999,92.522,64.999z"></path><path fill="#000000" d="M70.553,21.39c0.223,0.105,0.319,0.368,0.214,0.59l-2.571,5.471c-0.104,0.221-0.368,0.316-0.59,0.212   l-0.471-0.221c-0.223-0.105-0.316-0.369-0.213-0.59l2.571-5.471c0.104-0.222,0.367-0.316,0.59-0.212L70.553,21.39z"></path></g></svg>