<svg xmlns="http://www.w3.org/2000/svg" xmlns:xlink="http://www.w3.org/1999/xlink" version="1.1" x="0px" y="0px" viewBox="0 0 100 100" enable-background="new 0 0 100 100" xml:space="preserve"><g><path d="M86.812,55.433c-0.073-0.011-0.143-0.015-0.21-0.017v-3.293h-0.817v3.568c-0.24,0.211-0.413,0.538-0.511,0.975   c-0.563,2.525-2.106,4.123-4.572,4.777c0.475-0.503,0.774-1.246,0.774-2.078c0-1.518-0.998-2.749-2.229-2.749   c-1.231,0-2.229,1.231-2.229,2.749c0,1.178,0.601,2.178,1.443,2.57c-0.527,0.1-1.056,0.192-1.585,0.281   c-1.27,0.211-2.352-0.24-3.181-0.919c0.528-1.179,1.071-2.231,1.474-3.335c0.315-0.867-0.076-1.572-0.816-1.783   c-0.777-0.223-1.381,0.21-1.698,1.125c-0.22,0.636-0.527,1.242-0.859,2.007c-0.339-0.507-0.556-0.831-0.772-1.155   c-0.494-0.738-1.174-0.941-1.834-0.551c-0.674,0.396-0.828,1.156-0.372,1.93c0.284,0.48,0.599,0.943,0.912,1.436   c-1.094,0.623-2.241,0.771-3.391,0.85c0.882-0.366,1.519-1.393,1.519-2.604c0-1.519-0.998-2.749-2.229-2.749   c-1.23,0-2.229,1.23-2.229,2.749c0,1.299,0.731,2.386,1.715,2.672c-1.717,0.533-3.212,0.167-4.386-0.972   c0.49-0.94,0.992-1.781,1.373-2.673c0.335-0.785-0.01-1.508-0.707-1.771c-0.714-0.269-1.361,0.062-1.715,0.856   c-0.195,0.436-0.418,0.857-0.693,1.421c-0.258-0.476-0.43-0.796-0.605-1.116c-0.447-0.812-1.126-1.085-1.836-0.736   c-0.698,0.343-0.903,1.09-0.492,1.912c0.284,0.569,0.608,1.118,0.983,1.801c-0.688,0.223-1.301,0.554-1.935,0.602   c-0.604,0.045-1.207,0.077-1.812,0.105c0.816-0.409,1.393-1.395,1.393-2.548c0-1.518-0.997-2.748-2.229-2.748   s-2.229,1.23-2.229,2.748c0,1.204,0.629,2.226,1.503,2.597c-0.578,0.012-1.156,0.016-1.733,0.008   c-0.944-0.012-1.727-0.538-2.316-1.157c0.854-1.086,1.478-2.241,1.646-3.59c0.079-0.635-0.452-1.218-1.083-1.3   c-0.675-0.089-1.158,0.215-1.413,0.834c-0.238,0.578-0.434,1.172-0.716,1.947c-0.31-0.68-0.535-1.168-0.754-1.659   c-0.101-0.225-0.222-0.412-0.358-0.562v-3.989h-0.817v3.577c-0.188-0.01-0.386,0.023-0.59,0.109   c-0.72,0.303-0.985,1.033-0.632,1.863c0.355,0.838,0.754,1.658,1.193,2.617c-0.7,0.248-1.37,0.58-2.078,0.714   c-0.439,0.084-0.883,0.145-1.329,0.196c0.822-0.404,1.404-1.395,1.404-2.553c0-1.518-0.998-2.748-2.229-2.748   c-1.231,0-2.229,1.23-2.229,2.748c0,1.321,0.756,2.425,1.764,2.688c-0.229,0.022-0.459,0.048-0.688,0.073l0.011,0.001   c-1.765,0.396-3.208-0.159-4.265-1.327c0.463-1.104,0.945-2.094,1.292-3.132c0.172-0.515,0.04-0.986-0.275-1.304l10.923-23.826   c0.195-0.429,0.431-0.567,0.897-0.538c4.111,0.26,7.441,2.013,9.805,5.369c2.99,4.248,7.131,5.811,12.139,5.593   c0.47-0.021,0.736-0.192,0.952-0.641c2.169-4.525,4.366-9.038,6.554-13.555c0.092-0.189,0.157-0.392,0.248-0.621   c-0.523,0-0.966,0.001-1.409,0c-4.734-0.015-8.585-1.705-11.355-5.71c-1.826-2.642-4.399-4.336-7.573-4.963   c-1.366-0.27-2.778-0.301-4.166-0.44c-3.422,7.458-13.465,29.357-17.857,38.942c-0.62-0.061-1.148,0.33-1.385,1.036   c-0.147,0.437-0.311,0.867-0.502,1.397c-0.16-0.275-0.262-0.441-0.356-0.611c-0.266-0.479-0.626-0.778-1.017-0.875v-3.685h-0.817   v3.78c-0.02,0.009-0.039,0.017-0.058,0.027c-0.657,0.353-0.836,1.121-0.43,1.936c0.249,0.5,0.526,0.986,0.867,1.621   c-0.891,0.314-1.678,0.691-2.508,0.863c-0.227,0.047-0.456,0.084-0.687,0.116c0.522-0.503,0.859-1.284,0.859-2.166   c0-1.518-0.998-2.748-2.229-2.748s-2.229,1.23-2.229,2.748c0,1.038,0.467,1.941,1.156,2.409c-1.894,0.484-3.411-0.215-4.6-1.668   c-0.684-0.835-1.217-1.797-1.786-2.721c-0.333-0.541-0.795-0.841-1.282-0.83v-4.111h-0.817v4.436c-0.449,0.39-0.558,1.04-0.22,1.71   c0.311,0.617,0.656,1.222,1.036,1.799c1.181,1.798,2.629,3.284,4.779,3.9c0.304,0.087,0.612,0.159,0.913,0.238   c0.015,0.205,0.034,0.353,0.034,0.499c0.013,3.985,0.025,7.972,0.035,11.957c0.003,1.139-0.073,2.284,0.038,3.413   c0.042,0.429,0.427,0.99,0.807,1.17c0.345,0.163,1.01,0.026,1.324-0.232c0.298-0.245,0.442-0.819,0.45-1.253   c0.04-2.228,0.013-4.456,0.013-6.684c0-0.263,0.026-0.524,0.039-0.785c0.414,0,0.748,0,1.16,0c0,1.382,0,2.713,0,4.044   c-0.001,1.238-0.021,2.477,0.002,3.715c0.015,0.795,0.567,1.343,1.288,1.356c0.719,0.014,1.27-0.532,1.324-1.32   c0.015-0.223,0.006-0.446,0.006-0.668c-0.002-5.077-0.006-10.151-0.008-15.227c0-0.238,0-0.479,0-0.625   c0.846-0.428,1.589-0.816,2.347-1.176c0.142-0.066,0.411-0.09,0.501-0.005c1.164,1.095,2.509,1.829,4.125,2.083   c0,0.355,0,0.65,0,0.946c0.004,5.075,0.006,10.151,0.012,15.227c0.001,1.107,0.458,1.693,1.314,1.706   c0.864,0.014,1.33-0.567,1.333-1.67c0.003-1.114,0.001-2.229,0.001-3.342c0-1.157,0-2.315,0-3.479c0.437,0,0.791,0,1.194,0   c0,0.222,0,0.392,0,0.562c-0.001,2.03-0.008,4.06,0.001,6.09c0.004,0.854,0.518,1.422,1.27,1.451   c0.772,0.031,1.333-0.552,1.373-1.431c0.007-0.148,0.003-0.297,0.003-0.446c-0.001-5.075,0.018-10.151-0.026-15.226   c-0.006-0.799,0.109-1.301,0.969-1.477c0.35-0.072,0.687-0.287,0.99-0.494c0.346-0.238,0.562-0.159,0.904,0.067   c0.775,0.514,1.593,0.979,2.442,1.358c0.403,0.181,0.51,0.334,0.453,0.752c-0.68,5.021-0.579,10.073-0.563,15.121   c0.003,0.99,0.489,1.559,1.292,1.568c0.828,0.009,1.32-0.58,1.328-1.608c0.008-1.04,0.002-2.079,0.002-3.119   c0-1.381,0-2.763,0-4.238c0.471,0.053,0.867,0.097,1.295,0.146c0,0.361,0,0.631,0,0.901c0.002,2.253-0.008,4.506,0.008,6.759   c0.006,0.803,0.539,1.336,1.276,1.355c0.729,0.019,1.278-0.502,1.351-1.295c0.016-0.172-0.002-0.347,0.001-0.521   c0.062-3.81,0.094-7.619,0.2-11.429c0.042-1.448,0.252-2.892,0.377-4.233c1.088-0.437,2.066-0.829,3.098-1.24   c1.102,1.081,2.455,1.799,4.075,2.044c0,0.302,0,0.547,0,0.792c0.003,2.995,0.007,5.99,0.009,8.986   c0.001,2.006-0.011,4.011,0.004,6.016c0.007,0.868,0.518,1.393,1.299,1.404c0.764,0.011,1.288-0.525,1.34-1.378   c0.01-0.174,0.002-0.347,0.002-0.521c0-2.129,0-4.259-0.002-6.388c0-0.262,0-0.523,0-0.78c0.452,0,0.789,0,1.201,0   c0,0.312,0,0.578,0,0.844c-0.003,2.278-0.016,4.556-0.003,6.834c0.005,0.936,0.665,1.508,1.526,1.375   c0.716-0.109,1.077-0.641,1.077-1.611c0.001-5.15-0.002-10.3-0.005-15.449c0-0.271,0-0.539,0-0.768   c0.707-0.335,1.345-0.658,2.004-0.931c0.158-0.066,0.408-0.006,0.579,0.074c0.22,0.102,0.385,0.324,0.605,0.422   c1.157,0.509,2.326,0.994,3.692,1.572c0.148,2.817,0.349,5.877,0.456,8.94c0.071,2.002-0.001,4.01,0.013,6.015   c0.006,0.816,0.523,1.344,1.264,1.358c0.736,0.016,1.276-0.507,1.334-1.303c0.018-0.247,0.009-0.495,0.008-0.742   c-0.001-1.981-0.008-3.962-0.007-5.942c0-0.262,0.025-0.523,0.042-0.82c0.421,0,0.755,0,1.165,0c0,0.453,0,0.869,0,1.285   c-0.002,2.055-0.022,4.109,0.006,6.164c0.011,0.857,0.584,1.379,1.353,1.357c0.706-0.021,1.266-0.543,1.253-1.298   c-0.068-4.106-0.146-8.212-0.264-12.316c-0.041-1.424-0.205-2.845-0.312-4.249c0.392-0.195,0.732-0.346,1.053-0.529   c2.356-1.341,3.793-3.35,4.297-6.01C88,56.194,87.579,55.548,86.812,55.433z"></path><rect x="11.875" y="33.687" width="11.812" height="17.458"></rect><rect x="27.42" y="40.67" width="7.874" height="11.195"></rect><path d="M70.882,42.341c-0.238,0.497-0.533,0.687-1.055,0.709c-4.617,0.202-8.568-0.965-11.674-4.071H43.503v12.5h43.533v-12.5   H72.499C71.959,40.099,71.42,41.219,70.882,42.341z"></path></g></svg>