<svg xmlns="http://www.w3.org/2000/svg" xmlns:xlink="http://www.w3.org/1999/xlink" version="1.1" x="0px" y="0px" viewBox="0 0 48 48" enable-background="new 0 0 48 48" xml:space="preserve"><g><g><ellipse fill="none" stroke="#000000" stroke-width="2" stroke-miterlimit="10" cx="24" cy="18.1" rx="16.4" ry="16.5"></ellipse><ellipse fill="none" stroke="#000000" stroke-width="2" stroke-miterlimit="10" cx="24" cy="18.1" rx="9.1" ry="16.5"></ellipse><line fill="none" stroke="#000000" stroke-width="2" stroke-miterlimit="10" x1="24" y1="1" x2="24" y2="35.2"></line><line fill="none" stroke="#000000" stroke-width="2" stroke-miterlimit="10" x1="38.3" y1="26.5" x2="9.7" y2="26.5"></line><line fill="none" stroke="#000000" stroke-width="2" stroke-miterlimit="10" x1="41" y1="18.1" x2="7" y2="18.1"></line><line fill="none" stroke="#000000" stroke-width="2" stroke-miterlimit="10" x1="38.3" y1="9.7" x2="9.7" y2="9.7"></line></g><g><path fill="none" stroke="#000000" stroke-width="2" stroke-miterlimit="10" d="M39.4,11.3h5.3c1.3,0,2.3,1,2.3,2.3v25.8    c0,1.3-1,2.3-2.3,2.3H3.3c-1.3,0-2.3-1-2.3-2.3V13.6c0-1.3,1-2.3,2.3-2.3h5.2"></path><line fill="none" stroke="#000000" stroke-width="2" stroke-miterlimit="10" x1="24" y1="41.7" x2="24" y2="47"></line><line fill="none" stroke="#000000" stroke-width="2" stroke-miterlimit="10" x1="11.1" y1="47" x2="36.9" y2="47"></line></g></g></svg>