<svg xmlns="http://www.w3.org/2000/svg" xmlns:xlink="http://www.w3.org/1999/xlink" version="1.1" x="0px" y="0px" viewBox="326.5 -0.5 100 100" enable-background="new 326.5 -0.5 100 100" xml:space="preserve"><path fill="#000000" d="M408.444-0.5c-1.534,0-2.777,1.244-2.777,2.778v18.056c0,1.534,1.243,2.778,2.777,2.778H426.5V-0.5H408.444z  "></path><rect x="329.277" y="85.611" fill="#000000" width="94.445" height="13.889"></rect><path fill="#000000" d="M395.944,28.667h-1.611l-14.791,10.566c-1.827,1.354-3.436,2.01-4.916,2.01c-1.872,0-3.428-1.058-4.162-2.83  c-1.003-2.423-0.328-6.224,1.411-8.061c0.171-0.197,0.716-0.82,1.477-1.686h-6.574h-3.854h-5.867V62h38.889V28.667z"></path><polygon fill="#000000" points="415.389,49.501 398.723,49.501 398.723,57.835 403.592,57.835 405.667,64.777 376.5,64.777   376.5,64.777 347.333,64.777 349.407,57.835 354.277,57.835 354.277,49.501 337.611,49.501 326.5,74.5 326.5,74.5 326.5,82.833   426.5,82.833 426.5,74.5 426.5,74.5 "></polygon><path fill="#000000" d="M402.889,2.278H389l-13.889,8.333c-2.535,1.64-4.167,2.777-5.556,6.944  c-0.694,2.083-2.778,8.333-2.778,8.333h7.812l1.91-5.555c1.389-2.778,11.052-2.718,6.944,1.389l-9.804,10.864  c-1.145,1.145-2.059,9.104,4.248,4.414l19.444-13.889l1.39-4.167l4.166-4.167V2.278z"></path></svg>