<?xml version="1.0" encoding="utf-8"?><!DOCTYPE svg PUBLIC "-//W3C//DTD SVG 1.0//EN" "http://www.w3.org/TR/2001/REC-SVG-20010904/DTD/svg10.dtd"><svg version="1.0" xmlns="http://www.w3.org/2000/svg" xmlns:xlink="http://www.w3.org/1999/xlink" x="0px" y="0px" viewBox="0 0 84.06 100" enable-background="new 0 0 84.06 100" xml:space="preserve"><path fill-rule="evenodd" clip-rule="evenodd" d="M72.739,36.176v10.667c0,5.225-1.218,10.38-3.419,15.113
	c-0.733,1.578-1.581,3.111-2.559,4.551c-1.809,2.66-3.789,5.22-5.136,8.157c-1.354,2.959-2.126,6.182-2.126,9.441v8.22H46.267v-8.22
	c0-3.586,0.516-7.175,1.517-10.62c0.909-3.117,2.202-6.185,4.041-8.871c0.911-1.329,1.96-2.564,2.976-3.804
	c0.908-1.105,1.765-2.22,2.386-3.509c1.601-3.291,2.159-6.956,2.184-10.589l0.073-10.537l-7.68,2.521
	c-0.247,0.102-0.46,0.171-0.727,0.19c-0.958,0.077-1.915-0.405-2.436-1.212c-0.443-0.703-0.542-1.609-0.28-2.39
	c0.137-0.409,0.359-0.621,0.594-0.961L65.988,9.7l17.344,24.692c0.436,0.621,0.692,0.839,0.724,1.572
	c0.051,1.043-0.29,1.913-1.182,2.512c-0.567,0.382-1.243,0.484-1.906,0.382c-0.191-0.031-0.301-0.098-0.48-0.159L72.739,36.176"></path><path fill-rule="evenodd" clip-rule="evenodd" d="M26.413,73.514l7.747-2.506c0.338-0.122,0.512-0.202,0.863-0.202
	c0.987,0,1.744,0.32,2.319,1.146c0.513,0.732,0.596,1.71,0.273,2.535c-0.141,0.362-0.323,0.52-0.538,0.82L19.663,100L2.645,75.374
	c-0.164-0.24-0.544-0.701-0.655-1.057c-0.083-0.259-0.135-0.533-0.14-0.804c-0.007-1.11,0.716-2.047,1.698-2.488
	c0.424-0.195,0.841-0.259,1.29-0.177c0.208,0.037,0.41,0.05,0.596,0.159l7.74,2.506l-0.06-10.526
	c-0.012-2.465-0.287-4.931-0.975-7.298c-0.537-1.86-1.313-3.701-2.494-5.252c-1.045-1.376-2.177-2.692-3.239-4.057
	c-0.899-1.162-1.691-2.413-2.359-3.714C1.351,37.433,0,31.523,0,25.653v-8.27h13.24v8.27c0,4.543,1.485,9.066,4.016,12.827
	c0.99,1.469,2.03,2.906,3.022,4.373c1.061,1.57,1.992,3.23,2.779,4.952c2.187,4.742,3.356,9.9,3.356,15.12V73.514"></path><path fill-rule="evenodd" clip-rule="evenodd" d="M48.682,0c-0.06,2.531-0.123,5.063-0.292,7.59
	c-0.357,5.367-1.198,10.694-2.526,15.903c-1.08,4.227-2.198,8.518-4.058,12.483c-0.181,0.39-0.399,0.767-0.638,1.124
	c-1.011,1.489-2.374,2.418-4.142,2.787c-1.726,0.358-3.543-0.116-4.973-1.128c-1.006-0.714-1.722-1.78-2.192-2.913
	c-1.458-3.537-2.538-7.226-3.469-10.932c-1.444-5.732-2.594-11.534-3.039-17.436C23.167,4.989,23.112,2.494,23.05,0H48.682"></path></svg>