<svg xmlns="http://www.w3.org/2000/svg" xmlns:xlink="http://www.w3.org/1999/xlink" version="1.1" x="0px" y="0px" viewBox="0 0 100 100" enable-background="new 0 0 100 100" xml:space="preserve"><g><path d="M97.1,54.4H90c-0.2,0-0.3-0.1-0.4-0.2c-0.2-0.3-0.4-0.6-0.6-1c-1.6-2.4-3.6-4.4-5.9-6l-0.5-0.4c-0.3-0.2-0.7-0.4-1-0.7   V32.6c0-0.7-0.8-1.2-1.4-0.8c-2.5,1.6-7.6,5-10.1,8.5c-2.6-0.9-5.3-1.6-8.1-2L46.1,7.5L26.2,17.7l11.6,22.5   c-7.3,2.5-13.2,6.5-16.8,11.4c-1.9,2.6-3.1,5.8-3.5,9c-0.9,0.1-1.9,0-2.9-0.3c-0.3-0.1-0.6-0.2-0.9-0.3c1.5-0.8,2.7-2.2,3.1-3.6   c0.4-1.2,0.3-2.6-0.2-3.7c-0.6-1.2-1.6-2.1-2.8-2.5c-2.5-0.9-5.4,0.5-6.2,3c-0.5,1.5-0.4,3.4,0.3,4.9c-1.4-0.5-2.7-1.5-3.5-2.9   c-0.3-0.6-1.1-0.9-1.8-0.5c-0.6,0.3-0.9,1.1-0.5,1.8C3.7,59.3,6.7,61,9.8,61c0.1,0,0.3,0,0.4,0c1.1,0.8,2.3,1.5,3.7,1.9   c1,0.3,1.9,0.4,2.9,0.4c0.2,0,0.3,0,0.5,0c0,0.2,0,0.4,0,0.6c0,0.8,0.1,2.1,0.3,2.9c1.2,5.5,5,10.3,10.6,14   c0.2,0.1,0.3,0.4,0.2,0.6l-4.9,9.2c-0.4,0.8,0.4,1.7,1.2,1.3l6.9-3.4l3.9,3.8c0.4,0.4,1.2,0.3,1.7-0.6l2.8-5.2   c0.1-0.2,0.3-0.3,0.5-0.2c4.3,1.2,9.1,1.8,14,1.8c5.4,0,10.5-0.8,15.1-2.1c0.2-0.1,0.5,0,0.6,0.3l2.4,5.6c0.3,0.6,1.1,0.8,1.5,0.3   l3.6-3.7l7,3.5c0.8,0.4,1.6-0.4,1.3-1.2l-4.3-10.1c-0.1-0.2,0-0.4,0.2-0.6c3.4-2.5,6.1-5.4,7.8-8.6c0.1-0.1,0.2-0.2,0.4-0.2h7.1   c0.5,0,0.9-0.4,0.9-0.9v-15C98,54.8,97.6,54.4,97.1,54.4z M11.1,58c-0.2-0.1-0.4-0.2-0.5-0.4c0-0.1-0.1-0.1-0.1-0.2   c-0.5-0.8-0.7-2.3-0.4-3.4c0.3-0.9,1.2-1.5,2.2-1.5c0.3,0,0.5,0,0.7,0.1c0.6,0.2,1,0.6,1.3,1.2c0.3,0.6,0.3,1.2,0.1,1.8   C13.9,57,12.1,58.4,11.1,58z M65.7,42.4c0.6,0.1,1,0.8,0.9,1.4c-0.1,0.6-0.8,1-1.4,0.9L63.9,42C64.5,42.1,65.1,42.2,65.7,42.4z    M40.4,45.6c-0.1,0-0.2,0.1-0.4,0.1c-0.5,0-1-0.3-1.1-0.8c-0.2-0.5,0.1-1.1,0.5-1.4l1.1,2.1C40.5,45.6,40.4,45.6,40.4,45.6z    M61,41.6l1.3,2.5c-6.3-1-13.2-0.7-19.4,0.8l-1.1-2.1l-1.7-3.2L29.4,18.7l15.7-8L59,37.8L61,41.6z M75.4,56.8   c-1.3,0-2.4-1.1-2.4-2.4c0-1.3,1.1-2.4,2.4-2.4c1.3,0,2.4,1.1,2.4,2.4C77.8,55.8,76.7,56.8,75.4,56.8z"></path><path fill="none" d="M50.4,32c-0.2-0.2-0.5-0.3-0.9-0.4c-0.4,0-0.7,0-1,0c-0.3,0-0.6,0.1-0.9,0.1c-0.3,0-0.6,0.2-0.9,0.2   c-0.2,0.1-0.5,0.1-0.7,0.1c-0.2,0-0.4,0-0.6,0c-0.1,0-0.2-0.1-0.3-0.3C45,31.6,45,31.5,45,31.3c0-0.1,0.1-0.3,0.1-0.4   c0.2-0.3,0.4-0.4,0.8-0.6c0.4-0.2,0.8-0.3,1.1-0.2c0.5,0.1,0.8,0.5,1,0.9l1.3-0.7c-0.2-0.4-0.5-0.8-0.9-1.2c-0.4-0.3-0.7-0.4-1-0.5   c-0.5-0.1-1,0-1.5,0.1l-0.6-1.2l-1.2,0.6l0.6,1.2c-0.2,0.1-0.2,0.2-0.4,0.3c-0.4,0.2-0.5,0.5-0.7,0.8c-0.2,0.3-0.2,0.7-0.3,1   c0,0.4,0,0.8,0.2,1.1c0.2,0.4,0.3,0.6,0.6,0.8c0.3,0.2,0.6,0.3,0.9,0.3c0.4,0,0.7,0,1,0c0.3,0,0.6-0.1,0.9-0.1   c0.5-0.1,1.1-0.3,1.6-0.4c0.2,0,0.4,0,0.6,0c0,0.1,0.2,0.2,0.3,0.4c0.2,0.4,0.1,0.7,0,1c-0.1,0.2-0.3,0.4-0.4,0.4   c-0.1,0.2-0.3,0.3-0.5,0.4c-0.4,0.2-0.9,0.4-1.4,0.3c-0.3-0.1-0.4-0.1-0.6-0.3c-0.2-0.1-0.3-0.3-0.4-0.6l-0.1-0.3l-1.4,0.7l0.1,0.3   c0.2,0.4,0.5,0.8,0.9,1.1c0.4,0.3,0.8,0.4,1.2,0.5c0.4,0,0.8,0,1.2,0c0.2-0.1,0.4-0.1,0.6-0.2l0.5,1l1.2-0.6l-0.5-1   c0.1,0,0.2-0.2,0.4-0.3c0.3-0.3,0.6-0.5,0.8-0.9c0.2-0.3,0.3-0.7,0.4-1.1c0-0.4,0-0.8-0.3-1.2C50.9,32.6,50.6,32.3,50.4,32z"></path><path d="M53.4,29.8c-1.7-3.4-5.9-4.8-9.3-3c-3.4,1.7-4.8,5.9-3,9.3c1.7,3.4,5.9,4.8,9.3,3C53.7,37.3,55.1,33.2,53.4,29.8z M51,35.2   c-0.2,0.3-0.5,0.6-0.8,0.9c-0.2,0.1-0.3,0.3-0.4,0.3l0.5,1L49.1,38l-0.5-1c-0.2,0.1-0.4,0.1-0.6,0.2c-0.4,0.1-0.8,0.1-1.2,0   c-0.4-0.1-0.8-0.3-1.2-0.5c-0.4-0.3-0.7-0.7-0.9-1.1l-0.1-0.3l1.4-0.7l0.1,0.3c0.1,0.3,0.2,0.4,0.4,0.6c0.2,0.1,0.3,0.2,0.6,0.3   c0.5,0.1,1,0,1.4-0.3c0.2-0.1,0.4-0.2,0.5-0.4c0.2-0.1,0.3-0.3,0.4-0.4c0.2-0.3,0.2-0.7,0-1c-0.1-0.2-0.3-0.3-0.3-0.4   c-0.1,0-0.4,0-0.6,0c-0.5,0-1.1,0.2-1.6,0.4c-0.3,0-0.6,0.1-0.9,0.1c-0.3,0-0.6,0.1-1,0c-0.4,0-0.6-0.1-0.9-0.3   c-0.3-0.2-0.4-0.4-0.6-0.8c-0.2-0.4-0.3-0.8-0.2-1.1c0-0.4,0.1-0.7,0.3-1c0.2-0.3,0.4-0.6,0.7-0.8c0.2-0.1,0.2-0.2,0.4-0.3   l-0.6-1.2l1.2-0.6l0.6,1.2c0.5-0.1,1-0.2,1.5-0.1c0.4,0,0.7,0.2,1,0.5c0.4,0.4,0.7,0.8,0.9,1.2L48.1,31c-0.2-0.4-0.5-0.8-1-0.9   c-0.4,0-0.7,0-1.1,0.2c-0.4,0.2-0.6,0.3-0.8,0.6c0,0.1-0.1,0.3-0.1,0.4c0,0.1,0,0.3,0.1,0.5c0.1,0.2,0.1,0.3,0.3,0.3   c0.1,0,0.4,0,0.6,0c0.2,0,0.5,0,0.7-0.1c0.3,0,0.6-0.2,0.9-0.2c0.3,0,0.6-0.1,0.9-0.1c0.3,0,0.6-0.1,1,0c0.4,0,0.6,0.1,0.9,0.4   c0.3,0.3,0.5,0.6,0.7,1c0.2,0.4,0.3,0.8,0.3,1.2C51.3,34.5,51.2,34.9,51,35.2z"></path></g></svg>