<svg xmlns="http://www.w3.org/2000/svg" xmlns:xlink="http://www.w3.org/1999/xlink" version="1.1" x="0px" y="0px" viewBox="0 0 100 100" enable-background="new 0 0 100 100" xml:space="preserve"><path d="M81.387,42.25c-0.001-0.042-0.002-0.083-0.007-0.125c-0.004-0.046-0.012-0.09-0.02-0.136  c-0.007-0.046-0.015-0.091-0.026-0.135c-0.009-0.037-0.019-0.073-0.029-0.109c-0.013-0.043-0.028-0.085-0.044-0.127  c-0.017-0.044-0.033-0.087-0.052-0.13c-0.018-0.038-0.037-0.074-0.057-0.111c-0.01-0.02-0.016-0.041-0.027-0.06  s-0.027-0.035-0.039-0.053c-0.022-0.036-0.044-0.071-0.068-0.105c-0.026-0.037-0.056-0.072-0.084-0.107  c-0.03-0.036-0.059-0.071-0.091-0.105c-0.026-0.027-0.052-0.054-0.08-0.08c-0.033-0.03-0.066-0.059-0.101-0.087  c-0.037-0.03-0.073-0.061-0.112-0.088c-0.034-0.024-0.069-0.045-0.104-0.067c-0.019-0.012-0.034-0.027-0.053-0.038l-9.907-5.72  l1.607-0.957l6.051-3.604c0.054-0.032,0.099-0.074,0.149-0.11c0.057-0.042,0.118-0.079,0.169-0.125  c0.049-0.044,0.087-0.095,0.13-0.143c0.045-0.049,0.094-0.095,0.134-0.148c0.039-0.053,0.068-0.111,0.102-0.167  c0.033-0.055,0.07-0.107,0.097-0.164c0.028-0.06,0.046-0.123,0.068-0.185c0.021-0.059,0.047-0.115,0.063-0.176  c0.017-0.064,0.022-0.131,0.032-0.197c0.009-0.061,0.024-0.12,0.028-0.181c0.004-0.068-0.003-0.136-0.006-0.204  c-0.002-0.061,0.001-0.121-0.007-0.182c-0.009-0.067-0.03-0.134-0.046-0.201c-0.015-0.061-0.023-0.122-0.043-0.182  c-0.022-0.064-0.057-0.125-0.085-0.187c-0.026-0.058-0.046-0.118-0.079-0.174L66.125,5.768c-0.002-0.003-0.005-0.007-0.007-0.011  c-0.001-0.002-0.002-0.005-0.003-0.007c-0.019-0.032-0.044-0.056-0.064-0.086c-0.05-0.074-0.099-0.149-0.158-0.216  c-0.004-0.005-0.009-0.011-0.014-0.016c-0.039-0.042-0.083-0.076-0.125-0.115c-0.048-0.045-0.093-0.094-0.146-0.134  c-0.007-0.005-0.014-0.011-0.021-0.016c-0.042-0.031-0.088-0.053-0.133-0.081c-0.015-0.009-0.029-0.018-0.044-0.027  C65.365,5.032,65.324,5,65.276,4.978c-0.007-0.004-0.015-0.007-0.022-0.011c-0.036-0.017-0.074-0.026-0.11-0.041  c-0.083-0.034-0.166-0.068-0.252-0.09c-0.027-0.007-0.056-0.008-0.084-0.014c-0.097-0.021-0.194-0.04-0.293-0.046  c-0.049-0.003-0.097,0.004-0.146,0.004c-0.081,0.001-0.162,0-0.242,0.01c-0.071,0.01-0.14,0.031-0.209,0.049  c-0.056,0.014-0.113,0.022-0.169,0.041c-0.129,0.044-0.253,0.102-0.37,0.171c-0.002,0.001-0.003,0.001-0.005,0.002L37.066,20.724  c-0.014,0.008-0.024,0.02-0.038,0.028c-0.083,0.052-0.161,0.109-0.235,0.173c-0.015,0.012-0.031,0.022-0.045,0.035  c-0.048,0.043-0.086,0.094-0.129,0.141c-0.042,0.046-0.089,0.088-0.127,0.138c-0.003,0.004-0.006,0.008-0.009,0.012  c-0.038,0.051-0.065,0.107-0.098,0.161c-0.022,0.037-0.048,0.073-0.068,0.112c-0.009,0.017-0.021,0.031-0.029,0.048  c-0.001,0.003-0.002,0.007-0.004,0.01c-0.027,0.057-0.044,0.119-0.065,0.178c-0.022,0.061-0.049,0.12-0.065,0.182  c-0.016,0.063-0.021,0.128-0.031,0.192c-0.01,0.062-0.025,0.123-0.028,0.186c0,0.007,0,0.014-0.001,0.021  c-0.003,0.055,0.004,0.107,0.006,0.162c0,0.006,0,0.013,0.001,0.02c0.002,0.062-0.001,0.122,0.007,0.183  c0.001,0.008,0.002,0.017,0.004,0.025c0.01,0.065,0.03,0.128,0.046,0.192c0.014,0.055,0.021,0.111,0.04,0.166  c0.002,0.007,0.005,0.014,0.008,0.021c0.03,0.084,0.071,0.162,0.111,0.241c0.017,0.033,0.027,0.068,0.046,0.1l0.009,0.015v0  c0,0,0,0,0,0h0c0,0,0,0.001,0,0.001l3.235,5.542L19.604,40.585c-0.02,0.011-0.034,0.026-0.053,0.038  c-0.035,0.022-0.069,0.043-0.102,0.066c-0.039,0.028-0.076,0.058-0.113,0.088c-0.035,0.029-0.069,0.058-0.102,0.089  c-0.027,0.025-0.053,0.051-0.078,0.078c-0.032,0.034-0.061,0.069-0.09,0.104c-0.03,0.036-0.06,0.072-0.086,0.11  c-0.024,0.033-0.045,0.068-0.067,0.104c-0.012,0.019-0.027,0.034-0.039,0.053c-0.011,0.019-0.016,0.04-0.027,0.06  c-0.02,0.038-0.04,0.075-0.058,0.114c-0.019,0.042-0.035,0.084-0.051,0.127c-0.016,0.042-0.031,0.084-0.044,0.127  c-0.011,0.037-0.021,0.074-0.03,0.111c-0.01,0.044-0.018,0.088-0.025,0.133c-0.008,0.045-0.016,0.09-0.02,0.136  c-0.004,0.042-0.006,0.084-0.007,0.126c0,0.022-0.006,0.042-0.006,0.064v6.789v27.152c0,0.022,0.006,0.044,0.007,0.066  c0.002,0.071,0.011,0.141,0.021,0.211c0.009,0.062,0.017,0.124,0.031,0.184c0.015,0.062,0.036,0.122,0.056,0.182  c0.021,0.062,0.042,0.125,0.069,0.184c0.026,0.058,0.059,0.112,0.091,0.167c0.032,0.056,0.063,0.111,0.1,0.164  c0.038,0.053,0.081,0.101,0.124,0.15c0.043,0.049,0.084,0.098,0.131,0.142c0.044,0.042,0.093,0.079,0.142,0.117  c0.057,0.044,0.114,0.087,0.175,0.126c0.019,0.012,0.034,0.027,0.053,0.038l29.393,16.97c0.002,0.001,0.004,0.001,0.006,0.002  c0.027,0.016,0.057,0.023,0.084,0.037c0.102,0.052,0.208,0.095,0.318,0.129c0.042,0.013,0.084,0.029,0.127,0.04  c0.142,0.034,0.287,0.055,0.438,0.057c0.008,0,0.016,0.003,0.023,0.003c0,0,0.001,0,0.002,0s0.001,0,0.002,0  c0.008,0,0.016-0.003,0.023-0.003c0.151-0.002,0.297-0.023,0.438-0.057c0.043-0.01,0.085-0.026,0.127-0.04  c0.111-0.035,0.217-0.077,0.318-0.129c0.027-0.014,0.057-0.021,0.084-0.037c0.002-0.001,0.004-0.001,0.006-0.002l29.395-16.97  c0.02-0.011,0.034-0.026,0.053-0.038c0.061-0.039,0.118-0.082,0.175-0.126c0.049-0.038,0.098-0.075,0.142-0.117  c0.047-0.044,0.088-0.093,0.131-0.142c0.042-0.049,0.086-0.097,0.124-0.15c0.037-0.052,0.068-0.108,0.1-0.164  c0.032-0.055,0.064-0.109,0.091-0.167c0.027-0.06,0.047-0.122,0.069-0.184c0.021-0.061,0.042-0.12,0.056-0.182  c0.015-0.06,0.022-0.122,0.031-0.184c0.01-0.07,0.019-0.14,0.021-0.211c0.001-0.022,0.007-0.044,0.007-0.066V49.104v-6.788  C81.394,42.293,81.388,42.272,81.387,42.25z M22.606,49.105V45.78l25.393,14.662v5.633v23.688L22.606,75.103V49.105z M51.999,66.075  v-5.633L77.394,45.78v3.324v25.998L51.999,89.763V66.075z M67.285,37.635l8.108,4.681L49.999,56.978L24.603,42.314l17.02-9.849  l0.684,1.172l-0.279-0.161c-0.957-0.553-2.18-0.225-2.732,0.732s-0.225,2.18,0.732,2.732l6.787,3.919c0,0,0.001,0,0.001,0.001  L60,48.598c0.318,0.187,0.667,0.275,1.01,0.275c0.686,0,1.354-0.354,1.727-0.988c0.559-0.953,0.24-2.178-0.713-2.737l-4.435-2.603  l2.928-1.744l6.181-3.681C66.854,37.322,67.05,37.499,67.285,37.635z M57.449,25.27l-14.183-3.583l17.948-10.69L57.449,25.27z   M58.365,29.627c0.001,0,0.001,0.001,0.002,0.001s0.001,0,0.002,0l0.018,0.004c0.165,0.042,0.329,0.062,0.491,0.062  c0.222,0,0.44-0.038,0.645-0.108c0.069-0.024,0.126-0.071,0.192-0.102c0.129-0.061,0.263-0.116,0.376-0.203  c0.064-0.049,0.109-0.12,0.167-0.176c0.097-0.095,0.201-0.183,0.278-0.297c0.047-0.07,0.069-0.159,0.107-0.236  c0.06-0.12,0.131-0.233,0.167-0.368L65.1,11.948l9.295,15.933l-4.348,2.59l-11.575,6.894l-4.818,2.87l-4.361-2.56l-3.163-5.423  c0-0.001-0.001-0.001-0.001-0.002l-1.479-2.537l-1.48-2.539l0,0c0,0,0,0,0-0.001l-0.949-1.625L58.365,29.627z"></path></svg>