<svg xmlns="http://www.w3.org/2000/svg" xmlns:xlink="http://www.w3.org/1999/xlink" version="1.1" x="0px" y="0px" viewBox="0 0 100 100" enable-background="new 0 0 100 100" xml:space="preserve"><path fill-rule="evenodd" clip-rule="evenodd" d="M50.002,16.252c18.634,0,33.748,15.112,33.748,33.75S68.637,83.748,50.002,83.748  c-18.64,0-33.752-15.109-33.752-33.747S31.363,16.252,50.002,16.252L50.002,16.252z M43.023,79.896  c1.248-0.65,2.943-1.243,4.149-1.545c1.78-0.442,0.975-0.801,3.65-3.023c2.67-2.232,3.297-3.834,3.027-4.897  c-0.268-1.071-2.896-1.872-4.498-1.872c-1.647,0-4.182-0.721-5.076-1.432c-1.191-0.941-0.579-2.035-1.775-3.061  c-0.702-0.604-3.979-0.754-4.517-2.232c-0.612-1.672-3.032-1.451-4.145-1.762c-1.427-0.396-1.921-0.861-4.295-0.861  c-2.316,0-2.406,0.447-2.585-1.248c-0.174-1.687-0.833-1.582-0.881-2.788c-0.042-1.206-1.78-1.073-0.933-2.505  s-0.047-1.648-1.384-2.057c-1.338-0.4-2.675-0.176-1.606-2.1c1.069-1.921,4.281-2.637,4.997-1.61  c0.711,1.029,1.026,2.103,1.648,2.727c0.621,0.628,0.264-1.071,0.489-2.322c0.222-1.252,1.959-1.389,2.628-1.879  c0.674-0.492,1.921-3.219,3.616-3.845c1.696-0.626,2.718-0.582,3.834-0.582c1.111,0,1.427-0.713,2.27-1.342  c0.853-0.624,0.853-1.832,0.716-2.503c-0.132-0.671-0.716-1.655-1.78-2.685c-2.515-2.414-2.495-4.997-4.417-0.892  c-0.669,1.432-1.427,2.55-2.006,3.577c-0.579,1.029-0.49-2.058,0-2.592c0.489-0.537,0.132-0.716-0.49-1.79  c-0.626-1.073,0.358-2.861,1.427-2.861c1.069,0,0.984,0.893,2.049,0.448c1.074-0.448,1.253-2.461,1.742-2.282  c0.49,0.179,0.085,1.387,0.18,2.414c0.084,1.031,0.132,0.895,1.243,1.208c1.12,0.313,1.921-0.448,1.789-1.387  c-0.137-0.937-0.065-1.747-0.631-2.771c-0.716-1.309,0.65-1.917-2.044-3.308c-1.337-0.686-0.489,1.79-1.432,2.056  c-0.933,0.269-2.27,1.118-2.585,0.269c-0.312-0.848,0.848-1.34,0.937-2.324c0.038-0.398-0.272-0.673-0.584-0.918  c-0.424-0.339-0.979-0.379-1.45-0.104c-8.533,5.015-14.458,13.999-15.239,24.409c-0.01,0.113-0.005,0.207,0.019,0.315  c0.16,0.944,0.387,1.86,0.669,2.722c0.848,2.595,1.827,1.832,2.807,3.537c0.979,1.695,1.432,0.357,2.186,1.61  c0.763,1.248-0.264,1.648,0.979,2.948c1.253,1.295,2.458,1.205,2.9,1.295c0.443,0.09,0.579,1.789-0.132,2.279  c-0.716,0.494-1.973,5.892-1.295,7.545c0.65,1.584,4.894,3.147,6.061,5.955c0.104,0.264,0.269,0.451,0.509,0.602  c2.558,1.573,5.359,2.788,8.341,3.57C42.425,80.085,42.731,80.047,43.023,79.896L43.023,79.896z M44.361,26.961  c0.089,1.79,1.115,2.416,1.026,3.445c-0.09,1.027,0.132,3.084,0.979,3.174c0.848,0.089,1.695-0.358,2.101-1.43  c0.396-1.073,0.664-2.818,1.469-3.4c0.8-0.582,0.933-1.074-0.357-2.369c-1.29-1.297-1.385-1.387-2.675-1.879  c-0.607-0.231-1.488-0.177-2.341-0.052C40.8,24.99,44.252,24.743,44.361,26.961L44.361,26.961z M70.902,69.707  c-0.037,0.554,0.264,1.053,0.781,1.279c0.514,0.217,1.084,0.084,1.461-0.33c4.906-5.488,7.893-12.731,7.893-20.671  c0-14.102-9.414-26.01-22.295-29.784c-0.48-0.141-0.969-0.005-1.309,0.367c-0.34,0.37-0.434,0.872-0.244,1.34  c0.287,0.735,0.24,1.21,0.24,1.521c0,0.582-0.674,0.582-1.07,0.582c-0.404,0-1.832,0.089-1.385,1.565  c0.443,1.474,0.623,2.324,0.623,3.174s1.158,1.879,2.496,1.924c1.336,0.042,1.516,0.893,1.562,2.1  c0.047,1.206-0.311,1.79-0.668,1.745c-0.359-0.047-0.895,0.045-1.785-1.029c-0.891-1.073-0.533-1.476-1.512-1.519  c-0.984-0.047-0.047,0.937,0.084,1.563c0.133,0.626,0,1.297,0.406,2.011c0.4,0.716,1.158,0.316,2.09,0.045  c0.938-0.266,1.385-0.492,1.254,0.089c-0.137,0.582-0.848,0.895-0.49,1.208c0.354,0.313,0.842,0.805,1.291,1.653  c0.441,0.85-1.291,0.671-1.648,1.298c-0.359,0.628,0.357,1.879,0.621,2.458c0.268,0.582,1.205,0.939,1.922,0.671  c0.711-0.266,1.289-1.208,1.289-1.921c0-0.716,0.043-1.698,0.311-2.505c0.27-0.803,2.986,0,3.166-0.579  c0.178-0.582-0.891-0.537-0.934-1.029c-0.047-0.492-0.848-0.761,0.223-0.761c1.068,0,1.426,0.492,1.963,1.253  c0.533,0.76-0.447,1.384,0.18,1.521c0.621,0.132,0.932-0.226,1.242-0.853c0.316-0.626-0.395-1.34-0.932-2.011  s0.221-0.758,1.027,0.047c0.799,0.803,1.289,0.132,2.4-0.047c1.121-0.179,0.137,0.805,0.674,1.655  c0.531,0.848,2.363,2.237,3.387,3.398c1.025,1.161,1.072,2.414,0.178,2.145c-0.889-0.266-1.826-1.563-2.09-2.369  c-0.27-0.805-0.406-2.055-1.207-1.563c-0.805,0.49-1.205,0.4-2.053,1.295c-0.848,0.895,0.047,1.476-1.158,1.7  c-1.205,0.224-1.648-0.179-2.363-1.163c-0.717-0.984-2.055-0.313-2.592,0.716c-0.531,1.027-3.051,2.534-3.051,3.692  c0,1.156-1.869,5.253-1.779,6.854c0.084,1.602,0.084,2.76,0.352,4.809c0.27,2.048,3.119,4.097,4.809,4.008  c1.695-0.09,3.381-1.96,4.455-3.118c1.064-1.159,2.492,0.358,2.492,2.138c0,1.78,0,2.139-0.09,5.52  C71.09,66.9,71.006,68.305,70.902,69.707z"></path></svg>