<svg xmlns="http://www.w3.org/2000/svg" xmlns:xlink="http://www.w3.org/1999/xlink" version="1.1" x="0px" y="0px" viewBox="0 0 100 100" enable-background="new 0 0 100 100" xml:space="preserve"><path d="M95,31.676c0-0.637-0.318-1.035-0.956-1.035c0,0-12.104,0.717-18.156,0.717H71.27h-17.12c-2.07,0-3.026-0.08-5.177-0.478  l-27.233-5.017c-1.673-0.318-3.186-0.478-4.857,0l-4.141,1.115c-0.479,0.159-0.717,0.637-0.558,1.194l0.159,0.478l-6.689,2.07  c-0.717,0.239-0.876,0.956-0.318,1.672l1.99,2.389c0.638,0.796,1.274,1.115,1.991,1.115h10.353l10.272,5.733  c1.114,0.637,1.911,1.274,2.866,2.389l2.455,3.009l-7.232,6.786c-1.195,1.115-0.558,3.425,1.194,3.743l11.242,1.823l0.702,6.538  l-2.09,5.574h-2.131c-1.194,0-2.07,0.796-2.07,1.752v1.194h5.097c1.194,0,1.593-0.638,1.911-1.514l0.318-0.796l2.15-5.335  c0.318-0.717,0.397-1.115,0.397-1.911l0.479-14.175l19.351-4.937l2.548,7.247l8.839,10.432l-2.119,6.211h-2.021  c-1.194,0-2.07,0.796-2.07,1.752v1.115h4.938c1.193,0,1.592-0.558,1.91-1.434l0.16-0.478l2.149-6.212  c0.558-1.592,0.478-2.07-0.558-3.742l-2.787-4.38c-0.238-0.398-0.397-0.717-0.557-1.434l-0.637-3.185l14.731,12.502L87.4,71.492  h-1.638c-1.194,0-2.07,0.796-2.07,1.752v1.194h5.096c1.195,0,1.752-0.638,1.912-1.514l0.159-0.796l1.433-7.008  c0.398-1.672,0.479-2.07-0.557-3.742L81.144,45.373c-0.557-0.876-0.875-1.434-1.035-2.867l-0.397-3.026  c-0.159-0.956-0.319-1.274-0.956-2.15l-2.73-3.823C82.134,33.491,95,32.393,95,32.393V31.676z M32.967,54.53l4.775-4.383  l0.003,0.003l2.149,3.902l0.247,2.291L32.967,54.53z"></path></svg>