<svg xmlns="http://www.w3.org/2000/svg" xmlns:xlink="http://www.w3.org/1999/xlink" version="1.1" x="0px" y="0px" viewBox="0 0 100 100" enable-background="new 0 0 100 100" xml:space="preserve"><path d="M67.6,61.3c0,0.2,0,0.4,0,0.7h5.2c2.7,0,4.8,2.2,4.8,4.8v2.3c-2.6,0.6-4.5,2.9-4.5,5.7c0,3.2,2.6,5.9,5.9,5.9  c3.2,0,5.9-2.6,5.9-5.9c0-2.7-1.9-5-4.5-5.7v-2.3c0-4.2-3.4-7.6-7.6-7.6h-5.1V61.3z M79,71.7c1.7,0,3.1,1.4,3.1,3.1  s-1.4,3.1-3.1,3.1c-1.7,0-3.1-1.4-3.1-3.1S77.3,71.7,79,71.7z M79,58.2c3.2,0,5.9-2.6,5.9-5.9s-2.6-5.9-5.9-5.9  c-2.7,0-5,1.9-5.7,4.5h-5.7v2.8h5.7C73.9,56.3,76.2,58.2,79,58.2z M79,49.3c1.7,0,3.1,1.4,3.1,3.1c0,1.7-1.4,3.1-3.1,3.1  c-1.7,0-3.1-1.4-3.1-3.1C75.9,50.7,77.3,49.3,79,49.3z M79,24.1c-3.2,0-5.9,2.6-5.9,5.9c0,2.7,1.9,5,4.5,5.7V38  c0,2.7-2.2,4.8-4.8,4.8h-5.2c0.1,0.3,0.1,0.6,0.1,1v1.8h5.1c4.2,0,7.6-3.4,7.6-7.6v-2.3c2.6-0.6,4.5-2.9,4.5-5.7  C84.8,26.7,82.2,24.1,79,24.1z M79,33c-1.7,0-3.1-1.4-3.1-3.1c0-1.7,1.4-3.1,3.1-3.1c1.7,0,3.1,1.4,3.1,3.1C82,31.7,80.6,33,79,33z   M21,58.2c2.7,0,5-1.9,5.7-4.5h5.7v-2.8h-5.7c-0.6-2.6-2.9-4.5-5.7-4.5c-3.2,0-5.9,2.6-5.9,5.9c0,0,0,0,0,0c0,0,0,0,0,0  C15.2,55.6,17.8,58.2,21,58.2z M21,49.3c1.7,0,3,1.4,3.1,3c0,1.7-1.4,3-3.1,3s-3-1.4-3.1-3C18,50.7,19.4,49.3,21,49.3z M21,80.6  c3.2,0,5.9-2.6,5.9-5.9c0-2.7-1.9-5-4.5-5.7v-2.3c0-2.7,2.2-4.8,4.8-4.8h5.2c0-0.2,0-0.4,0-0.6v-2.2h-5.1c-4.2,0-7.6,3.4-7.6,7.6  v2.3c-2.6,0.6-4.5,2.9-4.5,5.7C15.2,78,17.8,80.6,21,80.6z M21,71.7c1.7,0,3.1,1.4,3.1,3.1s-1.4,3.1-3.1,3.1c-1.7,0-3.1-1.4-3.1-3.1  S19.4,71.7,21,71.7z M15.2,30c0,2.7,1.9,5,4.5,5.7v2.3c0,4.2,3.4,7.6,7.6,7.6h5.1v-1.8c0-0.3,0-0.7,0.1-1h-5.2  c-2.7,0-4.8-2.2-4.8-4.8v-2.3c2.6-0.6,4.5-2.9,4.5-5.7c0-3.2-2.6-5.9-5.9-5.9S15.2,26.7,15.2,30z M21,26.9c1.7,0,3.1,1.4,3.1,3.1  c0,1.7-1.4,3.1-3.1,3.1C19.4,33,18,31.6,18,30C18,28.3,19.4,26.9,21,26.9z M48.6,66.7v13.1c-2.6,0.6-4.5,2.9-4.5,5.7  c0,3.2,2.6,5.9,5.9,5.9l0,0c0,0,0,0,0,0c3.2,0,5.9-2.6,5.9-5.9c0-2.7-1.9-5-4.5-5.7V66.7H48.6z M53,85.5c0,1.7-1.4,3-3,3.1  c-1.7,0-3-1.4-3-3.1s1.4-3,3-3.1C51.7,82.4,53,83.8,53,85.5z M61,85.8V66.6c-0.2,0-0.4,0-0.7,0h-2.1v19.1c0,4.2,3.4,7.6,7.6,7.6h2.3  c0.6,2.6,2.9,4.5,5.7,4.5c3.2,0,5.9-2.6,5.9-5.9c0-3.2-2.6-5.9-5.9-5.9c-2.7,0-5,1.9-5.7,4.5h-2.3C63.2,90.6,61,88.4,61,85.8z   M73.8,88.9c1.7,0,3.1,1.4,3.1,3.1c0,1.7-1.4,3.1-3.1,3.1c-1.7,0-3.1-1.4-3.1-3.1C70.8,90.3,72.1,88.9,73.8,88.9z M39,85.8  c0,2.7-2.2,4.8-4.8,4.8h-2.3c-0.6-2.6-2.9-4.5-5.7-4.5c-3.2,0-5.9,2.6-5.9,5.9c0,3.2,2.6,5.9,5.9,5.9c2.7,0,5-1.9,5.7-4.5h2.3  c4.2,0,7.6-3.4,7.6-7.6V66.7h-2.1c-0.2,0-0.4,0-0.7,0V85.8z M26.2,95c-1.7,0-3.1-1.4-3.1-3.1c0-1.7,1.4-3.1,3.1-3.1  c1.7,0,3.1,1.4,3.1,3.1C29.2,93.7,27.9,95,26.2,95z M49.9,22.1c0.1,0,0.2,0,0.2,0h0c0.4,0,0.9,0,1.3,0.1v-2c2.6-0.6,4.5-2.9,4.5-5.7  c0-3.2-2.6-5.9-5.9-5.9c0,0,0,0,0,0c0,0,0,0,0,0c-3.2,0-5.9,2.6-5.9,5.9c0,2.7,1.9,5,4.5,5.7v2C49,22.2,49.4,22.1,49.9,22.1z   M47,14.5c0-1.7,1.4-3,3-3.1c1.7,0,3,1.4,3,3.1s-1.4,3-3,3.1C48.3,17.6,47,16.2,47,14.5z M34.2,6.6h-2.3c-0.6-2.6-2.9-4.5-5.7-4.5  c-3.2,0-5.9,2.6-5.9,5.9c0,3.2,2.6,5.9,5.9,5.9c2.7,0,5-1.9,5.7-4.5h2.3c2.7,0,4.8,2.2,4.8,4.8v13.3c0.8-1,1.8-1.9,2.8-2.7V14.2  C41.8,10,38.4,6.6,34.2,6.6z M26.2,11.1c-1.7,0-3.1-1.4-3.1-3.1c0-1.7,1.4-3.1,3.1-3.1s3.1,1.4,3.1,3.1  C29.2,9.7,27.9,11.1,26.2,11.1z M73.8,2.2c-2.7,0-5,1.9-5.7,4.5h-2.3c-4.2,0-7.6,3.4-7.6,7.6v10.6c1,0.8,2,1.6,2.8,2.6V14.2  c0-2.7,2.2-4.8,4.8-4.8h2.3c0.6,2.6,2.9,4.5,5.7,4.5c3.2,0,5.9-2.6,5.9-5.9C79.7,4.8,77,2.2,73.8,2.2z M73.8,11.1  c-1.7,0-3.1-1.4-3.1-3.1c0-1.7,1.4-3.1,3.1-3.1c1.7,0,3.1,1.4,3.1,3.1C76.9,9.7,75.5,11.1,73.8,11.1z M38,36.4v4.2h-0.3  c-1.8,0-3.2,1.4-3.2,3.2v17.5c0,1.8,1.4,3.2,3.2,3.2h24.5c1.8,0,3.2-1.4,3.2-3.2V43.7c0-1.8-1.4-3.2-3.2-3.2h-0.1v-4.2  c0-6.6-5.4-12.1-12.1-12.1C43.4,24.3,38,29.7,38,36.4z M51.9,53.3c-0.2,0.2-0.3,0.4-0.3,0.6c0,1.3,0,2.6,0,3.9v0  c0,0.5-0.2,1.1-0.7,1.3c-1.1,0.6-2.3-0.2-2.3-1.3c0,0,0,0,0,0c0-1.3,0-2.6,0-3.9c0-0.3-0.1-0.4-0.3-0.6c-1.2-0.9-1.6-2.3-1-3.6  c0.6-1.3,2-2,3.3-1.7c1.4,0.3,2.5,1.5,2.5,2.9C53.1,51.9,52.7,52.7,51.9,53.3z M43.3,36.4c0-3.7,3-6.8,6.8-6.8s6.8,3,6.8,6.8v4.2  H43.3V36.4z"></path></svg>