<svg xmlns="http://www.w3.org/2000/svg" xmlns:xlink="http://www.w3.org/1999/xlink" version="1.1" x="0px" y="0px" viewBox="0 0 50 50" enable-background="new 0 0 50 50" xml:space="preserve"><g><path fill-rule="evenodd" clip-rule="evenodd" fill="#000000" d="M21.009,3.27c5.586,0,10.235,1.785,10.235,3.944   c0,1.079-1.174,2.063-3.004,2.77c-0.471,0.185,1.172,4.883,0.654,5.022c-0.563,0.141-3.332-4.271-3.942-4.132   c-1.221,0.189-2.532,0.278-3.943,0.278c-5.63,0-10.23-1.781-10.23-3.938C10.779,5.055,15.379,3.27,21.009,3.27L21.009,3.27z    M32.789,14.16c-1.641,0-3.002,1.314-3.002,2.908v8.638c0,1.222,0.799,2.3,1.877,2.722v-8.213c0-0.425,0.377-0.798,0.797-0.798l0,0   c0.473,0,0.801,0.373,0.801,0.798v8.447h8.119v-8.447c0-0.425,0.375-0.798,0.797-0.798l0,0c0.426,0,0.799,0.373,0.799,0.798v8.166   c1.031-0.469,1.736-1.504,1.736-2.675v-8.638c0-1.594-1.363-2.908-3.004-2.908H32.789L32.789,14.16z M37.25,5.429   c2.113,0,3.803,1.691,3.803,3.803c0,2.11-1.689,3.802-3.803,3.802c-2.111,0-3.803-1.691-3.803-3.802   C33.447,7.12,35.139,5.429,37.25,5.429L37.25,5.429z M9.467,32.277h8.915c1.688,0,3.051,1.313,3.051,2.91v8.635   c0,1.174-0.75,2.16-1.783,2.629v-8.12c0-0.47-0.328-0.798-0.797-0.798l0,0c-0.425,0-0.798,0.328-0.798,0.798v8.399H9.981v-8.399   c0-0.47-0.376-0.798-0.798-0.798l0,0c-0.469,0-0.798,0.328-0.798,0.798v8.214C7.26,46.122,6.46,45.043,6.46,43.822v-8.635   C6.46,33.59,7.825,32.277,9.467,32.277L9.467,32.277z M13.924,23.499c2.111,0,3.849,1.737,3.849,3.851s-1.737,3.799-3.849,3.799   s-3.802-1.686-3.802-3.799S11.813,23.499,13.924,23.499L13.924,23.499z M15.517,14.631c-5.631,0-10.23,1.78-10.23,3.94   c0,1.082,1.174,2.065,3.007,2.771c0.467,0.185-1.222,4.881-0.657,5.021c0.514,0.139,3.285-4.271,3.894-4.176   c1.221,0.232,2.581,0.329,3.987,0.329c5.586,0,10.188-1.786,10.188-3.945C25.705,16.411,21.103,14.631,15.517,14.631z"></path></g></svg>