<?xml version="1.0" encoding="utf-8"?>
<!-- Generator: Adobe Illustrator 16.0.0, SVG Export Plug-In . SVG Version: 6.00 Build 0)  -->
<!DOCTYPE svg PUBLIC "-//W3C//DTD SVG 1.1//EN" "http://www.w3.org/Graphics/SVG/1.1/DTD/svg11.dtd">
<svg version="1.1" id="Layer_1" xmlns="http://www.w3.org/2000/svg" xmlns:xlink="http://www.w3.org/1999/xlink" x="0px" y="0px"
	 width="100px" height="79.5px" viewBox="0 0 100 79.5" enable-background="new 0 0 100 79.5" xml:space="preserve">
<path d="M48.575,41.85c-6.563-9.325-14.324-15.59-19.307-15.59c-1.079,0-2.026,0.28-2.825,0.841
	c-0.611,0.441-1.091,1.023-1.435,1.716c-0.006,0.013-0.02,0.019-0.025,0.032L1.151,73.633c-0.258,0.479-0.22,1.066,0.093,1.513
	c0.272,0.388,0.718,0.616,1.184,0.616c0.068,0,0.137-0.008,0.208-0.016l50.373-7.272c0.162-0.026,0.305-0.091,0.441-0.163
	c0.572-0.137,1.102-0.34,1.541-0.655C60.083,64.061,55.489,51.677,48.575,41.85z M53.308,65.298
	c-0.195,0.141-0.453,0.233-0.767,0.273c-3.208,0.449-10.485-4.654-17.298-14.339c-6.627-9.424-9.111-18.115-7.675-21.083
	c0.141-0.299,0.326-0.526,0.555-0.689c0.295-0.208,0.669-0.306,1.149-0.306c3.312,0,10.374,5.033,16.939,14.36
	C54.013,54.609,55.612,63.673,53.308,65.298z"/>
<g>
	<path d="M58.467,37.144c-0.349,0-0.698-0.007-1.049-0.026c-0.801-0.043-1.415-0.723-1.37-1.519c0.042-0.8,0.771-1.429,1.519-1.37
		c9.351,0.512,17.303-6.7,17.792-16.016c0.387-7.298-5.24-13.548-12.537-13.93c-2.798-0.15-5.396,0.792-7.442,2.633
		c-2.046,1.843-3.253,4.372-3.398,7.123c-0.111,2.125,0.608,4.165,2.032,5.747c1.425,1.581,3.376,2.513,5.501,2.625
		c1.581,0.098,3.177-0.465,4.385-1.552c1.206-1.087,1.915-2.579,2.003-4.2c0.042-0.799,0.782-1.432,1.519-1.369
		c0.8,0.043,1.411,0.724,1.369,1.519c-0.125,2.392-1.175,4.594-2.957,6.197c-1.778,1.604-4.062,2.425-6.472,2.294
		c-2.897-0.152-5.562-1.425-7.498-3.579c-1.941-2.155-2.923-4.938-2.772-7.835c0.186-3.521,1.731-6.762,4.354-9.121
		c2.621-2.361,5.996-3.545,9.526-3.373c8.891,0.467,15.744,8.082,15.277,16.97C77.694,28.925,68.922,37.144,58.467,37.144z"/>
</g>
<g>
	<path d="M91.32,56.119c-2.99,0-5.427-2.435-5.427-5.43c0-2.519,2.048-4.565,4.564-4.565c0.62,0,1.12,0.499,1.12,1.118
		c0,0.62-0.5,1.118-1.12,1.118c-1.284,0-2.327,1.045-2.327,2.33c0,1.763,1.429,3.194,3.189,3.194c2.357,0,4.271-1.918,4.271-4.273
		c0-3.096-2.52-5.616-5.616-5.616c-4.028,0-7.303,3.274-7.303,7.302c0,0.619-0.501,1.118-1.119,1.118
		c-0.62,0-1.118-0.499-1.118-1.118c0-5.26,4.279-9.539,9.54-9.539c4.33,0,7.853,3.522,7.853,7.853
		C97.828,53.202,94.908,56.119,91.32,56.119z"/>
</g>
<g>
	<path d="M65.765,50.057c-1.769,0-3.208-1.438-3.208-3.209c0-1.771,1.439-3.208,3.208-3.208c1.772,0,3.208,1.438,3.208,3.208
		C68.973,48.618,67.535,50.057,65.765,50.057z M65.765,45.875c-0.535,0-0.971,0.437-0.971,0.972s0.436,0.973,0.971,0.973
		c0.536,0,0.974-0.437,0.974-0.973S66.301,45.875,65.765,45.875z"/>
</g>
<g>
	<path d="M77.057,37.936c-0.398,0-0.785-0.216-0.987-0.592c-0.294-0.546-0.086-1.224,0.461-1.515l8.988-4.805
		c0.545-0.295,1.222-0.087,1.516,0.459c0.293,0.546,0.089,1.225-0.458,1.516l-8.99,4.804C77.416,37.893,77.234,37.936,77.057,37.936
		z"/>
</g>
<g>
	<path d="M38.113,22.136c-0.108,0-0.216-0.017-0.324-0.048c-0.592-0.18-0.925-0.806-0.746-1.396l2.385-7.86
		c0.181-0.59,0.811-0.927,1.397-0.746c0.592,0.181,0.925,0.807,0.746,1.396l-2.386,7.858C39.038,21.824,38.595,22.136,38.113,22.136
		z"/>
</g>
<g>
	<path d="M74.46,61.75c-0.087,0-0.173-0.01-0.263-0.033l-10.786-2.612c-0.6-0.145-0.97-0.75-0.822-1.352
		c0.145-0.6,0.737-0.982,1.352-0.822l10.784,2.612c0.601,0.146,0.972,0.751,0.823,1.351C75.425,61.405,74.969,61.75,74.46,61.75z"/>
</g>
</svg>
